%TF.GenerationSoftware,KiCad,Pcbnew,(5.1.7)-1*%
%TF.CreationDate,2023-05-20T09:23:02-06:00*%
%TF.ProjectId,AMPE32T30,414d5045-3332-4543-9330-2e6b69636164,rev?*%
%TF.SameCoordinates,PX76efc10PY4eb9cf0*%
%TF.FileFunction,Copper,L1,Top*%
%TF.FilePolarity,Positive*%
%FSLAX46Y46*%
G04 Gerber Fmt 4.6, Leading zero omitted, Abs format (unit mm)*
G04 Created by KiCad (PCBNEW (5.1.7)-1) date 2023-05-20 09:23:02*
%MOMM*%
%LPD*%
G01*
G04 APERTURE LIST*
%TA.AperFunction,ComponentPad*%
%ADD10O,1.700000X1.700000*%
%TD*%
%TA.AperFunction,ComponentPad*%
%ADD11R,1.700000X1.700000*%
%TD*%
%TA.AperFunction,ComponentPad*%
%ADD12C,4.400000*%
%TD*%
%TA.AperFunction,Conductor*%
%ADD13C,0.800000*%
%TD*%
%TA.AperFunction,Conductor*%
%ADD14C,0.400000*%
%TD*%
%TA.AperFunction,Conductor*%
%ADD15C,0.254000*%
%TD*%
%TA.AperFunction,Conductor*%
%ADD16C,0.100000*%
%TD*%
G04 APERTURE END LIST*
D10*
%TO.P,J3,6*%
%TO.N,/RX*%
X8128000Y49530000D03*
%TO.P,J3,5*%
%TO.N,/AREF*%
X8128000Y52070000D03*
%TO.P,J3,4*%
%TO.N,/3V3*%
X8128000Y54610000D03*
%TO.P,J3,3*%
%TO.N,/VCC*%
X8128000Y57150000D03*
%TO.P,J3,2*%
%TO.N,/GND*%
X8128000Y59690000D03*
D11*
%TO.P,J3,1*%
%TO.N,/VIN*%
X8128000Y62230000D03*
%TD*%
D10*
%TO.P,J1,6*%
%TO.N,/RX*%
X4318000Y49530000D03*
%TO.P,J1,5*%
%TO.N,/AREF*%
X4318000Y52070000D03*
%TO.P,J1,4*%
%TO.N,/3V3*%
X4318000Y54610000D03*
%TO.P,J1,3*%
%TO.N,/VCC*%
X4318000Y57150000D03*
%TO.P,J1,2*%
%TO.N,/GND*%
X4318000Y59690000D03*
D11*
%TO.P,J1,1*%
%TO.N,/VIN*%
X4318000Y62230000D03*
%TD*%
D10*
%TO.P,J5,16*%
%TO.N,/LT*%
X28448000Y4572000D03*
%TO.P,J5,15*%
%TO.N,/BL*%
X28448000Y7112000D03*
%TO.P,J5,14*%
%TO.N,/DW*%
X25908000Y4572000D03*
%TO.P,J5,13*%
%TO.N,/CS*%
X25908000Y7112000D03*
%TO.P,J5,12*%
%TO.N,/UP*%
X23368000Y4572000D03*
%TO.P,J5,11*%
%TO.N,/RS*%
X23368000Y7112000D03*
%TO.P,J5,10*%
%TO.N,/RT*%
X20828000Y4572000D03*
%TO.P,J5,9*%
%TO.N,/RES*%
X20828000Y7112000D03*
%TO.P,J5,8*%
%TO.N,/OK*%
X18288000Y4572000D03*
%TO.P,J5,7*%
%TO.N,/SDA*%
X18288000Y7112000D03*
%TO.P,J5,6*%
%TO.N,/SET*%
X15748000Y4572000D03*
%TO.P,J5,5*%
%TO.N,/SCK*%
X15748000Y7112000D03*
%TO.P,J5,4*%
%TO.N,/VCC*%
X13208000Y4572000D03*
%TO.P,J5,3*%
X13208000Y7112000D03*
%TO.P,J5,2*%
%TO.N,/GND*%
X10668000Y4572000D03*
D11*
%TO.P,J5,1*%
X10668000Y7112000D03*
%TD*%
D10*
%TO.P,MP,4*%
%TO.N,N/C*%
X18288000Y59436000D03*
%TO.P,MP,3*%
X20828000Y59436000D03*
%TO.P,MP,2*%
X23368000Y59436000D03*
D11*
%TO.P,MP,1*%
X25908000Y59436000D03*
%TD*%
%TO.P,R1,2*%
%TO.N,/RXR*%
%TA.AperFunction,SMDPad,CuDef*%
G36*
G01*
X16364000Y25088001D02*
X16364000Y24187999D01*
G75*
G02*
X16114001Y23938000I-249999J0D01*
G01*
X15413999Y23938000D01*
G75*
G02*
X15164000Y24187999I0J249999D01*
G01*
X15164000Y25088001D01*
G75*
G02*
X15413999Y25338000I249999J0D01*
G01*
X16114001Y25338000D01*
G75*
G02*
X16364000Y25088001I0J-249999D01*
G01*
G37*
%TD.AperFunction*%
%TO.P,R1,1*%
%TO.N,/RXD*%
%TA.AperFunction,SMDPad,CuDef*%
G36*
G01*
X18364000Y25088001D02*
X18364000Y24187999D01*
G75*
G02*
X18114001Y23938000I-249999J0D01*
G01*
X17413999Y23938000D01*
G75*
G02*
X17164000Y24187999I0J249999D01*
G01*
X17164000Y25088001D01*
G75*
G02*
X17413999Y25338000I249999J0D01*
G01*
X18114001Y25338000D01*
G75*
G02*
X18364000Y25088001I0J-249999D01*
G01*
G37*
%TD.AperFunction*%
%TD*%
%TO.P,R2,2*%
%TO.N,/TXR*%
%TA.AperFunction,SMDPad,CuDef*%
G36*
G01*
X18904000Y27882001D02*
X18904000Y26981999D01*
G75*
G02*
X18654001Y26732000I-249999J0D01*
G01*
X17953999Y26732000D01*
G75*
G02*
X17704000Y26981999I0J249999D01*
G01*
X17704000Y27882001D01*
G75*
G02*
X17953999Y28132000I249999J0D01*
G01*
X18654001Y28132000D01*
G75*
G02*
X18904000Y27882001I0J-249999D01*
G01*
G37*
%TD.AperFunction*%
%TO.P,R2,1*%
%TO.N,/TXD*%
%TA.AperFunction,SMDPad,CuDef*%
G36*
G01*
X20904000Y27882001D02*
X20904000Y26981999D01*
G75*
G02*
X20654001Y26732000I-249999J0D01*
G01*
X19953999Y26732000D01*
G75*
G02*
X19704000Y26981999I0J249999D01*
G01*
X19704000Y27882001D01*
G75*
G02*
X19953999Y28132000I249999J0D01*
G01*
X20654001Y28132000D01*
G75*
G02*
X20904000Y27882001I0J-249999D01*
G01*
G37*
%TD.AperFunction*%
%TD*%
D12*
%TO.P,e,1*%
%TO.N,N/C*%
X3048000Y7366000D03*
%TD*%
%TO.P,f,1*%
%TO.N,N/C*%
X34544000Y55626000D03*
%TD*%
D10*
%TO.P,J6,2*%
%TO.N,/VCC*%
X12954000Y18034000D03*
D11*
%TO.P,J6,1*%
%TO.N,/GND*%
X10414000Y18034000D03*
%TD*%
D10*
%TO.P,J7,14*%
%TO.N,/RXR*%
X1778000Y31750000D03*
%TO.P,J7,13*%
%TO.N,/TXR*%
X4318000Y31750000D03*
%TO.P,J7,12*%
%TO.N,/SET*%
X1778000Y34290000D03*
%TO.P,J7,11*%
%TO.N,/OK*%
X4318000Y34290000D03*
%TO.P,J7,10*%
%TO.N,/RT*%
X1778000Y36830000D03*
%TO.P,J7,9*%
%TO.N,/UP*%
X4318000Y36830000D03*
%TO.P,J7,8*%
%TO.N,/M1*%
X1778000Y39370000D03*
%TO.P,J7,7*%
%TO.N,/M0*%
X4318000Y39370000D03*
%TO.P,J7,6*%
%TO.N,/CS*%
X1778000Y41910000D03*
%TO.P,J7,5*%
%TO.N,/RS*%
X4318000Y41910000D03*
%TO.P,J7,4*%
%TO.N,/RES*%
X1778000Y44450000D03*
%TO.P,J7,3*%
%TO.N,/BL*%
X4318000Y44450000D03*
%TO.P,J7,2*%
%TO.N,/DW*%
X1778000Y46990000D03*
D11*
%TO.P,J7,1*%
%TO.N,/LT*%
X4318000Y46990000D03*
%TD*%
D10*
%TO.P,J2,6*%
%TO.N,/GND*%
X14478000Y11430000D03*
%TO.P,J2,5*%
%TO.N,Net-(J2-Pad5)*%
X14478000Y13970000D03*
%TO.P,J2,4*%
%TO.N,/SDA*%
X17018000Y11430000D03*
%TO.P,J2,3*%
%TO.N,/SCK*%
X17018000Y13970000D03*
%TO.P,J2,2*%
%TO.N,/VCC*%
X19558000Y11430000D03*
D11*
%TO.P,J2,1*%
%TO.N,/AUX*%
X19558000Y13970000D03*
%TD*%
D10*
%TO.P,J4,7*%
%TO.N,/M0*%
X25654000Y20828000D03*
%TO.P,J4,6*%
%TO.N,/M1*%
X23114000Y20828000D03*
%TO.P,J4,5*%
%TO.N,/TXD*%
X20574000Y20828000D03*
%TO.P,J4,4*%
%TO.N,/RXD*%
X18034000Y20828000D03*
%TO.P,J4,3*%
%TO.N,/AUX*%
X15494000Y20828000D03*
%TO.P,J4,2*%
%TO.N,/VCC*%
X12954000Y20828000D03*
D11*
%TO.P,J4,1*%
%TO.N,/GND*%
X10414000Y20828000D03*
%TD*%
D13*
%TO.N,/GND*%
X10668000Y7112000D02*
X10668000Y4572000D01*
X10668000Y4572000D02*
X10668000Y6222000D01*
X10668000Y7112000D02*
X10668000Y11430000D01*
X14478000Y11430000D02*
X10668000Y11430000D01*
X10414000Y20828000D02*
X10414000Y18034000D01*
X10414000Y15245610D02*
X10414000Y18034000D01*
X7617979Y12449590D02*
X10414000Y15245610D01*
X30645580Y921969D02*
X9922418Y921969D01*
X31704066Y28493934D02*
X31704063Y9948634D01*
X32698041Y4426428D02*
X32698041Y2974430D01*
X31704063Y9948634D02*
X32698039Y8954658D01*
X32698041Y2974430D02*
X30645580Y921969D01*
X32698039Y8954658D02*
X32698039Y4426430D01*
X32698039Y4426430D02*
X32698041Y4426428D01*
X9922418Y921969D02*
X7617979Y3226408D01*
X7617979Y3226408D02*
X7617979Y12449590D01*
X4318000Y59690000D02*
X8128000Y59690000D01*
X12446000Y56574081D02*
X12446000Y47752000D01*
X9330081Y59690000D02*
X12446000Y56574081D01*
X8128000Y59690000D02*
X9330081Y59690000D01*
X12446000Y47752000D02*
X31704066Y28493934D01*
D14*
%TO.N,/AUX*%
X19558000Y13970000D02*
X20152542Y13970000D01*
%TO.N,/RES*%
X20138002Y7112000D02*
X20828000Y7112000D01*
X30275520Y8831564D02*
X30275523Y8831564D01*
X29904047Y27748343D02*
X29904047Y23435953D01*
X9412389Y48240001D02*
X29904047Y27748343D01*
X527999Y45700001D02*
X527999Y48025999D01*
X29904047Y23435953D02*
X29904048Y23435952D01*
X527999Y48025999D02*
X742001Y48240001D01*
X1778000Y44450000D02*
X527999Y45700001D01*
X29904048Y23435952D02*
X29904048Y23701204D01*
X742001Y48240001D02*
X9412389Y48240001D01*
X20828000Y6517458D02*
X20828000Y7112000D01*
X19538001Y5227459D02*
X20828000Y6517458D01*
X19538001Y2813999D02*
X19538001Y5227459D01*
X19630011Y2721989D02*
X19538001Y2813999D01*
X29899989Y2721989D02*
X19630011Y2721989D01*
X30898021Y3720021D02*
X29899989Y2721989D01*
X30898021Y8209066D02*
X30898021Y3720021D01*
X29904047Y9203040D02*
X30898021Y8209066D01*
X29904048Y23435952D02*
X29904047Y9203040D01*
%TO.N,/SDA*%
X18288000Y7112000D02*
X18669000Y7112000D01*
X17018000Y11557000D02*
X17018000Y11430000D01*
X18288000Y7112000D02*
X18542000Y7112000D01*
X18288000Y7533458D02*
X18288000Y7112000D01*
X18288000Y7725530D02*
X18288000Y7112000D01*
X17018000Y11430000D02*
X16764000Y11430000D01*
X17018000Y11588544D02*
X17018000Y11430000D01*
X17018000Y11430000D02*
X17272000Y11430000D01*
%TO.N,/RS*%
X23368000Y7112000D02*
X23368000Y6422002D01*
%TO.N,/AUX*%
X19558000Y13970000D02*
X19558000Y13462000D01*
X19558000Y13970000D02*
X19304000Y13970000D01*
X19558000Y13970000D02*
X18868002Y13970000D01*
X19558000Y13970000D02*
X19786533Y13970000D01*
D13*
%TO.N,/VCC*%
X13208000Y7112000D02*
X13208000Y4572000D01*
X19558000Y11430000D02*
X19304000Y11430000D01*
X13208000Y8890000D02*
X13208000Y7112000D01*
X17949375Y9379989D02*
X13697989Y9379989D01*
X19088010Y10518624D02*
X17949375Y9379989D01*
X13697989Y9379989D02*
X13208000Y8890000D01*
X19088010Y10960010D02*
X19088010Y10518624D01*
X19558000Y11430000D02*
X19088010Y10960010D01*
D14*
%TO.N,/RXR*%
X1778000Y31750000D02*
X1778000Y31409458D01*
%TO.N,/TXR*%
X4479286Y31750000D02*
X4318000Y31750000D01*
%TO.N,/UP*%
X4069468Y36229990D02*
X3893729Y36405729D01*
%TO.N,/SDA*%
X17598002Y7112000D02*
X18288000Y7112000D01*
X15767999Y10179999D02*
X17018000Y11430000D01*
X13366615Y10179999D02*
X15767999Y10179999D01*
X11957999Y8771383D02*
X13366615Y10179999D01*
X11957999Y3971999D02*
X11957999Y8771383D01*
X11938000Y3952000D02*
X11957999Y3971999D01*
X11938000Y3321999D02*
X11938000Y3952000D01*
X14478000Y3321999D02*
X11938000Y3321999D01*
X14478000Y5842000D02*
X14478000Y3321999D01*
X17018000Y5842000D02*
X14478000Y5842000D01*
X18288000Y7112000D02*
X17018000Y5842000D01*
%TO.N,/SCK*%
X20118003Y12719999D02*
X20808001Y12030001D01*
X18268001Y12719999D02*
X20118003Y12719999D01*
X17018000Y13970000D02*
X18268001Y12719999D01*
X20808001Y10829999D02*
X20808001Y12030001D01*
X18557981Y8579979D02*
X20808001Y10829999D01*
X17215979Y8579979D02*
X18557981Y8579979D01*
X15748000Y7112000D02*
X17215979Y8579979D01*
%TO.N,/RS*%
X12348222Y41910000D02*
X27504011Y26754211D01*
X27504011Y26754211D02*
X27504011Y8708011D01*
X27504011Y8708011D02*
X27158001Y8362001D01*
X4318000Y41910000D02*
X12348222Y41910000D01*
X23368000Y7025458D02*
X23368000Y7112000D01*
X22117999Y3536001D02*
X22332001Y3321999D01*
X22117999Y5172001D02*
X22117999Y3536001D01*
X23368000Y6422002D02*
X22117999Y5172001D01*
X22332001Y3321999D02*
X24638000Y3321999D01*
X24638000Y3321999D02*
X24638000Y5334000D01*
X25165999Y5861999D02*
X26943999Y5861999D01*
X24638000Y5334000D02*
X25165999Y5861999D01*
X27158001Y6076001D02*
X27158001Y8362001D01*
X26943999Y5861999D02*
X27158001Y6076001D01*
%TO.N,/CS*%
X25908000Y7112000D02*
X25654000Y7112000D01*
X3028001Y40659999D02*
X1778000Y41910000D01*
X25908000Y7960542D02*
X26904001Y8956543D01*
X26904001Y8956543D02*
X26904001Y22458541D01*
X25908000Y7112000D02*
X25908000Y7960542D01*
X3028001Y40659999D02*
X12749681Y40659999D01*
X12749681Y40659999D02*
X26904001Y26505679D01*
X26904001Y26505679D02*
X26904001Y22352000D01*
%TO.N,/M0*%
X25654000Y20828000D02*
X25654000Y26907138D01*
X13191138Y39370000D02*
X4318000Y39370000D01*
X25654000Y26907138D02*
X13191138Y39370000D01*
%TO.N,/M1*%
X23114000Y20828000D02*
X23114000Y24551458D01*
X3067999Y38080001D02*
X13632595Y38080001D01*
X1778000Y39370000D02*
X3067999Y38080001D01*
X23114000Y28598596D02*
X23114000Y24551458D01*
X13632595Y38080001D02*
X23114000Y28598596D01*
%TO.N,/TXD*%
X20558000Y20844000D02*
X20574000Y20828000D01*
X20574000Y27162000D02*
X20304000Y27432000D01*
X20574000Y20828000D02*
X20574000Y27162000D01*
%TO.N,/RXD*%
X18034000Y24368000D02*
X17764000Y24638000D01*
X18034000Y20828000D02*
X18034000Y24368000D01*
%TO.N,/AUX*%
X15494000Y18034000D02*
X19558000Y13970000D01*
X15494000Y20828000D02*
X15494000Y18034000D01*
%TO.N,/BL*%
X28448000Y7112000D02*
X28448000Y7366000D01*
X28448000Y7112000D02*
X28448000Y7471165D01*
X28448000Y7270544D02*
X28448000Y7112000D01*
X28448000Y8113461D02*
X28448000Y7112000D01*
X28104020Y8457441D02*
X28448000Y8113461D01*
X28104021Y27002743D02*
X28104020Y8457441D01*
X10656764Y44450000D02*
X28104021Y27002743D01*
X4318000Y44450000D02*
X10656764Y44450000D01*
D13*
%TO.N,/VCC*%
X12954000Y20828000D02*
X12954000Y18034000D01*
X12954000Y16371384D02*
X12954000Y18034000D01*
X8617989Y12035373D02*
X12954000Y16371384D01*
X31698031Y3388647D02*
X30231363Y1921979D01*
X30704057Y28079717D02*
X30704057Y24032577D01*
X30231363Y1921979D02*
X10336635Y1921979D01*
X30704055Y9534416D02*
X31698031Y8540440D01*
X30704057Y24032577D02*
X30704055Y17542503D01*
X10336635Y1921979D02*
X8617989Y3640625D01*
X30704055Y17542503D02*
X30704055Y9534416D01*
X31698031Y8540440D02*
X31698031Y3388647D01*
X8617989Y3640625D02*
X8617989Y12035373D01*
X4318000Y57150000D02*
X8128000Y57150000D01*
X8128000Y57150000D02*
X9398000Y57150000D01*
X11430000Y55118000D02*
X11430000Y47353774D01*
X9398000Y57150000D02*
X11430000Y55118000D01*
X11430000Y47353774D02*
X30704057Y28079717D01*
D14*
%TO.N,/RXR*%
X1778000Y31750000D02*
X2286000Y31750000D01*
X15764000Y29107458D02*
X15764000Y24638000D01*
X14971469Y29899989D02*
X15764000Y29107458D01*
X1778000Y31591456D02*
X1778000Y31750000D01*
X3469466Y29899990D02*
X1778000Y31591456D01*
X14971469Y29899989D02*
X3469466Y29899990D01*
%TO.N,/SET*%
X1778000Y34290000D02*
X1778000Y33782000D01*
X1778000Y34131456D02*
X1778000Y34290000D01*
%TO.N,/TXR*%
X17416970Y31750000D02*
X4318000Y31750000D01*
X18304000Y30862970D02*
X17416970Y31750000D01*
X18304000Y27432000D02*
X18304000Y30862970D01*
%TO.N,/LT*%
X28606544Y4572000D02*
X28448000Y4572000D01*
X29304038Y8954507D02*
X30298011Y7960534D01*
X29304038Y27499810D02*
X29304038Y8954507D01*
X9813848Y46990000D02*
X29304038Y27499810D01*
X4318000Y46990000D02*
X9813848Y46990000D01*
X29650081Y4572000D02*
X28448000Y4572000D01*
X30298011Y5219930D02*
X29650081Y4572000D01*
X30298011Y7960534D02*
X30298011Y5219930D01*
%TO.N,/DW*%
X27752543Y5822001D02*
X26502542Y4572000D01*
X29444001Y5822001D02*
X27752543Y5822001D01*
X29698001Y6076001D02*
X29444001Y5822001D01*
X29698001Y7712002D02*
X29698001Y6076001D01*
X28704029Y8705974D02*
X29698001Y7712002D01*
X28704030Y27251276D02*
X28704029Y8705974D01*
X26502542Y4572000D02*
X25908000Y4572000D01*
X10215307Y45739999D02*
X28704030Y27251276D01*
X3028001Y45739999D02*
X10215307Y45739999D01*
X1778000Y46990000D02*
X3028001Y45739999D01*
%TO.N,/UP*%
X21863999Y29000055D02*
X14034054Y36830000D01*
X21863999Y15781087D02*
X21863999Y29000055D01*
X24638000Y13007086D02*
X21863999Y15781087D01*
X24638000Y6350000D02*
X24638000Y13007086D01*
X14034054Y36830000D02*
X4318000Y36830000D01*
X23368000Y5080000D02*
X24638000Y6350000D01*
X23368000Y4572000D02*
X23368000Y5080000D01*
%TO.N,/RT*%
X3067999Y35540001D02*
X1778000Y36830000D01*
X14475511Y35540001D02*
X3067999Y35540001D01*
X19304000Y30711512D02*
X14475511Y35540001D01*
X19304000Y17492544D02*
X19304000Y30711512D01*
X22098000Y14698544D02*
X19304000Y17492544D01*
X20828000Y4572000D02*
X20828000Y5080000D01*
X20828000Y4572000D02*
X20828000Y4826000D01*
X22098000Y6096000D02*
X22098000Y14698544D01*
X20828000Y4826000D02*
X22098000Y6096000D01*
%TO.N,/OK*%
X3067999Y33039999D02*
X4318000Y34290000D01*
X16764000Y28956000D02*
X15220001Y30499999D01*
X15220001Y30499999D02*
X3717999Y30499999D01*
X21428001Y14520001D02*
X18930002Y17018000D01*
X18930002Y17018000D02*
X17358542Y17018000D01*
X16764000Y17612542D02*
X16764000Y28956000D01*
X17358542Y17018000D02*
X16764000Y17612542D01*
X3717999Y30499999D02*
X3067999Y31149999D01*
X3067999Y31149999D02*
X3067999Y33039999D01*
X18288000Y4572000D02*
X18288000Y4826000D01*
X19538001Y6076001D02*
X19538001Y8711457D01*
X18288000Y4826000D02*
X19538001Y6076001D01*
X19538001Y8711457D02*
X21402543Y10575999D01*
X21402543Y10575999D02*
X21428001Y10575999D01*
X21428001Y10575999D02*
X21428001Y14520001D01*
%TO.N,/SET*%
X527999Y30968001D02*
X527999Y33039999D01*
X14224000Y29210000D02*
X14134021Y29299979D01*
X527999Y33039999D02*
X1778000Y34290000D01*
X10668009Y2721989D02*
X9417999Y3971999D01*
X9417999Y3971999D02*
X9417999Y11703999D01*
X2196021Y29299979D02*
X527999Y30968001D01*
X14224000Y20066000D02*
X14224000Y29210000D01*
X14134021Y29299979D02*
X2196021Y29299979D01*
X14204001Y20046001D02*
X14224000Y20066000D01*
X14204001Y16490001D02*
X14204001Y20046001D01*
X9417999Y11703999D02*
X14204001Y16490001D01*
X15100070Y2721989D02*
X10668009Y2721989D01*
X15748000Y3369919D02*
X15100070Y2721989D01*
X15748000Y4572000D02*
X15748000Y3369919D01*
%TO.N,/RX*%
X8122390Y49530000D02*
X8125195Y49527194D01*
D13*
X4318000Y49530000D02*
X8128000Y49530000D01*
%TO.N,/AREF*%
X4318000Y52070000D02*
X8128000Y52070000D01*
%TO.N,/3V3*%
X4318000Y54610000D02*
X8128000Y54610000D01*
%TO.N,/VIN*%
X4318000Y62230000D02*
X8128000Y62230000D01*
%TD*%
D15*
%TO.N,/GND*%
X38456001Y52730000D02*
X32544419Y52730000D01*
X32512000Y52733193D01*
X32479581Y52730000D01*
X32382617Y52720450D01*
X32258207Y52682710D01*
X32143550Y52621425D01*
X32043052Y52538948D01*
X31960575Y52438450D01*
X31899290Y52323793D01*
X31861550Y52199383D01*
X31848807Y52070000D01*
X31852001Y52037571D01*
X31852000Y10192409D01*
X31848808Y10160000D01*
X31852000Y10127591D01*
X31852000Y10127582D01*
X31861550Y10030618D01*
X31888789Y9940826D01*
X31899290Y9906208D01*
X31960575Y9791550D01*
X31992146Y9753081D01*
X32043052Y9691052D01*
X32068236Y9670384D01*
X32868001Y8870618D01*
X32868000Y660000D01*
X660000Y660000D01*
X660000Y5837030D01*
X845912Y5558793D01*
X1240793Y5163912D01*
X1705124Y4853656D01*
X2221061Y4639948D01*
X2768777Y4531000D01*
X3327223Y4531000D01*
X3874939Y4639948D01*
X4390876Y4853656D01*
X4855207Y5163912D01*
X5250088Y5558793D01*
X5560344Y6023124D01*
X5774052Y6539061D01*
X5883000Y7086777D01*
X5883000Y7645223D01*
X5774052Y8192939D01*
X5560344Y8708876D01*
X5250088Y9173207D01*
X5177295Y9246000D01*
X6063581Y9246000D01*
X6096000Y9242807D01*
X6128419Y9246000D01*
X6165012Y9249604D01*
X6225383Y9255550D01*
X6349793Y9293290D01*
X6464450Y9354575D01*
X6564948Y9437052D01*
X6647425Y9537550D01*
X6708710Y9652207D01*
X6746450Y9776617D01*
X6756000Y9873581D01*
X6759193Y9906000D01*
X6756000Y9938419D01*
X6756000Y17184000D01*
X8925928Y17184000D01*
X8938188Y17059518D01*
X8974498Y16939820D01*
X9033463Y16829506D01*
X9112815Y16732815D01*
X9209506Y16653463D01*
X9319820Y16594498D01*
X9439518Y16558188D01*
X9564000Y16545928D01*
X10128250Y16549000D01*
X10287000Y16707750D01*
X10287000Y17907000D01*
X9087750Y17907000D01*
X8929000Y17748250D01*
X8925928Y17184000D01*
X6756000Y17184000D01*
X6756000Y19978000D01*
X8925928Y19978000D01*
X8938188Y19853518D01*
X8974498Y19733820D01*
X9033463Y19623506D01*
X9112815Y19526815D01*
X9209506Y19447463D01*
X9240306Y19431000D01*
X9209506Y19414537D01*
X9112815Y19335185D01*
X9033463Y19238494D01*
X8974498Y19128180D01*
X8938188Y19008482D01*
X8925928Y18884000D01*
X8929000Y18319750D01*
X9087750Y18161000D01*
X10287000Y18161000D01*
X10287000Y19360250D01*
X10216250Y19431000D01*
X10287000Y19501750D01*
X10287000Y20701000D01*
X9087750Y20701000D01*
X8929000Y20542250D01*
X8925928Y19978000D01*
X6756000Y19978000D01*
X6756000Y21678000D01*
X8925928Y21678000D01*
X8929000Y21113750D01*
X9087750Y20955000D01*
X10287000Y20955000D01*
X10287000Y22154250D01*
X10128250Y22313000D01*
X9564000Y22316072D01*
X9439518Y22303812D01*
X9319820Y22267502D01*
X9209506Y22208537D01*
X9112815Y22129185D01*
X9033463Y22032494D01*
X8974498Y21922180D01*
X8938188Y21802482D01*
X8925928Y21678000D01*
X6756000Y21678000D01*
X6756000Y28464979D01*
X13389001Y28464979D01*
X13389000Y22255169D01*
X13387158Y22255932D01*
X13100260Y22313000D01*
X12807740Y22313000D01*
X12520842Y22255932D01*
X12250589Y22143990D01*
X12007368Y21981475D01*
X11875513Y21849620D01*
X11853502Y21922180D01*
X11794537Y22032494D01*
X11715185Y22129185D01*
X11618494Y22208537D01*
X11508180Y22267502D01*
X11388482Y22303812D01*
X11264000Y22316072D01*
X10699750Y22313000D01*
X10541000Y22154250D01*
X10541000Y20955000D01*
X10561000Y20955000D01*
X10561000Y20701000D01*
X10541000Y20701000D01*
X10541000Y19501750D01*
X10611750Y19431000D01*
X10541000Y19360250D01*
X10541000Y18161000D01*
X10561000Y18161000D01*
X10561000Y17907000D01*
X10541000Y17907000D01*
X10541000Y16707750D01*
X10699750Y16549000D01*
X11264000Y16545928D01*
X11388482Y16558188D01*
X11508180Y16594498D01*
X11618494Y16653463D01*
X11715185Y16732815D01*
X11794537Y16829506D01*
X11853502Y16939820D01*
X11875513Y17012380D01*
X11919000Y16968893D01*
X11919000Y16800095D01*
X7922081Y12803176D01*
X7882594Y12770769D01*
X7850187Y12731281D01*
X7850186Y12731280D01*
X7753255Y12613170D01*
X7657149Y12433366D01*
X7597966Y12238268D01*
X7577983Y12035373D01*
X7582990Y11984535D01*
X7582989Y3691453D01*
X7577983Y3640625D01*
X7582989Y3589797D01*
X7582989Y3589788D01*
X7597965Y3437731D01*
X7657148Y3242633D01*
X7753255Y3062828D01*
X7882593Y2905229D01*
X7922086Y2872818D01*
X9568832Y1226071D01*
X9601239Y1186583D01*
X9758838Y1057245D01*
X9938642Y961138D01*
X10133740Y901955D01*
X10285797Y886979D01*
X10285806Y886979D01*
X10336634Y881973D01*
X10387462Y886979D01*
X30180535Y886979D01*
X30231363Y881973D01*
X30282191Y886979D01*
X30282201Y886979D01*
X30434258Y901955D01*
X30629356Y961138D01*
X30809160Y1057245D01*
X30966759Y1186583D01*
X30999170Y1226076D01*
X32393939Y2620844D01*
X32433427Y2653251D01*
X32521714Y2760829D01*
X32562765Y2810849D01*
X32614135Y2906956D01*
X32658872Y2990654D01*
X32718055Y3185752D01*
X32733031Y3337809D01*
X32733031Y3337812D01*
X32738038Y3388647D01*
X32733031Y3439482D01*
X32733031Y8489613D01*
X32738037Y8540441D01*
X32733031Y8591269D01*
X32733031Y8591278D01*
X32718055Y8743335D01*
X32658872Y8938433D01*
X32587249Y9072431D01*
X32562765Y9118238D01*
X32465834Y9236348D01*
X32433427Y9275836D01*
X32393939Y9308243D01*
X31739055Y9963126D01*
X31739055Y17593341D01*
X31739054Y17593351D01*
X31739057Y24083414D01*
X31739057Y28028882D01*
X31744064Y28079717D01*
X31736645Y28155046D01*
X31724081Y28282612D01*
X31664898Y28477710D01*
X31601050Y28597162D01*
X31568791Y28657515D01*
X31471860Y28775625D01*
X31439453Y28815113D01*
X31399965Y28847520D01*
X12465000Y47782484D01*
X12465000Y55067165D01*
X12470007Y55118000D01*
X12465000Y55168838D01*
X12450024Y55320895D01*
X12390841Y55515993D01*
X12329890Y55630024D01*
X12294734Y55695798D01*
X12197803Y55813908D01*
X12165396Y55853396D01*
X12125908Y55885803D01*
X12106488Y55905223D01*
X31709000Y55905223D01*
X31709000Y55346777D01*
X31817948Y54799061D01*
X32031656Y54283124D01*
X32341912Y53818793D01*
X32736793Y53423912D01*
X33201124Y53113656D01*
X33717061Y52899948D01*
X34264777Y52791000D01*
X34823223Y52791000D01*
X35370939Y52899948D01*
X35886876Y53113656D01*
X36351207Y53423912D01*
X36746088Y53818793D01*
X37056344Y54283124D01*
X37270052Y54799061D01*
X37379000Y55346777D01*
X37379000Y55905223D01*
X37270052Y56452939D01*
X37056344Y56968876D01*
X36746088Y57433207D01*
X36351207Y57828088D01*
X35886876Y58138344D01*
X35370939Y58352052D01*
X34823223Y58461000D01*
X34264777Y58461000D01*
X33717061Y58352052D01*
X33201124Y58138344D01*
X32736793Y57828088D01*
X32341912Y57433207D01*
X32031656Y56968876D01*
X31817948Y56452939D01*
X31709000Y55905223D01*
X12106488Y55905223D01*
X10165807Y57845903D01*
X10133396Y57885396D01*
X9975797Y58014734D01*
X9795993Y58110841D01*
X9600895Y58170024D01*
X9448838Y58185000D01*
X9448828Y58185000D01*
X9398000Y58190006D01*
X9347172Y58185000D01*
X9193107Y58185000D01*
X9074632Y58303475D01*
X8892466Y58425195D01*
X9009355Y58494822D01*
X9225588Y58689731D01*
X9399641Y58923080D01*
X9524825Y59185901D01*
X9569476Y59333110D01*
X9448155Y59563000D01*
X8255000Y59563000D01*
X8255000Y59543000D01*
X8001000Y59543000D01*
X8001000Y59563000D01*
X6807845Y59563000D01*
X6686524Y59333110D01*
X6731175Y59185901D01*
X6856359Y58923080D01*
X7030412Y58689731D01*
X7246645Y58494822D01*
X7363534Y58425195D01*
X7181368Y58303475D01*
X7062893Y58185000D01*
X5383107Y58185000D01*
X5264632Y58303475D01*
X5082466Y58425195D01*
X5199355Y58494822D01*
X5415588Y58689731D01*
X5589641Y58923080D01*
X5714825Y59185901D01*
X5759476Y59333110D01*
X5638155Y59563000D01*
X4445000Y59563000D01*
X4445000Y59543000D01*
X4191000Y59543000D01*
X4191000Y59563000D01*
X4171000Y59563000D01*
X4171000Y59582260D01*
X16803000Y59582260D01*
X16803000Y59289740D01*
X16860068Y59002842D01*
X16972010Y58732589D01*
X17134525Y58489368D01*
X17341368Y58282525D01*
X17584589Y58120010D01*
X17854842Y58008068D01*
X18141740Y57951000D01*
X18434260Y57951000D01*
X18721158Y58008068D01*
X18991411Y58120010D01*
X19234632Y58282525D01*
X19441475Y58489368D01*
X19558000Y58663760D01*
X19674525Y58489368D01*
X19881368Y58282525D01*
X20124589Y58120010D01*
X20394842Y58008068D01*
X20681740Y57951000D01*
X20974260Y57951000D01*
X21261158Y58008068D01*
X21531411Y58120010D01*
X21774632Y58282525D01*
X21981475Y58489368D01*
X22098000Y58663760D01*
X22214525Y58489368D01*
X22421368Y58282525D01*
X22664589Y58120010D01*
X22934842Y58008068D01*
X23221740Y57951000D01*
X23514260Y57951000D01*
X23801158Y58008068D01*
X24071411Y58120010D01*
X24314632Y58282525D01*
X24446487Y58414380D01*
X24468498Y58341820D01*
X24527463Y58231506D01*
X24606815Y58134815D01*
X24703506Y58055463D01*
X24813820Y57996498D01*
X24933518Y57960188D01*
X25058000Y57947928D01*
X26758000Y57947928D01*
X26882482Y57960188D01*
X27002180Y57996498D01*
X27112494Y58055463D01*
X27209185Y58134815D01*
X27288537Y58231506D01*
X27347502Y58341820D01*
X27383812Y58461518D01*
X27396072Y58586000D01*
X27396072Y60286000D01*
X27383812Y60410482D01*
X27347502Y60530180D01*
X27288537Y60640494D01*
X27209185Y60737185D01*
X27112494Y60816537D01*
X27002180Y60875502D01*
X26882482Y60911812D01*
X26758000Y60924072D01*
X25058000Y60924072D01*
X24933518Y60911812D01*
X24813820Y60875502D01*
X24703506Y60816537D01*
X24606815Y60737185D01*
X24527463Y60640494D01*
X24468498Y60530180D01*
X24446487Y60457620D01*
X24314632Y60589475D01*
X24071411Y60751990D01*
X23801158Y60863932D01*
X23514260Y60921000D01*
X23221740Y60921000D01*
X22934842Y60863932D01*
X22664589Y60751990D01*
X22421368Y60589475D01*
X22214525Y60382632D01*
X22098000Y60208240D01*
X21981475Y60382632D01*
X21774632Y60589475D01*
X21531411Y60751990D01*
X21261158Y60863932D01*
X20974260Y60921000D01*
X20681740Y60921000D01*
X20394842Y60863932D01*
X20124589Y60751990D01*
X19881368Y60589475D01*
X19674525Y60382632D01*
X19558000Y60208240D01*
X19441475Y60382632D01*
X19234632Y60589475D01*
X18991411Y60751990D01*
X18721158Y60863932D01*
X18434260Y60921000D01*
X18141740Y60921000D01*
X17854842Y60863932D01*
X17584589Y60751990D01*
X17341368Y60589475D01*
X17134525Y60382632D01*
X16972010Y60139411D01*
X16860068Y59869158D01*
X16803000Y59582260D01*
X4171000Y59582260D01*
X4171000Y59817000D01*
X4191000Y59817000D01*
X4191000Y59837000D01*
X4445000Y59837000D01*
X4445000Y59817000D01*
X5638155Y59817000D01*
X5759476Y60046890D01*
X5714825Y60194099D01*
X5589641Y60456920D01*
X5415588Y60690269D01*
X5331534Y60766034D01*
X5412180Y60790498D01*
X5522494Y60849463D01*
X5619185Y60928815D01*
X5698537Y61025506D01*
X5757502Y61135820D01*
X5775454Y61195000D01*
X6670546Y61195000D01*
X6688498Y61135820D01*
X6747463Y61025506D01*
X6826815Y60928815D01*
X6923506Y60849463D01*
X7033820Y60790498D01*
X7114466Y60766034D01*
X7030412Y60690269D01*
X6856359Y60456920D01*
X6731175Y60194099D01*
X6686524Y60046890D01*
X6807845Y59817000D01*
X8001000Y59817000D01*
X8001000Y59837000D01*
X8255000Y59837000D01*
X8255000Y59817000D01*
X9448155Y59817000D01*
X9569476Y60046890D01*
X9524825Y60194099D01*
X9399641Y60456920D01*
X9225588Y60690269D01*
X9141534Y60766034D01*
X9222180Y60790498D01*
X9332494Y60849463D01*
X9429185Y60928815D01*
X9508537Y61025506D01*
X9567502Y61135820D01*
X9603812Y61255518D01*
X9616072Y61380000D01*
X9616072Y63080000D01*
X9603812Y63204482D01*
X9567502Y63324180D01*
X9554770Y63348000D01*
X38456000Y63348000D01*
X38456001Y52730000D01*
%TA.AperFunction,Conductor*%
D16*
G36*
X38456001Y52730000D02*
G01*
X32544419Y52730000D01*
X32512000Y52733193D01*
X32479581Y52730000D01*
X32382617Y52720450D01*
X32258207Y52682710D01*
X32143550Y52621425D01*
X32043052Y52538948D01*
X31960575Y52438450D01*
X31899290Y52323793D01*
X31861550Y52199383D01*
X31848807Y52070000D01*
X31852001Y52037571D01*
X31852000Y10192409D01*
X31848808Y10160000D01*
X31852000Y10127591D01*
X31852000Y10127582D01*
X31861550Y10030618D01*
X31888789Y9940826D01*
X31899290Y9906208D01*
X31960575Y9791550D01*
X31992146Y9753081D01*
X32043052Y9691052D01*
X32068236Y9670384D01*
X32868001Y8870618D01*
X32868000Y660000D01*
X660000Y660000D01*
X660000Y5837030D01*
X845912Y5558793D01*
X1240793Y5163912D01*
X1705124Y4853656D01*
X2221061Y4639948D01*
X2768777Y4531000D01*
X3327223Y4531000D01*
X3874939Y4639948D01*
X4390876Y4853656D01*
X4855207Y5163912D01*
X5250088Y5558793D01*
X5560344Y6023124D01*
X5774052Y6539061D01*
X5883000Y7086777D01*
X5883000Y7645223D01*
X5774052Y8192939D01*
X5560344Y8708876D01*
X5250088Y9173207D01*
X5177295Y9246000D01*
X6063581Y9246000D01*
X6096000Y9242807D01*
X6128419Y9246000D01*
X6165012Y9249604D01*
X6225383Y9255550D01*
X6349793Y9293290D01*
X6464450Y9354575D01*
X6564948Y9437052D01*
X6647425Y9537550D01*
X6708710Y9652207D01*
X6746450Y9776617D01*
X6756000Y9873581D01*
X6759193Y9906000D01*
X6756000Y9938419D01*
X6756000Y17184000D01*
X8925928Y17184000D01*
X8938188Y17059518D01*
X8974498Y16939820D01*
X9033463Y16829506D01*
X9112815Y16732815D01*
X9209506Y16653463D01*
X9319820Y16594498D01*
X9439518Y16558188D01*
X9564000Y16545928D01*
X10128250Y16549000D01*
X10287000Y16707750D01*
X10287000Y17907000D01*
X9087750Y17907000D01*
X8929000Y17748250D01*
X8925928Y17184000D01*
X6756000Y17184000D01*
X6756000Y19978000D01*
X8925928Y19978000D01*
X8938188Y19853518D01*
X8974498Y19733820D01*
X9033463Y19623506D01*
X9112815Y19526815D01*
X9209506Y19447463D01*
X9240306Y19431000D01*
X9209506Y19414537D01*
X9112815Y19335185D01*
X9033463Y19238494D01*
X8974498Y19128180D01*
X8938188Y19008482D01*
X8925928Y18884000D01*
X8929000Y18319750D01*
X9087750Y18161000D01*
X10287000Y18161000D01*
X10287000Y19360250D01*
X10216250Y19431000D01*
X10287000Y19501750D01*
X10287000Y20701000D01*
X9087750Y20701000D01*
X8929000Y20542250D01*
X8925928Y19978000D01*
X6756000Y19978000D01*
X6756000Y21678000D01*
X8925928Y21678000D01*
X8929000Y21113750D01*
X9087750Y20955000D01*
X10287000Y20955000D01*
X10287000Y22154250D01*
X10128250Y22313000D01*
X9564000Y22316072D01*
X9439518Y22303812D01*
X9319820Y22267502D01*
X9209506Y22208537D01*
X9112815Y22129185D01*
X9033463Y22032494D01*
X8974498Y21922180D01*
X8938188Y21802482D01*
X8925928Y21678000D01*
X6756000Y21678000D01*
X6756000Y28464979D01*
X13389001Y28464979D01*
X13389000Y22255169D01*
X13387158Y22255932D01*
X13100260Y22313000D01*
X12807740Y22313000D01*
X12520842Y22255932D01*
X12250589Y22143990D01*
X12007368Y21981475D01*
X11875513Y21849620D01*
X11853502Y21922180D01*
X11794537Y22032494D01*
X11715185Y22129185D01*
X11618494Y22208537D01*
X11508180Y22267502D01*
X11388482Y22303812D01*
X11264000Y22316072D01*
X10699750Y22313000D01*
X10541000Y22154250D01*
X10541000Y20955000D01*
X10561000Y20955000D01*
X10561000Y20701000D01*
X10541000Y20701000D01*
X10541000Y19501750D01*
X10611750Y19431000D01*
X10541000Y19360250D01*
X10541000Y18161000D01*
X10561000Y18161000D01*
X10561000Y17907000D01*
X10541000Y17907000D01*
X10541000Y16707750D01*
X10699750Y16549000D01*
X11264000Y16545928D01*
X11388482Y16558188D01*
X11508180Y16594498D01*
X11618494Y16653463D01*
X11715185Y16732815D01*
X11794537Y16829506D01*
X11853502Y16939820D01*
X11875513Y17012380D01*
X11919000Y16968893D01*
X11919000Y16800095D01*
X7922081Y12803176D01*
X7882594Y12770769D01*
X7850187Y12731281D01*
X7850186Y12731280D01*
X7753255Y12613170D01*
X7657149Y12433366D01*
X7597966Y12238268D01*
X7577983Y12035373D01*
X7582990Y11984535D01*
X7582989Y3691453D01*
X7577983Y3640625D01*
X7582989Y3589797D01*
X7582989Y3589788D01*
X7597965Y3437731D01*
X7657148Y3242633D01*
X7753255Y3062828D01*
X7882593Y2905229D01*
X7922086Y2872818D01*
X9568832Y1226071D01*
X9601239Y1186583D01*
X9758838Y1057245D01*
X9938642Y961138D01*
X10133740Y901955D01*
X10285797Y886979D01*
X10285806Y886979D01*
X10336634Y881973D01*
X10387462Y886979D01*
X30180535Y886979D01*
X30231363Y881973D01*
X30282191Y886979D01*
X30282201Y886979D01*
X30434258Y901955D01*
X30629356Y961138D01*
X30809160Y1057245D01*
X30966759Y1186583D01*
X30999170Y1226076D01*
X32393939Y2620844D01*
X32433427Y2653251D01*
X32521714Y2760829D01*
X32562765Y2810849D01*
X32614135Y2906956D01*
X32658872Y2990654D01*
X32718055Y3185752D01*
X32733031Y3337809D01*
X32733031Y3337812D01*
X32738038Y3388647D01*
X32733031Y3439482D01*
X32733031Y8489613D01*
X32738037Y8540441D01*
X32733031Y8591269D01*
X32733031Y8591278D01*
X32718055Y8743335D01*
X32658872Y8938433D01*
X32587249Y9072431D01*
X32562765Y9118238D01*
X32465834Y9236348D01*
X32433427Y9275836D01*
X32393939Y9308243D01*
X31739055Y9963126D01*
X31739055Y17593341D01*
X31739054Y17593351D01*
X31739057Y24083414D01*
X31739057Y28028882D01*
X31744064Y28079717D01*
X31736645Y28155046D01*
X31724081Y28282612D01*
X31664898Y28477710D01*
X31601050Y28597162D01*
X31568791Y28657515D01*
X31471860Y28775625D01*
X31439453Y28815113D01*
X31399965Y28847520D01*
X12465000Y47782484D01*
X12465000Y55067165D01*
X12470007Y55118000D01*
X12465000Y55168838D01*
X12450024Y55320895D01*
X12390841Y55515993D01*
X12329890Y55630024D01*
X12294734Y55695798D01*
X12197803Y55813908D01*
X12165396Y55853396D01*
X12125908Y55885803D01*
X12106488Y55905223D01*
X31709000Y55905223D01*
X31709000Y55346777D01*
X31817948Y54799061D01*
X32031656Y54283124D01*
X32341912Y53818793D01*
X32736793Y53423912D01*
X33201124Y53113656D01*
X33717061Y52899948D01*
X34264777Y52791000D01*
X34823223Y52791000D01*
X35370939Y52899948D01*
X35886876Y53113656D01*
X36351207Y53423912D01*
X36746088Y53818793D01*
X37056344Y54283124D01*
X37270052Y54799061D01*
X37379000Y55346777D01*
X37379000Y55905223D01*
X37270052Y56452939D01*
X37056344Y56968876D01*
X36746088Y57433207D01*
X36351207Y57828088D01*
X35886876Y58138344D01*
X35370939Y58352052D01*
X34823223Y58461000D01*
X34264777Y58461000D01*
X33717061Y58352052D01*
X33201124Y58138344D01*
X32736793Y57828088D01*
X32341912Y57433207D01*
X32031656Y56968876D01*
X31817948Y56452939D01*
X31709000Y55905223D01*
X12106488Y55905223D01*
X10165807Y57845903D01*
X10133396Y57885396D01*
X9975797Y58014734D01*
X9795993Y58110841D01*
X9600895Y58170024D01*
X9448838Y58185000D01*
X9448828Y58185000D01*
X9398000Y58190006D01*
X9347172Y58185000D01*
X9193107Y58185000D01*
X9074632Y58303475D01*
X8892466Y58425195D01*
X9009355Y58494822D01*
X9225588Y58689731D01*
X9399641Y58923080D01*
X9524825Y59185901D01*
X9569476Y59333110D01*
X9448155Y59563000D01*
X8255000Y59563000D01*
X8255000Y59543000D01*
X8001000Y59543000D01*
X8001000Y59563000D01*
X6807845Y59563000D01*
X6686524Y59333110D01*
X6731175Y59185901D01*
X6856359Y58923080D01*
X7030412Y58689731D01*
X7246645Y58494822D01*
X7363534Y58425195D01*
X7181368Y58303475D01*
X7062893Y58185000D01*
X5383107Y58185000D01*
X5264632Y58303475D01*
X5082466Y58425195D01*
X5199355Y58494822D01*
X5415588Y58689731D01*
X5589641Y58923080D01*
X5714825Y59185901D01*
X5759476Y59333110D01*
X5638155Y59563000D01*
X4445000Y59563000D01*
X4445000Y59543000D01*
X4191000Y59543000D01*
X4191000Y59563000D01*
X4171000Y59563000D01*
X4171000Y59582260D01*
X16803000Y59582260D01*
X16803000Y59289740D01*
X16860068Y59002842D01*
X16972010Y58732589D01*
X17134525Y58489368D01*
X17341368Y58282525D01*
X17584589Y58120010D01*
X17854842Y58008068D01*
X18141740Y57951000D01*
X18434260Y57951000D01*
X18721158Y58008068D01*
X18991411Y58120010D01*
X19234632Y58282525D01*
X19441475Y58489368D01*
X19558000Y58663760D01*
X19674525Y58489368D01*
X19881368Y58282525D01*
X20124589Y58120010D01*
X20394842Y58008068D01*
X20681740Y57951000D01*
X20974260Y57951000D01*
X21261158Y58008068D01*
X21531411Y58120010D01*
X21774632Y58282525D01*
X21981475Y58489368D01*
X22098000Y58663760D01*
X22214525Y58489368D01*
X22421368Y58282525D01*
X22664589Y58120010D01*
X22934842Y58008068D01*
X23221740Y57951000D01*
X23514260Y57951000D01*
X23801158Y58008068D01*
X24071411Y58120010D01*
X24314632Y58282525D01*
X24446487Y58414380D01*
X24468498Y58341820D01*
X24527463Y58231506D01*
X24606815Y58134815D01*
X24703506Y58055463D01*
X24813820Y57996498D01*
X24933518Y57960188D01*
X25058000Y57947928D01*
X26758000Y57947928D01*
X26882482Y57960188D01*
X27002180Y57996498D01*
X27112494Y58055463D01*
X27209185Y58134815D01*
X27288537Y58231506D01*
X27347502Y58341820D01*
X27383812Y58461518D01*
X27396072Y58586000D01*
X27396072Y60286000D01*
X27383812Y60410482D01*
X27347502Y60530180D01*
X27288537Y60640494D01*
X27209185Y60737185D01*
X27112494Y60816537D01*
X27002180Y60875502D01*
X26882482Y60911812D01*
X26758000Y60924072D01*
X25058000Y60924072D01*
X24933518Y60911812D01*
X24813820Y60875502D01*
X24703506Y60816537D01*
X24606815Y60737185D01*
X24527463Y60640494D01*
X24468498Y60530180D01*
X24446487Y60457620D01*
X24314632Y60589475D01*
X24071411Y60751990D01*
X23801158Y60863932D01*
X23514260Y60921000D01*
X23221740Y60921000D01*
X22934842Y60863932D01*
X22664589Y60751990D01*
X22421368Y60589475D01*
X22214525Y60382632D01*
X22098000Y60208240D01*
X21981475Y60382632D01*
X21774632Y60589475D01*
X21531411Y60751990D01*
X21261158Y60863932D01*
X20974260Y60921000D01*
X20681740Y60921000D01*
X20394842Y60863932D01*
X20124589Y60751990D01*
X19881368Y60589475D01*
X19674525Y60382632D01*
X19558000Y60208240D01*
X19441475Y60382632D01*
X19234632Y60589475D01*
X18991411Y60751990D01*
X18721158Y60863932D01*
X18434260Y60921000D01*
X18141740Y60921000D01*
X17854842Y60863932D01*
X17584589Y60751990D01*
X17341368Y60589475D01*
X17134525Y60382632D01*
X16972010Y60139411D01*
X16860068Y59869158D01*
X16803000Y59582260D01*
X4171000Y59582260D01*
X4171000Y59817000D01*
X4191000Y59817000D01*
X4191000Y59837000D01*
X4445000Y59837000D01*
X4445000Y59817000D01*
X5638155Y59817000D01*
X5759476Y60046890D01*
X5714825Y60194099D01*
X5589641Y60456920D01*
X5415588Y60690269D01*
X5331534Y60766034D01*
X5412180Y60790498D01*
X5522494Y60849463D01*
X5619185Y60928815D01*
X5698537Y61025506D01*
X5757502Y61135820D01*
X5775454Y61195000D01*
X6670546Y61195000D01*
X6688498Y61135820D01*
X6747463Y61025506D01*
X6826815Y60928815D01*
X6923506Y60849463D01*
X7033820Y60790498D01*
X7114466Y60766034D01*
X7030412Y60690269D01*
X6856359Y60456920D01*
X6731175Y60194099D01*
X6686524Y60046890D01*
X6807845Y59817000D01*
X8001000Y59817000D01*
X8001000Y59837000D01*
X8255000Y59837000D01*
X8255000Y59817000D01*
X9448155Y59817000D01*
X9569476Y60046890D01*
X9524825Y60194099D01*
X9399641Y60456920D01*
X9225588Y60690269D01*
X9141534Y60766034D01*
X9222180Y60790498D01*
X9332494Y60849463D01*
X9429185Y60928815D01*
X9508537Y61025506D01*
X9567502Y61135820D01*
X9603812Y61255518D01*
X9616072Y61380000D01*
X9616072Y63080000D01*
X9603812Y63204482D01*
X9567502Y63324180D01*
X9554770Y63348000D01*
X38456000Y63348000D01*
X38456001Y52730000D01*
G37*
%TD.AperFunction*%
D15*
X12993000Y13823740D02*
X13050068Y13536842D01*
X13162010Y13266589D01*
X13324525Y13023368D01*
X13531368Y12816525D01*
X13707406Y12698900D01*
X13477731Y12527588D01*
X13282822Y12311355D01*
X13133843Y12061252D01*
X13036519Y11786891D01*
X13157186Y11557000D01*
X14351000Y11557000D01*
X14351000Y11577000D01*
X14605000Y11577000D01*
X14605000Y11557000D01*
X14625000Y11557000D01*
X14625000Y11303000D01*
X14605000Y11303000D01*
X14605000Y11283000D01*
X14351000Y11283000D01*
X14351000Y11303000D01*
X13157186Y11303000D01*
X13036519Y11073109D01*
X13075166Y10964162D01*
X13045528Y10955171D01*
X12900469Y10877635D01*
X12773324Y10773290D01*
X12747178Y10741431D01*
X11396573Y9390824D01*
X11364709Y9364674D01*
X11308745Y9296481D01*
X11260363Y9237528D01*
X11182827Y9092469D01*
X11135081Y8935071D01*
X11118959Y8771383D01*
X11123000Y8730355D01*
X11123000Y8597921D01*
X10953750Y8597000D01*
X10795000Y8438250D01*
X10795000Y7239000D01*
X10815000Y7239000D01*
X10815000Y6985000D01*
X10795000Y6985000D01*
X10795000Y4699000D01*
X10815000Y4699000D01*
X10815000Y4445000D01*
X10795000Y4445000D01*
X10795000Y4425000D01*
X10541000Y4425000D01*
X10541000Y4445000D01*
X10521000Y4445000D01*
X10521000Y4699000D01*
X10541000Y4699000D01*
X10541000Y6985000D01*
X10521000Y6985000D01*
X10521000Y7239000D01*
X10541000Y7239000D01*
X10541000Y8438250D01*
X10382250Y8597000D01*
X10252999Y8597704D01*
X10252999Y11358132D01*
X12993000Y14098132D01*
X12993000Y13823740D01*
%TA.AperFunction,Conductor*%
D16*
G36*
X12993000Y13823740D02*
G01*
X13050068Y13536842D01*
X13162010Y13266589D01*
X13324525Y13023368D01*
X13531368Y12816525D01*
X13707406Y12698900D01*
X13477731Y12527588D01*
X13282822Y12311355D01*
X13133843Y12061252D01*
X13036519Y11786891D01*
X13157186Y11557000D01*
X14351000Y11557000D01*
X14351000Y11577000D01*
X14605000Y11577000D01*
X14605000Y11557000D01*
X14625000Y11557000D01*
X14625000Y11303000D01*
X14605000Y11303000D01*
X14605000Y11283000D01*
X14351000Y11283000D01*
X14351000Y11303000D01*
X13157186Y11303000D01*
X13036519Y11073109D01*
X13075166Y10964162D01*
X13045528Y10955171D01*
X12900469Y10877635D01*
X12773324Y10773290D01*
X12747178Y10741431D01*
X11396573Y9390824D01*
X11364709Y9364674D01*
X11308745Y9296481D01*
X11260363Y9237528D01*
X11182827Y9092469D01*
X11135081Y8935071D01*
X11118959Y8771383D01*
X11123000Y8730355D01*
X11123000Y8597921D01*
X10953750Y8597000D01*
X10795000Y8438250D01*
X10795000Y7239000D01*
X10815000Y7239000D01*
X10815000Y6985000D01*
X10795000Y6985000D01*
X10795000Y4699000D01*
X10815000Y4699000D01*
X10815000Y4445000D01*
X10795000Y4445000D01*
X10795000Y4425000D01*
X10541000Y4425000D01*
X10541000Y4445000D01*
X10521000Y4445000D01*
X10521000Y4699000D01*
X10541000Y4699000D01*
X10541000Y6985000D01*
X10521000Y6985000D01*
X10521000Y7239000D01*
X10541000Y7239000D01*
X10541000Y8438250D01*
X10382250Y8597000D01*
X10252999Y8597704D01*
X10252999Y11358132D01*
X12993000Y14098132D01*
X12993000Y13823740D01*
G37*
%TD.AperFunction*%
%TD*%
M02*
