%TF.GenerationSoftware,KiCad,Pcbnew,(5.1.7)-1*%
%TF.CreationDate,2023-05-20T09:23:02-06:00*%
%TF.ProjectId,AMPE32T30,414d5045-3332-4543-9330-2e6b69636164,rev?*%
%TF.SameCoordinates,PX76efc10PY4eb9cf0*%
%TF.FileFunction,Legend,Top*%
%TF.FilePolarity,Positive*%
%FSLAX46Y46*%
G04 Gerber Fmt 4.6, Leading zero omitted, Abs format (unit mm)*
G04 Created by KiCad (PCBNEW (5.1.7)-1) date 2023-05-20 09:23:02*
%MOMM*%
%LPD*%
G01*
G04 APERTURE LIST*
%ADD10C,0.120000*%
G04 APERTURE END LIST*
D10*
%TO.C,J3*%
X6798000Y60960000D02*
X9458000Y60960000D01*
X6798000Y60960000D02*
X6798000Y48200000D01*
X6798000Y48200000D02*
X9458000Y48200000D01*
X9458000Y60960000D02*
X9458000Y48200000D01*
X9458000Y63560000D02*
X9458000Y62230000D01*
X8128000Y63560000D02*
X9458000Y63560000D01*
%TO.C,J1*%
X2988000Y60960000D02*
X5648000Y60960000D01*
X2988000Y60960000D02*
X2988000Y48200000D01*
X2988000Y48200000D02*
X5648000Y48200000D01*
X5648000Y60960000D02*
X5648000Y48200000D01*
X5648000Y63560000D02*
X5648000Y62230000D01*
X4318000Y63560000D02*
X5648000Y63560000D01*
%TO.C,J5*%
X9338000Y7112000D02*
X9338000Y8442000D01*
X9338000Y8442000D02*
X10668000Y8442000D01*
X9338000Y5842000D02*
X11938000Y5842000D01*
X11938000Y5842000D02*
X11938000Y8442000D01*
X11938000Y8442000D02*
X29778000Y8442000D01*
X29778000Y3242000D02*
X29778000Y8442000D01*
X9338000Y3242000D02*
X29778000Y3242000D01*
X9338000Y3242000D02*
X9338000Y5842000D01*
%TO.C,MP*%
X24638000Y60766000D02*
X24638000Y58106000D01*
X24638000Y60766000D02*
X16958000Y60766000D01*
X16958000Y60766000D02*
X16958000Y58106000D01*
X24638000Y58106000D02*
X16958000Y58106000D01*
X27238000Y58106000D02*
X25908000Y58106000D01*
X27238000Y59436000D02*
X27238000Y58106000D01*
%TO.C,R1*%
X16991064Y23903000D02*
X16536936Y23903000D01*
X16991064Y25373000D02*
X16536936Y25373000D01*
%TO.C,R2*%
X19531064Y26697000D02*
X19076936Y26697000D01*
X19531064Y28167000D02*
X19076936Y28167000D01*
%TO.C,J6*%
X9084000Y18034000D02*
X9084000Y19364000D01*
X9084000Y19364000D02*
X10414000Y19364000D01*
X11684000Y19364000D02*
X14284000Y19364000D01*
X14284000Y16704000D02*
X14284000Y19364000D01*
X11684000Y16704000D02*
X14284000Y16704000D01*
X11684000Y16704000D02*
X11684000Y19364000D01*
%TO.C,J7*%
X4318000Y48320000D02*
X5648000Y48320000D01*
X5648000Y48320000D02*
X5648000Y46990000D01*
X3048000Y48320000D02*
X3048000Y45720000D01*
X3048000Y45720000D02*
X5648000Y45720000D01*
X5648000Y45720000D02*
X5648000Y30420000D01*
X448000Y30420000D02*
X5648000Y30420000D01*
X448000Y48320000D02*
X448000Y30420000D01*
X448000Y48320000D02*
X3048000Y48320000D01*
%TO.C,J2*%
X13148000Y15300000D02*
X13148000Y10100000D01*
X18288000Y15300000D02*
X13148000Y15300000D01*
X20888000Y10100000D02*
X13148000Y10100000D01*
X18288000Y15300000D02*
X18288000Y12700000D01*
X18288000Y12700000D02*
X20888000Y12700000D01*
X20888000Y12700000D02*
X20888000Y10100000D01*
X19558000Y15300000D02*
X20888000Y15300000D01*
X20888000Y15300000D02*
X20888000Y13970000D01*
%TO.C,J4*%
X11684000Y19498000D02*
X11684000Y22158000D01*
X11684000Y19498000D02*
X26984000Y19498000D01*
X26984000Y19498000D02*
X26984000Y22158000D01*
X11684000Y22158000D02*
X26984000Y22158000D01*
X9084000Y22158000D02*
X10414000Y22158000D01*
X9084000Y20828000D02*
X9084000Y22158000D01*
%TD*%
M02*
