M48
; DRILL file {KiCad (5.1.7)-1} date 05/20/23 09:23:06
; FORMAT={-:-/ absolute / metric / decimal}
; #@! TF.CreationDate,2023-05-20T09:23:06-06:00
; #@! TF.GenerationSoftware,Kicad,Pcbnew,(5.1.7)-1
; #@! TF.FileFunction,Plated,1,2,PTH
FMAT,2
METRIC
T1C1.000
T2C2.200
%
G90
G05
T1
X1.778Y46.99
X1.778Y44.45
X1.778Y41.91
X1.778Y39.37
X1.778Y36.83
X1.778Y34.29
X1.778Y31.75
X4.318Y46.99
X4.318Y44.45
X4.318Y41.91
X4.318Y39.37
X4.318Y36.83
X4.318Y34.29
X4.318Y31.75
X4.318Y62.23
X4.318Y59.69
X4.318Y57.15
X4.318Y54.61
X4.318Y52.07
X4.318Y49.53
X18.288Y59.436
X20.828Y59.436
X23.368Y59.436
X25.908Y59.436
X10.414Y20.828
X12.954Y20.828
X15.494Y20.828
X18.034Y20.828
X20.574Y20.828
X23.114Y20.828
X25.654Y20.828
X10.414Y18.034
X12.954Y18.034
X8.128Y62.23
X8.128Y59.69
X8.128Y57.15
X8.128Y54.61
X8.128Y52.07
X8.128Y49.53
X10.668Y7.112
X10.668Y4.572
X13.208Y7.112
X13.208Y4.572
X15.748Y7.112
X15.748Y4.572
X18.288Y7.112
X18.288Y4.572
X20.828Y7.112
X20.828Y4.572
X23.368Y7.112
X23.368Y4.572
X25.908Y7.112
X25.908Y4.572
X28.448Y7.112
X28.448Y4.572
X14.478Y13.97
X14.478Y11.43
X17.018Y13.97
X17.018Y11.43
X19.558Y13.97
X19.558Y11.43
T2
X3.048Y7.366
X34.544Y55.626
T0
M30
