%TF.GenerationSoftware,KiCad,Pcbnew,(5.1.7)-1*%
%TF.CreationDate,2023-05-20T09:23:02-06:00*%
%TF.ProjectId,AMPE32T30,414d5045-3332-4543-9330-2e6b69636164,rev?*%
%TF.SameCoordinates,PX76efc10PY4eb9cf0*%
%TF.FileFunction,Other,Fab,Top*%
%FSLAX46Y46*%
G04 Gerber Fmt 4.6, Leading zero omitted, Abs format (unit mm)*
G04 Created by KiCad (PCBNEW (5.1.7)-1) date 2023-05-20 09:23:02*
%MOMM*%
%LPD*%
G01*
G04 APERTURE LIST*
%ADD10C,0.100000*%
G04 APERTURE END LIST*
D10*
%TO.C,J3*%
X6858000Y63500000D02*
X8763000Y63500000D01*
X8763000Y63500000D02*
X9398000Y62865000D01*
X9398000Y62865000D02*
X9398000Y48260000D01*
X9398000Y48260000D02*
X6858000Y48260000D01*
X6858000Y48260000D02*
X6858000Y63500000D01*
%TO.C,J1*%
X3048000Y63500000D02*
X4953000Y63500000D01*
X4953000Y63500000D02*
X5588000Y62865000D01*
X5588000Y62865000D02*
X5588000Y48260000D01*
X5588000Y48260000D02*
X3048000Y48260000D01*
X3048000Y48260000D02*
X3048000Y63500000D01*
%TO.C,J5*%
X29718000Y3302000D02*
X9398000Y3302000D01*
X29718000Y8382000D02*
X29718000Y3302000D01*
X10398000Y8382000D02*
X29718000Y8382000D01*
X9398000Y7382000D02*
X10398000Y8382000D01*
X9398000Y3302000D02*
X9398000Y7382000D01*
%TO.C,MP*%
X27178000Y60706000D02*
X27178000Y58801000D01*
X27178000Y58801000D02*
X26543000Y58166000D01*
X26543000Y58166000D02*
X17018000Y58166000D01*
X17018000Y58166000D02*
X17018000Y60706000D01*
X17018000Y60706000D02*
X27178000Y60706000D01*
%TO.C,R1*%
X17764000Y25263000D02*
X17764000Y24013000D01*
X17764000Y24013000D02*
X15764000Y24013000D01*
X15764000Y24013000D02*
X15764000Y25263000D01*
X15764000Y25263000D02*
X17764000Y25263000D01*
%TO.C,R2*%
X20304000Y28057000D02*
X20304000Y26807000D01*
X20304000Y26807000D02*
X18304000Y26807000D01*
X18304000Y26807000D02*
X18304000Y28057000D01*
X18304000Y28057000D02*
X20304000Y28057000D01*
%TO.C,J6*%
X14224000Y16764000D02*
X9144000Y16764000D01*
X14224000Y19304000D02*
X14224000Y16764000D01*
X9779000Y19304000D02*
X14224000Y19304000D01*
X9144000Y18669000D02*
X9779000Y19304000D01*
X9144000Y16764000D02*
X9144000Y18669000D01*
%TO.C,J7*%
X508000Y30480000D02*
X508000Y48260000D01*
X5588000Y30480000D02*
X508000Y30480000D01*
X5588000Y47260000D02*
X5588000Y30480000D01*
X4588000Y48260000D02*
X5588000Y47260000D01*
X508000Y48260000D02*
X4588000Y48260000D01*
%TO.C,J2*%
X20828000Y13970000D02*
X20828000Y10160000D01*
X20828000Y10160000D02*
X13208000Y10160000D01*
X13208000Y10160000D02*
X13208000Y15240000D01*
X13208000Y15240000D02*
X19558000Y15240000D01*
X19558000Y15240000D02*
X20828000Y13970000D01*
%TO.C,J4*%
X9144000Y19558000D02*
X9144000Y21463000D01*
X9144000Y21463000D02*
X9779000Y22098000D01*
X9779000Y22098000D02*
X26924000Y22098000D01*
X26924000Y22098000D02*
X26924000Y19558000D01*
X26924000Y19558000D02*
X9144000Y19558000D01*
%TD*%
M02*
