G04 #@! TF.GenerationSoftware,KiCad,Pcbnew,(5.1.7)-1*
G04 #@! TF.CreationDate,2023-01-25T18:29:27-07:00*
G04 #@! TF.ProjectId,Buttons,42757474-6f6e-4732-9e6b-696361645f70,rev?*
G04 #@! TF.SameCoordinates,PX7b89fa0PY567a2f0*
G04 #@! TF.FileFunction,Other,Fab,Top*
%FSLAX46Y46*%
G04 Gerber Fmt 4.6, Leading zero omitted, Abs format (unit mm)*
G04 Created by KiCad (PCBNEW (5.1.7)-1) date 2023-01-25 18:29:27*
%MOMM*%
%LPD*%
G01*
G04 APERTURE LIST*
%ADD10C,0.100000*%
G04 APERTURE END LIST*
D10*
X9398000Y15875000D02*
X9398000Y17780000D01*
X9398000Y17780000D02*
X29718000Y17780000D01*
X29718000Y17780000D02*
X29718000Y15240000D01*
X29718000Y15240000D02*
X10033000Y15240000D01*
X10033000Y15240000D02*
X9398000Y15875000D01*
X8163564Y11775000D02*
G75*
G03*
X8163564Y11775000I-2015564J0D01*
G01*
X3148000Y14775000D02*
X6148000Y14775000D01*
X3148000Y8775000D02*
X3148000Y14775000D01*
X9148000Y8775000D02*
X3148000Y8775000D01*
X9148000Y14775000D02*
X9148000Y8775000D01*
X6148000Y14775000D02*
X9148000Y14775000D01*
X6148000Y1472500D02*
X3148000Y1472500D01*
X3148000Y1472500D02*
X3148000Y7472500D01*
X3148000Y7472500D02*
X9148000Y7472500D01*
X9148000Y7472500D02*
X9148000Y1472500D01*
X9148000Y1472500D02*
X6148000Y1472500D01*
X8163564Y4472500D02*
G75*
G03*
X8163564Y4472500I-2015564J0D01*
G01*
X27594564Y11775000D02*
G75*
G03*
X27594564Y11775000I-2015564J0D01*
G01*
X28579000Y8775000D02*
X25579000Y8775000D01*
X28579000Y14775000D02*
X28579000Y8775000D01*
X22579000Y14775000D02*
X28579000Y14775000D01*
X22579000Y8775000D02*
X22579000Y14775000D01*
X25579000Y8775000D02*
X22579000Y8775000D01*
X20816000Y8116500D02*
X20816000Y5116500D01*
X20816000Y5116500D02*
X14816000Y5116500D01*
X14816000Y5116500D02*
X14816000Y11116500D01*
X14816000Y11116500D02*
X20816000Y11116500D01*
X20816000Y11116500D02*
X20816000Y8116500D01*
X19831564Y8116500D02*
G75*
G03*
X19831564Y8116500I-2015564J0D01*
G01*
X25602000Y7481000D02*
X28602000Y7481000D01*
X28602000Y7481000D02*
X28602000Y1481000D01*
X28602000Y1481000D02*
X22602000Y1481000D01*
X22602000Y1481000D02*
X22602000Y7481000D01*
X22602000Y7481000D02*
X25602000Y7481000D01*
X27617564Y4481000D02*
G75*
G03*
X27617564Y4481000I-2015564J0D01*
G01*
X35380564Y8139500D02*
G75*
G03*
X35380564Y8139500I-2015564J0D01*
G01*
X30365000Y5139500D02*
X30365000Y8139500D01*
X36365000Y5139500D02*
X30365000Y5139500D01*
X36365000Y11139500D02*
X36365000Y5139500D01*
X30365000Y11139500D02*
X36365000Y11139500D01*
X30365000Y8139500D02*
X30365000Y11139500D01*
X13946000Y12700000D02*
G75*
G03*
X13946000Y12700000I-1500000J0D01*
G01*
X11279810Y11200000D02*
X13612190Y11200000D01*
X13611476Y11199445D02*
G75*
G03*
X11279810Y11200000I-1165476J1500555D01*
G01*
X5350000Y13345000D02*
X5350000Y14595000D01*
X5350000Y14595000D02*
X7350000Y14595000D01*
X7350000Y14595000D02*
X7350000Y13345000D01*
X7350000Y13345000D02*
X5350000Y13345000D01*
M02*
