G04 #@! TF.GenerationSoftware,KiCad,Pcbnew,(5.1.7)-1*
G04 #@! TF.CreationDate,2023-01-25T18:29:27-07:00*
G04 #@! TF.ProjectId,Buttons,42757474-6f6e-4732-9e6b-696361645f70,rev?*
G04 #@! TF.SameCoordinates,PX7b89fa0PY567a2f0*
G04 #@! TF.FileFunction,Soldermask,Top*
G04 #@! TF.FilePolarity,Negative*
%FSLAX46Y46*%
G04 Gerber Fmt 4.6, Leading zero omitted, Abs format (unit mm)*
G04 Created by KiCad (PCBNEW (5.1.7)-1) date 2023-01-25 18:29:27*
%MOMM*%
%LPD*%
G01*
G04 APERTURE LIST*
%ADD10O,1.802000X1.802000*%
%ADD11C,5.502000*%
%ADD12C,2.102000*%
%ADD13C,1.902000*%
G04 APERTURE END LIST*
D10*
X28448000Y16510000D03*
X25908000Y16510000D03*
X23368000Y16510000D03*
X20828000Y16510000D03*
X18288000Y16510000D03*
X15748000Y16510000D03*
X13208000Y16510000D03*
G36*
G01*
X11518000Y15609000D02*
X9818000Y15609000D01*
G75*
G02*
X9767000Y15660000I0J51000D01*
G01*
X9767000Y17360000D01*
G75*
G02*
X9818000Y17411000I51000J0D01*
G01*
X11518000Y17411000D01*
G75*
G02*
X11569000Y17360000I0J-51000D01*
G01*
X11569000Y15660000D01*
G75*
G02*
X11518000Y15609000I-51000J0D01*
G01*
G37*
D11*
X34290000Y20066000D03*
X4064000Y20066000D03*
D12*
X9398000Y14025000D03*
X9398000Y9525000D03*
X2898000Y14025000D03*
X2898000Y9525000D03*
X9398000Y6722500D03*
X9398000Y2222500D03*
X2898000Y6722500D03*
X2898000Y2222500D03*
X22329000Y9525000D03*
X22329000Y14025000D03*
X28829000Y9525000D03*
X28829000Y14025000D03*
X15566000Y11366500D03*
X20066000Y11366500D03*
X15566000Y4866500D03*
X20066000Y4866500D03*
X22352000Y2231000D03*
X22352000Y6731000D03*
X28852000Y2231000D03*
X28852000Y6731000D03*
X31115000Y11389500D03*
X35615000Y11389500D03*
X31115000Y4889500D03*
X35615000Y4889500D03*
G36*
G01*
X13346000Y10479000D02*
X11546000Y10479000D01*
G75*
G02*
X11495000Y10530000I0J51000D01*
G01*
X11495000Y12330000D01*
G75*
G02*
X11546000Y12381000I51000J0D01*
G01*
X13346000Y12381000D01*
G75*
G02*
X13397000Y12330000I0J-51000D01*
G01*
X13397000Y10530000D01*
G75*
G02*
X13346000Y10479000I-51000J0D01*
G01*
G37*
D13*
X12446000Y13970000D03*
G36*
G01*
X4874000Y13493875D02*
X4874000Y14446125D01*
G75*
G02*
X5148875Y14721000I274875J0D01*
G01*
X5726125Y14721000D01*
G75*
G02*
X6001000Y14446125I0J-274875D01*
G01*
X6001000Y13493875D01*
G75*
G02*
X5726125Y13219000I-274875J0D01*
G01*
X5148875Y13219000D01*
G75*
G02*
X4874000Y13493875I0J274875D01*
G01*
G37*
G36*
G01*
X6699000Y13493875D02*
X6699000Y14446125D01*
G75*
G02*
X6973875Y14721000I274875J0D01*
G01*
X7551125Y14721000D01*
G75*
G02*
X7826000Y14446125I0J-274875D01*
G01*
X7826000Y13493875D01*
G75*
G02*
X7551125Y13219000I-274875J0D01*
G01*
X6973875Y13219000D01*
G75*
G02*
X6699000Y13493875I0J274875D01*
G01*
G37*
M02*
