M48
; DRILL file {KiCad (5.1.7)-1} date 11/01/20 01:37:23
; FORMAT={-:-/ absolute / inch / decimal}
; #@! TF.CreationDate,2020-11-01T01:37:23-06:00
; #@! TF.GenerationSoftware,Kicad,Pcbnew,(5.1.7)-1
; #@! TF.FileFunction,Plated,1,2,PTH
FMAT,2
INCH
T1C0.0394
T2C0.0866
%
G90
G05
T1
X1.0Y0.51
X1.0Y0.41
X1.1Y0.51
X1.1Y0.41
X1.2Y0.51
X1.2Y0.41
X0.15Y0.14
X0.25Y0.14
X0.35Y0.14
X0.15Y0.245
X0.25Y0.245
X0.35Y0.245
X0.45Y0.245
X0.55Y0.245
X0.65Y0.245
X0.75Y0.245
X0.85Y0.245
X0.12Y0.78
X0.22Y0.78
X0.32Y0.78
X0.42Y0.78
X0.52Y0.78
X0.62Y0.78
X0.72Y0.78
X0.45Y0.14
X0.55Y0.14
X0.65Y0.14
X0.75Y0.14
X0.85Y0.14
X0.295Y0.51
X0.295Y0.41
X0.395Y0.51
X0.395Y0.41
X0.495Y0.51
X0.495Y0.41
T2
X0.6525Y0.4525
T0
M30
