G04 #@! TF.GenerationSoftware,KiCad,Pcbnew,(5.1.7)-1*
G04 #@! TF.CreationDate,2020-11-01T01:37:02-06:00*
G04 #@! TF.ProjectId,MainBoardSplit,4d61696e-426f-4617-9264-53706c69742e,rev?*
G04 #@! TF.SameCoordinates,PX82144b0PY4c0fae0*
G04 #@! TF.FileFunction,Copper,L1,Top*
G04 #@! TF.FilePolarity,Positive*
%FSLAX46Y46*%
G04 Gerber Fmt 4.6, Leading zero omitted, Abs format (unit mm)*
G04 Created by KiCad (PCBNEW (5.1.7)-1) date 2020-11-01 01:37:02*
%MOMM*%
%LPD*%
G01*
G04 APERTURE LIST*
G04 #@! TA.AperFunction,ComponentPad*
%ADD10O,1.700000X1.700000*%
G04 #@! TD*
G04 #@! TA.AperFunction,ComponentPad*
%ADD11R,1.700000X1.700000*%
G04 #@! TD*
G04 #@! TA.AperFunction,ComponentPad*
%ADD12C,3.800000*%
G04 #@! TD*
G04 #@! TA.AperFunction,Conductor*
%ADD13C,0.400000*%
G04 #@! TD*
G04 #@! TA.AperFunction,Conductor*
%ADD14C,0.800000*%
G04 #@! TD*
G04 #@! TA.AperFunction,Conductor*
%ADD15C,0.600000*%
G04 #@! TD*
G04 APERTURE END LIST*
D10*
X8890000Y3556000D03*
X6350000Y3556000D03*
D11*
X3810000Y3556000D03*
D10*
X21590000Y6223000D03*
X19050000Y6223000D03*
X16510000Y6223000D03*
X13970000Y6223000D03*
X11430000Y6223000D03*
X8890000Y6223000D03*
X6350000Y6223000D03*
D11*
X3810000Y6223000D03*
G04 #@! TA.AperFunction,SMDPad,CuDef*
G36*
G01*
X23260000Y1073998D02*
X23260000Y1974002D01*
G75*
G02*
X23509998Y2224000I249998J0D01*
G01*
X24035002Y2224000D01*
G75*
G02*
X24285000Y1974002I0J-249998D01*
G01*
X24285000Y1073998D01*
G75*
G02*
X24035002Y824000I-249998J0D01*
G01*
X23509998Y824000D01*
G75*
G02*
X23260000Y1073998I0J249998D01*
G01*
G37*
G04 #@! TD.AperFunction*
G04 #@! TA.AperFunction,SMDPad,CuDef*
G36*
G01*
X21435000Y1073998D02*
X21435000Y1974002D01*
G75*
G02*
X21684998Y2224000I249998J0D01*
G01*
X22210002Y2224000D01*
G75*
G02*
X22460000Y1974002I0J-249998D01*
G01*
X22460000Y1073998D01*
G75*
G02*
X22210002Y824000I-249998J0D01*
G01*
X21684998Y824000D01*
G75*
G02*
X21435000Y1073998I0J249998D01*
G01*
G37*
G04 #@! TD.AperFunction*
D10*
X21590000Y3556000D03*
X19050000Y3556000D03*
X16510000Y3556000D03*
X13970000Y3556000D03*
D11*
X11430000Y3556000D03*
D10*
X18288000Y19812000D03*
X15748000Y19812000D03*
X13208000Y19812000D03*
X10668000Y19812000D03*
X8128000Y19812000D03*
X5588000Y19812000D03*
D11*
X3048000Y19812000D03*
G04 #@! TA.AperFunction,SMDPad,CuDef*
G36*
G01*
X18904000Y1974002D02*
X18904000Y1073998D01*
G75*
G02*
X18654002Y824000I-249998J0D01*
G01*
X18128998Y824000D01*
G75*
G02*
X17879000Y1073998I0J249998D01*
G01*
X17879000Y1974002D01*
G75*
G02*
X18128998Y2224000I249998J0D01*
G01*
X18654002Y2224000D01*
G75*
G02*
X18904000Y1974002I0J-249998D01*
G01*
G37*
G04 #@! TD.AperFunction*
G04 #@! TA.AperFunction,SMDPad,CuDef*
G36*
G01*
X20729000Y1974002D02*
X20729000Y1073998D01*
G75*
G02*
X20479002Y824000I-249998J0D01*
G01*
X19953998Y824000D01*
G75*
G02*
X19704000Y1073998I0J249998D01*
G01*
X19704000Y1974002D01*
G75*
G02*
X19953998Y2224000I249998J0D01*
G01*
X20479002Y2224000D01*
G75*
G02*
X20729000Y1974002I0J-249998D01*
G01*
G37*
G04 #@! TD.AperFunction*
D10*
X25400000Y10414000D03*
X25400000Y12954000D03*
X27940000Y10414000D03*
X27940000Y12954000D03*
X30480000Y10414000D03*
D11*
X30480000Y12954000D03*
X12573000Y12954000D03*
D10*
X12573000Y10414000D03*
X10033000Y12954000D03*
X10033000Y10414000D03*
X7493000Y12954000D03*
X7493000Y10414000D03*
G04 #@! TA.AperFunction,SMDPad,CuDef*
G36*
G01*
X24326001Y5512000D02*
X23425999Y5512000D01*
G75*
G02*
X23176000Y5761999I0J249999D01*
G01*
X23176000Y6412001D01*
G75*
G02*
X23425999Y6662000I249999J0D01*
G01*
X24326001Y6662000D01*
G75*
G02*
X24576000Y6412001I0J-249999D01*
G01*
X24576000Y5761999D01*
G75*
G02*
X24326001Y5512000I-249999J0D01*
G01*
G37*
G04 #@! TD.AperFunction*
G04 #@! TA.AperFunction,SMDPad,CuDef*
G36*
G01*
X24326001Y7562000D02*
X23425999Y7562000D01*
G75*
G02*
X23176000Y7811999I0J249999D01*
G01*
X23176000Y8462001D01*
G75*
G02*
X23425999Y8712000I249999J0D01*
G01*
X24326001Y8712000D01*
G75*
G02*
X24576000Y8462001I0J-249999D01*
G01*
X24576000Y7811999D01*
G75*
G02*
X24326001Y7562000I-249999J0D01*
G01*
G37*
G04 #@! TD.AperFunction*
D12*
X16573500Y11493500D03*
D13*
X16403008Y7966010D02*
X15220001Y6783003D01*
X18147096Y7966010D02*
X16403008Y7966010D01*
X20073519Y9892433D02*
X18147096Y7966010D01*
X20073520Y13094564D02*
X20073519Y9892433D01*
X17744067Y15424019D02*
X20073520Y13094564D01*
X10737980Y15424020D02*
X17744067Y15424019D01*
X10668000Y15494000D02*
X10737980Y15424020D01*
X10668000Y19812000D02*
X10668000Y15494000D01*
X13970000Y3714544D02*
X13970000Y3556000D01*
X13970000Y4372998D02*
X13970000Y3556000D01*
X15220001Y5622999D02*
X13970000Y4372998D01*
X15220001Y6783003D02*
X15220001Y5622999D01*
X20673529Y13343096D02*
X17760625Y16256000D01*
X15153457Y16256001D02*
X13208000Y18201458D01*
X20673528Y9643902D02*
X20673529Y13343096D01*
X17760001Y6730375D02*
X20673528Y9643902D01*
X17760001Y5622999D02*
X17760001Y6730375D01*
X13208000Y18201458D02*
X13208000Y19812000D01*
X17760625Y16256000D02*
X15153457Y16256001D01*
X16510000Y4372998D02*
X17760001Y5622999D01*
X16510000Y3556000D02*
X16510000Y4372998D01*
D14*
X3425999Y6607001D02*
X3810000Y6223000D01*
X3810000Y6223000D02*
X3810000Y6096000D01*
D13*
X30480000Y12954000D02*
X30099000Y12954000D01*
X8782999Y6330001D02*
X8890000Y6223000D01*
D15*
X21708000Y6341000D02*
X21590000Y6223000D01*
D14*
X5588000Y19571998D02*
X5588000Y19812000D01*
D13*
X8743001Y11703999D02*
X10033000Y10414000D01*
X8743001Y13514003D02*
X8743001Y11703999D01*
X9452998Y14224000D02*
X8743001Y13514003D01*
D14*
X7221773Y10414000D02*
X7493000Y10414000D01*
X3810000Y6223000D02*
X3810000Y3556000D01*
X3810000Y19050000D02*
X3048000Y19812000D01*
X4064000Y10414000D02*
X3810000Y10160000D01*
X7493000Y10414000D02*
X4064000Y10414000D01*
X3810000Y6223000D02*
X3810000Y10160000D01*
X3810000Y10160000D02*
X3810000Y16764000D01*
X3810000Y17526000D02*
X3810000Y19050000D01*
X3810000Y16764000D02*
X3810000Y17526000D01*
D13*
X15748000Y1524000D02*
X18391500Y1524000D01*
X1759989Y17510047D02*
X1759989Y2016046D01*
X997989Y18272046D02*
X1759989Y17510047D01*
X1759989Y2016046D02*
X2270046Y1505989D01*
X997989Y21351954D02*
X997989Y18272046D01*
X1508046Y21862011D02*
X997989Y21351954D01*
X15729989Y1505989D02*
X15748000Y1524000D01*
X5387991Y21862011D02*
X1508046Y21862011D01*
X6838001Y20412001D02*
X5387991Y21862011D01*
X6838001Y18268001D02*
X6838001Y20412001D01*
X2270046Y1505989D02*
X15729989Y1505989D01*
X6096000Y17526000D02*
X6838001Y18268001D01*
X3810000Y17526000D02*
X6096000Y17526000D01*
D15*
X12573000Y10414000D02*
X12091037Y10414000D01*
X12573000Y10414000D02*
X12573000Y9525000D01*
X11838000Y8790000D02*
X7266000Y8790000D01*
X12573000Y9525000D02*
X11838000Y8790000D01*
X6350000Y7874000D02*
X6350000Y6223000D01*
X7266000Y8790000D02*
X6350000Y7874000D01*
X6350000Y6223000D02*
X6350000Y3556000D01*
X4237999Y21162001D02*
X5588000Y19812000D01*
X1797999Y21162001D02*
X4237999Y21162001D01*
X1697999Y21062001D02*
X1797999Y21162001D01*
X2459999Y17799999D02*
X1697999Y18561999D01*
X2459999Y2305999D02*
X2459999Y17799999D01*
X2559999Y2205999D02*
X2459999Y2305999D01*
X6015999Y2205999D02*
X2559999Y2205999D01*
X6350000Y2540000D02*
X6015999Y2205999D01*
X1697999Y18561999D02*
X1697999Y21062001D01*
X6350000Y3556000D02*
X6350000Y2540000D01*
D13*
X25146000Y10160000D02*
X25400000Y10414000D01*
X19050000Y7171832D02*
X19050000Y6223000D01*
X22292166Y10414000D02*
X19050000Y7171832D01*
X25400000Y10414000D02*
X22292166Y10414000D01*
X16510000Y6223000D02*
X16510000Y6328915D01*
X16510000Y6064456D02*
X16510000Y6223000D01*
X15240000Y4794456D02*
X16510000Y6064456D01*
X18034000Y4826000D02*
X17780000Y4572000D01*
X27250002Y10414000D02*
X26000001Y9163999D01*
X21890707Y9163999D02*
X20300001Y7573293D01*
X20300001Y7573293D02*
X20300001Y5622999D01*
X20300001Y5622999D02*
X19503002Y4826000D01*
X26000001Y9163999D02*
X21890707Y9163999D01*
X19503002Y4826000D02*
X18034000Y4826000D01*
X17780000Y4572000D02*
X17780000Y2975998D01*
X17780000Y2975998D02*
X17110001Y2305999D01*
X15909999Y2305999D02*
X15240000Y2975998D01*
X17110001Y2305999D02*
X15909999Y2305999D01*
X27940000Y10414000D02*
X27250002Y10414000D01*
X15240000Y2975998D02*
X15240000Y4794456D01*
X30480000Y12954000D02*
X30480000Y13462000D01*
X9378001Y21062001D02*
X8128000Y19812000D01*
X14458001Y20412001D02*
X13808001Y21062001D01*
X15401990Y16856010D02*
X14458001Y17799999D01*
X18009157Y16856010D02*
X15401990Y16856010D01*
X23161168Y11703999D02*
X18009157Y16856010D01*
X14458001Y17799999D02*
X14458001Y20412001D01*
X29229999Y11703999D02*
X23161168Y11703999D01*
X13808001Y21062001D02*
X9378001Y21062001D01*
X30480000Y12954000D02*
X29229999Y11703999D01*
X11283001Y11703999D02*
X10033000Y12954000D01*
X8890000Y6223000D02*
X10756990Y8089990D01*
X13823001Y11014001D02*
X13823001Y9813999D01*
X13133003Y11703999D02*
X13823001Y11014001D01*
X11283001Y11703999D02*
X13133003Y11703999D01*
X12127953Y8089990D02*
X11137990Y8089990D01*
X13273010Y9235047D02*
X12127953Y8089990D01*
X13273010Y9264008D02*
X13273010Y9235047D01*
X13823001Y9813999D02*
X13273010Y9264008D01*
X10756990Y8089990D02*
X11137990Y8089990D01*
X11430000Y6223000D02*
X14400499Y9193499D01*
X17677501Y9193499D02*
X18873501Y10389499D01*
X18873501Y10389499D02*
X18873501Y12597501D01*
X18873501Y12597501D02*
X17247002Y14224000D01*
X17247002Y14224000D02*
X9452998Y14224000D01*
X14400499Y9193499D02*
X17677501Y9193499D01*
X13970000Y7425081D02*
X13970000Y6223000D01*
X15138408Y8593489D02*
X13970000Y7425081D01*
X17926033Y8593489D02*
X15138408Y8593489D01*
X19473510Y10140966D02*
X17926033Y8593489D01*
X19473511Y12846033D02*
X19473510Y10140966D01*
X17495534Y14824010D02*
X19473511Y12846033D01*
X7695052Y14824010D02*
X17495534Y14824010D01*
X7493000Y14621958D02*
X7695052Y14824010D01*
X7493000Y12954000D02*
X7493000Y14621958D01*
X18288000Y19812000D02*
X18288000Y17425709D01*
X22759709Y12954000D02*
X25400000Y12954000D01*
X18288000Y17425709D02*
X22759709Y12954000D01*
D15*
X23740000Y6223000D02*
X23876000Y6087000D01*
X21590000Y6223000D02*
X23740000Y6223000D01*
D13*
X16002000Y21082000D02*
X15748000Y20828000D01*
X19558000Y20392002D02*
X18868002Y21082000D01*
X18868002Y21082000D02*
X16002000Y21082000D01*
X19558000Y17004251D02*
X19558000Y20392002D01*
X15748000Y20828000D02*
X15748000Y19812000D01*
X22358250Y14204001D02*
X19558000Y17004251D01*
X26000001Y14204001D02*
X22358250Y14204001D01*
X27250002Y12954000D02*
X26000001Y14204001D01*
X27940000Y12954000D02*
X27250002Y12954000D01*
X24302989Y8563989D02*
X23876000Y8137000D01*
X26248533Y8563989D02*
X24302989Y8563989D01*
X28520002Y9144000D02*
X26828544Y9144000D01*
X26828544Y9144000D02*
X26248533Y8563989D01*
X29790002Y10414000D02*
X28520002Y9144000D01*
X30480000Y10414000D02*
X29790002Y10414000D01*
X21590000Y3556000D02*
X23368000Y3556000D01*
X23772500Y3151500D02*
X23772500Y1524000D01*
X23368000Y3556000D02*
X23772500Y3151500D01*
D15*
X8890000Y3556000D02*
X11430000Y3556000D01*
D13*
X21947500Y1524000D02*
X20216500Y1524000D01*
X20216500Y2389500D02*
X20216500Y1524000D01*
X19050000Y3556000D02*
X20216500Y2389500D01*
M02*
