G04 #@! TF.GenerationSoftware,KiCad,Pcbnew,(5.1.7)-1*
G04 #@! TF.CreationDate,2023-01-25T18:29:27-07:00*
G04 #@! TF.ProjectId,Buttons,42757474-6f6e-4732-9e6b-696361645f70,rev?*
G04 #@! TF.SameCoordinates,PX7b89fa0PY567a2f0*
G04 #@! TF.FileFunction,Copper,L1,Top*
G04 #@! TF.FilePolarity,Positive*
%FSLAX46Y46*%
G04 Gerber Fmt 4.6, Leading zero omitted, Abs format (unit mm)*
G04 Created by KiCad (PCBNEW (5.1.7)-1) date 2023-01-25 18:29:27*
%MOMM*%
%LPD*%
G01*
G04 APERTURE LIST*
G04 #@! TA.AperFunction,ComponentPad*
%ADD10O,1.700000X1.700000*%
G04 #@! TD*
G04 #@! TA.AperFunction,ComponentPad*
%ADD11R,1.700000X1.700000*%
G04 #@! TD*
G04 #@! TA.AperFunction,ComponentPad*
%ADD12C,5.400000*%
G04 #@! TD*
G04 #@! TA.AperFunction,ComponentPad*
%ADD13C,2.000000*%
G04 #@! TD*
G04 #@! TA.AperFunction,ComponentPad*
%ADD14R,1.800000X1.800000*%
G04 #@! TD*
G04 #@! TA.AperFunction,ComponentPad*
%ADD15C,1.800000*%
G04 #@! TD*
G04 #@! TA.AperFunction,Conductor*
%ADD16C,0.800000*%
G04 #@! TD*
G04 #@! TA.AperFunction,Conductor*
%ADD17C,1.000000*%
G04 #@! TD*
G04 #@! TA.AperFunction,Conductor*
%ADD18C,0.600000*%
G04 #@! TD*
G04 APERTURE END LIST*
D10*
X28448000Y16510000D03*
X25908000Y16510000D03*
X23368000Y16510000D03*
X20828000Y16510000D03*
X18288000Y16510000D03*
X15748000Y16510000D03*
X13208000Y16510000D03*
D11*
X10668000Y16510000D03*
D12*
X34290000Y20066000D03*
X4064000Y20066000D03*
D13*
X9398000Y14025000D03*
X9398000Y9525000D03*
X2898000Y14025000D03*
X2898000Y9525000D03*
X9398000Y6722500D03*
X9398000Y2222500D03*
X2898000Y6722500D03*
X2898000Y2222500D03*
X22329000Y9525000D03*
X22329000Y14025000D03*
X28829000Y9525000D03*
X28829000Y14025000D03*
X15566000Y11366500D03*
X20066000Y11366500D03*
X15566000Y4866500D03*
X20066000Y4866500D03*
X22352000Y2231000D03*
X22352000Y6731000D03*
X28852000Y2231000D03*
X28852000Y6731000D03*
X31115000Y11389500D03*
X35615000Y11389500D03*
X31115000Y4889500D03*
X35615000Y4889500D03*
D14*
X12446000Y11430000D03*
D15*
X12446000Y13970000D03*
G04 #@! TA.AperFunction,SMDPad,CuDef*
G36*
G01*
X4925000Y13519998D02*
X4925000Y14420002D01*
G75*
G02*
X5174998Y14670000I249998J0D01*
G01*
X5700002Y14670000D01*
G75*
G02*
X5950000Y14420002I0J-249998D01*
G01*
X5950000Y13519998D01*
G75*
G02*
X5700002Y13270000I-249998J0D01*
G01*
X5174998Y13270000D01*
G75*
G02*
X4925000Y13519998I0J249998D01*
G01*
G37*
G04 #@! TD.AperFunction*
G04 #@! TA.AperFunction,SMDPad,CuDef*
G36*
G01*
X6750000Y13519998D02*
X6750000Y14420002D01*
G75*
G02*
X6999998Y14670000I249998J0D01*
G01*
X7525002Y14670000D01*
G75*
G02*
X7775000Y14420002I0J-249998D01*
G01*
X7775000Y13519998D01*
G75*
G02*
X7525002Y13270000I-249998J0D01*
G01*
X6999998Y13270000D01*
G75*
G02*
X6750000Y13519998I0J249998D01*
G01*
G37*
G04 #@! TD.AperFunction*
D16*
X19613000Y11199000D02*
X19613000Y11309000D01*
D17*
X1921001Y3230999D02*
X2921000Y2231000D01*
X1197999Y3954001D02*
X1921001Y3230999D01*
X1197999Y12324999D02*
X1197999Y3954001D01*
X2898000Y14025000D02*
X1197999Y12324999D01*
X2921000Y2231000D02*
X9421000Y2231000D01*
X22352000Y2231000D02*
X28852000Y2231000D01*
D16*
X22343500Y2222500D02*
X22352000Y2231000D01*
X12319000Y2222500D02*
X19685000Y2222500D01*
X9398000Y2222500D02*
X12319000Y2222500D01*
X20066000Y11366500D02*
X20066000Y4866500D01*
X20066000Y4866500D02*
X20066000Y2222500D01*
X19685000Y2222500D02*
X20066000Y2222500D01*
X20066000Y2222500D02*
X22343500Y2222500D01*
X35615000Y11389500D02*
X35615000Y4889500D01*
X32956500Y2231000D02*
X35615000Y4889500D01*
X28852000Y2231000D02*
X32956500Y2231000D01*
X9851000Y14478000D02*
X9398000Y14025000D01*
X32979500Y14025000D02*
X28829000Y14025000D01*
X35615000Y11389500D02*
X32979500Y14025000D01*
X9398000Y14025000D02*
X10215000Y14025000D01*
X10668000Y14478000D02*
X10668000Y16510000D01*
X10215000Y14025000D02*
X10668000Y14478000D01*
X5383000Y16510000D02*
X2898000Y14025000D01*
X10668000Y16510000D02*
X5383000Y16510000D01*
X5382500Y14025000D02*
X5437500Y13970000D01*
X2898000Y14025000D02*
X5382500Y14025000D01*
X22329000Y13629500D02*
X20066000Y11366500D01*
X22329000Y14025000D02*
X22329000Y13629500D01*
D18*
X2921500Y9501500D02*
X2898000Y9525000D01*
X2898000Y9525000D02*
X9398000Y9525000D01*
X15748000Y16510000D02*
X15748000Y14478000D01*
X15748000Y14478000D02*
X13970000Y12700000D01*
X13970000Y12700000D02*
X13970000Y9906000D01*
X13589000Y9525000D02*
X9398000Y9525000D01*
X13970000Y9906000D02*
X13589000Y9525000D01*
X2898000Y6722500D02*
X9398000Y6722500D01*
X13834500Y6722500D02*
X9398000Y6722500D01*
X17272000Y10160000D02*
X13834500Y6722500D01*
X17272000Y13208000D02*
X17272000Y10160000D01*
X18288000Y14224000D02*
X17272000Y13208000D01*
X18288000Y16510000D02*
X18288000Y14224000D01*
X27328999Y15390999D02*
X28448000Y16510000D01*
X27328999Y13057001D02*
X27328999Y15390999D01*
X28996500Y11389500D02*
X27328999Y13057001D01*
X31115000Y11389500D02*
X28996500Y11389500D01*
X31115000Y11389500D02*
X31115000Y4889500D01*
X24384000Y15494000D02*
X23368000Y16510000D01*
X24384000Y11580000D02*
X24384000Y15494000D01*
X22329000Y9525000D02*
X24384000Y11580000D01*
X28828500Y6754500D02*
X28852000Y6731000D01*
X25654000Y6754500D02*
X28828500Y6754500D01*
X22375500Y6754500D02*
X22352000Y6731000D01*
X25654000Y6754500D02*
X22375500Y6754500D01*
X25908000Y10287000D02*
X25908000Y16510000D01*
X22352000Y6731000D02*
X25908000Y10287000D01*
X20828000Y16510000D02*
X20828000Y15240000D01*
X20828000Y15240000D02*
X18288000Y12700000D01*
X18288000Y7588500D02*
X15566000Y4866500D01*
X18288000Y12700000D02*
X18288000Y7588500D01*
X7262500Y13970000D02*
X7262500Y13311500D01*
X11749490Y12126510D02*
X12446000Y11430000D01*
X8447490Y12126510D02*
X11749490Y12126510D01*
X7262500Y13311500D02*
X8447490Y12126510D01*
X13208000Y14732000D02*
X12446000Y13970000D01*
X13208000Y16510000D02*
X13208000Y14732000D01*
M02*
