%TF.GenerationSoftware,KiCad,Pcbnew,(5.1.7)-1*%
%TF.CreationDate,2023-01-25T18:34:39-07:00*%
%TF.ProjectId,AMPE32T30,414d5045-3332-4543-9330-2e6b69636164,rev?*%
%TF.SameCoordinates,PX76efc10PY4dffc60*%
%TF.FileFunction,Other,Fab,Top*%
%FSLAX46Y46*%
G04 Gerber Fmt 4.6, Leading zero omitted, Abs format (unit mm)*
G04 Created by KiCad (PCBNEW (5.1.7)-1) date 2023-01-25 18:34:39*
%MOMM*%
%LPD*%
G01*
G04 APERTURE LIST*
%ADD10C,0.100000*%
%ADD11C,0.150000*%
G04 APERTURE END LIST*
D10*
%TO.C,J6*%
X8636000Y16002000D02*
X8636000Y17907000D01*
X8636000Y17907000D02*
X9271000Y18542000D01*
X9271000Y18542000D02*
X13716000Y18542000D01*
X13716000Y18542000D02*
X13716000Y16002000D01*
X13716000Y16002000D02*
X8636000Y16002000D01*
%TO.C,BZ1*%
X38568000Y4572000D02*
G75*
G03*
X38568000Y4572000I-4500000J0D01*
G01*
%TO.C,J5*%
X9398000Y2540000D02*
X9398000Y6620000D01*
X9398000Y6620000D02*
X10398000Y7620000D01*
X10398000Y7620000D02*
X29718000Y7620000D01*
X29718000Y7620000D02*
X29718000Y2540000D01*
X29718000Y2540000D02*
X9398000Y2540000D01*
%TO.C,J7*%
X508000Y27178000D02*
X4588000Y27178000D01*
X4588000Y27178000D02*
X5588000Y26178000D01*
X5588000Y26178000D02*
X5588000Y9398000D01*
X5588000Y9398000D02*
X508000Y9398000D01*
X508000Y9398000D02*
X508000Y27178000D01*
%TO.C,J8*%
X33528000Y27178000D02*
X33528000Y50038000D01*
X36068000Y27178000D02*
X33528000Y27178000D01*
X36068000Y49403000D02*
X36068000Y27178000D01*
X35433000Y50038000D02*
X36068000Y49403000D01*
X33528000Y50038000D02*
X35433000Y50038000D01*
%TO.C,J11*%
X7874000Y28194000D02*
X7874000Y53594000D01*
X10414000Y28194000D02*
X7874000Y28194000D01*
X10414000Y52959000D02*
X10414000Y28194000D01*
X9779000Y53594000D02*
X10414000Y52959000D01*
X7874000Y53594000D02*
X9779000Y53594000D01*
%TO.C,J3*%
X38608000Y14478000D02*
X38608000Y10398000D01*
X38608000Y10398000D02*
X37608000Y9398000D01*
X37608000Y9398000D02*
X30988000Y9398000D01*
X30988000Y9398000D02*
X30988000Y14478000D01*
X30988000Y14478000D02*
X38608000Y14478000D01*
%TO.C,J2*%
X19558000Y14478000D02*
X20828000Y13208000D01*
X13208000Y14478000D02*
X19558000Y14478000D01*
X13208000Y9398000D02*
X13208000Y14478000D01*
X20828000Y9398000D02*
X13208000Y9398000D01*
X20828000Y13208000D02*
X20828000Y9398000D01*
%TO.C,R3*%
X31633000Y6620000D02*
X31633000Y8620000D01*
X32883000Y6620000D02*
X31633000Y6620000D01*
X32883000Y8620000D02*
X32883000Y6620000D01*
X31633000Y8620000D02*
X32883000Y8620000D01*
%TO.C,J4*%
X26416000Y18796000D02*
X8636000Y18796000D01*
X26416000Y21336000D02*
X26416000Y18796000D01*
X9271000Y21336000D02*
X26416000Y21336000D01*
X8636000Y20701000D02*
X9271000Y21336000D01*
X8636000Y18796000D02*
X8636000Y20701000D01*
%TO.C,J1*%
X508000Y55118000D02*
X508000Y62738000D01*
X5588000Y55118000D02*
X508000Y55118000D01*
X5588000Y61738000D02*
X5588000Y55118000D01*
X4588000Y62738000D02*
X5588000Y61738000D01*
X508000Y62738000D02*
X4588000Y62738000D01*
%TD*%
%TO.C,BZ1*%
D11*
X37187047Y4400572D02*
X37948952Y4400572D01*
X37568000Y4019620D02*
X37568000Y4781524D01*
%TD*%
M02*
