%TF.GenerationSoftware,KiCad,Pcbnew,(5.1.7)-1*%
%TF.CreationDate,2023-01-25T18:34:39-07:00*%
%TF.ProjectId,AMPE32T30,414d5045-3332-4543-9330-2e6b69636164,rev?*%
%TF.SameCoordinates,PX76efc10PY4dffc60*%
%TF.FileFunction,Copper,L1,Top*%
%TF.FilePolarity,Positive*%
%FSLAX46Y46*%
G04 Gerber Fmt 4.6, Leading zero omitted, Abs format (unit mm)*
G04 Created by KiCad (PCBNEW (5.1.7)-1) date 2023-01-25 18:34:39*
%MOMM*%
%LPD*%
G01*
G04 APERTURE LIST*
%TA.AperFunction,ComponentPad*%
%ADD10C,4.400000*%
%TD*%
%TA.AperFunction,ComponentPad*%
%ADD11O,1.700000X1.700000*%
%TD*%
%TA.AperFunction,ComponentPad*%
%ADD12R,1.700000X1.700000*%
%TD*%
%TA.AperFunction,ComponentPad*%
%ADD13C,1.600000*%
%TD*%
%TA.AperFunction,ComponentPad*%
%ADD14R,1.600000X1.600000*%
%TD*%
%TA.AperFunction,Conductor*%
%ADD15C,0.800000*%
%TD*%
%TA.AperFunction,Conductor*%
%ADD16C,0.400000*%
%TD*%
G04 APERTURE END LIST*
D10*
%TO.P,e,1*%
%TO.N,N/C*%
X3048000Y6604000D03*
%TD*%
%TO.P,f,1*%
%TO.N,N/C*%
X34544000Y54864000D03*
%TD*%
D11*
%TO.P,J6,2*%
%TO.N,/VCC*%
X12446000Y17272000D03*
D12*
%TO.P,J6,1*%
%TO.N,/GND*%
X9906000Y17272000D03*
%TD*%
D13*
%TO.P,BZ1,2*%
%TO.N,Net-(BZ1-Pad2)*%
X31496000Y4572000D03*
D14*
%TO.P,BZ1,1*%
%TO.N,/BZ*%
X36576000Y4572000D03*
%TD*%
D11*
%TO.P,J5,16*%
%TO.N,Net-(J5-Pad16)*%
X28448000Y3810000D03*
%TO.P,J5,15*%
%TO.N,/BL*%
X28448000Y6350000D03*
%TO.P,J5,14*%
%TO.N,Net-(J5-Pad14)*%
X25908000Y3810000D03*
%TO.P,J5,13*%
%TO.N,/CS*%
X25908000Y6350000D03*
%TO.P,J5,12*%
%TO.N,Net-(J5-Pad12)*%
X23368000Y3810000D03*
%TO.P,J5,11*%
%TO.N,/RS*%
X23368000Y6350000D03*
%TO.P,J5,10*%
%TO.N,Net-(J5-Pad10)*%
X20828000Y3810000D03*
%TO.P,J5,9*%
%TO.N,/RES*%
X20828000Y6350000D03*
%TO.P,J5,8*%
%TO.N,Net-(J5-Pad8)*%
X18288000Y3810000D03*
%TO.P,J5,7*%
%TO.N,/SDA*%
X18288000Y6350000D03*
%TO.P,J5,6*%
%TO.N,/D24*%
X15748000Y3810000D03*
%TO.P,J5,5*%
%TO.N,/SCK*%
X15748000Y6350000D03*
%TO.P,J5,4*%
%TO.N,/VCC*%
X13208000Y3810000D03*
%TO.P,J5,3*%
X13208000Y6350000D03*
%TO.P,J5,2*%
%TO.N,/GND*%
X10668000Y3810000D03*
D12*
%TO.P,J5,1*%
X10668000Y6350000D03*
%TD*%
D11*
%TO.P,J7,14*%
%TO.N,Net-(J7-Pad14)*%
X1778000Y10668000D03*
%TO.P,J7,13*%
%TO.N,Net-(J7-Pad13)*%
X4318000Y10668000D03*
%TO.P,J7,12*%
%TO.N,Net-(J5-Pad16)*%
X1778000Y13208000D03*
%TO.P,J7,11*%
%TO.N,Net-(J5-Pad14)*%
X4318000Y13208000D03*
%TO.P,J7,10*%
%TO.N,Net-(J5-Pad12)*%
X1778000Y15748000D03*
%TO.P,J7,9*%
%TO.N,Net-(J5-Pad10)*%
X4318000Y15748000D03*
%TO.P,J7,8*%
%TO.N,Net-(J5-Pad8)*%
X1778000Y18288000D03*
%TO.P,J7,7*%
%TO.N,/D24*%
X4318000Y18288000D03*
%TO.P,J7,6*%
%TO.N,/RES*%
X1778000Y20828000D03*
%TO.P,J7,5*%
%TO.N,/M0*%
X4318000Y20828000D03*
%TO.P,J7,4*%
%TO.N,/AUX*%
X1778000Y23368000D03*
%TO.P,J7,3*%
%TO.N,/M1*%
X4318000Y23368000D03*
%TO.P,J7,2*%
%TO.N,/RXD*%
X1778000Y25908000D03*
D12*
%TO.P,J7,1*%
%TO.N,/TXD*%
X4318000Y25908000D03*
%TD*%
D11*
%TO.P,J8,9*%
%TO.N,/D33*%
X34798000Y28448000D03*
%TO.P,J8,8*%
%TO.N,Net-(J8-Pad8)*%
X34798000Y30988000D03*
%TO.P,J8,7*%
%TO.N,/A13*%
X34798000Y33528000D03*
%TO.P,J8,6*%
%TO.N,/A11*%
X34798000Y36068000D03*
%TO.P,J8,5*%
%TO.N,/A9*%
X34798000Y38608000D03*
%TO.P,J8,4*%
%TO.N,/A7*%
X34798000Y41148000D03*
%TO.P,J8,3*%
%TO.N,/A5*%
X34798000Y43688000D03*
%TO.P,J8,2*%
%TO.N,/A3*%
X34798000Y46228000D03*
D12*
%TO.P,J8,1*%
%TO.N,Net-(J8-Pad1)*%
X34798000Y48768000D03*
%TD*%
%TO.P,J11,1*%
%TO.N,/VCC*%
X9144000Y52324000D03*
D11*
%TO.P,J11,2*%
%TO.N,/GND*%
X9144000Y49784000D03*
%TO.P,J11,3*%
%TO.N,/A3*%
X9144000Y47244000D03*
%TO.P,J11,4*%
%TO.N,/A5*%
X9144000Y44704000D03*
%TO.P,J11,5*%
%TO.N,/A7*%
X9144000Y42164000D03*
%TO.P,J11,6*%
%TO.N,/A9*%
X9144000Y39624000D03*
%TO.P,J11,7*%
%TO.N,/A11*%
X9144000Y37084000D03*
%TO.P,J11,8*%
%TO.N,/A13*%
X9144000Y34544000D03*
%TO.P,J11,9*%
%TO.N,/D33*%
X9144000Y32004000D03*
%TO.P,J11,10*%
%TO.N,/D45*%
X9144000Y29464000D03*
%TD*%
%TO.P,J3,6*%
%TO.N,/CS*%
X32258000Y13208000D03*
%TO.P,J3,5*%
%TO.N,/BLR*%
X32258000Y10668000D03*
%TO.P,J3,4*%
%TO.N,/D45*%
X34798000Y13208000D03*
%TO.P,J3,3*%
%TO.N,/RS*%
X34798000Y10668000D03*
%TO.P,J3,2*%
%TO.N,Net-(BZ1-Pad2)*%
X37338000Y13208000D03*
D12*
%TO.P,J3,1*%
%TO.N,/BZ*%
X37338000Y10668000D03*
%TD*%
D11*
%TO.P,J2,6*%
%TO.N,/GND*%
X14478000Y10668000D03*
%TO.P,J2,5*%
%TO.N,Net-(J2-Pad5)*%
X14478000Y13208000D03*
%TO.P,J2,4*%
%TO.N,/SDA*%
X17018000Y10668000D03*
%TO.P,J2,3*%
%TO.N,/SCK*%
X17018000Y13208000D03*
%TO.P,J2,2*%
%TO.N,/VCC*%
X19558000Y10668000D03*
D12*
%TO.P,J2,1*%
%TO.N,Net-(J2-Pad1)*%
X19558000Y13208000D03*
%TD*%
%TO.P,R3,2*%
%TO.N,/BL*%
%TA.AperFunction,SMDPad,CuDef*%
G36*
G01*
X31807999Y7220000D02*
X32708001Y7220000D01*
G75*
G02*
X32958000Y6970001I0J-249999D01*
G01*
X32958000Y6269999D01*
G75*
G02*
X32708001Y6020000I-249999J0D01*
G01*
X31807999Y6020000D01*
G75*
G02*
X31558000Y6269999I0J249999D01*
G01*
X31558000Y6970001D01*
G75*
G02*
X31807999Y7220000I249999J0D01*
G01*
G37*
%TD.AperFunction*%
%TO.P,R3,1*%
%TO.N,/BLR*%
%TA.AperFunction,SMDPad,CuDef*%
G36*
G01*
X31807999Y9220000D02*
X32708001Y9220000D01*
G75*
G02*
X32958000Y8970001I0J-249999D01*
G01*
X32958000Y8269999D01*
G75*
G02*
X32708001Y8020000I-249999J0D01*
G01*
X31807999Y8020000D01*
G75*
G02*
X31558000Y8269999I0J249999D01*
G01*
X31558000Y8970001D01*
G75*
G02*
X31807999Y9220000I249999J0D01*
G01*
G37*
%TD.AperFunction*%
%TD*%
D11*
%TO.P,J4,7*%
%TO.N,/M0*%
X25146000Y20066000D03*
%TO.P,J4,6*%
%TO.N,/M1*%
X22606000Y20066000D03*
%TO.P,J4,5*%
%TO.N,/TXD*%
X20066000Y20066000D03*
%TO.P,J4,4*%
%TO.N,/RXD*%
X17526000Y20066000D03*
%TO.P,J4,3*%
%TO.N,/AUX*%
X14986000Y20066000D03*
%TO.P,J4,2*%
%TO.N,/VCC*%
X12446000Y20066000D03*
D12*
%TO.P,J4,1*%
%TO.N,/GND*%
X9906000Y20066000D03*
%TD*%
D11*
%TO.P,J1,6*%
%TO.N,/VCC*%
X1778000Y56388000D03*
%TO.P,J1,5*%
X4318000Y56388000D03*
%TO.P,J1,4*%
%TO.N,/GND*%
X1778000Y58928000D03*
%TO.P,J1,3*%
X4318000Y58928000D03*
%TO.P,J1,2*%
%TO.N,Net-(J1-Pad1)*%
X1778000Y61468000D03*
D12*
%TO.P,J1,1*%
X4318000Y61468000D03*
%TD*%
D15*
%TO.N,/GND*%
X1778000Y58928000D02*
X4318000Y58928000D01*
%TO.N,/VCC*%
X1778000Y56388000D02*
X4318000Y56388000D01*
D16*
%TO.N,/RES*%
X20138002Y6350000D02*
X20828000Y6350000D01*
X1778000Y20828000D02*
X3028001Y19577999D01*
X13649395Y15058011D02*
X13571917Y14980533D01*
X22008020Y14026522D02*
X20976534Y15058010D01*
X22008020Y7530020D02*
X22008020Y14026522D01*
X20976534Y15058010D02*
X13649395Y15058011D01*
X20828000Y6350000D02*
X22008020Y7530020D01*
%TO.N,/SDA*%
X18288000Y6350000D02*
X18669000Y6350000D01*
X17018000Y10795000D02*
X17018000Y10668000D01*
X18288000Y6350000D02*
X18542000Y6350000D01*
X18288000Y6771458D02*
X18288000Y6350000D01*
X18288000Y7620000D02*
X18288000Y6350000D01*
X21408011Y13777991D02*
X21408010Y9819466D01*
X20728001Y14458001D02*
X21408011Y13777991D01*
X16417999Y14458001D02*
X20728001Y14458001D01*
X19485989Y8817989D02*
X18288000Y7620000D01*
X15728001Y13768003D02*
X16417999Y14458001D01*
X21408010Y9819466D02*
X20406533Y8817989D01*
X15728001Y11703999D02*
X15728001Y13768003D01*
X16764000Y10668000D02*
X15728001Y11703999D01*
X20406533Y8817989D02*
X19485989Y8817989D01*
X17018000Y10668000D02*
X16764000Y10668000D01*
%TO.N,/SCK*%
X15748000Y8128000D02*
X15748000Y6350000D01*
X17947458Y8128000D02*
X15748000Y8128000D01*
X18639477Y8820019D02*
X17947458Y8128000D01*
X20808001Y10067999D02*
X20158001Y9417999D01*
X18639477Y8872093D02*
X18639477Y8820019D01*
X20808001Y11703998D02*
X20808001Y10067999D01*
X20554001Y11957999D02*
X20808001Y11703998D01*
X20158001Y9417999D02*
X19185383Y9417999D01*
X18268001Y11957999D02*
X20554001Y11957999D01*
X19185383Y9417999D02*
X18639477Y8872093D01*
X17018000Y13208000D02*
X18268001Y11957999D01*
%TO.N,/RS*%
X34798000Y10234500D02*
X34798000Y10668000D01*
X23368000Y11176000D02*
X23368000Y6350000D01*
X34798000Y10668000D02*
X33528000Y11938000D01*
X33528000Y11938000D02*
X33528000Y14732000D01*
X33528000Y14732000D02*
X26924000Y14732000D01*
X26924000Y14732000D02*
X23368000Y11176000D01*
%TO.N,/CS*%
X32258000Y13208000D02*
X28702000Y13208000D01*
X25908000Y10414000D02*
X25908000Y6350000D01*
X28702000Y13208000D02*
X25908000Y10414000D01*
%TO.N,/M0*%
X13497989Y22316011D02*
X13696001Y22117999D01*
X8244625Y22316011D02*
X13497989Y22316011D01*
X6756614Y20828000D02*
X8244625Y22316011D01*
X4318000Y20828000D02*
X6756614Y20828000D01*
X13696001Y22117999D02*
X13696001Y18815999D01*
X16077457Y18815999D02*
X16677467Y18215989D01*
X13696001Y18815999D02*
X16077457Y18815999D01*
X23895999Y18815999D02*
X25146000Y20066000D01*
X22204541Y18815999D02*
X23895999Y18815999D01*
X21604532Y18215990D02*
X22204541Y18815999D01*
X16677467Y18215989D02*
X21604532Y18215990D01*
%TO.N,/M1*%
X14837970Y23516030D02*
X7747560Y23516030D01*
X16236001Y22117999D02*
X14837970Y23516030D01*
X7599530Y23368000D02*
X4318000Y23368000D01*
X7747560Y23516030D02*
X7599530Y23368000D01*
X21355999Y18815999D02*
X22606000Y20066000D01*
X16925999Y18815999D02*
X21355999Y18815999D01*
X16236001Y19505997D02*
X16925999Y18815999D01*
X16236001Y22117999D02*
X16236001Y19505997D01*
%TO.N,/TXD*%
X4318000Y25908000D02*
X18288000Y25908000D01*
X20066000Y24130000D02*
X20066000Y20066000D01*
X18288000Y25908000D02*
X20066000Y24130000D01*
%TO.N,/RXD*%
X1778000Y25908000D02*
X3067999Y24618001D01*
X3067999Y24618001D02*
X16275999Y24618001D01*
X16275999Y24618001D02*
X17526000Y23368000D01*
X17526000Y23368000D02*
X17526000Y20066000D01*
%TO.N,/AUX*%
X3028001Y22117999D02*
X1778000Y23368000D01*
X7198071Y22117999D02*
X3028001Y22117999D01*
X7996092Y22916020D02*
X7198071Y22117999D01*
X14167980Y22916020D02*
X7996092Y22916020D01*
X14986000Y22098000D02*
X14167980Y22916020D01*
X14986000Y20066000D02*
X14986000Y22098000D01*
D15*
%TO.N,/BL*%
X31988000Y6350000D02*
X32258000Y6620000D01*
X28448000Y6350000D02*
X31988000Y6350000D01*
%TO.N,/VCC*%
X12358001Y19978001D02*
X12446000Y20066000D01*
X12446000Y20306002D02*
X12446000Y20066000D01*
X13208000Y6350000D02*
X13208000Y3810000D01*
X13208000Y8128000D02*
X13208000Y6350000D01*
X19558000Y10668000D02*
X19304000Y10668000D01*
X14008010Y8928010D02*
X13208000Y8128000D01*
X17564010Y8928010D02*
X14008010Y8928010D01*
X19304000Y10668000D02*
X17564010Y8928010D01*
X12446000Y17272000D02*
X12810021Y16907979D01*
X12446000Y20066000D02*
X12446000Y17272000D01*
X4572000Y52324000D02*
X4318000Y52578000D01*
X9144000Y52324000D02*
X4572000Y52324000D01*
X4318000Y56388000D02*
X4318000Y52578000D01*
X12589981Y17415981D02*
X12446000Y17272000D01*
X26051981Y17415981D02*
X12589981Y17415981D01*
X26846626Y24825148D02*
X26846626Y18210626D01*
X24963764Y26708010D02*
X26846626Y24825148D01*
X7437763Y26708010D02*
X24963764Y26708010D01*
X26846626Y18210626D02*
X26051981Y17415981D01*
X4318000Y29827773D02*
X7437763Y26708010D01*
X4318000Y52578000D02*
X4318000Y29827773D01*
%TO.N,/BZ*%
X37338000Y10668000D02*
X37338000Y7620000D01*
X37338000Y7620000D02*
X36576000Y6858000D01*
X36576000Y6858000D02*
X36576000Y4572000D01*
%TO.N,/A13*%
X34798000Y33528000D02*
X22606000Y33528000D01*
X22606000Y33528000D02*
X21590000Y34544000D01*
X21590000Y34544000D02*
X9144000Y34544000D01*
%TO.N,/A11*%
X34798000Y36068000D02*
X22606000Y36068000D01*
X22606000Y36068000D02*
X21590000Y37084000D01*
X21590000Y37084000D02*
X9144000Y37084000D01*
%TO.N,/A9*%
X34798000Y38608000D02*
X22606000Y38608000D01*
X22606000Y38608000D02*
X21590000Y39624000D01*
X21590000Y39624000D02*
X9144000Y39624000D01*
%TO.N,/A7*%
X34798000Y41148000D02*
X22606000Y41148000D01*
X22606000Y41148000D02*
X21590000Y42164000D01*
X21590000Y42164000D02*
X9144000Y42164000D01*
%TO.N,/A5*%
X34798000Y43688000D02*
X22606000Y43688000D01*
X22606000Y43688000D02*
X21590000Y44704000D01*
X21590000Y44704000D02*
X9144000Y44704000D01*
%TO.N,/A3*%
X34798000Y46228000D02*
X22606000Y46228000D01*
X22606000Y46228000D02*
X21590000Y47244000D01*
X21590000Y47244000D02*
X9144000Y47244000D01*
D16*
%TO.N,/D45*%
X34798000Y24130000D02*
X34798000Y23368000D01*
X29464000Y29464000D02*
X34798000Y24130000D01*
X9144000Y29464000D02*
X29464000Y29464000D01*
X34798000Y13208000D02*
X34798000Y23368000D01*
%TO.N,/BLR*%
X32696001Y10229999D02*
X32258000Y10668000D01*
D15*
X32258000Y10668000D02*
X32258000Y8620000D01*
%TO.N,/GND*%
X10668000Y6350000D02*
X10668000Y3810000D01*
X10668000Y3810000D02*
X10668000Y5460000D01*
X10668000Y6350000D02*
X10668000Y10668000D01*
X14478000Y10668000D02*
X10668000Y10668000D01*
X9906000Y20066000D02*
X9906000Y17018000D01*
X9144000Y49784000D02*
X10414000Y49784000D01*
X10414000Y49784000D02*
X11430000Y50800000D01*
X11430000Y50800000D02*
X11430000Y57404000D01*
X9906000Y58928000D02*
X4318000Y58928000D01*
X11430000Y57404000D02*
X9906000Y58928000D01*
X7851980Y27708020D02*
X6604000Y28956000D01*
X25377980Y27708020D02*
X7851980Y27708020D01*
X27846636Y25239364D02*
X25377980Y27708020D01*
X6604000Y28956000D02*
X6604000Y48514000D01*
X27846636Y17796409D02*
X27846636Y25239364D01*
X26466198Y16415971D02*
X27846636Y17796409D01*
X6604000Y48514000D02*
X7874000Y49784000D01*
X13875971Y16415971D02*
X26466198Y16415971D01*
X13281999Y15821999D02*
X13875971Y16415971D01*
X11749999Y15821999D02*
X13281999Y15821999D01*
X10299998Y17272000D02*
X11749999Y15821999D01*
X7874000Y49784000D02*
X9144000Y49784000D01*
X9906000Y17272000D02*
X10299998Y17272000D01*
D16*
%TO.N,/RES*%
X9475469Y14980533D02*
X10154533Y14980533D01*
X4878003Y19577999D02*
X9475469Y14980533D01*
X3028001Y19577999D02*
X4878003Y19577999D01*
X13571917Y14980533D02*
X10154533Y14980533D01*
D15*
%TO.N,/D33*%
X32258000Y28448000D02*
X34798000Y28448000D01*
X28702000Y32004000D02*
X32258000Y28448000D01*
X9144000Y32004000D02*
X28702000Y32004000D01*
D16*
%TO.N,Net-(J5-Pad16)*%
X24197949Y-440051D02*
X28448000Y3810000D01*
X7973509Y-440051D02*
X24197949Y-440051D01*
X5635955Y1897503D02*
X7973509Y-440051D01*
X5635955Y11382045D02*
X5635955Y1897503D01*
X5060001Y11957999D02*
X5635955Y11382045D01*
X3028001Y11957999D02*
X5060001Y11957999D01*
X1778000Y13208000D02*
X3028001Y11957999D01*
%TO.N,Net-(J5-Pad14)*%
X4318000Y13208000D02*
X5727963Y13208000D01*
X5727963Y13208000D02*
X6235964Y12699999D01*
X6235964Y12699999D02*
X6235964Y2146036D01*
X22257959Y159959D02*
X25908000Y3810000D01*
X8222041Y159959D02*
X22257959Y159959D01*
X6235964Y2146036D02*
X8222041Y159959D01*
%TO.N,Net-(J5-Pad12)*%
X3067999Y14458001D02*
X6364375Y14458001D01*
X1778000Y15748000D02*
X3067999Y14458001D01*
X6835972Y13986404D02*
X6835973Y2556401D01*
X6364375Y14458001D02*
X6835972Y13986404D01*
X20317969Y759969D02*
X23368000Y3810000D01*
X8632405Y759969D02*
X20317969Y759969D01*
X6835973Y2556401D02*
X8632405Y759969D01*
%TO.N,Net-(J5-Pad10)*%
X19393979Y1359979D02*
X20828000Y2794000D01*
X8880937Y1359979D02*
X19393979Y1359979D01*
X20828000Y2794000D02*
X20828000Y3810000D01*
X7435982Y2804934D02*
X8880937Y1359979D01*
X7435982Y14234936D02*
X7435982Y2804934D01*
X5922918Y15748000D02*
X7435982Y14234936D01*
X4318000Y15748000D02*
X5922918Y15748000D01*
%TO.N,Net-(J5-Pad8)*%
X16437989Y1959989D02*
X18288000Y3810000D01*
X9129469Y1959989D02*
X16437989Y1959989D01*
X8035991Y3053467D02*
X9129469Y1959989D01*
X8035990Y14483468D02*
X8035991Y3053467D01*
X5521457Y16998001D02*
X8035990Y14483468D01*
X3067999Y16998001D02*
X5521457Y16998001D01*
X1778000Y18288000D02*
X3067999Y16998001D01*
%TO.N,/D24*%
X8636000Y3302000D02*
X9378001Y2559999D01*
X8636000Y14732000D02*
X8636000Y3302000D01*
X9378001Y2559999D02*
X14497999Y2559999D01*
X5080000Y18288000D02*
X8636000Y14732000D01*
X14497999Y2559999D02*
X15748000Y3810000D01*
X4318000Y18288000D02*
X5080000Y18288000D01*
%TO.N,Net-(BZ1-Pad2)*%
X32627370Y4572000D02*
X31496000Y4572000D01*
X36048001Y7992631D02*
X32627370Y4572000D01*
X36048001Y11918001D02*
X36048001Y7992631D01*
X37338000Y13208000D02*
X36048001Y11918001D01*
%TD*%
M02*
