%TF.GenerationSoftware,KiCad,Pcbnew,(5.1.7)-1*%
%TF.CreationDate,2023-01-25T18:34:39-07:00*%
%TF.ProjectId,AMPE32T30,414d5045-3332-4543-9330-2e6b69636164,rev?*%
%TF.SameCoordinates,PX76efc10PY4dffc60*%
%TF.FileFunction,Legend,Top*%
%TF.FilePolarity,Positive*%
%FSLAX46Y46*%
G04 Gerber Fmt 4.6, Leading zero omitted, Abs format (unit mm)*
G04 Created by KiCad (PCBNEW (5.1.7)-1) date 2023-01-25 18:34:39*
%MOMM*%
%LPD*%
G01*
G04 APERTURE LIST*
%ADD10C,0.120000*%
%ADD11C,0.150000*%
G04 APERTURE END LIST*
D10*
%TO.C,J6*%
X11176000Y15942000D02*
X11176000Y18602000D01*
X11176000Y15942000D02*
X13776000Y15942000D01*
X13776000Y15942000D02*
X13776000Y18602000D01*
X11176000Y18602000D02*
X13776000Y18602000D01*
X8576000Y18602000D02*
X9906000Y18602000D01*
X8576000Y17272000D02*
X8576000Y18602000D01*
%TO.C,BZ1*%
X38688000Y4572000D02*
G75*
G03*
X38688000Y4572000I-4620000J0D01*
G01*
%TO.C,J5*%
X9338000Y2480000D02*
X9338000Y5080000D01*
X9338000Y2480000D02*
X29778000Y2480000D01*
X29778000Y2480000D02*
X29778000Y7680000D01*
X11938000Y7680000D02*
X29778000Y7680000D01*
X11938000Y5080000D02*
X11938000Y7680000D01*
X9338000Y5080000D02*
X11938000Y5080000D01*
X9338000Y7680000D02*
X10668000Y7680000D01*
X9338000Y6350000D02*
X9338000Y7680000D01*
%TO.C,J7*%
X448000Y27238000D02*
X3048000Y27238000D01*
X448000Y27238000D02*
X448000Y9338000D01*
X448000Y9338000D02*
X5648000Y9338000D01*
X5648000Y24638000D02*
X5648000Y9338000D01*
X3048000Y24638000D02*
X5648000Y24638000D01*
X3048000Y27238000D02*
X3048000Y24638000D01*
X5648000Y27238000D02*
X5648000Y25908000D01*
X4318000Y27238000D02*
X5648000Y27238000D01*
%TO.C,J8*%
X34798000Y50098000D02*
X36128000Y50098000D01*
X36128000Y50098000D02*
X36128000Y48768000D01*
X36128000Y47498000D02*
X36128000Y27118000D01*
X33468000Y27118000D02*
X36128000Y27118000D01*
X33468000Y47498000D02*
X33468000Y27118000D01*
X33468000Y47498000D02*
X36128000Y47498000D01*
%TO.C,J11*%
X9144000Y53654000D02*
X10474000Y53654000D01*
X10474000Y53654000D02*
X10474000Y52324000D01*
X10474000Y51054000D02*
X10474000Y28134000D01*
X7814000Y28134000D02*
X10474000Y28134000D01*
X7814000Y51054000D02*
X7814000Y28134000D01*
X7814000Y51054000D02*
X10474000Y51054000D01*
%TO.C,J3*%
X38668000Y14538000D02*
X38668000Y11938000D01*
X38668000Y14538000D02*
X30928000Y14538000D01*
X30928000Y14538000D02*
X30928000Y9338000D01*
X36068000Y9338000D02*
X30928000Y9338000D01*
X36068000Y11938000D02*
X36068000Y9338000D01*
X38668000Y11938000D02*
X36068000Y11938000D01*
X38668000Y9338000D02*
X37338000Y9338000D01*
X38668000Y10668000D02*
X38668000Y9338000D01*
%TO.C,J2*%
X20888000Y14538000D02*
X20888000Y13208000D01*
X19558000Y14538000D02*
X20888000Y14538000D01*
X20888000Y11938000D02*
X20888000Y9338000D01*
X18288000Y11938000D02*
X20888000Y11938000D01*
X18288000Y14538000D02*
X18288000Y11938000D01*
X20888000Y9338000D02*
X13148000Y9338000D01*
X18288000Y14538000D02*
X13148000Y14538000D01*
X13148000Y14538000D02*
X13148000Y9338000D01*
%TO.C,R3*%
X31523000Y7847064D02*
X31523000Y7392936D01*
X32993000Y7847064D02*
X32993000Y7392936D01*
%TO.C,J4*%
X8576000Y20066000D02*
X8576000Y21396000D01*
X8576000Y21396000D02*
X9906000Y21396000D01*
X11176000Y21396000D02*
X26476000Y21396000D01*
X26476000Y18736000D02*
X26476000Y21396000D01*
X11176000Y18736000D02*
X26476000Y18736000D01*
X11176000Y18736000D02*
X11176000Y21396000D01*
%TO.C,J1*%
X4318000Y62798000D02*
X5648000Y62798000D01*
X5648000Y62798000D02*
X5648000Y61468000D01*
X3048000Y62798000D02*
X3048000Y60198000D01*
X3048000Y60198000D02*
X5648000Y60198000D01*
X5648000Y60198000D02*
X5648000Y55058000D01*
X448000Y55058000D02*
X5648000Y55058000D01*
X448000Y62798000D02*
X448000Y55058000D01*
X448000Y62798000D02*
X3048000Y62798000D01*
%TD*%
%TO.C,BZ1*%
D11*
X37187047Y4400572D02*
X37948952Y4400572D01*
X37568000Y4019620D02*
X37568000Y4781524D01*
%TD*%
M02*
