solid 2x7 x 6.5 PinHolder
facet normal 0.0 0.0 -1.0
  outer loop
    vertex 3.0299999999999994 14.18 0.0
    vertex 3.0300000000000002 11.639999999999999 0.0
    vertex 3.0299999999999994 4.020000000000001 -7.049916206369744e-16
  endloop
endfacet
facet normal 0.0 0.0 -1.0
  outer loop
    vertex 3.0300000000000002 11.639999999999999 0.0
    vertex 3.0299999999999994 14.18 0.0
    vertex 3.7299999999999995 13.48 0.0
  endloop
endfacet
facet normal 0.0 0.0 -1.0
  outer loop
    vertex 3.0300000000000002 11.639999999999999 0.0
    vertex 3.7299999999999995 13.48 0.0
    vertex 3.7299999999999995 12.339999999999998 0.0
  endloop
endfacet
facet normal 0.0 0.0 -1.0
  outer loop
    vertex 3.7299999999999995 12.339999999999998 0.0
    vertex 3.7299999999999995 13.48 0.0
    vertex 4.43 14.18 0.0
  endloop
endfacet
facet normal 0.0 0.0 -1.0
  outer loop
    vertex 3.7299999999999995 12.339999999999998 0.0
    vertex 4.43 14.18 0.0
    vertex 4.429999999999999 11.639999999999999 0.0
  endloop
endfacet
facet normal 0.0 0.0 -1.0
  outer loop
    vertex 4.429999999999999 11.639999999999999 0.0
    vertex 4.43 14.18 0.0
    vertex 4.429999999999999 9.1 0.0
  endloop
endfacet
facet normal 0.0 0.0 -1.0
  outer loop
    vertex 0.0 18.2 0.0
    vertex 0.48999999999999955 16.72 0.0
    vertex 0.0 0.0 0.0
  endloop
endfacet
facet normal 0.0 0.0 -1.0
  outer loop
    vertex 0.48999999999999955 16.72 0.0
    vertex 0.0 18.2 0.0
    vertex 1.1899999999999997 17.419999999999998 0.0
  endloop
endfacet
facet normal 0.0 0.0 -1.0
  outer loop
    vertex 1.1899999999999997 17.419999999999998 0.0
    vertex 0.0 18.2 0.0
    vertex 5.0 18.2 0.0
  endloop
endfacet
facet normal 0.0 0.0 -1.0
  outer loop
    vertex 1.1899999999999997 17.419999999999998 0.0
    vertex 5.0 18.2 0.0
    vertex 1.8899999999999997 16.72 0.0
  endloop
endfacet
facet normal 0.0 0.0 -1.0
  outer loop
    vertex 1.8899999999999997 16.72 0.0
    vertex 5.0 18.2 0.0
    vertex 3.7299999999999995 17.419999999999998 0.0
  endloop
endfacet
facet normal 0.0 0.0 -1.0
  outer loop
    vertex 1.8899999999999997 16.72 0.0
    vertex 3.7299999999999995 17.419999999999998 0.0
    vertex 3.0300000000000002 16.72 0.0
  endloop
endfacet
facet normal 0.0 0.0 -1.0
  outer loop
    vertex 1.8899999999999997 16.72 0.0
    vertex 3.0300000000000002 16.72 0.0
    vertex 1.8899999999999997 14.18 0.0
  endloop
endfacet
facet normal 0.0 0.0 -1.0
  outer loop
    vertex 1.8899999999999997 14.18 0.0
    vertex 3.0300000000000002 16.72 0.0
    vertex 1.8899999999999997 9.1 0.0
  endloop
endfacet
facet normal 0.0 0.0 -1.0
  outer loop
    vertex 1.8899999999999997 9.1 0.0
    vertex 3.0300000000000002 16.72 0.0
    vertex 1.8900000000000006 6.560000000000001 0.0
  endloop
endfacet
facet normal 0.0 0.0 -1.0
  outer loop
    vertex 1.8900000000000006 6.560000000000001 0.0
    vertex 3.0300000000000002 16.72 0.0
    vertex 3.0299999999999994 14.18 0.0
  endloop
endfacet
facet normal 0.0 0.0 -1.0
  outer loop
    vertex 3.7299999999999995 17.419999999999998 0.0
    vertex 5.0 18.2 0.0
    vertex 4.429999999999999 16.72 0.0
  endloop
endfacet
facet normal 0.0 0.0 -1.0
  outer loop
    vertex 4.429999999999999 16.72 0.0
    vertex 5.0 18.2 0.0
    vertex 4.43 14.18 0.0
  endloop
endfacet
facet normal 0.0 0.0 -1.0
  outer loop
    vertex 4.43 14.18 0.0
    vertex 5.0 18.2 0.0
    vertex 4.43 6.560000000000001 0.0
  endloop
endfacet
facet normal 0.0 0.0 -1.0
  outer loop
    vertex 4.43 6.560000000000001 0.0
    vertex 5.0 18.2 0.0
    vertex 4.43 4.020000000000001 -7.049916206369744e-16
  endloop
endfacet
facet normal 0.0 0.0 -1.0
  outer loop
    vertex 4.43 4.020000000000001 -7.049916206369744e-16
    vertex 5.0 18.2 0.0
    vertex 4.43 1.4800000000000009 -7.049916206369744e-16
  endloop
endfacet
facet normal 0.0 0.0 -1.0
  outer loop
    vertex 0.0 0.0 0.0
    vertex 1.1899999999999995 0.7800000000000009 0.0
    vertex 5.0 0.0 0.0
  endloop
endfacet
facet normal 0.0 0.0 -1.0
  outer loop
    vertex 1.1899999999999995 0.7800000000000009 0.0
    vertex 0.0 0.0 0.0
    vertex 0.4899999999999996 1.4800000000000013 0.0
  endloop
endfacet
facet normal 0.0 0.0 -1.0
  outer loop
    vertex 0.4899999999999996 1.4800000000000013 0.0
    vertex 0.0 0.0 0.0
    vertex 0.48999999999999955 9.1 0.0
  endloop
endfacet
facet normal 0.0 0.0 -1.0
  outer loop
    vertex 0.48999999999999955 9.1 0.0
    vertex 0.0 0.0 0.0
    vertex 0.48999999999999955 16.72 0.0
  endloop
endfacet
facet normal 0.0 0.0 -1.0
  outer loop
    vertex 0.48999999999999955 9.1 0.0
    vertex 0.48999999999999955 16.72 0.0
    vertex 0.48999999999999955 14.18 0.0
  endloop
endfacet
facet normal 0.0 0.0 -1.0
  outer loop
    vertex 5.0 0.0 0.0
    vertex 1.1899999999999995 0.7800000000000009 0.0
    vertex 1.8899999999999997 1.4800000000000009 0.0
  endloop
endfacet
facet normal 0.0 0.0 -1.0
  outer loop
    vertex 5.0 0.0 0.0
    vertex 1.8899999999999997 1.4800000000000009 0.0
    vertex 3.7299999999999995 0.7800000000000008 -7.049916206369744e-16
  endloop
endfacet
facet normal 0.0 0.0 -1.0
  outer loop
    vertex 3.7299999999999995 0.7800000000000008 -7.049916206369744e-16
    vertex 1.8899999999999997 1.4800000000000009 0.0
    vertex 3.0299999999999994 1.4800000000000009 -7.049916206369744e-16
  endloop
endfacet
facet normal 0.0 0.0 -1.0
  outer loop
    vertex 3.0299999999999994 1.4800000000000009 -7.049916206369744e-16
    vertex 1.8899999999999997 1.4800000000000009 0.0
    vertex 1.8900000000000006 6.560000000000001 0.0
  endloop
endfacet
facet normal 0.0 0.0 -1.0
  outer loop
    vertex 3.0299999999999994 1.4800000000000009 -7.049916206369744e-16
    vertex 1.8900000000000006 6.560000000000001 0.0
    vertex 3.0299999999999994 14.18 0.0
  endloop
endfacet
facet normal 0.0 0.0 -1.0
  outer loop
    vertex 3.0299999999999994 1.4800000000000009 -7.049916206369744e-16
    vertex 3.0299999999999994 14.18 0.0
    vertex 3.0299999999999994 4.020000000000001 -7.049916206369744e-16
  endloop
endfacet
facet normal 0.0 0.0 -1.0
  outer loop
    vertex 5.0 0.0 0.0
    vertex 3.7299999999999995 0.7800000000000008 -7.049916206369744e-16
    vertex 4.43 1.4800000000000009 -7.049916206369744e-16
  endloop
endfacet
facet normal 0.0 0.0 -1.0
  outer loop
    vertex 5.0 0.0 0.0
    vertex 4.43 1.4800000000000009 -7.049916206369744e-16
    vertex 5.0 18.2 0.0
  endloop
endfacet
facet normal 0.0 0.0 -1.0
  outer loop
    vertex 3.7299999999999995 3.3200000000000007 -7.049916206369744e-16
    vertex 3.0299999999999994 1.4800000000000009 -7.049916206369744e-16
    vertex 3.0299999999999994 4.020000000000001 -7.049916206369744e-16
  endloop
endfacet
facet normal 0.0 0.0 -1.0
  outer loop
    vertex 3.0299999999999994 1.4800000000000009 -7.049916206369744e-16
    vertex 3.7299999999999995 3.3200000000000007 -7.049916206369744e-16
    vertex 3.7299999999999995 2.180000000000001 -7.049916206369744e-16
  endloop
endfacet
facet normal 0.0 0.0 -1.0
  outer loop
    vertex 3.7299999999999995 2.180000000000001 -7.049916206369744e-16
    vertex 3.7299999999999995 3.3200000000000007 -7.049916206369744e-16
    vertex 4.43 4.020000000000001 -7.049916206369744e-16
  endloop
endfacet
facet normal 0.0 0.0 -1.0
  outer loop
    vertex 3.7299999999999995 2.180000000000001 -7.049916206369744e-16
    vertex 4.43 4.020000000000001 -7.049916206369744e-16
    vertex 4.43 1.4800000000000009 -7.049916206369744e-16
  endloop
endfacet
facet normal 0.0 0.0 -1.0
  outer loop
    vertex 3.0299999999999994 4.020000000000001 -7.049916206369744e-16
    vertex 3.030000000000001 6.560000000000001 0.0
    vertex 3.7299999999999995 4.720000000000001 -7.049916206369744e-16
  endloop
endfacet
facet normal 0.0 0.0 -1.0
  outer loop
    vertex 3.030000000000001 6.560000000000001 0.0
    vertex 3.0299999999999994 4.020000000000001 -7.049916206369744e-16
    vertex 3.0300000000000002 9.1 0.0
  endloop
endfacet
facet normal 0.0 0.0 -1.0
  outer loop
    vertex 3.0300000000000002 9.1 0.0
    vertex 3.0299999999999994 4.020000000000001 -7.049916206369744e-16
    vertex 3.0300000000000002 11.639999999999999 0.0
  endloop
endfacet
facet normal 0.0 0.0 -1.0
  outer loop
    vertex 3.7299999999999995 4.720000000000001 -7.049916206369744e-16
    vertex 3.030000000000001 6.560000000000001 0.0
    vertex 3.7300000000000004 5.860000000000001 0.0
  endloop
endfacet
facet normal 0.0 0.0 -1.0
  outer loop
    vertex 3.7299999999999995 4.720000000000001 -7.049916206369744e-16
    vertex 3.7300000000000004 5.860000000000001 0.0
    vertex 4.43 4.020000000000001 -7.049916206369744e-16
  endloop
endfacet
facet normal 0.0 0.0 -1.0
  outer loop
    vertex 4.43 4.020000000000001 -7.049916206369744e-16
    vertex 3.7300000000000004 5.860000000000001 0.0
    vertex 4.43 6.560000000000001 0.0
  endloop
endfacet
facet normal 0.0 0.0 -1.0
  outer loop
    vertex 3.7299999999999995 8.400000000000002 0.0
    vertex 3.030000000000001 6.560000000000001 0.0
    vertex 3.0300000000000002 9.1 0.0
  endloop
endfacet
facet normal 0.0 0.0 -1.0
  outer loop
    vertex 3.030000000000001 6.560000000000001 0.0
    vertex 3.7299999999999995 8.400000000000002 0.0
    vertex 3.7300000000000004 7.26 0.0
  endloop
endfacet
facet normal 0.0 0.0 -1.0
  outer loop
    vertex 3.7300000000000004 7.26 0.0
    vertex 3.7299999999999995 8.400000000000002 0.0
    vertex 4.429999999999999 9.1 0.0
  endloop
endfacet
facet normal 0.0 0.0 -1.0
  outer loop
    vertex 3.7300000000000004 7.26 0.0
    vertex 4.429999999999999 9.1 0.0
    vertex 4.43 6.560000000000001 0.0
  endloop
endfacet
facet normal 0.0 0.0 -1.0
  outer loop
    vertex 4.43 6.560000000000001 0.0
    vertex 4.429999999999999 9.1 0.0
    vertex 4.43 14.18 0.0
  endloop
endfacet
facet normal 0.0 0.0 -1.0
  outer loop
    vertex 3.7299999999999995 10.940000000000001 0.0
    vertex 3.0300000000000002 9.1 0.0
    vertex 3.0300000000000002 11.639999999999999 0.0
  endloop
endfacet
facet normal 0.0 0.0 -1.0
  outer loop
    vertex 3.0300000000000002 9.1 0.0
    vertex 3.7299999999999995 10.940000000000001 0.0
    vertex 3.7299999999999995 9.799999999999999 0.0
  endloop
endfacet
facet normal 0.0 0.0 -1.0
  outer loop
    vertex 3.7299999999999995 9.799999999999999 0.0
    vertex 3.7299999999999995 10.940000000000001 0.0
    vertex 4.429999999999999 11.639999999999999 0.0
  endloop
endfacet
facet normal 0.0 0.0 -1.0
  outer loop
    vertex 3.7299999999999995 9.799999999999999 0.0
    vertex 4.429999999999999 11.639999999999999 0.0
    vertex 4.429999999999999 9.1 0.0
  endloop
endfacet
facet normal 0.0 0.0 -1.0
  outer loop
    vertex 3.0300000000000002 16.72 0.0
    vertex 3.7299999999999995 14.879999999999997 0.0
    vertex 3.0299999999999994 14.18 0.0
  endloop
endfacet
facet normal 0.0 0.0 -1.0
  outer loop
    vertex 3.7299999999999995 14.879999999999997 0.0
    vertex 3.0300000000000002 16.72 0.0
    vertex 3.7299999999999995 16.02 0.0
  endloop
endfacet
facet normal 0.0 0.0 -1.0
  outer loop
    vertex 3.7299999999999995 14.879999999999997 0.0
    vertex 3.7299999999999995 16.02 0.0
    vertex 4.429999999999999 16.72 0.0
  endloop
endfacet
facet normal 0.0 0.0 -1.0
  outer loop
    vertex 3.7299999999999995 14.879999999999997 0.0
    vertex 4.429999999999999 16.72 0.0
    vertex 4.43 14.18 0.0
  endloop
endfacet
facet normal 0.0 0.0 -1.0
  outer loop
    vertex 0.48999999999999955 14.18 0.0
    vertex 0.48999999999999977 11.639999999999999 -1.4099832412739487e-15
    vertex 0.48999999999999955 9.1 0.0
  endloop
endfacet
facet normal 0.0 0.0 -1.0
  outer loop
    vertex 0.48999999999999977 11.639999999999999 -1.4099832412739487e-15
    vertex 0.48999999999999955 14.18 0.0
    vertex 1.1899999999999995 13.48 0.0
  endloop
endfacet
facet normal 0.0 0.0 -1.0
  outer loop
    vertex 0.48999999999999977 11.639999999999999 -1.4099832412739487e-15
    vertex 1.1899999999999995 13.48 0.0
    vertex 1.1899999999999997 12.34 -1.4099832412739487e-15
  endloop
endfacet
facet normal 0.0 0.0 -1.0
  outer loop
    vertex 1.1899999999999997 12.34 -1.4099832412739487e-15
    vertex 1.1899999999999995 13.48 0.0
    vertex 1.8899999999999997 14.18 0.0
  endloop
endfacet
facet normal 0.0 0.0 -1.0
  outer loop
    vertex 1.1899999999999997 12.34 -1.4099832412739487e-15
    vertex 1.8899999999999997 14.18 0.0
    vertex 1.8899999999999995 11.639999999999999 -1.4099832412739487e-15
  endloop
endfacet
facet normal 0.0 0.0 -1.0
  outer loop
    vertex 1.1900000000000004 5.860000000000001 0.0
    vertex 0.4900000000000006 4.020000000000001 7.049916206369744e-16
    vertex 0.4900000000000002 6.560000000000001 0.0
  endloop
endfacet
facet normal 0.0 0.0 -1.0
  outer loop
    vertex 0.4900000000000006 4.020000000000001 7.049916206369744e-16
    vertex 1.1900000000000004 5.860000000000001 0.0
    vertex 1.19 4.720000000000001 7.049916206369744e-16
  endloop
endfacet
facet normal 0.0 0.0 -1.0
  outer loop
    vertex 1.19 4.720000000000001 7.049916206369744e-16
    vertex 1.1900000000000004 5.860000000000001 0.0
    vertex 1.8899999999999995 4.020000000000001 7.049916206369744e-16
  endloop
endfacet
facet normal 0.0 0.0 -1.0
  outer loop
    vertex 1.8899999999999995 4.020000000000001 7.049916206369744e-16
    vertex 1.1900000000000004 5.860000000000001 0.0
    vertex 1.8900000000000006 6.560000000000001 0.0
  endloop
endfacet
facet normal 0.0 0.0 -1.0
  outer loop
    vertex 1.8899999999999995 4.020000000000001 7.049916206369744e-16
    vertex 1.8900000000000006 6.560000000000001 0.0
    vertex 1.8899999999999997 1.4800000000000009 0.0
  endloop
endfacet
facet normal 0.0 0.0 -1.0
  outer loop
    vertex 0.48999999999999955 9.1 0.0
    vertex 0.4900000000000002 6.560000000000001 0.0
    vertex 0.4899999999999996 1.4800000000000013 0.0
  endloop
endfacet
facet normal 0.0 0.0 -1.0
  outer loop
    vertex 0.4900000000000002 6.560000000000001 0.0
    vertex 0.48999999999999955 9.1 0.0
    vertex 1.1899999999999995 8.4 0.0
  endloop
endfacet
facet normal 0.0 0.0 -1.0
  outer loop
    vertex 0.4900000000000002 6.560000000000001 0.0
    vertex 1.1899999999999995 8.4 0.0
    vertex 1.1900000000000004 7.260000000000001 0.0
  endloop
endfacet
facet normal 0.0 0.0 -1.0
  outer loop
    vertex 1.1900000000000004 7.260000000000001 0.0
    vertex 1.1899999999999995 8.4 0.0
    vertex 1.8899999999999997 9.1 0.0
  endloop
endfacet
facet normal 0.0 0.0 -1.0
  outer loop
    vertex 1.1900000000000004 7.260000000000001 0.0
    vertex 1.8899999999999997 9.1 0.0
    vertex 1.8900000000000006 6.560000000000001 0.0
  endloop
endfacet
facet normal 0.0 0.0 -1.0
  outer loop
    vertex 0.48999999999999977 11.639999999999999 -1.4099832412739487e-15
    vertex 1.1899999999999997 9.8 0.0
    vertex 0.48999999999999955 9.1 0.0
  endloop
endfacet
facet normal 0.0 0.0 -1.0
  outer loop
    vertex 1.1899999999999997 9.8 0.0
    vertex 0.48999999999999977 11.639999999999999 -1.4099832412739487e-15
    vertex 1.1899999999999997 10.94 -1.4099832412739487e-15
  endloop
endfacet
facet normal 0.0 0.0 -1.0
  outer loop
    vertex 1.1899999999999997 9.8 0.0
    vertex 1.1899999999999997 10.94 -1.4099832412739487e-15
    vertex 1.8899999999999995 11.639999999999999 -1.4099832412739487e-15
  endloop
endfacet
facet normal 0.0 0.0 -1.0
  outer loop
    vertex 1.1899999999999997 9.8 0.0
    vertex 1.8899999999999995 11.639999999999999 -1.4099832412739487e-15
    vertex 1.8899999999999997 9.1 0.0
  endloop
endfacet
facet normal 0.0 0.0 -1.0
  outer loop
    vertex 1.8899999999999997 9.1 0.0
    vertex 1.8899999999999995 11.639999999999999 -1.4099832412739487e-15
    vertex 1.8899999999999997 14.18 0.0
  endloop
endfacet
facet normal 0.0 0.0 -1.0
  outer loop
    vertex 1.1899999999999995 16.019999999999996 0.0
    vertex 0.48999999999999955 14.18 0.0
    vertex 0.48999999999999955 16.72 0.0
  endloop
endfacet
facet normal 0.0 0.0 -1.0
  outer loop
    vertex 0.48999999999999955 14.18 0.0
    vertex 1.1899999999999995 16.019999999999996 0.0
    vertex 1.1899999999999997 14.879999999999997 0.0
  endloop
endfacet
facet normal 0.0 0.0 -1.0
  outer loop
    vertex 1.1899999999999997 14.879999999999997 0.0
    vertex 1.1899999999999995 16.019999999999996 0.0
    vertex 1.8899999999999997 16.72 0.0
  endloop
endfacet
facet normal 0.0 0.0 -1.0
  outer loop
    vertex 1.1899999999999997 14.879999999999997 0.0
    vertex 1.8899999999999997 16.72 0.0
    vertex 1.8899999999999997 14.18 0.0
  endloop
endfacet
facet normal 0.0 0.0 -1.0
  outer loop
    vertex 0.4899999999999996 1.4800000000000013 0.0
    vertex 0.4900000000000006 4.020000000000001 7.049916206369744e-16
    vertex 1.1899999999999997 2.180000000000001 0.0
  endloop
endfacet
facet normal 0.0 0.0 -1.0
  outer loop
    vertex 0.4900000000000006 4.020000000000001 7.049916206369744e-16
    vertex 0.4899999999999996 1.4800000000000013 0.0
    vertex 0.4900000000000002 6.560000000000001 0.0
  endloop
endfacet
facet normal 0.0 0.0 -1.0
  outer loop
    vertex 1.1899999999999997 2.180000000000001 0.0
    vertex 0.4900000000000006 4.020000000000001 7.049916206369744e-16
    vertex 1.19 3.3200000000000016 7.049916206369744e-16
  endloop
endfacet
facet normal 0.0 0.0 -1.0
  outer loop
    vertex 1.1899999999999997 2.180000000000001 0.0
    vertex 1.19 3.3200000000000016 7.049916206369744e-16
    vertex 1.8899999999999997 1.4800000000000009 0.0
  endloop
endfacet
facet normal 0.0 0.0 -1.0
  outer loop
    vertex 1.8899999999999997 1.4800000000000009 0.0
    vertex 1.19 3.3200000000000016 7.049916206369744e-16
    vertex 1.8899999999999995 4.020000000000001 7.049916206369744e-16
  endloop
endfacet
facet normal -0.0 -0.0 1.0
  outer loop
    vertex 3.030000000000001 6.560000000000001 6.499999999999999
    vertex 3.7299999999999995 8.400000000000002 6.499999999999999
    vertex 3.0300000000000002 9.1 6.499999999999999
  endloop
endfacet
facet normal -0.0 -0.0 1.0
  outer loop
    vertex 3.7299999999999995 8.400000000000002 6.499999999999999
    vertex 3.030000000000001 6.560000000000001 6.499999999999999
    vertex 3.7300000000000004 7.26 6.499999999999999
  endloop
endfacet
facet normal -0.0 -0.0 1.0
  outer loop
    vertex 3.7299999999999995 8.400000000000002 6.499999999999999
    vertex 3.7300000000000004 7.26 6.499999999999999
    vertex 4.429999999999999 9.1 6.499999999999999
  endloop
endfacet
facet normal -0.0 -0.0 1.0
  outer loop
    vertex 4.429999999999999 9.1 6.499999999999999
    vertex 3.7300000000000004 7.26 6.499999999999999
    vertex 4.43 6.560000000000001 6.499999999999999
  endloop
endfacet
facet normal -0.0 -0.0 1.0
  outer loop
    vertex 4.429999999999999 9.1 6.499999999999999
    vertex 4.43 6.560000000000001 6.499999999999999
    vertex 4.429999999999999 11.639999999999999 6.499999999999999
  endloop
endfacet
facet normal -0.0 -0.0 1.0
  outer loop
    vertex 3.7299999999999995 14.879999999999997 6.499999999999999
    vertex 3.0300000000000002 16.72 6.499999999999999
    vertex 3.0299999999999994 14.18 6.499999999999999
  endloop
endfacet
facet normal -0.0 -0.0 1.0
  outer loop
    vertex 3.0300000000000002 16.72 6.499999999999999
    vertex 3.7299999999999995 14.879999999999997 6.499999999999999
    vertex 3.7299999999999995 16.02 6.499999999999999
  endloop
endfacet
facet normal -0.0 -0.0 1.0
  outer loop
    vertex 3.7299999999999995 16.02 6.499999999999999
    vertex 3.7299999999999995 14.879999999999997 6.499999999999999
    vertex 4.43 14.18 6.499999999999999
  endloop
endfacet
facet normal -0.0 -0.0 1.0
  outer loop
    vertex 3.7299999999999995 16.02 6.499999999999999
    vertex 4.43 14.18 6.499999999999999
    vertex 4.429999999999999 16.72 6.499999999999999
  endloop
endfacet
facet normal -0.0 -0.0 1.0
  outer loop
    vertex 0.0 0.0 6.499999999999999
    vertex 0.4899999999999996 1.4800000000000013 6.499999999999999
    vertex 0.0 18.2 6.499999999999999
  endloop
endfacet
facet normal -0.0 -0.0 1.0
  outer loop
    vertex 0.4899999999999996 1.4800000000000013 6.499999999999999
    vertex 0.0 0.0 6.499999999999999
    vertex 1.1899999999999995 0.7800000000000009 6.499999999999999
  endloop
endfacet
facet normal -0.0 -0.0 1.0
  outer loop
    vertex 1.1899999999999995 0.7800000000000009 6.499999999999999
    vertex 0.0 0.0 6.499999999999999
    vertex 5.0 0.0 6.499999999999999
  endloop
endfacet
facet normal -0.0 -0.0 1.0
  outer loop
    vertex 0.0 18.2 6.499999999999999
    vertex 0.4899999999999996 1.4800000000000013 6.499999999999999
    vertex 0.48999999999999955 9.1 6.499999999999999
  endloop
endfacet
facet normal -0.0 -0.0 1.0
  outer loop
    vertex 1.1899999999999995 0.7800000000000009 6.499999999999999
    vertex 5.0 0.0 6.499999999999999
    vertex 1.8899999999999997 1.4800000000000009 6.499999999999999
  endloop
endfacet
facet normal -0.0 -0.0 1.0
  outer loop
    vertex 1.8899999999999997 1.4800000000000009 6.499999999999999
    vertex 5.0 0.0 6.499999999999999
    vertex 3.7299999999999995 0.7800000000000008 6.499999999999999
  endloop
endfacet
facet normal -0.0 -0.0 1.0
  outer loop
    vertex 1.8899999999999997 1.4800000000000009 6.499999999999999
    vertex 3.7299999999999995 0.7800000000000008 6.499999999999999
    vertex 3.0299999999999994 1.4800000000000009 6.499999999999999
  endloop
endfacet
facet normal -0.0 -0.0 1.0
  outer loop
    vertex 1.8899999999999997 1.4800000000000009 6.499999999999999
    vertex 3.0299999999999994 1.4800000000000009 6.499999999999999
    vertex 1.8900000000000006 6.560000000000001 6.499999999999999
  endloop
endfacet
facet normal -0.0 -0.0 1.0
  outer loop
    vertex 3.7299999999999995 0.7800000000000008 6.499999999999999
    vertex 5.0 0.0 6.499999999999999
    vertex 4.43 1.4800000000000009 6.499999999999999
  endloop
endfacet
facet normal -0.0 -0.0 1.0
  outer loop
    vertex 4.43 1.4800000000000009 6.499999999999999
    vertex 5.0 0.0 6.499999999999999
    vertex 4.43 4.020000000000001 6.499999999999999
  endloop
endfacet
facet normal -0.0 -0.0 1.0
  outer loop
    vertex 4.43 4.020000000000001 6.499999999999999
    vertex 5.0 0.0 6.499999999999999
    vertex 4.43 6.560000000000001 6.499999999999999
  endloop
endfacet
facet normal -0.0 -0.0 1.0
  outer loop
    vertex 4.43 6.560000000000001 6.499999999999999
    vertex 5.0 0.0 6.499999999999999
    vertex 4.43 14.18 6.499999999999999
  endloop
endfacet
facet normal -0.0 -0.0 1.0
  outer loop
    vertex 0.0 18.2 6.499999999999999
    vertex 1.1899999999999997 17.419999999999998 6.499999999999999
    vertex 5.0 18.2 6.499999999999999
  endloop
endfacet
facet normal -0.0 -0.0 1.0
  outer loop
    vertex 1.1899999999999997 17.419999999999998 6.499999999999999
    vertex 0.0 18.2 6.499999999999999
    vertex 0.48999999999999955 16.72 6.499999999999999
  endloop
endfacet
facet normal -0.0 -0.0 1.0
  outer loop
    vertex 0.48999999999999955 16.72 6.499999999999999
    vertex 0.0 18.2 6.499999999999999
    vertex 0.48999999999999955 9.1 6.499999999999999
  endloop
endfacet
facet normal -0.0 -0.0 1.0
  outer loop
    vertex 0.48999999999999955 16.72 6.499999999999999
    vertex 0.48999999999999955 9.1 6.499999999999999
    vertex 0.48999999999999955 14.18 6.499999999999999
  endloop
endfacet
facet normal -0.0 -0.0 1.0
  outer loop
    vertex 5.0 18.2 6.499999999999999
    vertex 1.1899999999999997 17.419999999999998 6.499999999999999
    vertex 1.8899999999999997 16.72 6.499999999999999
  endloop
endfacet
facet normal -0.0 -0.0 1.0
  outer loop
    vertex 5.0 18.2 6.499999999999999
    vertex 1.8899999999999997 16.72 6.499999999999999
    vertex 3.7299999999999995 17.419999999999998 6.499999999999999
  endloop
endfacet
facet normal -0.0 -0.0 1.0
  outer loop
    vertex 3.7299999999999995 17.419999999999998 6.499999999999999
    vertex 1.8899999999999997 16.72 6.499999999999999
    vertex 3.0300000000000002 16.72 6.499999999999999
  endloop
endfacet
facet normal -0.0 -0.0 1.0
  outer loop
    vertex 3.0300000000000002 16.72 6.499999999999999
    vertex 1.8899999999999997 16.72 6.499999999999999
    vertex 1.8900000000000006 6.560000000000001 6.499999999999999
  endloop
endfacet
facet normal -0.0 -0.0 1.0
  outer loop
    vertex 3.0300000000000002 16.72 6.499999999999999
    vertex 1.8900000000000006 6.560000000000001 6.499999999999999
    vertex 3.0299999999999994 14.18 6.499999999999999
  endloop
endfacet
facet normal -0.0 -0.0 1.0
  outer loop
    vertex 3.0299999999999994 14.18 6.499999999999999
    vertex 1.8900000000000006 6.560000000000001 6.499999999999999
    vertex 3.0299999999999994 1.4800000000000009 6.499999999999999
  endloop
endfacet
facet normal -0.0 -0.0 1.0
  outer loop
    vertex 3.0299999999999994 14.18 6.499999999999999
    vertex 3.0299999999999994 1.4800000000000009 6.499999999999999
    vertex 3.0299999999999994 4.020000000000001 6.499999999999999
  endloop
endfacet
facet normal -0.0 -0.0 1.0
  outer loop
    vertex 5.0 18.2 6.499999999999999
    vertex 3.7299999999999995 17.419999999999998 6.499999999999999
    vertex 4.429999999999999 16.72 6.499999999999999
  endloop
endfacet
facet normal -0.0 -0.0 1.0
  outer loop
    vertex 5.0 18.2 6.499999999999999
    vertex 4.429999999999999 16.72 6.499999999999999
    vertex 4.43 14.18 6.499999999999999
  endloop
endfacet
facet normal -0.0 -0.0 1.0
  outer loop
    vertex 5.0 18.2 6.499999999999999
    vertex 4.43 14.18 6.499999999999999
    vertex 5.0 0.0 6.499999999999999
  endloop
endfacet
facet normal -0.0 -0.0 1.0
  outer loop
    vertex 3.0299999999999994 14.18 6.499999999999999
    vertex 3.0300000000000002 11.639999999999999 6.499999999999999
    vertex 3.7299999999999995 13.48 6.499999999999999
  endloop
endfacet
facet normal -0.0 -0.0 1.0
  outer loop
    vertex 3.0300000000000002 11.639999999999999 6.499999999999999
    vertex 3.0299999999999994 14.18 6.499999999999999
    vertex 3.0300000000000002 9.1 6.499999999999999
  endloop
endfacet
facet normal -0.0 -0.0 1.0
  outer loop
    vertex 3.7299999999999995 13.48 6.499999999999999
    vertex 3.0300000000000002 11.639999999999999 6.499999999999999
    vertex 3.7299999999999995 12.339999999999998 6.499999999999999
  endloop
endfacet
facet normal -0.0 -0.0 1.0
  outer loop
    vertex 3.7299999999999995 13.48 6.499999999999999
    vertex 3.7299999999999995 12.339999999999998 6.499999999999999
    vertex 4.429999999999999 11.639999999999999 6.499999999999999
  endloop
endfacet
facet normal -0.0 -0.0 1.0
  outer loop
    vertex 3.7299999999999995 13.48 6.499999999999999
    vertex 4.429999999999999 11.639999999999999 6.499999999999999
    vertex 4.43 14.18 6.499999999999999
  endloop
endfacet
facet normal -0.0 -0.0 1.0
  outer loop
    vertex 4.43 14.18 6.499999999999999
    vertex 4.429999999999999 11.639999999999999 6.499999999999999
    vertex 4.43 6.560000000000001 6.499999999999999
  endloop
endfacet
facet normal -0.0 -0.0 1.0
  outer loop
    vertex 3.0299999999999994 4.020000000000001 6.499999999999999
    vertex 3.0300000000000002 9.1 6.499999999999999
    vertex 3.0299999999999994 14.18 6.499999999999999
  endloop
endfacet
facet normal -0.0 -0.0 1.0
  outer loop
    vertex 3.0300000000000002 9.1 6.499999999999999
    vertex 3.0299999999999994 4.020000000000001 6.499999999999999
    vertex 3.030000000000001 6.560000000000001 6.499999999999999
  endloop
endfacet
facet normal -0.0 -0.0 1.0
  outer loop
    vertex 3.030000000000001 6.560000000000001 6.499999999999999
    vertex 3.0299999999999994 4.020000000000001 6.499999999999999
    vertex 3.7299999999999995 4.720000000000001 6.499999999999999
  endloop
endfacet
facet normal -0.0 -0.0 1.0
  outer loop
    vertex 3.030000000000001 6.560000000000001 6.499999999999999
    vertex 3.7299999999999995 4.720000000000001 6.499999999999999
    vertex 3.7300000000000004 5.860000000000001 6.499999999999999
  endloop
endfacet
facet normal -0.0 -0.0 1.0
  outer loop
    vertex 3.7300000000000004 5.860000000000001 6.499999999999999
    vertex 3.7299999999999995 4.720000000000001 6.499999999999999
    vertex 4.43 4.020000000000001 6.499999999999999
  endloop
endfacet
facet normal -0.0 -0.0 1.0
  outer loop
    vertex 3.7300000000000004 5.860000000000001 6.499999999999999
    vertex 4.43 4.020000000000001 6.499999999999999
    vertex 4.43 6.560000000000001 6.499999999999999
  endloop
endfacet
facet normal -0.0 -0.0 1.0
  outer loop
    vertex 3.7299999999999995 2.180000000000001 6.499999999999999
    vertex 3.0299999999999994 4.020000000000001 6.499999999999999
    vertex 3.0299999999999994 1.4800000000000009 6.499999999999999
  endloop
endfacet
facet normal -0.0 -0.0 1.0
  outer loop
    vertex 3.0299999999999994 4.020000000000001 6.499999999999999
    vertex 3.7299999999999995 2.180000000000001 6.499999999999999
    vertex 3.7299999999999995 3.3200000000000007 6.499999999999999
  endloop
endfacet
facet normal -0.0 -0.0 1.0
  outer loop
    vertex 3.7299999999999995 3.3200000000000007 6.499999999999999
    vertex 3.7299999999999995 2.180000000000001 6.499999999999999
    vertex 4.43 1.4800000000000009 6.499999999999999
  endloop
endfacet
facet normal -0.0 -0.0 1.0
  outer loop
    vertex 3.7299999999999995 3.3200000000000007 6.499999999999999
    vertex 4.43 1.4800000000000009 6.499999999999999
    vertex 4.43 4.020000000000001 6.499999999999999
  endloop
endfacet
facet normal -0.0 -0.0 1.0
  outer loop
    vertex 3.7299999999999995 9.799999999999999 6.499999999999999
    vertex 3.0300000000000002 11.639999999999999 6.499999999999999
    vertex 3.0300000000000002 9.1 6.499999999999999
  endloop
endfacet
facet normal -0.0 -0.0 1.0
  outer loop
    vertex 3.0300000000000002 11.639999999999999 6.499999999999999
    vertex 3.7299999999999995 9.799999999999999 6.499999999999999
    vertex 3.7299999999999995 10.940000000000001 6.499999999999999
  endloop
endfacet
facet normal -0.0 -0.0 1.0
  outer loop
    vertex 3.7299999999999995 10.940000000000001 6.499999999999999
    vertex 3.7299999999999995 9.799999999999999 6.499999999999999
    vertex 4.429999999999999 9.1 6.499999999999999
  endloop
endfacet
facet normal -0.0 -0.0 1.0
  outer loop
    vertex 3.7299999999999995 10.940000000000001 6.499999999999999
    vertex 4.429999999999999 9.1 6.499999999999999
    vertex 4.429999999999999 11.639999999999999 6.499999999999999
  endloop
endfacet
facet normal -0.0 -0.0 1.0
  outer loop
    vertex 0.4899999999999996 1.4800000000000013 6.499999999999999
    vertex 0.4900000000000006 4.020000000000001 6.499999999999999
    vertex 0.4900000000000002 6.560000000000001 6.499999999999999
  endloop
endfacet
facet normal -0.0 -0.0 1.0
  outer loop
    vertex 0.4900000000000006 4.020000000000001 6.499999999999999
    vertex 0.4899999999999996 1.4800000000000013 6.499999999999999
    vertex 1.1899999999999997 2.180000000000001 6.499999999999999
  endloop
endfacet
facet normal -0.0 -0.0 1.0
  outer loop
    vertex 0.4900000000000006 4.020000000000001 6.499999999999999
    vertex 1.1899999999999997 2.180000000000001 6.499999999999999
    vertex 1.19 3.3200000000000016 6.499999999999999
  endloop
endfacet
facet normal -0.0 -0.0 1.0
  outer loop
    vertex 1.19 3.3200000000000016 6.499999999999999
    vertex 1.1899999999999997 2.180000000000001 6.499999999999999
    vertex 1.8899999999999997 1.4800000000000009 6.499999999999999
  endloop
endfacet
facet normal -0.0 -0.0 1.0
  outer loop
    vertex 1.19 3.3200000000000016 6.499999999999999
    vertex 1.8899999999999997 1.4800000000000009 6.499999999999999
    vertex 1.8899999999999995 4.020000000000001 6.499999999999999
  endloop
endfacet
facet normal -0.0 -0.0 1.0
  outer loop
    vertex 0.48999999999999955 9.1 6.499999999999999
    vertex 0.48999999999999977 11.639999999999999 6.499999999999999
    vertex 0.48999999999999955 14.18 6.499999999999999
  endloop
endfacet
facet normal -0.0 -0.0 1.0
  outer loop
    vertex 0.48999999999999977 11.639999999999999 6.499999999999999
    vertex 0.48999999999999955 9.1 6.499999999999999
    vertex 1.1899999999999997 9.8 6.499999999999999
  endloop
endfacet
facet normal -0.0 -0.0 1.0
  outer loop
    vertex 0.48999999999999977 11.639999999999999 6.499999999999999
    vertex 1.1899999999999997 9.8 6.499999999999999
    vertex 1.1899999999999997 10.94 6.499999999999999
  endloop
endfacet
facet normal -0.0 -0.0 1.0
  outer loop
    vertex 1.1899999999999997 10.94 6.499999999999999
    vertex 1.1899999999999997 9.8 6.499999999999999
    vertex 1.8899999999999997 9.1 6.499999999999999
  endloop
endfacet
facet normal -0.0 -0.0 1.0
  outer loop
    vertex 1.1899999999999997 10.94 6.499999999999999
    vertex 1.8899999999999997 9.1 6.499999999999999
    vertex 1.8899999999999995 11.639999999999999 6.499999999999999
  endloop
endfacet
facet normal -0.0 -0.0 1.0
  outer loop
    vertex 0.48999999999999955 9.1 6.499999999999999
    vertex 0.4900000000000002 6.560000000000001 6.499999999999999
    vertex 1.1899999999999995 8.4 6.499999999999999
  endloop
endfacet
facet normal -0.0 -0.0 1.0
  outer loop
    vertex 0.4900000000000002 6.560000000000001 6.499999999999999
    vertex 0.48999999999999955 9.1 6.499999999999999
    vertex 0.4899999999999996 1.4800000000000013 6.499999999999999
  endloop
endfacet
facet normal -0.0 -0.0 1.0
  outer loop
    vertex 1.1899999999999995 8.4 6.499999999999999
    vertex 0.4900000000000002 6.560000000000001 6.499999999999999
    vertex 1.1900000000000004 7.260000000000001 6.499999999999999
  endloop
endfacet
facet normal -0.0 -0.0 1.0
  outer loop
    vertex 1.1899999999999995 8.4 6.499999999999999
    vertex 1.1900000000000004 7.260000000000001 6.499999999999999
    vertex 1.8899999999999997 9.1 6.499999999999999
  endloop
endfacet
facet normal -0.0 -0.0 1.0
  outer loop
    vertex 1.8899999999999997 9.1 6.499999999999999
    vertex 1.1900000000000004 7.260000000000001 6.499999999999999
    vertex 1.8900000000000006 6.560000000000001 6.499999999999999
  endloop
endfacet
facet normal -0.0 -0.0 1.0
  outer loop
    vertex 1.8899999999999997 9.1 6.499999999999999
    vertex 1.8900000000000006 6.560000000000001 6.499999999999999
    vertex 1.8899999999999997 14.18 6.499999999999999
  endloop
endfacet
facet normal -0.0 -0.0 1.0
  outer loop
    vertex 1.8899999999999997 14.18 6.499999999999999
    vertex 1.8900000000000006 6.560000000000001 6.499999999999999
    vertex 1.8899999999999997 16.72 6.499999999999999
  endloop
endfacet
facet normal -0.0 -0.0 1.0
  outer loop
    vertex 1.1899999999999997 14.879999999999997 6.499999999999999
    vertex 0.48999999999999955 16.72 6.499999999999999
    vertex 0.48999999999999955 14.18 6.499999999999999
  endloop
endfacet
facet normal -0.0 -0.0 1.0
  outer loop
    vertex 0.48999999999999955 16.72 6.499999999999999
    vertex 1.1899999999999997 14.879999999999997 6.499999999999999
    vertex 1.1899999999999995 16.019999999999996 6.499999999999999
  endloop
endfacet
facet normal -0.0 -0.0 1.0
  outer loop
    vertex 1.1899999999999995 16.019999999999996 6.499999999999999
    vertex 1.1899999999999997 14.879999999999997 6.499999999999999
    vertex 1.8899999999999997 16.72 6.499999999999999
  endloop
endfacet
facet normal -0.0 -0.0 1.0
  outer loop
    vertex 1.8899999999999997 16.72 6.499999999999999
    vertex 1.1899999999999997 14.879999999999997 6.499999999999999
    vertex 1.8899999999999997 14.18 6.499999999999999
  endloop
endfacet
facet normal -0.0 -0.0 1.0
  outer loop
    vertex 0.48999999999999977 11.639999999999999 6.499999999999999
    vertex 1.1899999999999995 13.48 6.499999999999999
    vertex 0.48999999999999955 14.18 6.499999999999999
  endloop
endfacet
facet normal -0.0 -0.0 1.0
  outer loop
    vertex 1.1899999999999995 13.48 6.499999999999999
    vertex 0.48999999999999977 11.639999999999999 6.499999999999999
    vertex 1.1899999999999997 12.34 6.499999999999999
  endloop
endfacet
facet normal -0.0 -0.0 1.0
  outer loop
    vertex 1.1899999999999995 13.48 6.499999999999999
    vertex 1.1899999999999997 12.34 6.499999999999999
    vertex 1.8899999999999997 14.18 6.499999999999999
  endloop
endfacet
facet normal -0.0 -0.0 1.0
  outer loop
    vertex 1.8899999999999997 14.18 6.499999999999999
    vertex 1.1899999999999997 12.34 6.499999999999999
    vertex 1.8899999999999995 11.639999999999999 6.499999999999999
  endloop
endfacet
facet normal -0.0 -0.0 1.0
  outer loop
    vertex 1.8899999999999997 14.18 6.499999999999999
    vertex 1.8899999999999995 11.639999999999999 6.499999999999999
    vertex 1.8899999999999997 9.1 6.499999999999999
  endloop
endfacet
facet normal -0.0 -0.0 1.0
  outer loop
    vertex 0.4900000000000006 4.020000000000001 6.499999999999999
    vertex 1.1900000000000004 5.860000000000001 6.499999999999999
    vertex 0.4900000000000002 6.560000000000001 6.499999999999999
  endloop
endfacet
facet normal -0.0 -0.0 1.0
  outer loop
    vertex 1.1900000000000004 5.860000000000001 6.499999999999999
    vertex 0.4900000000000006 4.020000000000001 6.499999999999999
    vertex 1.19 4.720000000000001 6.499999999999999
  endloop
endfacet
facet normal -0.0 -0.0 1.0
  outer loop
    vertex 1.1900000000000004 5.860000000000001 6.499999999999999
    vertex 1.19 4.720000000000001 6.499999999999999
    vertex 1.8899999999999995 4.020000000000001 6.499999999999999
  endloop
endfacet
facet normal -0.0 -0.0 1.0
  outer loop
    vertex 1.1900000000000004 5.860000000000001 6.499999999999999
    vertex 1.8899999999999995 4.020000000000001 6.499999999999999
    vertex 1.8900000000000006 6.560000000000001 6.499999999999999
  endloop
endfacet
facet normal -0.0 -0.0 1.0
  outer loop
    vertex 1.8900000000000006 6.560000000000001 6.499999999999999
    vertex 1.8899999999999995 4.020000000000001 6.499999999999999
    vertex 1.8899999999999997 1.4800000000000009 6.499999999999999
  endloop
endfacet
facet normal -1.0 0.0 0.0
  outer loop
    vertex 0.0 18.2 6.499999999999999
    vertex 0.0 0.0 0.0
    vertex 0.0 0.0 6.499999999999999
  endloop
endfacet
facet normal -1.0 0.0 0.0
  outer loop
    vertex 0.0 0.0 0.0
    vertex 0.0 18.2 6.499999999999999
    vertex 0.0 18.2 0.0
  endloop
endfacet
facet normal -0.0 1.0 0.0
  outer loop
    vertex 0.0 18.2 6.499999999999999
    vertex 5.0 18.2 0.0
    vertex 0.0 18.2 0.0
  endloop
endfacet
facet normal -0.0 1.0 0.0
  outer loop
    vertex 5.0 18.2 0.0
    vertex 0.0 18.2 6.499999999999999
    vertex 5.0 18.2 6.499999999999999
  endloop
endfacet
facet normal 1.0 0.0 0.0
  outer loop
    vertex 5.0 18.2 0.0
    vertex 5.0 0.0 6.499999999999999
    vertex 5.0 0.0 0.0
  endloop
endfacet
facet normal 1.0 0.0 0.0
  outer loop
    vertex 5.0 0.0 6.499999999999999
    vertex 5.0 18.2 0.0
    vertex 5.0 18.2 6.499999999999999
  endloop
endfacet
facet normal -0.0 -1.0 -0.0
  outer loop
    vertex 5.0 0.0 6.499999999999999
    vertex 0.0 0.0 0.0
    vertex 5.0 0.0 0.0
  endloop
endfacet
facet normal -0.0 -1.0 -0.0
  outer loop
    vertex 0.0 0.0 0.0
    vertex 5.0 0.0 6.499999999999999
    vertex 0.0 0.0 6.499999999999999
  endloop
endfacet
facet normal 0.7071067811865474 -0.7071067811865478 -0.0
  outer loop
    vertex 1.1899999999999997 2.180000000000001 6.499999999999999
    vertex 0.4899999999999996 1.4800000000000013 0.0
    vertex 1.1899999999999997 2.180000000000001 0.0
  endloop
endfacet
facet normal 0.7071067811865474 -0.7071067811865478 -0.0
  outer loop
    vertex 0.4899999999999996 1.4800000000000013 0.0
    vertex 1.1899999999999997 2.180000000000001 6.499999999999999
    vertex 0.4899999999999996 1.4800000000000013 6.499999999999999
  endloop
endfacet
facet normal 0.7071067811865478 0.7071067811865472 0.0
  outer loop
    vertex 0.4899999999999996 1.4800000000000013 0.0
    vertex 1.1899999999999995 0.7800000000000009 6.499999999999999
    vertex 1.1899999999999995 0.7800000000000009 0.0
  endloop
endfacet
facet normal 0.7071067811865478 0.7071067811865472 0.0
  outer loop
    vertex 1.1899999999999995 0.7800000000000009 6.499999999999999
    vertex 0.4899999999999996 1.4800000000000013 0.0
    vertex 0.4899999999999996 1.4800000000000013 6.499999999999999
  endloop
endfacet
facet normal -0.7071067811865474 0.7071067811865478 -0.0
  outer loop
    vertex 1.1899999999999995 0.7800000000000009 6.499999999999999
    vertex 1.8899999999999997 1.4800000000000009 0.0
    vertex 1.1899999999999995 0.7800000000000009 0.0
  endloop
endfacet
facet normal -0.7071067811865474 0.7071067811865478 -0.0
  outer loop
    vertex 1.8899999999999997 1.4800000000000009 0.0
    vertex 1.1899999999999995 0.7800000000000009 6.499999999999999
    vertex 1.8899999999999997 1.4800000000000009 6.499999999999999
  endloop
endfacet
facet normal -0.7071067811865477 -0.7071067811865474 -0.0
  outer loop
    vertex 1.1899999999999997 2.180000000000001 6.499999999999999
    vertex 1.8899999999999997 1.4800000000000009 0.0
    vertex 1.8899999999999997 1.4800000000000009 6.499999999999999
  endloop
endfacet
facet normal -0.7071067811865477 -0.7071067811865474 -0.0
  outer loop
    vertex 1.8899999999999997 1.4800000000000009 0.0
    vertex 1.1899999999999997 2.180000000000001 6.499999999999999
    vertex 1.1899999999999997 2.180000000000001 0.0
  endloop
endfacet
facet normal -0.7071067811865475 0.7071067811865476 -0.0
  outer loop
    vertex 3.7299999999999995 0.7800000000000008 6.499999999999999
    vertex 4.43 1.4800000000000009 -7.049916206369744e-16
    vertex 3.7299999999999995 0.7800000000000008 -7.049916206369744e-16
  endloop
endfacet
facet normal -0.7071067811865475 0.7071067811865476 -0.0
  outer loop
    vertex 4.43 1.4800000000000009 -7.049916206369744e-16
    vertex 3.7299999999999995 0.7800000000000008 6.499999999999999
    vertex 4.43 1.4800000000000009 6.499999999999999
  endloop
endfacet
facet normal -0.7071067811865476 -0.7071067811865475 -0.0
  outer loop
    vertex 3.7299999999999995 2.180000000000001 6.499999999999999
    vertex 4.43 1.4800000000000009 -7.049916206369744e-16
    vertex 4.43 1.4800000000000009 6.499999999999999
  endloop
endfacet
facet normal -0.7071067811865476 -0.7071067811865475 -0.0
  outer loop
    vertex 4.43 1.4800000000000009 -7.049916206369744e-16
    vertex 3.7299999999999995 2.180000000000001 6.499999999999999
    vertex 3.7299999999999995 2.180000000000001 -7.049916206369744e-16
  endloop
endfacet
facet normal 0.7071067811865476 -0.7071067811865476 -0.0
  outer loop
    vertex 3.7299999999999995 2.180000000000001 -7.049916206369744e-16
    vertex 3.0299999999999994 1.4800000000000009 6.499999999999999
    vertex 3.0299999999999994 1.4800000000000009 -7.049916206369744e-16
  endloop
endfacet
facet normal 0.7071067811865476 -0.7071067811865476 -0.0
  outer loop
    vertex 3.0299999999999994 1.4800000000000009 6.499999999999999
    vertex 3.7299999999999995 2.180000000000001 -7.049916206369744e-16
    vertex 3.7299999999999995 2.180000000000001 6.499999999999999
  endloop
endfacet
facet normal 0.7071067811865476 0.7071067811865476 0.0
  outer loop
    vertex 3.0299999999999994 1.4800000000000009 -7.049916206369744e-16
    vertex 3.7299999999999995 0.7800000000000008 6.499999999999999
    vertex 3.7299999999999995 0.7800000000000008 -7.049916206369744e-16
  endloop
endfacet
facet normal 0.7071067811865476 0.7071067811865476 0.0
  outer loop
    vertex 3.7299999999999995 0.7800000000000008 6.499999999999999
    vertex 3.0299999999999994 1.4800000000000009 -7.049916206369744e-16
    vertex 3.0299999999999994 1.4800000000000009 6.499999999999999
  endloop
endfacet
facet normal -0.7071067811865476 0.7071067811865476 -0.0
  outer loop
    vertex 4.43 4.020000000000001 6.499999999999999
    vertex 3.7299999999999995 3.3200000000000007 -7.049916206369744e-16
    vertex 3.7299999999999995 3.3200000000000007 6.499999999999999
  endloop
endfacet
facet normal -0.7071067811865476 0.7071067811865476 -0.0
  outer loop
    vertex 3.7299999999999995 3.3200000000000007 -7.049916206369744e-16
    vertex 4.43 4.020000000000001 6.499999999999999
    vertex 4.43 4.020000000000001 -7.049916206369744e-16
  endloop
endfacet
facet normal -0.7071067811865476 -0.7071067811865476 -0.0
  outer loop
    vertex 3.7299999999999995 4.720000000000001 6.499999999999999
    vertex 4.43 4.020000000000001 -7.049916206369744e-16
    vertex 4.43 4.020000000000001 6.499999999999999
  endloop
endfacet
facet normal -0.7071067811865476 -0.7071067811865476 -0.0
  outer loop
    vertex 4.43 4.020000000000001 -7.049916206369744e-16
    vertex 3.7299999999999995 4.720000000000001 6.499999999999999
    vertex 3.7299999999999995 4.720000000000001 -7.049916206369744e-16
  endloop
endfacet
facet normal 0.7071067811865476 -0.7071067811865476 -0.0
  outer loop
    vertex 3.7299999999999995 4.720000000000001 -7.049916206369744e-16
    vertex 3.0299999999999994 4.020000000000001 6.499999999999999
    vertex 3.0299999999999994 4.020000000000001 -7.049916206369744e-16
  endloop
endfacet
facet normal 0.7071067811865476 -0.7071067811865476 -0.0
  outer loop
    vertex 3.0299999999999994 4.020000000000001 6.499999999999999
    vertex 3.7299999999999995 4.720000000000001 -7.049916206369744e-16
    vertex 3.7299999999999995 4.720000000000001 6.499999999999999
  endloop
endfacet
facet normal 0.7071067811865476 0.7071067811865476 0.0
  outer loop
    vertex 3.0299999999999994 4.020000000000001 -7.049916206369744e-16
    vertex 3.7299999999999995 3.3200000000000007 6.499999999999999
    vertex 3.7299999999999995 3.3200000000000007 -7.049916206369744e-16
  endloop
endfacet
facet normal 0.7071067811865476 0.7071067811865476 0.0
  outer loop
    vertex 3.7299999999999995 3.3200000000000007 6.499999999999999
    vertex 3.0299999999999994 4.020000000000001 -7.049916206369744e-16
    vertex 3.0299999999999994 4.020000000000001 6.499999999999999
  endloop
endfacet
facet normal -0.7071067811865476 -0.7071067811865476 -0.0
  outer loop
    vertex 1.19 4.720000000000001 6.499999999999999
    vertex 1.8899999999999995 4.020000000000001 7.049916206369744e-16
    vertex 1.8899999999999995 4.020000000000001 6.499999999999999
  endloop
endfacet
facet normal -0.7071067811865476 -0.7071067811865476 -0.0
  outer loop
    vertex 1.8899999999999995 4.020000000000001 7.049916206369744e-16
    vertex 1.19 4.720000000000001 6.499999999999999
    vertex 1.19 4.720000000000001 7.049916206369744e-16
  endloop
endfacet
facet normal 0.7071067811865476 -0.7071067811865476 -0.0
  outer loop
    vertex 1.19 4.720000000000001 7.049916206369744e-16
    vertex 0.4900000000000006 4.020000000000001 6.499999999999999
    vertex 0.4900000000000006 4.020000000000001 7.049916206369744e-16
  endloop
endfacet
facet normal 0.7071067811865476 -0.7071067811865476 -0.0
  outer loop
    vertex 0.4900000000000006 4.020000000000001 6.499999999999999
    vertex 1.19 4.720000000000001 7.049916206369744e-16
    vertex 1.19 4.720000000000001 6.499999999999999
  endloop
endfacet
facet normal 0.7071067811865476 0.7071067811865476 0.0
  outer loop
    vertex 0.4900000000000006 4.020000000000001 7.049916206369744e-16
    vertex 1.19 3.3200000000000016 6.499999999999999
    vertex 1.19 3.3200000000000016 7.049916206369744e-16
  endloop
endfacet
facet normal 0.7071067811865476 0.7071067811865476 0.0
  outer loop
    vertex 1.19 3.3200000000000016 6.499999999999999
    vertex 0.4900000000000006 4.020000000000001 7.049916206369744e-16
    vertex 0.4900000000000006 4.020000000000001 6.499999999999999
  endloop
endfacet
facet normal -0.7071067811865476 0.7071067811865476 -0.0
  outer loop
    vertex 1.8899999999999995 4.020000000000001 6.499999999999999
    vertex 1.19 3.3200000000000016 7.049916206369744e-16
    vertex 1.19 3.3200000000000016 6.499999999999999
  endloop
endfacet
facet normal -0.7071067811865476 0.7071067811865476 -0.0
  outer loop
    vertex 1.19 3.3200000000000016 7.049916206369744e-16
    vertex 1.8899999999999995 4.020000000000001 6.499999999999999
    vertex 1.8899999999999995 4.020000000000001 7.049916206369744e-16
  endloop
endfacet
facet normal 0.7071067811865476 0.7071067811865476 0.0
  outer loop
    vertex 0.4900000000000002 6.560000000000001 0.0
    vertex 1.1900000000000004 5.860000000000001 6.499999999999999
    vertex 1.1900000000000004 5.860000000000001 0.0
  endloop
endfacet
facet normal 0.7071067811865476 0.7071067811865476 0.0
  outer loop
    vertex 1.1900000000000004 5.860000000000001 6.499999999999999
    vertex 0.4900000000000002 6.560000000000001 0.0
    vertex 0.4900000000000002 6.560000000000001 6.499999999999999
  endloop
endfacet
facet normal -0.7071067811865476 0.7071067811865476 -0.0
  outer loop
    vertex 1.8900000000000006 6.560000000000001 6.499999999999999
    vertex 1.1900000000000004 5.860000000000001 0.0
    vertex 1.1900000000000004 5.860000000000001 6.499999999999999
  endloop
endfacet
facet normal -0.7071067811865476 0.7071067811865476 -0.0
  outer loop
    vertex 1.1900000000000004 5.860000000000001 0.0
    vertex 1.8900000000000006 6.560000000000001 6.499999999999999
    vertex 1.8900000000000006 6.560000000000001 0.0
  endloop
endfacet
facet normal -0.7071067811865476 -0.7071067811865476 -0.0
  outer loop
    vertex 1.1900000000000004 7.260000000000001 6.499999999999999
    vertex 1.8900000000000006 6.560000000000001 0.0
    vertex 1.8900000000000006 6.560000000000001 6.499999999999999
  endloop
endfacet
facet normal -0.7071067811865476 -0.7071067811865476 -0.0
  outer loop
    vertex 1.8900000000000006 6.560000000000001 0.0
    vertex 1.1900000000000004 7.260000000000001 6.499999999999999
    vertex 1.1900000000000004 7.260000000000001 0.0
  endloop
endfacet
facet normal 0.7071067811865476 -0.7071067811865476 -0.0
  outer loop
    vertex 1.1900000000000004 7.260000000000001 0.0
    vertex 0.4900000000000002 6.560000000000001 6.499999999999999
    vertex 0.4900000000000002 6.560000000000001 0.0
  endloop
endfacet
facet normal 0.7071067811865476 -0.7071067811865476 -0.0
  outer loop
    vertex 0.4900000000000002 6.560000000000001 6.499999999999999
    vertex 1.1900000000000004 7.260000000000001 0.0
    vertex 1.1900000000000004 7.260000000000001 6.499999999999999
  endloop
endfacet
facet normal 0.7071067811865476 0.7071067811865476 0.0
  outer loop
    vertex 3.030000000000001 6.560000000000001 0.0
    vertex 3.7300000000000004 5.860000000000001 6.499999999999999
    vertex 3.7300000000000004 5.860000000000001 0.0
  endloop
endfacet
facet normal 0.7071067811865476 0.7071067811865476 0.0
  outer loop
    vertex 3.7300000000000004 5.860000000000001 6.499999999999999
    vertex 3.030000000000001 6.560000000000001 0.0
    vertex 3.030000000000001 6.560000000000001 6.499999999999999
  endloop
endfacet
facet normal -0.7071067811865476 0.7071067811865476 -0.0
  outer loop
    vertex 4.43 6.560000000000001 6.499999999999999
    vertex 3.7300000000000004 5.860000000000001 0.0
    vertex 3.7300000000000004 5.860000000000001 6.499999999999999
  endloop
endfacet
facet normal -0.7071067811865476 0.7071067811865476 -0.0
  outer loop
    vertex 3.7300000000000004 5.860000000000001 0.0
    vertex 4.43 6.560000000000001 6.499999999999999
    vertex 4.43 6.560000000000001 0.0
  endloop
endfacet
facet normal -0.7071067811865471 -0.7071067811865479 -0.0
  outer loop
    vertex 4.43 6.560000000000001 6.499999999999999
    vertex 3.7300000000000004 7.26 0.0
    vertex 4.43 6.560000000000001 0.0
  endloop
endfacet
facet normal -0.7071067811865471 -0.7071067811865479 -0.0
  outer loop
    vertex 3.7300000000000004 7.26 0.0
    vertex 4.43 6.560000000000001 6.499999999999999
    vertex 3.7300000000000004 7.26 6.499999999999999
  endloop
endfacet
facet normal 0.7071067811865471 -0.7071067811865479 -0.0
  outer loop
    vertex 3.7300000000000004 7.26 6.499999999999999
    vertex 3.030000000000001 6.560000000000001 0.0
    vertex 3.7300000000000004 7.26 0.0
  endloop
endfacet
facet normal 0.7071067811865471 -0.7071067811865479 -0.0
  outer loop
    vertex 3.030000000000001 6.560000000000001 0.0
    vertex 3.7300000000000004 7.26 6.499999999999999
    vertex 3.030000000000001 6.560000000000001 6.499999999999999
  endloop
endfacet
facet normal 0.7071067811865476 0.7071067811865475 0.0
  outer loop
    vertex 0.48999999999999955 9.1 0.0
    vertex 1.1899999999999995 8.4 6.499999999999999
    vertex 1.1899999999999995 8.4 0.0
  endloop
endfacet
facet normal 0.7071067811865476 0.7071067811865475 0.0
  outer loop
    vertex 1.1899999999999995 8.4 6.499999999999999
    vertex 0.48999999999999955 9.1 0.0
    vertex 0.48999999999999955 9.1 6.499999999999999
  endloop
endfacet
facet normal -0.7071067811865475 0.7071067811865476 -0.0
  outer loop
    vertex 1.1899999999999995 8.4 6.499999999999999
    vertex 1.8899999999999997 9.1 0.0
    vertex 1.1899999999999995 8.4 0.0
  endloop
endfacet
facet normal -0.7071067811865475 0.7071067811865476 -0.0
  outer loop
    vertex 1.8899999999999997 9.1 0.0
    vertex 1.1899999999999995 8.4 6.499999999999999
    vertex 1.8899999999999997 9.1 6.499999999999999
  endloop
endfacet
facet normal -0.7071067811865476 -0.7071067811865476 -0.0
  outer loop
    vertex 1.1899999999999997 9.8 6.499999999999999
    vertex 1.8899999999999997 9.1 0.0
    vertex 1.8899999999999997 9.1 6.499999999999999
  endloop
endfacet
facet normal -0.7071067811865476 -0.7071067811865476 -0.0
  outer loop
    vertex 1.8899999999999997 9.1 0.0
    vertex 1.1899999999999997 9.8 6.499999999999999
    vertex 1.1899999999999997 9.8 0.0
  endloop
endfacet
facet normal 0.7071067811865476 -0.7071067811865476 -0.0
  outer loop
    vertex 1.1899999999999997 9.8 0.0
    vertex 0.48999999999999955 9.1 6.499999999999999
    vertex 0.48999999999999955 9.1 0.0
  endloop
endfacet
facet normal 0.7071067811865476 -0.7071067811865476 -0.0
  outer loop
    vertex 0.48999999999999955 9.1 6.499999999999999
    vertex 1.1899999999999997 9.8 0.0
    vertex 1.1899999999999997 9.8 6.499999999999999
  endloop
endfacet
facet normal 0.7071067811865471 -0.7071067811865479 -0.0
  outer loop
    vertex 3.7299999999999995 9.799999999999999 6.499999999999999
    vertex 3.0300000000000002 9.1 0.0
    vertex 3.7299999999999995 9.799999999999999 0.0
  endloop
endfacet
facet normal 0.7071067811865471 -0.7071067811865479 -0.0
  outer loop
    vertex 3.0300000000000002 9.1 0.0
    vertex 3.7299999999999995 9.799999999999999 6.499999999999999
    vertex 3.0300000000000002 9.1 6.499999999999999
  endloop
endfacet
facet normal 0.7071067811865471 0.7071067811865479 0.0
  outer loop
    vertex 3.0300000000000002 9.1 6.499999999999999
    vertex 3.7299999999999995 8.400000000000002 0.0
    vertex 3.0300000000000002 9.1 0.0
  endloop
endfacet
facet normal 0.7071067811865471 0.7071067811865479 0.0
  outer loop
    vertex 3.7299999999999995 8.400000000000002 0.0
    vertex 3.0300000000000002 9.1 6.499999999999999
    vertex 3.7299999999999995 8.400000000000002 6.499999999999999
  endloop
endfacet
facet normal -0.7071067811865471 0.7071067811865479 -0.0
  outer loop
    vertex 3.7299999999999995 8.400000000000002 6.499999999999999
    vertex 4.429999999999999 9.1 0.0
    vertex 3.7299999999999995 8.400000000000002 0.0
  endloop
endfacet
facet normal -0.7071067811865471 0.7071067811865479 -0.0
  outer loop
    vertex 4.429999999999999 9.1 0.0
    vertex 3.7299999999999995 8.400000000000002 6.499999999999999
    vertex 4.429999999999999 9.1 6.499999999999999
  endloop
endfacet
facet normal -0.7071067811865471 -0.7071067811865479 -0.0
  outer loop
    vertex 4.429999999999999 9.1 6.499999999999999
    vertex 3.7299999999999995 9.799999999999999 0.0
    vertex 4.429999999999999 9.1 0.0
  endloop
endfacet
facet normal -0.7071067811865471 -0.7071067811865479 -0.0
  outer loop
    vertex 3.7299999999999995 9.799999999999999 0.0
    vertex 4.429999999999999 9.1 6.499999999999999
    vertex 3.7299999999999995 9.799999999999999 6.499999999999999
  endloop
endfacet
facet normal 0.7071067811865477 0.7071067811865475 0.0
  outer loop
    vertex 0.48999999999999977 11.639999999999999 -1.4099832412739487e-15
    vertex 1.1899999999999997 10.94 6.499999999999999
    vertex 1.1899999999999997 10.94 -1.4099832412739487e-15
  endloop
endfacet
facet normal 0.7071067811865477 0.7071067811865475 0.0
  outer loop
    vertex 1.1899999999999997 10.94 6.499999999999999
    vertex 0.48999999999999977 11.639999999999999 -1.4099832412739487e-15
    vertex 0.48999999999999977 11.639999999999999 6.499999999999999
  endloop
endfacet
facet normal -0.7071067811865477 0.7071067811865474 -0.0
  outer loop
    vertex 1.8899999999999995 11.639999999999999 6.499999999999999
    vertex 1.1899999999999997 10.94 -1.4099832412739487e-15
    vertex 1.1899999999999997 10.94 6.499999999999999
  endloop
endfacet
facet normal -0.7071067811865477 0.7071067811865474 -0.0
  outer loop
    vertex 1.1899999999999997 10.94 -1.4099832412739487e-15
    vertex 1.8899999999999995 11.639999999999999 6.499999999999999
    vertex 1.8899999999999995 11.639999999999999 -1.4099832412739487e-15
  endloop
endfacet
facet normal -0.7071067811865478 -0.7071067811865472 -0.0
  outer loop
    vertex 1.1899999999999997 12.34 6.499999999999999
    vertex 1.8899999999999995 11.639999999999999 -1.4099832412739487e-15
    vertex 1.8899999999999995 11.639999999999999 6.499999999999999
  endloop
endfacet
facet normal -0.7071067811865478 -0.7071067811865472 -0.0
  outer loop
    vertex 1.8899999999999995 11.639999999999999 -1.4099832412739487e-15
    vertex 1.1899999999999997 12.34 6.499999999999999
    vertex 1.1899999999999997 12.34 -1.4099832412739487e-15
  endloop
endfacet
facet normal 0.7071067811865476 -0.7071067811865476 -0.0
  outer loop
    vertex 1.1899999999999997 12.34 -1.4099832412739487e-15
    vertex 0.48999999999999977 11.639999999999999 6.499999999999999
    vertex 0.48999999999999977 11.639999999999999 -1.4099832412739487e-15
  endloop
endfacet
facet normal 0.7071067811865476 -0.7071067811865476 -0.0
  outer loop
    vertex 0.48999999999999977 11.639999999999999 6.499999999999999
    vertex 1.1899999999999997 12.34 -1.4099832412739487e-15
    vertex 1.1899999999999997 12.34 6.499999999999999
  endloop
endfacet
facet normal -0.7071067811865471 -0.7071067811865479 -0.0
  outer loop
    vertex 4.429999999999999 11.639999999999999 6.499999999999999
    vertex 3.7299999999999995 12.339999999999998 0.0
    vertex 4.429999999999999 11.639999999999999 0.0
  endloop
endfacet
facet normal -0.7071067811865471 -0.7071067811865479 -0.0
  outer loop
    vertex 3.7299999999999995 12.339999999999998 0.0
    vertex 4.429999999999999 11.639999999999999 6.499999999999999
    vertex 3.7299999999999995 12.339999999999998 6.499999999999999
  endloop
endfacet
facet normal 0.7071067811865471 -0.7071067811865479 -0.0
  outer loop
    vertex 3.7299999999999995 12.339999999999998 6.499999999999999
    vertex 3.0300000000000002 11.639999999999999 0.0
    vertex 3.7299999999999995 12.339999999999998 0.0
  endloop
endfacet
facet normal 0.7071067811865471 -0.7071067811865479 -0.0
  outer loop
    vertex 3.0300000000000002 11.639999999999999 0.0
    vertex 3.7299999999999995 12.339999999999998 6.499999999999999
    vertex 3.0300000000000002 11.639999999999999 6.499999999999999
  endloop
endfacet
facet normal 0.7071067811865471 0.7071067811865479 0.0
  outer loop
    vertex 3.0300000000000002 11.639999999999999 6.499999999999999
    vertex 3.7299999999999995 10.940000000000001 0.0
    vertex 3.0300000000000002 11.639999999999999 0.0
  endloop
endfacet
facet normal 0.7071067811865471 0.7071067811865479 0.0
  outer loop
    vertex 3.7299999999999995 10.940000000000001 0.0
    vertex 3.0300000000000002 11.639999999999999 6.499999999999999
    vertex 3.7299999999999995 10.940000000000001 6.499999999999999
  endloop
endfacet
facet normal -0.7071067811865471 0.7071067811865479 -0.0
  outer loop
    vertex 3.7299999999999995 10.940000000000001 6.499999999999999
    vertex 4.429999999999999 11.639999999999999 0.0
    vertex 3.7299999999999995 10.940000000000001 0.0
  endloop
endfacet
facet normal -0.7071067811865471 0.7071067811865479 -0.0
  outer loop
    vertex 4.429999999999999 11.639999999999999 0.0
    vertex 3.7299999999999995 10.940000000000001 6.499999999999999
    vertex 4.429999999999999 11.639999999999999 6.499999999999999
  endloop
endfacet
facet normal -0.7071067811865468 0.7071067811865483 -0.0
  outer loop
    vertex 1.1899999999999995 13.48 6.499999999999999
    vertex 1.8899999999999997 14.18 0.0
    vertex 1.1899999999999995 13.48 0.0
  endloop
endfacet
facet normal -0.7071067811865468 0.7071067811865483 -0.0
  outer loop
    vertex 1.8899999999999997 14.18 0.0
    vertex 1.1899999999999995 13.48 6.499999999999999
    vertex 1.8899999999999997 14.18 6.499999999999999
  endloop
endfacet
facet normal -0.7071067811865468 -0.7071067811865482 -0.0
  outer loop
    vertex 1.8899999999999997 14.18 6.499999999999999
    vertex 1.1899999999999997 14.879999999999997 0.0
    vertex 1.8899999999999997 14.18 0.0
  endloop
endfacet
facet normal -0.7071067811865468 -0.7071067811865482 -0.0
  outer loop
    vertex 1.1899999999999997 14.879999999999997 0.0
    vertex 1.8899999999999997 14.18 6.499999999999999
    vertex 1.1899999999999997 14.879999999999997 6.499999999999999
  endloop
endfacet
facet normal 0.7071067811865468 -0.7071067811865482 -0.0
  outer loop
    vertex 1.1899999999999997 14.879999999999997 6.499999999999999
    vertex 0.48999999999999955 14.18 0.0
    vertex 1.1899999999999997 14.879999999999997 0.0
  endloop
endfacet
facet normal 0.7071067811865468 -0.7071067811865482 -0.0
  outer loop
    vertex 0.48999999999999955 14.18 0.0
    vertex 1.1899999999999997 14.879999999999997 6.499999999999999
    vertex 0.48999999999999955 14.18 6.499999999999999
  endloop
endfacet
facet normal 0.707106781186547 0.7071067811865482 0.0
  outer loop
    vertex 0.48999999999999955 14.18 6.499999999999999
    vertex 1.1899999999999995 13.48 0.0
    vertex 0.48999999999999955 14.18 0.0
  endloop
endfacet
facet normal 0.707106781186547 0.7071067811865482 0.0
  outer loop
    vertex 1.1899999999999995 13.48 0.0
    vertex 0.48999999999999955 14.18 6.499999999999999
    vertex 1.1899999999999995 13.48 6.499999999999999
  endloop
endfacet
facet normal -0.7071067811865468 -0.7071067811865482 -0.0
  outer loop
    vertex 4.43 14.18 6.499999999999999
    vertex 3.7299999999999995 14.879999999999997 0.0
    vertex 4.43 14.18 0.0
  endloop
endfacet
facet normal -0.7071067811865468 -0.7071067811865482 -0.0
  outer loop
    vertex 3.7299999999999995 14.879999999999997 0.0
    vertex 4.43 14.18 6.499999999999999
    vertex 3.7299999999999995 14.879999999999997 6.499999999999999
  endloop
endfacet
facet normal 0.7071067811865468 -0.7071067811865482 -0.0
  outer loop
    vertex 3.7299999999999995 14.879999999999997 6.499999999999999
    vertex 3.0299999999999994 14.18 0.0
    vertex 3.7299999999999995 14.879999999999997 0.0
  endloop
endfacet
facet normal 0.7071067811865468 -0.7071067811865482 -0.0
  outer loop
    vertex 3.0299999999999994 14.18 0.0
    vertex 3.7299999999999995 14.879999999999997 6.499999999999999
    vertex 3.0299999999999994 14.18 6.499999999999999
  endloop
endfacet
facet normal 0.7071067811865468 0.7071067811865482 0.0
  outer loop
    vertex 3.0299999999999994 14.18 6.499999999999999
    vertex 3.7299999999999995 13.48 0.0
    vertex 3.0299999999999994 14.18 0.0
  endloop
endfacet
facet normal 0.7071067811865468 0.7071067811865482 0.0
  outer loop
    vertex 3.7299999999999995 13.48 0.0
    vertex 3.0299999999999994 14.18 6.499999999999999
    vertex 3.7299999999999995 13.48 6.499999999999999
  endloop
endfacet
facet normal -0.7071067811865468 0.7071067811865482 -0.0
  outer loop
    vertex 3.7299999999999995 13.48 6.499999999999999
    vertex 4.43 14.18 0.0
    vertex 3.7299999999999995 13.48 0.0
  endloop
endfacet
facet normal -0.7071067811865468 0.7071067811865482 -0.0
  outer loop
    vertex 4.43 14.18 0.0
    vertex 3.7299999999999995 13.48 6.499999999999999
    vertex 4.43 14.18 6.499999999999999
  endloop
endfacet
facet normal -0.7071067811865482 -0.7071067811865468 -0.0
  outer loop
    vertex 1.1899999999999997 17.419999999999998 6.499999999999999
    vertex 1.8899999999999997 16.72 0.0
    vertex 1.8899999999999997 16.72 6.499999999999999
  endloop
endfacet
facet normal -0.7071067811865482 -0.7071067811865468 -0.0
  outer loop
    vertex 1.8899999999999997 16.72 0.0
    vertex 1.1899999999999997 17.419999999999998 6.499999999999999
    vertex 1.1899999999999997 17.419999999999998 0.0
  endloop
endfacet
facet normal 0.7071067811865482 -0.7071067811865468 -0.0
  outer loop
    vertex 1.1899999999999997 17.419999999999998 0.0
    vertex 0.48999999999999955 16.72 6.499999999999999
    vertex 0.48999999999999955 16.72 0.0
  endloop
endfacet
facet normal 0.7071067811865482 -0.7071067811865468 -0.0
  outer loop
    vertex 0.48999999999999955 16.72 6.499999999999999
    vertex 1.1899999999999997 17.419999999999998 0.0
    vertex 1.1899999999999997 17.419999999999998 6.499999999999999
  endloop
endfacet
facet normal 0.7071067811865483 0.7071067811865468 0.0
  outer loop
    vertex 0.48999999999999955 16.72 0.0
    vertex 1.1899999999999995 16.019999999999996 6.499999999999999
    vertex 1.1899999999999995 16.019999999999996 0.0
  endloop
endfacet
facet normal 0.7071067811865483 0.7071067811865468 0.0
  outer loop
    vertex 1.1899999999999995 16.019999999999996 6.499999999999999
    vertex 0.48999999999999955 16.72 0.0
    vertex 0.48999999999999955 16.72 6.499999999999999
  endloop
endfacet
facet normal -0.7071067811865481 0.7071067811865469 -0.0
  outer loop
    vertex 1.8899999999999997 16.72 6.499999999999999
    vertex 1.1899999999999995 16.019999999999996 0.0
    vertex 1.1899999999999995 16.019999999999996 6.499999999999999
  endloop
endfacet
facet normal -0.7071067811865481 0.7071067811865469 -0.0
  outer loop
    vertex 1.1899999999999995 16.019999999999996 0.0
    vertex 1.8899999999999997 16.72 6.499999999999999
    vertex 1.8899999999999997 16.72 0.0
  endloop
endfacet
facet normal -0.7071067811865471 0.7071067811865479 -0.0
  outer loop
    vertex 3.7299999999999995 16.02 6.499999999999999
    vertex 4.429999999999999 16.72 0.0
    vertex 3.7299999999999995 16.02 0.0
  endloop
endfacet
facet normal -0.7071067811865471 0.7071067811865479 -0.0
  outer loop
    vertex 4.429999999999999 16.72 0.0
    vertex 3.7299999999999995 16.02 6.499999999999999
    vertex 4.429999999999999 16.72 6.499999999999999
  endloop
endfacet
facet normal -0.7071067811865471 -0.7071067811865479 -0.0
  outer loop
    vertex 4.429999999999999 16.72 6.499999999999999
    vertex 3.7299999999999995 17.419999999999998 0.0
    vertex 4.429999999999999 16.72 0.0
  endloop
endfacet
facet normal -0.7071067811865471 -0.7071067811865479 -0.0
  outer loop
    vertex 3.7299999999999995 17.419999999999998 0.0
    vertex 4.429999999999999 16.72 6.499999999999999
    vertex 3.7299999999999995 17.419999999999998 6.499999999999999
  endloop
endfacet
facet normal 0.7071067811865471 -0.7071067811865479 -0.0
  outer loop
    vertex 3.7299999999999995 17.419999999999998 6.499999999999999
    vertex 3.0300000000000002 16.72 0.0
    vertex 3.7299999999999995 17.419999999999998 0.0
  endloop
endfacet
facet normal 0.7071067811865471 -0.7071067811865479 -0.0
  outer loop
    vertex 3.0300000000000002 16.72 0.0
    vertex 3.7299999999999995 17.419999999999998 6.499999999999999
    vertex 3.0300000000000002 16.72 6.499999999999999
  endloop
endfacet
facet normal 0.7071067811865471 0.7071067811865479 0.0
  outer loop
    vertex 3.0300000000000002 16.72 6.499999999999999
    vertex 3.7299999999999995 16.02 0.0
    vertex 3.0300000000000002 16.72 0.0
  endloop
endfacet
facet normal 0.7071067811865471 0.7071067811865479 0.0
  outer loop
    vertex 3.7299999999999995 16.02 0.0
    vertex 3.0300000000000002 16.72 6.499999999999999
    vertex 3.7299999999999995 16.02 6.499999999999999
  endloop
endfacet
endsolid 2x7 x 6.5 PinHolder
