M48
; DRILL file {KiCad (5.1.7)-1} date 11/24/20 03:50:12
; FORMAT={-:-/ absolute / metric / decimal}
; #@! TF.CreationDate,2020-11-24T03:50:12-07:00
; #@! TF.GenerationSoftware,Kicad,Pcbnew,(5.1.7)-1
; #@! TF.FileFunction,Plated,1,2,PTH
FMAT,2
METRIC
T1C1.000
T2C1.020
T3C1.300
T4C2.700
T5C8.130
%
G90
G05
T1
X64.008Y49.022
X64.008Y31.242
X64.008Y28.702
X36.322Y38.1
X28.702Y9.906
X31.242Y9.906
X33.782Y9.906
X36.322Y9.906
X38.862Y9.906
X41.402Y9.906
X17.018Y20.574
X19.558Y20.574
X22.098Y20.574
X64.008Y51.562
X64.008Y46.482
X64.008Y43.942
X64.008Y41.402
X64.008Y38.862
X64.008Y36.322
X64.008Y33.782
X28.702Y38.1
X31.242Y38.1
X33.782Y38.1
X38.862Y38.1
X41.402Y38.1
X44.958Y20.574
X47.498Y20.574
X50.038Y20.574
T2
X8.89Y58.928
X8.89Y41.402
X48.514Y58.928
X48.514Y41.402
T3
X5.842Y4.318
X10.922Y4.318
X16.002Y4.318
X21.082Y4.318
X26.162Y4.318
X31.242Y4.318
X36.322Y4.318
X41.402Y4.318
X46.482Y4.318
X51.562Y4.318
X16.002Y24.384
X21.082Y24.384
X26.162Y24.384
X31.242Y24.384
X36.322Y24.384
X41.402Y24.384
X46.482Y24.384
X51.562Y24.384
X3.81Y24.384
X8.89Y24.384
T4
X53.34Y39.878
X3.81Y39.878
X3.81Y11.684
X53.34Y11.684
T5
X22.352Y50.292
T0
M30
