solid SIOST-PSCover
facet normal 0.0 0.0 -1.0
  outer loop
    vertex 0.0 24.0 0.0
    vertex 10.267949192431123 21.0 2.8199664825478975e-15
    vertex 0.0 0.0 0.0
  endloop
endfacet
facet normal 0.0 0.0 -1.0
  outer loop
    vertex 10.267949192431123 21.0 2.8199664825478975e-15
    vertex 0.0 24.0 0.0
    vertex 10.585786437626906 21.414213562373096 2.8199664825478975e-15
  endloop
endfacet
facet normal 0.0 0.0 -1.0
  outer loop
    vertex 10.585786437626906 21.414213562373096 2.8199664825478975e-15
    vertex 0.0 24.0 0.0
    vertex 11.0 21.73205080756888 2.8199664825478975e-15
  endloop
endfacet
facet normal 0.0 0.0 -1.0
  outer loop
    vertex 11.0 21.73205080756888 2.8199664825478975e-15
    vertex 0.0 24.0 0.0
    vertex 11.482361909794959 21.93185165257814 2.8199664825478975e-15
  endloop
endfacet
facet normal 0.0 0.0 -1.0
  outer loop
    vertex 11.482361909794959 21.93185165257814 2.8199664825478975e-15
    vertex 0.0 24.0 0.0
    vertex 12.0 22.000000000000004 2.8199664825478975e-15
  endloop
endfacet
facet normal 0.0 0.0 -1.0
  outer loop
    vertex 12.0 22.000000000000004 2.8199664825478975e-15
    vertex 0.0 24.0 0.0
    vertex 57.99999999999999 24.0 0.0
  endloop
endfacet
facet normal 0.0 0.0 -1.0
  outer loop
    vertex 0.0 0.0 0.0
    vertex 10.267949192431123 21.0 2.8199664825478975e-15
    vertex 2.8643593539448986 3.3000000000000003 2.8199664825478975e-15
  endloop
endfacet
facet normal 0.0 0.0 -1.0
  outer loop
    vertex 0.0 0.0 0.0
    vertex 2.8643593539448986 3.3000000000000003 2.8199664825478975e-15
    vertex 2.7045186779374912 2.9141104721640336 2.8199664825478975e-15
  endloop
endfacet
facet normal 0.0 0.0 -1.0
  outer loop
    vertex 0.0 0.0 0.0
    vertex 2.7045186779374912 2.9141104721640336 2.8199664825478975e-15
    vertex 2.650000000000001 2.500000000000001 2.8199664825478975e-15
  endloop
endfacet
facet normal 0.0 0.0 -1.0
  outer loop
    vertex 2.8643593539448986 3.3000000000000003 2.8199664825478975e-15
    vertex 10.267949192431123 21.0 2.8199664825478975e-15
    vertex 10.068148347421864 20.517638090205043 2.8199664825478975e-15
  endloop
endfacet
facet normal 0.0 0.0 -1.0
  outer loop
    vertex 2.8643593539448986 3.3000000000000003 2.8199664825478975e-15
    vertex 10.068148347421864 20.517638090205043 2.8199664825478975e-15
    vertex 3.118629150101524 3.6313708498984765 2.8199664825478975e-15
  endloop
endfacet
facet normal 0.0 0.0 -1.0
  outer loop
    vertex 3.118629150101524 3.6313708498984765 2.8199664825478975e-15
    vertex 10.068148347421864 20.517638090205043 2.8199664825478975e-15
    vertex 3.45 3.8856406460551027 2.8199664825478975e-15
  endloop
endfacet
facet normal 0.0 0.0 -1.0
  outer loop
    vertex 3.45 3.8856406460551027 2.8199664825478975e-15
    vertex 10.068148347421864 20.517638090205043 2.8199664825478975e-15
    vertex 3.835889527835966 4.04548132206251 2.8199664825478975e-15
  endloop
endfacet
facet normal 0.0 0.0 -1.0
  outer loop
    vertex 3.835889527835966 4.04548132206251 2.8199664825478975e-15
    vertex 10.068148347421864 20.517638090205043 2.8199664825478975e-15
    vertex 4.250000000000001 4.1000000000000005 2.8199664825478975e-15
  endloop
endfacet
facet normal 0.0 0.0 -1.0
  outer loop
    vertex 4.250000000000001 4.1000000000000005 2.8199664825478975e-15
    vertex 10.068148347421864 20.517638090205043 2.8199664825478975e-15
    vertex 4.664110472164033 4.0454813220625105 2.8199664825478975e-15
  endloop
endfacet
facet normal 0.0 0.0 -1.0
  outer loop
    vertex 4.664110472164033 4.0454813220625105 2.8199664825478975e-15
    vertex 10.068148347421864 20.517638090205043 2.8199664825478975e-15
    vertex 5.049999999999999 3.885640646055103 2.8199664825478975e-15
  endloop
endfacet
facet normal 0.0 0.0 -1.0
  outer loop
    vertex 5.049999999999999 3.885640646055103 2.8199664825478975e-15
    vertex 10.068148347421864 20.517638090205043 2.8199664825478975e-15
    vertex 5.3813708498984765 3.6313708498984774 2.8199664825478975e-15
  endloop
endfacet
facet normal 0.0 0.0 -1.0
  outer loop
    vertex 5.3813708498984765 3.6313708498984774 2.8199664825478975e-15
    vertex 10.068148347421864 20.517638090205043 2.8199664825478975e-15
    vertex 5.635640646055102 3.3000000000000016 2.8199664825478975e-15
  endloop
endfacet
facet normal 0.0 0.0 -1.0
  outer loop
    vertex 5.635640646055102 3.3000000000000016 2.8199664825478975e-15
    vertex 10.068148347421864 20.517638090205043 2.8199664825478975e-15
    vertex 5.79548132206251 2.9141104721640354 2.8199664825478975e-15
  endloop
endfacet
facet normal 0.0 0.0 -1.0
  outer loop
    vertex 5.79548132206251 2.9141104721640354 2.8199664825478975e-15
    vertex 10.068148347421864 20.517638090205043 2.8199664825478975e-15
    vertex 5.8500000000000005 2.500000000000001 2.8199664825478975e-15
  endloop
endfacet
facet normal 0.0 0.0 -1.0
  outer loop
    vertex 5.8500000000000005 2.500000000000001 2.8199664825478975e-15
    vertex 10.068148347421864 20.517638090205043 2.8199664825478975e-15
    vertex 10.000000000000002 20.000000000000004 2.8199664825478975e-15
  endloop
endfacet
facet normal 0.0 0.0 -1.0
  outer loop
    vertex 12.0 22.000000000000004 2.8199664825478975e-15
    vertex 57.99999999999999 24.0 0.0
    vertex 12.517638090205041 21.93185165257814 2.8199664825478975e-15
  endloop
endfacet
facet normal 0.0 0.0 -1.0
  outer loop
    vertex 12.517638090205041 21.93185165257814 2.8199664825478975e-15
    vertex 57.99999999999999 24.0 0.0
    vertex 12.999999999999998 21.73205080756888 2.8199664825478975e-15
  endloop
endfacet
facet normal 0.0 0.0 -1.0
  outer loop
    vertex 12.999999999999998 21.73205080756888 2.8199664825478975e-15
    vertex 57.99999999999999 24.0 0.0
    vertex 13.414213562373096 21.4142135623731 2.8199664825478975e-15
  endloop
endfacet
facet normal 0.0 0.0 -1.0
  outer loop
    vertex 13.414213562373096 21.4142135623731 2.8199664825478975e-15
    vertex 57.99999999999999 24.0 0.0
    vertex 13.732050807568877 21.000000000000004 2.8199664825478975e-15
  endloop
endfacet
facet normal 0.0 0.0 -1.0
  outer loop
    vertex 13.732050807568877 21.000000000000004 2.8199664825478975e-15
    vertex 57.99999999999999 24.0 0.0
    vertex 13.931851652578136 20.517638090205047 2.8199664825478975e-15
  endloop
endfacet
facet normal 0.0 0.0 -1.0
  outer loop
    vertex 13.931851652578136 20.517638090205047 2.8199664825478975e-15
    vertex 57.99999999999999 24.0 0.0
    vertex 14.0 20.000000000000004 2.8199664825478975e-15
  endloop
endfacet
facet normal 0.0 0.0 -1.0
  outer loop
    vertex 14.0 20.000000000000004 2.8199664825478975e-15
    vertex 57.99999999999999 24.0 0.0
    vertex 52.2045186779375 2.9141104721640336 2.996214387707141e-15
  endloop
endfacet
facet normal 0.0 0.0 -1.0
  outer loop
    vertex 14.0 20.000000000000004 2.8199664825478975e-15
    vertex 52.2045186779375 2.9141104721640336 2.996214387707141e-15
    vertex 52.150000000000006 2.500000000000001 2.996214387707141e-15
  endloop
endfacet
facet normal 0.0 0.0 -1.0
  outer loop
    vertex 52.2045186779375 2.9141104721640336 2.996214387707141e-15
    vertex 57.99999999999999 24.0 0.0
    vertex 52.364359353944906 3.2999999999999994 2.996214387707141e-15
  endloop
endfacet
facet normal 0.0 0.0 -1.0
  outer loop
    vertex 52.364359353944906 3.2999999999999994 2.996214387707141e-15
    vertex 57.99999999999999 24.0 0.0
    vertex 52.61862915010153 3.631370849898475 2.996214387707141e-15
  endloop
endfacet
facet normal 0.0 0.0 -1.0
  outer loop
    vertex 52.61862915010153 3.631370849898475 2.996214387707141e-15
    vertex 57.99999999999999 24.0 0.0
    vertex 52.95 3.8856406460551005 2.996214387707141e-15
  endloop
endfacet
facet normal 0.0 0.0 -1.0
  outer loop
    vertex 52.95 3.8856406460551005 2.996214387707141e-15
    vertex 57.99999999999999 24.0 0.0
    vertex 53.335889527835974 4.045481322062507 2.996214387707141e-15
  endloop
endfacet
facet normal 0.0 0.0 -1.0
  outer loop
    vertex 53.335889527835974 4.045481322062507 2.996214387707141e-15
    vertex 57.99999999999999 24.0 0.0
    vertex 53.75 4.099999999999998 2.996214387707141e-15
  endloop
endfacet
facet normal 0.0 0.0 -1.0
  outer loop
    vertex 53.75 4.099999999999998 2.996214387707141e-15
    vertex 57.99999999999999 24.0 0.0
    vertex 54.16411047216403 4.045481322062508 2.996214387707141e-15
  endloop
endfacet
facet normal 0.0 0.0 -1.0
  outer loop
    vertex 54.16411047216403 4.045481322062508 2.996214387707141e-15
    vertex 57.99999999999999 24.0 0.0
    vertex 54.550000000000004 3.8856406460551005 2.996214387707141e-15
  endloop
endfacet
facet normal 0.0 0.0 -1.0
  outer loop
    vertex 54.550000000000004 3.8856406460551005 2.996214387707141e-15
    vertex 57.99999999999999 24.0 0.0
    vertex 54.881370849898474 3.631370849898475 2.996214387707141e-15
  endloop
endfacet
facet normal 0.0 0.0 -1.0
  outer loop
    vertex 54.881370849898474 3.631370849898475 2.996214387707141e-15
    vertex 57.99999999999999 24.0 0.0
    vertex 55.1356406460551 3.3000000000000003 2.996214387707141e-15
  endloop
endfacet
facet normal 0.0 0.0 -1.0
  outer loop
    vertex 55.1356406460551 3.3000000000000003 2.996214387707141e-15
    vertex 57.99999999999999 24.0 0.0
    vertex 55.29548132206251 2.914110472164034 2.996214387707141e-15
  endloop
endfacet
facet normal 0.0 0.0 -1.0
  outer loop
    vertex 55.29548132206251 2.914110472164034 2.996214387707141e-15
    vertex 57.99999999999999 24.0 0.0
    vertex 55.35 2.5000000000000013 2.996214387707141e-15
  endloop
endfacet
facet normal 0.0 0.0 -1.0
  outer loop
    vertex 0.0 0.0 0.0
    vertex 4.250000000000001 0.9000000000000011 2.8199664825478975e-15
    vertex 57.99999999999999 0.0 0.0
  endloop
endfacet
facet normal 0.0 0.0 -1.0
  outer loop
    vertex 4.250000000000001 0.9000000000000011 2.8199664825478975e-15
    vertex 0.0 0.0 0.0
    vertex 3.8358895278359673 0.9545186779374919 2.8199664825478975e-15
  endloop
endfacet
facet normal 0.0 0.0 -1.0
  outer loop
    vertex 3.8358895278359673 0.9545186779374919 2.8199664825478975e-15
    vertex 0.0 0.0 0.0
    vertex 3.4500000000000006 1.1143593539448993 2.8199664825478975e-15
  endloop
endfacet
facet normal 0.0 0.0 -1.0
  outer loop
    vertex 3.4500000000000006 1.1143593539448993 2.8199664825478975e-15
    vertex 0.0 0.0 0.0
    vertex 3.118629150101525 1.368629150101525 2.8199664825478975e-15
  endloop
endfacet
facet normal 0.0 0.0 -1.0
  outer loop
    vertex 3.118629150101525 1.368629150101525 2.8199664825478975e-15
    vertex 0.0 0.0 0.0
    vertex 2.864359353944899 1.7000000000000004 2.8199664825478975e-15
  endloop
endfacet
facet normal 0.0 0.0 -1.0
  outer loop
    vertex 2.864359353944899 1.7000000000000004 2.8199664825478975e-15
    vertex 0.0 0.0 0.0
    vertex 2.7045186779374917 2.0858895278359673 2.8199664825478975e-15
  endloop
endfacet
facet normal 0.0 0.0 -1.0
  outer loop
    vertex 2.7045186779374917 2.0858895278359673 2.8199664825478975e-15
    vertex 0.0 0.0 0.0
    vertex 2.650000000000001 2.500000000000001 2.8199664825478975e-15
  endloop
endfacet
facet normal 0.0 0.0 -1.0
  outer loop
    vertex 57.99999999999999 0.0 0.0
    vertex 4.250000000000001 0.9000000000000011 2.8199664825478975e-15
    vertex 4.664110472164034 0.9545186779374921 2.8199664825478975e-15
  endloop
endfacet
facet normal 0.0 0.0 -1.0
  outer loop
    vertex 57.99999999999999 0.0 0.0
    vertex 4.664110472164034 0.9545186779374921 2.8199664825478975e-15
    vertex 5.050000000000001 1.1143593539448993 2.8199664825478975e-15
  endloop
endfacet
facet normal 0.0 0.0 -1.0
  outer loop
    vertex 57.99999999999999 0.0 0.0
    vertex 5.050000000000001 1.1143593539448993 2.8199664825478975e-15
    vertex 5.3813708498984765 1.368629150101525 2.8199664825478975e-15
  endloop
endfacet
facet normal 0.0 0.0 -1.0
  outer loop
    vertex 57.99999999999999 0.0 0.0
    vertex 5.3813708498984765 1.368629150101525 2.8199664825478975e-15
    vertex 5.635640646055102 1.700000000000001 2.8199664825478975e-15
  endloop
endfacet
facet normal 0.0 0.0 -1.0
  outer loop
    vertex 57.99999999999999 0.0 0.0
    vertex 5.635640646055102 1.700000000000001 2.8199664825478975e-15
    vertex 5.79548132206251 2.0858895278359677 2.8199664825478975e-15
  endloop
endfacet
facet normal 0.0 0.0 -1.0
  outer loop
    vertex 57.99999999999999 0.0 0.0
    vertex 5.79548132206251 2.0858895278359677 2.8199664825478975e-15
    vertex 5.8500000000000005 2.500000000000001 2.8199664825478975e-15
  endloop
endfacet
facet normal 0.0 0.0 -1.0
  outer loop
    vertex 57.99999999999999 0.0 0.0
    vertex 5.8500000000000005 2.500000000000001 2.8199664825478975e-15
    vertex 53.335889527835974 0.9545186779374943 2.996214387707141e-15
  endloop
endfacet
facet normal 0.0 0.0 -1.0
  outer loop
    vertex 53.335889527835974 0.9545186779374943 2.996214387707141e-15
    vertex 5.8500000000000005 2.500000000000001 2.8199664825478975e-15
    vertex 11.48236190979496 18.068148347421868 2.8199664825478975e-15
  endloop
endfacet
facet normal 0.0 0.0 -1.0
  outer loop
    vertex 11.48236190979496 18.068148347421868 2.8199664825478975e-15
    vertex 5.8500000000000005 2.500000000000001 2.8199664825478975e-15
    vertex 11.000000000000002 18.267949192431125 2.8199664825478975e-15
  endloop
endfacet
facet normal 0.0 0.0 -1.0
  outer loop
    vertex 11.000000000000002 18.267949192431125 2.8199664825478975e-15
    vertex 5.8500000000000005 2.500000000000001 2.8199664825478975e-15
    vertex 10.585786437626908 18.585786437626908 2.8199664825478975e-15
  endloop
endfacet
facet normal 0.0 0.0 -1.0
  outer loop
    vertex 10.585786437626908 18.585786437626908 2.8199664825478975e-15
    vertex 5.8500000000000005 2.500000000000001 2.8199664825478975e-15
    vertex 10.267949192431125 19.000000000000004 2.8199664825478975e-15
  endloop
endfacet
facet normal 0.0 0.0 -1.0
  outer loop
    vertex 10.267949192431125 19.000000000000004 2.8199664825478975e-15
    vertex 5.8500000000000005 2.500000000000001 2.8199664825478975e-15
    vertex 10.068148347421864 19.48236190979496 2.8199664825478975e-15
  endloop
endfacet
facet normal 0.0 0.0 -1.0
  outer loop
    vertex 10.068148347421864 19.48236190979496 2.8199664825478975e-15
    vertex 5.8500000000000005 2.500000000000001 2.8199664825478975e-15
    vertex 10.000000000000002 20.000000000000004 2.8199664825478975e-15
  endloop
endfacet
facet normal 0.0 0.0 -1.0
  outer loop
    vertex 53.335889527835974 0.9545186779374943 2.996214387707141e-15
    vertex 11.48236190979496 18.068148347421868 2.8199664825478975e-15
    vertex 12.0 18.000000000000004 2.8199664825478975e-15
  endloop
endfacet
facet normal 0.0 0.0 -1.0
  outer loop
    vertex 53.335889527835974 0.9545186779374943 2.996214387707141e-15
    vertex 12.0 18.000000000000004 2.8199664825478975e-15
    vertex 52.95 1.114359353944901 2.996214387707141e-15
  endloop
endfacet
facet normal 0.0 0.0 -1.0
  outer loop
    vertex 52.95 1.114359353944901 2.996214387707141e-15
    vertex 12.0 18.000000000000004 2.8199664825478975e-15
    vertex 12.517638090205041 18.068148347421868 2.8199664825478975e-15
  endloop
endfacet
facet normal 0.0 0.0 -1.0
  outer loop
    vertex 52.95 1.114359353944901 2.996214387707141e-15
    vertex 12.517638090205041 18.068148347421868 2.8199664825478975e-15
    vertex 13.000000000000002 18.26794919243113 2.8199664825478975e-15
  endloop
endfacet
facet normal 0.0 0.0 -1.0
  outer loop
    vertex 52.95 1.114359353944901 2.996214387707141e-15
    vertex 13.000000000000002 18.26794919243113 2.8199664825478975e-15
    vertex 13.414213562373096 18.58578643762691 2.8199664825478975e-15
  endloop
endfacet
facet normal 0.0 0.0 -1.0
  outer loop
    vertex 52.95 1.114359353944901 2.996214387707141e-15
    vertex 13.414213562373096 18.58578643762691 2.8199664825478975e-15
    vertex 13.732050807568877 19.000000000000004 2.8199664825478975e-15
  endloop
endfacet
facet normal 0.0 0.0 -1.0
  outer loop
    vertex 52.95 1.114359353944901 2.996214387707141e-15
    vertex 13.732050807568877 19.000000000000004 2.8199664825478975e-15
    vertex 13.931851652578136 19.482361909794964 2.8199664825478975e-15
  endloop
endfacet
facet normal 0.0 0.0 -1.0
  outer loop
    vertex 52.95 1.114359353944901 2.996214387707141e-15
    vertex 13.931851652578136 19.482361909794964 2.8199664825478975e-15
    vertex 14.0 20.000000000000004 2.8199664825478975e-15
  endloop
endfacet
facet normal 0.0 0.0 -1.0
  outer loop
    vertex 52.95 1.114359353944901 2.996214387707141e-15
    vertex 14.0 20.000000000000004 2.8199664825478975e-15
    vertex 52.61862915010153 1.3686291501015269 2.996214387707141e-15
  endloop
endfacet
facet normal 0.0 0.0 -1.0
  outer loop
    vertex 52.61862915010153 1.3686291501015269 2.996214387707141e-15
    vertex 14.0 20.000000000000004 2.8199664825478975e-15
    vertex 52.364359353944906 1.7000000000000017 2.996214387707141e-15
  endloop
endfacet
facet normal 0.0 0.0 -1.0
  outer loop
    vertex 52.364359353944906 1.7000000000000017 2.996214387707141e-15
    vertex 14.0 20.000000000000004 2.8199664825478975e-15
    vertex 52.2045186779375 2.0858895278359673 2.996214387707141e-15
  endloop
endfacet
facet normal 0.0 0.0 -1.0
  outer loop
    vertex 52.2045186779375 2.0858895278359673 2.996214387707141e-15
    vertex 14.0 20.000000000000004 2.8199664825478975e-15
    vertex 52.150000000000006 2.500000000000001 2.996214387707141e-15
  endloop
endfacet
facet normal 0.0 0.0 -1.0
  outer loop
    vertex 57.99999999999999 0.0 0.0
    vertex 53.335889527835974 0.9545186779374943 2.996214387707141e-15
    vertex 53.75 0.900000000000004 2.996214387707141e-15
  endloop
endfacet
facet normal 0.0 0.0 -1.0
  outer loop
    vertex 57.99999999999999 0.0 0.0
    vertex 53.75 0.900000000000004 2.996214387707141e-15
    vertex 54.16411047216403 0.9545186779374949 2.996214387707141e-15
  endloop
endfacet
facet normal 0.0 0.0 -1.0
  outer loop
    vertex 57.99999999999999 0.0 0.0
    vertex 54.16411047216403 0.9545186779374949 2.996214387707141e-15
    vertex 54.550000000000004 1.114359353944902 2.996214387707141e-15
  endloop
endfacet
facet normal 0.0 0.0 -1.0
  outer loop
    vertex 57.99999999999999 0.0 0.0
    vertex 54.550000000000004 1.114359353944902 2.996214387707141e-15
    vertex 54.881370849898474 1.3686291501015277 2.996214387707141e-15
  endloop
endfacet
facet normal 0.0 0.0 -1.0
  outer loop
    vertex 57.99999999999999 0.0 0.0
    vertex 54.881370849898474 1.3686291501015277 2.996214387707141e-15
    vertex 55.1356406460551 1.7000000000000033 2.996214387707141e-15
  endloop
endfacet
facet normal 0.0 0.0 -1.0
  outer loop
    vertex 57.99999999999999 0.0 0.0
    vertex 55.1356406460551 1.7000000000000033 2.996214387707141e-15
    vertex 55.29548132206251 2.085889527835969 2.996214387707141e-15
  endloop
endfacet
facet normal 0.0 0.0 -1.0
  outer loop
    vertex 57.99999999999999 0.0 0.0
    vertex 55.29548132206251 2.085889527835969 2.996214387707141e-15
    vertex 55.35 2.5000000000000013 2.996214387707141e-15
  endloop
endfacet
facet normal 0.0 0.0 -1.0
  outer loop
    vertex 57.99999999999999 0.0 0.0
    vertex 55.35 2.5000000000000013 2.996214387707141e-15
    vertex 57.99999999999999 24.0 0.0
  endloop
endfacet
facet normal -0.0 1.0 0.0
  outer loop
    vertex 0.0 24.0 1.5
    vertex 57.99999999999999 24.0 0.0
    vertex 0.0 24.0 0.0
  endloop
endfacet
facet normal -0.0 1.0 0.0
  outer loop
    vertex 57.99999999999999 24.0 0.0
    vertex 0.0 24.0 1.5
    vertex 57.99999999999999 24.0 1.5
  endloop
endfacet
facet normal 1.0 -0.0 -0.0
  outer loop
    vertex 57.99999999999999 0.0 0.0
    vertex 57.99999999999999 6.749999999999993 1.5
    vertex 57.99999999999999 0.0 7.5
  endloop
endfacet
facet normal 1.0 -0.0 -0.0
  outer loop
    vertex 57.99999999999999 6.749999999999993 1.5
    vertex 57.99999999999999 0.0 0.0
    vertex 57.99999999999999 24.0 0.0
  endloop
endfacet
facet normal 1.0 -0.0 -0.0
  outer loop
    vertex 57.99999999999999 6.749999999999993 1.5
    vertex 57.99999999999999 24.0 0.0
    vertex 57.99999999999999 24.0 1.5
  endloop
endfacet
facet normal 1.0 -0.0 -0.0
  outer loop
    vertex 57.99999999999999 6.749999999999993 7.5
    vertex 57.99999999999999 0.0 7.5
    vertex 57.99999999999999 6.749999999999993 1.5
  endloop
endfacet
facet normal 0.9914448613738089 -0.13052619222006254 -1.8741861721054956e-32
  outer loop
    vertex 52.2045186779375 2.9141104721640336 2.996214387707141e-15
    vertex 52.150000000000006 2.500000000000001 7.5
    vertex 52.150000000000006 2.500000000000001 2.996214387707141e-15
  endloop
endfacet
facet normal 0.9914448613738089 -0.13052619222006254 -1.8741861721054956e-32
  outer loop
    vertex 52.150000000000006 2.500000000000001 7.5
    vertex 52.2045186779375 2.9141104721640336 2.996214387707141e-15
    vertex 52.2045186779375 2.9141104721640336 7.5
  endloop
endfacet
facet normal 0.9914448613738092 0.13052619222006223 1.874186172105483e-32
  outer loop
    vertex 52.150000000000006 2.500000000000001 2.996214387707141e-15
    vertex 52.2045186779375 2.0858895278359673 7.5
    vertex 52.2045186779375 2.0858895278359673 2.996214387707141e-15
  endloop
endfacet
facet normal 0.9914448613738092 0.13052619222006223 1.874186172105483e-32
  outer loop
    vertex 52.2045186779375 2.0858895278359673 7.5
    vertex 52.150000000000006 2.500000000000001 2.996214387707141e-15
    vertex 52.150000000000006 2.500000000000001 7.5
  endloop
endfacet
facet normal 0.9238795325112877 0.3826834323650876 5.494835825926081e-32
  outer loop
    vertex 52.2045186779375 2.0858895278359673 2.996214387707141e-15
    vertex 52.364359353944906 1.7000000000000017 7.5
    vertex 52.364359353944906 1.7000000000000017 2.996214387707141e-15
  endloop
endfacet
facet normal 0.9238795325112877 0.3826834323650876 5.494835825926081e-32
  outer loop
    vertex 52.364359353944906 1.7000000000000017 7.5
    vertex 52.2045186779375 2.0858895278359673 2.996214387707141e-15
    vertex 52.2045186779375 2.0858895278359673 7.5
  endloop
endfacet
facet normal 0.7933533402912339 0.6087614290087222 8.741021498855604e-32
  outer loop
    vertex 52.364359353944906 1.7000000000000017 2.996214387707141e-15
    vertex 52.61862915010153 1.3686291501015269 7.5
    vertex 52.61862915010153 1.3686291501015269 2.996214387707141e-15
  endloop
endfacet
facet normal 0.7933533402912339 0.6087614290087222 8.741021498855604e-32
  outer loop
    vertex 52.61862915010153 1.3686291501015269 7.5
    vertex 52.364359353944906 1.7000000000000017 2.996214387707141e-15
    vertex 52.364359353944906 1.7000000000000017 7.5
  endloop
endfacet
facet normal 0.608761429008726 0.7933533402912311 1.1391521001859e-31
  outer loop
    vertex 52.61862915010153 1.3686291501015269 7.5
    vertex 52.95 1.114359353944901 2.996214387707141e-15
    vertex 52.61862915010153 1.3686291501015269 2.996214387707141e-15
  endloop
endfacet
facet normal 0.608761429008726 0.7933533402912311 1.1391521001859e-31
  outer loop
    vertex 52.95 1.114359353944901 2.996214387707141e-15
    vertex 52.61862915010153 1.3686291501015269 7.5
    vertex 52.95 1.114359353944901 7.5
  endloop
endfacet
facet normal 0.3826834323650885 0.9238795325112873 1.32657071739644e-31
  outer loop
    vertex 52.95 1.114359353944901 7.5
    vertex 53.335889527835974 0.9545186779374943 2.996214387707141e-15
    vertex 52.95 1.114359353944901 2.996214387707141e-15
  endloop
endfacet
facet normal 0.3826834323650885 0.9238795325112873 1.32657071739644e-31
  outer loop
    vertex 53.335889527835974 0.9545186779374943 2.996214387707141e-15
    vertex 52.95 1.114359353944901 7.5
    vertex 53.335889527835974 0.9545186779374943 7.5
  endloop
endfacet
facet normal 0.13052619222005116 0.9914448613738106 1.4235857324781704e-31
  outer loop
    vertex 53.335889527835974 0.9545186779374943 7.5
    vertex 53.75 0.900000000000004 2.996214387707141e-15
    vertex 53.335889527835974 0.9545186779374943 2.996214387707141e-15
  endloop
endfacet
facet normal 0.13052619222005116 0.9914448613738106 1.4235857324781704e-31
  outer loop
    vertex 53.75 0.900000000000004 2.996214387707141e-15
    vertex 53.335889527835974 0.9545186779374943 7.5
    vertex 53.75 0.900000000000004 7.5
  endloop
endfacet
facet normal -0.1305261922200524 0.9914448613738104 1.42358573247817e-31
  outer loop
    vertex 53.75 0.900000000000004 7.5
    vertex 54.16411047216403 0.9545186779374949 2.996214387707141e-15
    vertex 53.75 0.900000000000004 2.996214387707141e-15
  endloop
endfacet
facet normal -0.1305261922200524 0.9914448613738104 1.42358573247817e-31
  outer loop
    vertex 54.16411047216403 0.9545186779374949 2.996214387707141e-15
    vertex 53.75 0.900000000000004 7.5
    vertex 54.16411047216403 0.9545186779374949 7.5
  endloop
endfacet
facet normal -0.3826834323650893 0.9238795325112871 1.3265707173964403e-31
  outer loop
    vertex 54.16411047216403 0.9545186779374949 7.5
    vertex 54.550000000000004 1.114359353944902 2.996214387707141e-15
    vertex 54.16411047216403 0.9545186779374949 2.996214387707141e-15
  endloop
endfacet
facet normal -0.3826834323650893 0.9238795325112871 1.3265707173964403e-31
  outer loop
    vertex 54.550000000000004 1.114359353944902 2.996214387707141e-15
    vertex 54.16411047216403 0.9545186779374949 7.5
    vertex 54.550000000000004 1.114359353944902 7.5
  endloop
endfacet
facet normal -0.608761429008726 0.7933533402912311 1.1391521001859005e-31
  outer loop
    vertex 54.550000000000004 1.114359353944902 7.5
    vertex 54.881370849898474 1.3686291501015277 2.996214387707141e-15
    vertex 54.550000000000004 1.114359353944902 2.996214387707141e-15
  endloop
endfacet
facet normal -0.608761429008726 0.7933533402912311 1.1391521001859005e-31
  outer loop
    vertex 54.881370849898474 1.3686291501015277 2.996214387707141e-15
    vertex 54.550000000000004 1.114359353944902 7.5
    vertex 54.881370849898474 1.3686291501015277 7.5
  endloop
endfacet
facet normal -0.7933533402912344 0.6087614290087217 8.7410214988556e-32
  outer loop
    vertex 55.1356406460551 1.7000000000000033 7.5
    vertex 54.881370849898474 1.3686291501015277 2.996214387707141e-15
    vertex 54.881370849898474 1.3686291501015277 7.5
  endloop
endfacet
facet normal -0.7933533402912344 0.6087614290087217 8.7410214988556e-32
  outer loop
    vertex 54.881370849898474 1.3686291501015277 2.996214387707141e-15
    vertex 55.1356406460551 1.7000000000000033 7.5
    vertex 55.1356406460551 1.7000000000000033 2.996214387707141e-15
  endloop
endfacet
facet normal -0.9238795325112877 0.3826834323650873 5.494835825926085e-32
  outer loop
    vertex 55.29548132206251 2.085889527835969 7.5
    vertex 55.1356406460551 1.7000000000000033 2.996214387707141e-15
    vertex 55.1356406460551 1.7000000000000033 7.5
  endloop
endfacet
facet normal -0.9238795325112877 0.3826834323650873 5.494835825926085e-32
  outer loop
    vertex 55.1356406460551 1.7000000000000033 2.996214387707141e-15
    vertex 55.29548132206251 2.085889527835969 7.5
    vertex 55.29548132206251 2.085889527835969 2.996214387707141e-15
  endloop
endfacet
facet normal -0.9914448613738089 0.13052619222006265 1.874186172105497e-32
  outer loop
    vertex 55.35 2.5000000000000013 7.5
    vertex 55.29548132206251 2.085889527835969 2.996214387707141e-15
    vertex 55.29548132206251 2.085889527835969 7.5
  endloop
endfacet
facet normal -0.9914448613738089 0.13052619222006265 1.874186172105497e-32
  outer loop
    vertex 55.29548132206251 2.085889527835969 2.996214387707141e-15
    vertex 55.35 2.5000000000000013 7.5
    vertex 55.35 2.5000000000000013 2.996214387707141e-15
  endloop
endfacet
facet normal -0.9914448613738089 -0.13052619222006254 -1.874186172105487e-32
  outer loop
    vertex 55.29548132206251 2.914110472164034 7.5
    vertex 55.35 2.5000000000000013 2.996214387707141e-15
    vertex 55.35 2.5000000000000013 7.5
  endloop
endfacet
facet normal -0.9914448613738089 -0.13052619222006254 -1.874186172105487e-32
  outer loop
    vertex 55.35 2.5000000000000013 2.996214387707141e-15
    vertex 55.29548132206251 2.914110472164034 7.5
    vertex 55.29548132206251 2.914110472164034 2.996214387707141e-15
  endloop
endfacet
facet normal -0.9238795325112878 -0.38268343236508695 -5.494835825926072e-32
  outer loop
    vertex 55.1356406460551 3.3000000000000003 7.5
    vertex 55.29548132206251 2.914110472164034 2.996214387707141e-15
    vertex 55.29548132206251 2.914110472164034 7.5
  endloop
endfacet
facet normal -0.9238795325112878 -0.38268343236508695 -5.494835825926072e-32
  outer loop
    vertex 55.29548132206251 2.914110472164034 2.996214387707141e-15
    vertex 55.1356406460551 3.3000000000000003 7.5
    vertex 55.1356406460551 3.3000000000000003 2.996214387707141e-15
  endloop
endfacet
facet normal -0.7933533402912337 -0.6087614290087224 -8.741021498855606e-32
  outer loop
    vertex 54.881370849898474 3.631370849898475 7.5
    vertex 55.1356406460551 3.3000000000000003 2.996214387707141e-15
    vertex 55.1356406460551 3.3000000000000003 7.5
  endloop
endfacet
facet normal -0.7933533402912337 -0.6087614290087224 -8.741021498855606e-32
  outer loop
    vertex 55.1356406460551 3.3000000000000003 2.996214387707141e-15
    vertex 54.881370849898474 3.631370849898475 7.5
    vertex 54.881370849898474 3.631370849898475 2.996214387707141e-15
  endloop
endfacet
facet normal -0.6087614290087254 -0.7933533402912315 -1.1391521001859008e-31
  outer loop
    vertex 54.881370849898474 3.631370849898475 7.5
    vertex 54.550000000000004 3.8856406460551005 2.996214387707141e-15
    vertex 54.881370849898474 3.631370849898475 2.996214387707141e-15
  endloop
endfacet
facet normal -0.6087614290087254 -0.7933533402912315 -1.1391521001859008e-31
  outer loop
    vertex 54.550000000000004 3.8856406460551005 2.996214387707141e-15
    vertex 54.881370849898474 3.631370849898475 7.5
    vertex 54.550000000000004 3.8856406460551005 7.5
  endloop
endfacet
facet normal -0.38268343236508956 -0.9238795325112867 -1.3265707173964394e-31
  outer loop
    vertex 54.550000000000004 3.8856406460551005 7.5
    vertex 54.16411047216403 4.045481322062508 2.996214387707141e-15
    vertex 54.550000000000004 3.8856406460551005 2.996214387707141e-15
  endloop
endfacet
facet normal -0.38268343236508956 -0.9238795325112867 -1.3265707173964394e-31
  outer loop
    vertex 54.16411047216403 4.045481322062508 2.996214387707141e-15
    vertex 54.550000000000004 3.8856406460551005 7.5
    vertex 54.16411047216403 4.045481322062508 7.5
  endloop
endfacet
facet normal -0.13052619222005116 -0.9914448613738106 -1.4235857324781704e-31
  outer loop
    vertex 54.16411047216403 4.045481322062508 7.5
    vertex 53.75 4.099999999999998 2.996214387707141e-15
    vertex 54.16411047216403 4.045481322062508 2.996214387707141e-15
  endloop
endfacet
facet normal -0.13052619222005116 -0.9914448613738106 -1.4235857324781704e-31
  outer loop
    vertex 53.75 4.099999999999998 2.996214387707141e-15
    vertex 54.16411047216403 4.045481322062508 7.5
    vertex 53.75 4.099999999999998 7.5
  endloop
endfacet
facet normal 0.13052619222005282 -0.9914448613738104 -1.42358573247817e-31
  outer loop
    vertex 53.75 4.099999999999998 7.5
    vertex 53.335889527835974 4.045481322062507 2.996214387707141e-15
    vertex 53.75 4.099999999999998 2.996214387707141e-15
  endloop
endfacet
facet normal 0.13052619222005282 -0.9914448613738104 -1.42358573247817e-31
  outer loop
    vertex 53.335889527835974 4.045481322062507 2.996214387707141e-15
    vertex 53.75 4.099999999999998 7.5
    vertex 53.335889527835974 4.045481322062507 7.5
  endloop
endfacet
facet normal 0.38268343236508817 -0.9238795325112875 -1.326570717396441e-31
  outer loop
    vertex 53.335889527835974 4.045481322062507 7.5
    vertex 52.95 3.8856406460551005 2.996214387707141e-15
    vertex 53.335889527835974 4.045481322062507 2.996214387707141e-15
  endloop
endfacet
facet normal 0.38268343236508817 -0.9238795325112875 -1.326570717396441e-31
  outer loop
    vertex 52.95 3.8856406460551005 2.996214387707141e-15
    vertex 53.335889527835974 4.045481322062507 7.5
    vertex 52.95 3.8856406460551005 7.5
  endloop
endfacet
facet normal 0.6087614290087254 -0.7933533402912315 -1.1391521001859012e-31
  outer loop
    vertex 52.95 3.8856406460551005 7.5
    vertex 52.61862915010153 3.631370849898475 2.996214387707141e-15
    vertex 52.95 3.8856406460551005 2.996214387707141e-15
  endloop
endfacet
facet normal 0.6087614290087254 -0.7933533402912315 -1.1391521001859012e-31
  outer loop
    vertex 52.61862915010153 3.631370849898475 2.996214387707141e-15
    vertex 52.95 3.8856406460551005 7.5
    vertex 52.61862915010153 3.631370849898475 7.5
  endloop
endfacet
facet normal 0.7933533402912344 -0.6087614290087217 -8.7410214988556e-32
  outer loop
    vertex 52.61862915010153 3.631370849898475 2.996214387707141e-15
    vertex 52.364359353944906 3.2999999999999994 7.5
    vertex 52.364359353944906 3.2999999999999994 2.996214387707141e-15
  endloop
endfacet
facet normal 0.7933533402912344 -0.6087614290087217 -8.7410214988556e-32
  outer loop
    vertex 52.364359353944906 3.2999999999999994 7.5
    vertex 52.61862915010153 3.631370849898475 2.996214387707141e-15
    vertex 52.61862915010153 3.631370849898475 7.5
  endloop
endfacet
facet normal 0.9238795325112877 -0.3826834323650873 -5.494835825926085e-32
  outer loop
    vertex 52.364359353944906 3.2999999999999994 2.996214387707141e-15
    vertex 52.2045186779375 2.9141104721640336 7.5
    vertex 52.2045186779375 2.9141104721640336 2.996214387707141e-15
  endloop
endfacet
facet normal 0.9238795325112877 -0.3826834323650873 -5.494835825926085e-32
  outer loop
    vertex 52.2045186779375 2.9141104721640336 7.5
    vertex 52.364359353944906 3.2999999999999994 2.996214387707141e-15
    vertex 52.364359353944906 3.2999999999999994 7.5
  endloop
endfacet
facet normal 2.2902794642050713e-16 -8.063764877363882e-32 1.0
  outer loop
    vertex 0.0 0.0 7.5000000000000115
    vertex 2.864359353944899 1.7000000000000004 7.5000000000000115
    vertex 0.0 6.750000000000002 7.5000000000000115
  endloop
endfacet
facet normal 2.2902794642050713e-16 -8.063764877363882e-32 1.0
  outer loop
    vertex 2.864359353944899 1.7000000000000004 7.5000000000000115
    vertex 0.0 0.0 7.5000000000000115
    vertex 3.118629150101525 1.368629150101525 7.5000000000000115
  endloop
endfacet
facet normal 2.2902794642050713e-16 -8.063764877363882e-32 1.0
  outer loop
    vertex 3.118629150101525 1.368629150101525 7.5000000000000115
    vertex 0.0 0.0 7.5000000000000115
    vertex 3.4500000000000006 1.1143593539448993 7.5000000000000115
  endloop
endfacet
facet normal 2.2902794642050713e-16 -8.063764877363882e-32 1.0
  outer loop
    vertex 3.4500000000000006 1.1143593539448993 7.5000000000000115
    vertex 0.0 0.0 7.5000000000000115
    vertex 3.8358895278359673 0.9545186779374919 7.5000000000000115
  endloop
endfacet
facet normal 2.2902794642050713e-16 -8.063764877363882e-32 1.0
  outer loop
    vertex 3.8358895278359673 0.9545186779374919 7.5000000000000115
    vertex 0.0 0.0 7.5000000000000115
    vertex 8.500000000000002 0.0 7.5000000000000115
  endloop
endfacet
facet normal 2.2902794642050713e-16 -8.063764877363882e-32 1.0
  outer loop
    vertex 0.0 6.750000000000002 7.5000000000000115
    vertex 2.864359353944899 1.7000000000000004 7.5000000000000115
    vertex 2.7045186779374917 2.0858895278359673 7.5000000000000115
  endloop
endfacet
facet normal 2.2902794642050713e-16 -8.063764877363882e-32 1.0
  outer loop
    vertex 0.0 6.750000000000002 7.5000000000000115
    vertex 2.7045186779374917 2.0858895278359673 7.5000000000000115
    vertex 2.650000000000001 2.500000000000001 7.5000000000000115
  endloop
endfacet
facet normal 2.2902794642050713e-16 -8.063764877363882e-32 1.0
  outer loop
    vertex 3.8358895278359673 0.9545186779374919 7.5000000000000115
    vertex 8.500000000000002 0.0 7.5000000000000115
    vertex 4.250000000000001 0.9000000000000011 7.5000000000000115
  endloop
endfacet
facet normal 2.2902794642050713e-16 -8.063764877363882e-32 1.0
  outer loop
    vertex 4.250000000000001 0.9000000000000011 7.5000000000000115
    vertex 8.500000000000002 0.0 7.5000000000000115
    vertex 4.664110472164034 0.9545186779374921 7.5000000000000115
  endloop
endfacet
facet normal 2.2902794642050713e-16 -8.063764877363882e-32 1.0
  outer loop
    vertex 4.664110472164034 0.9545186779374921 7.5000000000000115
    vertex 8.500000000000002 0.0 7.5000000000000115
    vertex 5.050000000000001 1.1143593539448993 7.5000000000000115
  endloop
endfacet
facet normal 2.2902794642050713e-16 -8.063764877363882e-32 1.0
  outer loop
    vertex 5.050000000000001 1.1143593539448993 7.5000000000000115
    vertex 8.500000000000002 0.0 7.5000000000000115
    vertex 5.3813708498984765 1.368629150101525 7.5000000000000115
  endloop
endfacet
facet normal 2.2902794642050713e-16 -8.063764877363882e-32 1.0
  outer loop
    vertex 5.3813708498984765 1.368629150101525 7.5000000000000115
    vertex 8.500000000000002 0.0 7.5000000000000115
    vertex 5.635640646055102 1.700000000000001 7.5000000000000115
  endloop
endfacet
facet normal 2.2902794642050713e-16 -8.063764877363882e-32 1.0
  outer loop
    vertex 5.635640646055102 1.700000000000001 7.5000000000000115
    vertex 8.500000000000002 0.0 7.5000000000000115
    vertex 5.79548132206251 2.0858895278359677 7.5000000000000115
  endloop
endfacet
facet normal 2.2902794642050713e-16 -8.063764877363882e-32 1.0
  outer loop
    vertex 5.79548132206251 2.0858895278359677 7.5000000000000115
    vertex 8.500000000000002 0.0 7.5000000000000115
    vertex 5.8500000000000005 2.500000000000001 7.5000000000000115
  endloop
endfacet
facet normal 2.2902794642050713e-16 -8.063764877363882e-32 1.0
  outer loop
    vertex 49.500000000000014 0.0 7.5
    vertex 52.61862915010153 1.3686291501015269 7.5
    vertex 49.500000000000014 5.249999999999993 7.5
  endloop
endfacet
facet normal 2.2902794642050713e-16 -8.063764877363882e-32 1.0
  outer loop
    vertex 52.61862915010153 1.3686291501015269 7.5
    vertex 49.500000000000014 0.0 7.5
    vertex 52.95 1.114359353944901 7.5
  endloop
endfacet
facet normal 2.2902794642050713e-16 -8.063764877363882e-32 1.0
  outer loop
    vertex 52.95 1.114359353944901 7.5
    vertex 49.500000000000014 0.0 7.5
    vertex 53.335889527835974 0.9545186779374943 7.5
  endloop
endfacet
facet normal 2.2902794642050713e-16 -8.063764877363882e-32 1.0
  outer loop
    vertex 53.335889527835974 0.9545186779374943 7.5
    vertex 49.500000000000014 0.0 7.5
    vertex 57.99999999999999 0.0 7.5
  endloop
endfacet
facet normal 2.2902794642050713e-16 -8.063764877363882e-32 1.0
  outer loop
    vertex 49.500000000000014 5.249999999999993 7.5
    vertex 52.61862915010153 1.3686291501015269 7.5
    vertex 52.364359353944906 1.7000000000000017 7.5
  endloop
endfacet
facet normal 2.2902794642050713e-16 -8.063764877363882e-32 1.0
  outer loop
    vertex 49.500000000000014 5.249999999999993 7.5
    vertex 52.364359353944906 1.7000000000000017 7.5
    vertex 52.2045186779375 2.0858895278359673 7.5
  endloop
endfacet
facet normal 2.2902794642050713e-16 -8.063764877363882e-32 1.0
  outer loop
    vertex 49.500000000000014 5.249999999999993 7.5
    vertex 52.2045186779375 2.0858895278359673 7.5
    vertex 52.150000000000006 2.500000000000001 7.5
  endloop
endfacet
facet normal 2.2902794642050713e-16 -8.063764877363882e-32 1.0
  outer loop
    vertex 53.335889527835974 0.9545186779374943 7.5
    vertex 57.99999999999999 0.0 7.5
    vertex 53.75 0.900000000000004 7.5
  endloop
endfacet
facet normal 2.2902794642050713e-16 -8.063764877363882e-32 1.0
  outer loop
    vertex 53.75 0.900000000000004 7.5
    vertex 57.99999999999999 0.0 7.5
    vertex 54.16411047216403 0.9545186779374949 7.5
  endloop
endfacet
facet normal 2.2902794642050713e-16 -8.063764877363882e-32 1.0
  outer loop
    vertex 54.16411047216403 0.9545186779374949 7.5
    vertex 57.99999999999999 0.0 7.5
    vertex 54.550000000000004 1.114359353944902 7.5
  endloop
endfacet
facet normal 2.2902794642050713e-16 -8.063764877363882e-32 1.0
  outer loop
    vertex 54.550000000000004 1.114359353944902 7.5
    vertex 57.99999999999999 0.0 7.5
    vertex 54.881370849898474 1.3686291501015277 7.5
  endloop
endfacet
facet normal 2.2902794642050713e-16 -8.063764877363882e-32 1.0
  outer loop
    vertex 54.881370849898474 1.3686291501015277 7.5
    vertex 57.99999999999999 0.0 7.5
    vertex 55.1356406460551 1.7000000000000033 7.5
  endloop
endfacet
facet normal 2.2902794642050713e-16 -8.063764877363882e-32 1.0
  outer loop
    vertex 55.1356406460551 1.7000000000000033 7.5
    vertex 57.99999999999999 0.0 7.5
    vertex 55.29548132206251 2.085889527835969 7.5
  endloop
endfacet
facet normal 2.2902794642050713e-16 -8.063764877363882e-32 1.0
  outer loop
    vertex 55.29548132206251 2.085889527835969 7.5
    vertex 57.99999999999999 0.0 7.5
    vertex 55.35 2.5000000000000013 7.5
  endloop
endfacet
facet normal 2.2902794642050713e-16 -8.063764877363882e-32 1.0
  outer loop
    vertex 0.0 6.750000000000002 7.5000000000000115
    vertex 8.500000000000002 5.250000000000002 7.5000000000000115
    vertex 57.99999999999999 6.749999999999993 7.5
  endloop
endfacet
facet normal 2.2902794642050713e-16 -8.063764877363882e-32 1.0
  outer loop
    vertex 8.500000000000002 5.250000000000002 7.5000000000000115
    vertex 0.0 6.750000000000002 7.5000000000000115
    vertex 3.835889527835966 4.04548132206251 7.5000000000000115
  endloop
endfacet
facet normal 2.2902794642050713e-16 -8.063764877363882e-32 1.0
  outer loop
    vertex 3.835889527835966 4.04548132206251 7.5000000000000115
    vertex 0.0 6.750000000000002 7.5000000000000115
    vertex 3.45 3.8856406460551027 7.5000000000000115
  endloop
endfacet
facet normal 2.2902794642050713e-16 -8.063764877363882e-32 1.0
  outer loop
    vertex 3.45 3.8856406460551027 7.5000000000000115
    vertex 0.0 6.750000000000002 7.5000000000000115
    vertex 3.118629150101524 3.6313708498984765 7.5000000000000115
  endloop
endfacet
facet normal 2.2902794642050713e-16 -8.063764877363882e-32 1.0
  outer loop
    vertex 3.118629150101524 3.6313708498984765 7.5000000000000115
    vertex 0.0 6.750000000000002 7.5000000000000115
    vertex 2.8643593539448986 3.3000000000000003 7.5000000000000115
  endloop
endfacet
facet normal 2.2902794642050713e-16 -8.063764877363882e-32 1.0
  outer loop
    vertex 2.8643593539448986 3.3000000000000003 7.5000000000000115
    vertex 0.0 6.750000000000002 7.5000000000000115
    vertex 2.7045186779374912 2.9141104721640336 7.5000000000000115
  endloop
endfacet
facet normal 2.2902794642050713e-16 -8.063764877363882e-32 1.0
  outer loop
    vertex 2.7045186779374912 2.9141104721640336 7.5000000000000115
    vertex 0.0 6.750000000000002 7.5000000000000115
    vertex 2.650000000000001 2.500000000000001 7.5000000000000115
  endloop
endfacet
facet normal 2.2902794642050713e-16 -8.063764877363882e-32 1.0
  outer loop
    vertex 8.500000000000002 5.250000000000002 7.5000000000000115
    vertex 3.835889527835966 4.04548132206251 7.5000000000000115
    vertex 4.250000000000001 4.1000000000000005 7.5000000000000115
  endloop
endfacet
facet normal 2.2902794642050713e-16 -8.063764877363882e-32 1.0
  outer loop
    vertex 8.500000000000002 5.250000000000002 7.5000000000000115
    vertex 4.250000000000001 4.1000000000000005 7.5000000000000115
    vertex 4.664110472164033 4.0454813220625105 7.5000000000000115
  endloop
endfacet
facet normal 2.2902794642050713e-16 -8.063764877363882e-32 1.0
  outer loop
    vertex 8.500000000000002 5.250000000000002 7.5000000000000115
    vertex 4.664110472164033 4.0454813220625105 7.5000000000000115
    vertex 5.049999999999999 3.885640646055103 7.5000000000000115
  endloop
endfacet
facet normal 2.2902794642050713e-16 -8.063764877363882e-32 1.0
  outer loop
    vertex 8.500000000000002 5.250000000000002 7.5000000000000115
    vertex 5.049999999999999 3.885640646055103 7.5000000000000115
    vertex 5.3813708498984765 3.6313708498984774 7.5000000000000115
  endloop
endfacet
facet normal 2.2902794642050713e-16 -8.063764877363882e-32 1.0
  outer loop
    vertex 8.500000000000002 5.250000000000002 7.5000000000000115
    vertex 5.3813708498984765 3.6313708498984774 7.5000000000000115
    vertex 5.635640646055102 3.3000000000000016 7.5000000000000115
  endloop
endfacet
facet normal 2.2902794642050713e-16 -8.063764877363882e-32 1.0
  outer loop
    vertex 8.500000000000002 5.250000000000002 7.5000000000000115
    vertex 5.635640646055102 3.3000000000000016 7.5000000000000115
    vertex 5.79548132206251 2.9141104721640354 7.5000000000000115
  endloop
endfacet
facet normal 2.2902794642050713e-16 -8.063764877363882e-32 1.0
  outer loop
    vertex 8.500000000000002 5.250000000000002 7.5000000000000115
    vertex 5.79548132206251 2.9141104721640354 7.5000000000000115
    vertex 5.8500000000000005 2.500000000000001 7.5000000000000115
  endloop
endfacet
facet normal 2.2902794642050713e-16 -8.063764877363882e-32 1.0
  outer loop
    vertex 8.500000000000002 5.250000000000002 7.5000000000000115
    vertex 5.8500000000000005 2.500000000000001 7.5000000000000115
    vertex 8.500000000000002 0.0 7.5000000000000115
  endloop
endfacet
facet normal 2.2902794642050713e-16 -8.063764877363882e-32 1.0
  outer loop
    vertex 57.99999999999999 6.749999999999993 7.5
    vertex 8.500000000000002 5.250000000000002 7.5000000000000115
    vertex 49.500000000000014 5.249999999999993 7.5
  endloop
endfacet
facet normal 2.2902794642050713e-16 -8.063764877363882e-32 1.0
  outer loop
    vertex 57.99999999999999 6.749999999999993 7.5
    vertex 49.500000000000014 5.249999999999993 7.5
    vertex 52.95 3.8856406460551005 7.5
  endloop
endfacet
facet normal 2.2902794642050713e-16 -8.063764877363882e-32 1.0
  outer loop
    vertex 52.95 3.8856406460551005 7.5
    vertex 49.500000000000014 5.249999999999993 7.5
    vertex 52.61862915010153 3.631370849898475 7.5
  endloop
endfacet
facet normal 2.2902794642050713e-16 -8.063764877363882e-32 1.0
  outer loop
    vertex 52.61862915010153 3.631370849898475 7.5
    vertex 49.500000000000014 5.249999999999993 7.5
    vertex 52.364359353944906 3.2999999999999994 7.5
  endloop
endfacet
facet normal 2.2902794642050713e-16 -8.063764877363882e-32 1.0
  outer loop
    vertex 52.364359353944906 3.2999999999999994 7.5
    vertex 49.500000000000014 5.249999999999993 7.5
    vertex 52.2045186779375 2.9141104721640336 7.5
  endloop
endfacet
facet normal 2.2902794642050713e-16 -8.063764877363882e-32 1.0
  outer loop
    vertex 52.2045186779375 2.9141104721640336 7.5
    vertex 49.500000000000014 5.249999999999993 7.5
    vertex 52.150000000000006 2.500000000000001 7.5
  endloop
endfacet
facet normal 2.2902794642050713e-16 -8.063764877363882e-32 1.0
  outer loop
    vertex 57.99999999999999 6.749999999999993 7.5
    vertex 52.95 3.8856406460551005 7.5
    vertex 53.335889527835974 4.045481322062507 7.5
  endloop
endfacet
facet normal 2.2902794642050713e-16 -8.063764877363882e-32 1.0
  outer loop
    vertex 57.99999999999999 6.749999999999993 7.5
    vertex 53.335889527835974 4.045481322062507 7.5
    vertex 53.75 4.099999999999998 7.5
  endloop
endfacet
facet normal 2.2902794642050713e-16 -8.063764877363882e-32 1.0
  outer loop
    vertex 57.99999999999999 6.749999999999993 7.5
    vertex 53.75 4.099999999999998 7.5
    vertex 54.16411047216403 4.045481322062508 7.5
  endloop
endfacet
facet normal 2.2902794642050713e-16 -8.063764877363882e-32 1.0
  outer loop
    vertex 57.99999999999999 6.749999999999993 7.5
    vertex 54.16411047216403 4.045481322062508 7.5
    vertex 54.550000000000004 3.8856406460551005 7.5
  endloop
endfacet
facet normal 2.2902794642050713e-16 -8.063764877363882e-32 1.0
  outer loop
    vertex 57.99999999999999 6.749999999999993 7.5
    vertex 54.550000000000004 3.8856406460551005 7.5
    vertex 54.881370849898474 3.631370849898475 7.5
  endloop
endfacet
facet normal 2.2902794642050713e-16 -8.063764877363882e-32 1.0
  outer loop
    vertex 57.99999999999999 6.749999999999993 7.5
    vertex 54.881370849898474 3.631370849898475 7.5
    vertex 55.1356406460551 3.3000000000000003 7.5
  endloop
endfacet
facet normal 2.2902794642050713e-16 -8.063764877363882e-32 1.0
  outer loop
    vertex 57.99999999999999 6.749999999999993 7.5
    vertex 55.1356406460551 3.3000000000000003 7.5
    vertex 55.29548132206251 2.914110472164034 7.5
  endloop
endfacet
facet normal 2.2902794642050713e-16 -8.063764877363882e-32 1.0
  outer loop
    vertex 57.99999999999999 6.749999999999993 7.5
    vertex 55.29548132206251 2.914110472164034 7.5
    vertex 55.35 2.5000000000000013 7.5
  endloop
endfacet
facet normal 2.2902794642050713e-16 -8.063764877363882e-32 1.0
  outer loop
    vertex 57.99999999999999 6.749999999999993 7.5
    vertex 55.35 2.5000000000000013 7.5
    vertex 57.99999999999999 0.0 7.5
  endloop
endfacet
facet normal -0.1305261922200518 -0.9914448613738104 -6.757629014914983e-33
  outer loop
    vertex 12.517638090205041 21.93185165257814 1.5
    vertex 12.0 22.000000000000004 2.8199664825478975e-15
    vertex 12.517638090205041 21.93185165257814 2.8199664825478975e-15
  endloop
endfacet
facet normal -0.1305261922200518 -0.9914448613738104 -6.757629014914983e-33
  outer loop
    vertex 12.0 22.000000000000004 2.8199664825478975e-15
    vertex 12.517638090205041 21.93185165257814 1.5
    vertex 12.0 22.000000000000004 1.5
  endloop
endfacet
facet normal 0.13052619222005143 -0.9914448613738105 6.757629014914995e-33
  outer loop
    vertex 12.0 22.000000000000004 1.5
    vertex 11.482361909794959 21.93185165257814 2.8199664825478975e-15
    vertex 12.0 22.000000000000004 2.8199664825478975e-15
  endloop
endfacet
facet normal 0.13052619222005143 -0.9914448613738105 6.757629014914995e-33
  outer loop
    vertex 11.482361909794959 21.93185165257814 2.8199664825478975e-15
    vertex 12.0 22.000000000000004 1.5
    vertex 11.482361909794959 21.93185165257814 1.5
  endloop
endfacet
facet normal 0.3826834323650913 -0.9238795325112861 1.9812365794888558e-32
  outer loop
    vertex 11.482361909794959 21.93185165257814 1.5
    vertex 11.0 21.73205080756888 2.8199664825478975e-15
    vertex 11.482361909794959 21.93185165257814 2.8199664825478975e-15
  endloop
endfacet
facet normal 0.3826834323650913 -0.9238795325112861 1.9812365794888558e-32
  outer loop
    vertex 11.0 21.73205080756888 2.8199664825478975e-15
    vertex 11.482361909794959 21.93185165257814 1.5
    vertex 11.0 21.73205080756888 1.5
  endloop
endfacet
facet normal 0.6087614290087227 -0.7933533402912337 3.151692258742297e-32
  outer loop
    vertex 11.0 21.73205080756888 1.5
    vertex 10.585786437626906 21.414213562373096 2.8199664825478975e-15
    vertex 11.0 21.73205080756888 2.8199664825478975e-15
  endloop
endfacet
facet normal 0.6087614290087227 -0.7933533402912337 3.151692258742297e-32
  outer loop
    vertex 10.585786437626906 21.414213562373096 2.8199664825478975e-15
    vertex 11.0 21.73205080756888 1.5
    vertex 10.585786437626906 21.414213562373096 1.5
  endloop
endfacet
facet normal 0.7933533402912347 -0.6087614290087213 4.1073653189801547e-32
  outer loop
    vertex 10.585786437626906 21.414213562373096 2.8199664825478975e-15
    vertex 10.267949192431123 21.0 1.5
    vertex 10.267949192431123 21.0 2.8199664825478975e-15
  endloop
endfacet
facet normal 0.7933533402912347 -0.6087614290087213 4.1073653189801547e-32
  outer loop
    vertex 10.267949192431123 21.0 1.5
    vertex 10.585786437626906 21.414213562373096 2.8199664825478975e-15
    vertex 10.585786437626906 21.414213562373096 1.5
  endloop
endfacet
facet normal 0.9238795325112871 -0.38268343236508895 4.7831282204716573e-32
  outer loop
    vertex 10.267949192431123 21.0 2.8199664825478975e-15
    vertex 10.068148347421864 20.517638090205043 1.5
    vertex 10.068148347421864 20.517638090205043 2.8199664825478975e-15
  endloop
endfacet
facet normal 0.9238795325112871 -0.38268343236508895 4.7831282204716573e-32
  outer loop
    vertex 10.068148347421864 20.517638090205043 1.5
    vertex 10.267949192431123 21.0 2.8199664825478975e-15
    vertex 10.267949192431123 21.0 1.5
  endloop
endfacet
facet normal 0.9914448613738104 -0.13052619222005216 5.132928838231131e-32
  outer loop
    vertex 10.068148347421864 20.517638090205043 2.8199664825478975e-15
    vertex 10.000000000000002 20.000000000000004 1.5
    vertex 10.000000000000002 20.000000000000004 2.8199664825478975e-15
  endloop
endfacet
facet normal 0.9914448613738104 -0.13052619222005216 5.132928838231131e-32
  outer loop
    vertex 10.000000000000002 20.000000000000004 1.5
    vertex 10.068148347421864 20.517638090205043 2.8199664825478975e-15
    vertex 10.068148347421864 20.517638090205043 1.5
  endloop
endfacet
facet normal 0.9914448613738105 0.13052619222005143 5.132928838231133e-32
  outer loop
    vertex 10.000000000000002 20.000000000000004 2.8199664825478975e-15
    vertex 10.068148347421864 19.48236190979496 1.5
    vertex 10.068148347421864 19.48236190979496 2.8199664825478975e-15
  endloop
endfacet
facet normal 0.9914448613738105 0.13052619222005143 5.132928838231133e-32
  outer loop
    vertex 10.068148347421864 19.48236190979496 1.5
    vertex 10.000000000000002 20.000000000000004 2.8199664825478975e-15
    vertex 10.000000000000002 20.000000000000004 1.5
  endloop
endfacet
facet normal 0.9238795325112861 0.3826834323650913 4.783128220471651e-32
  outer loop
    vertex 10.068148347421864 19.48236190979496 2.8199664825478975e-15
    vertex 10.267949192431125 19.000000000000004 1.5
    vertex 10.267949192431125 19.000000000000004 2.8199664825478975e-15
  endloop
endfacet
facet normal 0.9238795325112861 0.3826834323650913 4.783128220471651e-32
  outer loop
    vertex 10.267949192431125 19.000000000000004 1.5
    vertex 10.068148347421864 19.48236190979496 2.8199664825478975e-15
    vertex 10.068148347421864 19.48236190979496 1.5
  endloop
endfacet
facet normal 0.7933533402912347 0.6087614290087213 4.107365318980153e-32
  outer loop
    vertex 10.267949192431125 19.000000000000004 2.8199664825478975e-15
    vertex 10.585786437626908 18.585786437626908 1.5
    vertex 10.585786437626908 18.585786437626908 2.8199664825478975e-15
  endloop
endfacet
facet normal 0.7933533402912347 0.6087614290087213 4.107365318980153e-32
  outer loop
    vertex 10.585786437626908 18.585786437626908 1.5
    vertex 10.267949192431125 19.000000000000004 2.8199664825478975e-15
    vertex 10.267949192431125 19.000000000000004 1.5
  endloop
endfacet
facet normal 0.6087614290087227 0.7933533402912337 3.1516922587422945e-32
  outer loop
    vertex 10.585786437626908 18.585786437626908 1.5
    vertex 11.000000000000002 18.267949192431125 2.8199664825478975e-15
    vertex 10.585786437626908 18.585786437626908 2.8199664825478975e-15
  endloop
endfacet
facet normal 0.6087614290087227 0.7933533402912337 3.1516922587422945e-32
  outer loop
    vertex 11.000000000000002 18.267949192431125 2.8199664825478975e-15
    vertex 10.585786437626908 18.585786437626908 1.5
    vertex 11.000000000000002 18.267949192431125 1.5
  endloop
endfacet
facet normal 0.38268343236508573 0.9238795325112885 1.981236579488825e-32
  outer loop
    vertex 11.000000000000002 18.267949192431125 1.5
    vertex 11.48236190979496 18.068148347421868 2.8199664825478975e-15
    vertex 11.000000000000002 18.267949192431125 2.8199664825478975e-15
  endloop
endfacet
facet normal 0.38268343236508573 0.9238795325112885 1.981236579488825e-32
  outer loop
    vertex 11.48236190979496 18.068148347421868 2.8199664825478975e-15
    vertex 11.000000000000002 18.267949192431125 1.5
    vertex 11.48236190979496 18.068148347421868 1.5
  endloop
endfacet
facet normal 0.13052619222005216 0.9914448613738104 6.757629014915002e-33
  outer loop
    vertex 11.48236190979496 18.068148347421868 1.5
    vertex 12.0 18.000000000000004 2.8199664825478975e-15
    vertex 11.48236190979496 18.068148347421868 2.8199664825478975e-15
  endloop
endfacet
facet normal 0.13052619222005216 0.9914448613738104 6.757629014915002e-33
  outer loop
    vertex 12.0 18.000000000000004 2.8199664825478975e-15
    vertex 11.48236190979496 18.068148347421868 1.5
    vertex 12.0 18.000000000000004 1.5
  endloop
endfacet
facet normal -0.1305261922200518 0.9914448613738104 -6.757629014915012e-33
  outer loop
    vertex 12.0 18.000000000000004 1.5
    vertex 12.517638090205041 18.068148347421868 2.8199664825478975e-15
    vertex 12.0 18.000000000000004 2.8199664825478975e-15
  endloop
endfacet
facet normal -0.1305261922200518 0.9914448613738104 -6.757629014915012e-33
  outer loop
    vertex 12.517638090205041 18.068148347421868 2.8199664825478975e-15
    vertex 12.0 18.000000000000004 1.5
    vertex 12.517638090205041 18.068148347421868 1.5
  endloop
endfacet
facet normal -0.3826834323650904 0.9238795325112866 -1.9812365794888512e-32
  outer loop
    vertex 12.517638090205041 18.068148347421868 1.5
    vertex 13.000000000000002 18.26794919243113 2.8199664825478975e-15
    vertex 12.517638090205041 18.068148347421868 2.8199664825478975e-15
  endloop
endfacet
facet normal -0.3826834323650904 0.9238795325112866 -1.9812365794888512e-32
  outer loop
    vertex 13.000000000000002 18.26794919243113 2.8199664825478975e-15
    vertex 12.517638090205041 18.068148347421868 1.5
    vertex 13.000000000000002 18.26794919243113 1.5
  endloop
endfacet
facet normal -0.6087614290087213 0.7933533402912347 -3.15169225874229e-32
  outer loop
    vertex 13.000000000000002 18.26794919243113 1.5
    vertex 13.414213562373096 18.58578643762691 2.8199664825478975e-15
    vertex 13.000000000000002 18.26794919243113 2.8199664825478975e-15
  endloop
endfacet
facet normal -0.6087614290087213 0.7933533402912347 -3.15169225874229e-32
  outer loop
    vertex 13.414213562373096 18.58578643762691 2.8199664825478975e-15
    vertex 13.000000000000002 18.26794919243113 1.5
    vertex 13.414213562373096 18.58578643762691 1.5
  endloop
endfacet
facet normal -0.7933533402912374 0.608761429008718 -4.1073653189801684e-32
  outer loop
    vertex 13.732050807568877 19.000000000000004 1.5
    vertex 13.414213562373096 18.58578643762691 2.8199664825478975e-15
    vertex 13.414213562373096 18.58578643762691 1.5
  endloop
endfacet
facet normal -0.7933533402912374 0.608761429008718 -4.1073653189801684e-32
  outer loop
    vertex 13.414213562373096 18.58578643762691 2.8199664825478975e-15
    vertex 13.732050807568877 19.000000000000004 1.5
    vertex 13.732050807568877 19.000000000000004 2.8199664825478975e-15
  endloop
endfacet
facet normal -0.9238795325112861 0.3826834323650913 -4.7831282204716524e-32
  outer loop
    vertex 13.931851652578136 19.482361909794964 1.5
    vertex 13.732050807568877 19.000000000000004 2.8199664825478975e-15
    vertex 13.732050807568877 19.000000000000004 1.5
  endloop
endfacet
facet normal -0.9238795325112861 0.3826834323650913 -4.7831282204716524e-32
  outer loop
    vertex 13.732050807568877 19.000000000000004 2.8199664825478975e-15
    vertex 13.931851652578136 19.482361909794964 1.5
    vertex 13.931851652578136 19.482361909794964 2.8199664825478975e-15
  endloop
endfacet
facet normal -0.9914448613738104 0.13052619222005216 -5.132928838231131e-32
  outer loop
    vertex 14.0 20.000000000000004 1.5
    vertex 13.931851652578136 19.482361909794964 2.8199664825478975e-15
    vertex 13.931851652578136 19.482361909794964 1.5
  endloop
endfacet
facet normal -0.9914448613738104 0.13052619222005216 -5.132928838231131e-32
  outer loop
    vertex 13.931851652578136 19.482361909794964 2.8199664825478975e-15
    vertex 14.0 20.000000000000004 1.5
    vertex 14.0 20.000000000000004 2.8199664825478975e-15
  endloop
endfacet
facet normal -0.9914448613738105 -0.13052619222005143 -5.132928838231133e-32
  outer loop
    vertex 13.931851652578136 20.517638090205047 1.5
    vertex 14.0 20.000000000000004 2.8199664825478975e-15
    vertex 14.0 20.000000000000004 1.5
  endloop
endfacet
facet normal -0.9914448613738105 -0.13052619222005143 -5.132928838231133e-32
  outer loop
    vertex 14.0 20.000000000000004 2.8199664825478975e-15
    vertex 13.931851652578136 20.517638090205047 1.5
    vertex 13.931851652578136 20.517638090205047 2.8199664825478975e-15
  endloop
endfacet
facet normal -0.9238795325112861 -0.3826834323650913 -4.783128220471651e-32
  outer loop
    vertex 13.732050807568877 21.000000000000004 1.5
    vertex 13.931851652578136 20.517638090205047 2.8199664825478975e-15
    vertex 13.931851652578136 20.517638090205047 1.5
  endloop
endfacet
facet normal -0.9238795325112861 -0.3826834323650913 -4.783128220471651e-32
  outer loop
    vertex 13.931851652578136 20.517638090205047 2.8199664825478975e-15
    vertex 13.732050807568877 21.000000000000004 1.5
    vertex 13.732050807568877 21.000000000000004 2.8199664825478975e-15
  endloop
endfacet
facet normal -0.7933533402912374 -0.608761429008718 -4.1073653189801667e-32
  outer loop
    vertex 13.414213562373096 21.4142135623731 1.5
    vertex 13.732050807568877 21.000000000000004 2.8199664825478975e-15
    vertex 13.732050807568877 21.000000000000004 1.5
  endloop
endfacet
facet normal -0.7933533402912374 -0.608761429008718 -4.1073653189801667e-32
  outer loop
    vertex 13.732050807568877 21.000000000000004 2.8199664825478975e-15
    vertex 13.414213562373096 21.4142135623731 1.5
    vertex 13.414213562373096 21.4142135623731 2.8199664825478975e-15
  endloop
endfacet
facet normal -0.6087614290087153 -0.7933533402912393 -3.151692258742256e-32
  outer loop
    vertex 13.414213562373096 21.4142135623731 1.5
    vertex 12.999999999999998 21.73205080756888 2.8199664825478975e-15
    vertex 13.414213562373096 21.4142135623731 2.8199664825478975e-15
  endloop
endfacet
facet normal -0.6087614290087153 -0.7933533402912393 -3.151692258742256e-32
  outer loop
    vertex 12.999999999999998 21.73205080756888 2.8199664825478975e-15
    vertex 13.414213562373096 21.4142135623731 1.5
    vertex 12.999999999999998 21.73205080756888 1.5
  endloop
endfacet
facet normal -0.3826834323650923 -0.9238795325112857 -1.9812365794888586e-32
  outer loop
    vertex 12.999999999999998 21.73205080756888 1.5
    vertex 12.517638090205041 21.93185165257814 2.8199664825478975e-15
    vertex 12.999999999999998 21.73205080756888 2.8199664825478975e-15
  endloop
endfacet
facet normal -0.3826834323650923 -0.9238795325112857 -1.9812365794888586e-32
  outer loop
    vertex 12.517638090205041 21.93185165257814 2.8199664825478975e-15
    vertex 12.999999999999998 21.73205080756888 1.5
    vertex 12.517638090205041 21.93185165257814 1.5
  endloop
endfacet
facet normal -1.0 0.0 0.0
  outer loop
    vertex 49.500000000000014 5.249999999999993 7.5
    vertex 49.500000000000014 0.0 1.5
    vertex 49.500000000000014 0.0 7.5
  endloop
endfacet
facet normal -1.0 0.0 0.0
  outer loop
    vertex 49.500000000000014 0.0 1.5
    vertex 49.500000000000014 5.249999999999993 7.5
    vertex 49.500000000000014 5.249999999999993 1.5
  endloop
endfacet
facet normal -0.0 -0.0 1.0
  outer loop
    vertex 49.500000000000014 0.0 1.5
    vertex 8.500000000000002 5.250000000000002 1.5
    vertex 8.500000000000002 0.0 1.5
  endloop
endfacet
facet normal -0.0 -0.0 1.0
  outer loop
    vertex 8.500000000000002 5.250000000000002 1.5
    vertex 49.500000000000014 0.0 1.5
    vertex 49.500000000000014 5.249999999999993 1.5
  endloop
endfacet
facet normal -1.0 0.0 0.0
  outer loop
    vertex 0.0 6.750000000000002 7.5000000000000115
    vertex 0.0 0.0 0.0
    vertex 0.0 0.0 7.5000000000000115
  endloop
endfacet
facet normal -1.0 0.0 0.0
  outer loop
    vertex 0.0 0.0 0.0
    vertex 0.0 6.750000000000002 7.5000000000000115
    vertex 0.0 6.750000000000002 1.5
  endloop
endfacet
facet normal -1.0 0.0 0.0
  outer loop
    vertex 0.0 0.0 0.0
    vertex 0.0 6.750000000000002 1.5
    vertex 0.0 24.0 0.0
  endloop
endfacet
facet normal -1.0 0.0 0.0
  outer loop
    vertex 0.0 24.0 0.0
    vertex 0.0 6.750000000000002 1.5
    vertex 0.0 24.0 1.5
  endloop
endfacet
facet normal 0.0 -1.0 0.0
  outer loop
    vertex 57.99999999999999 0.0 0.0
    vertex 49.500000000000014 0.0 1.5
    vertex 0.0 0.0 0.0
  endloop
endfacet
facet normal 0.0 -1.0 0.0
  outer loop
    vertex 49.500000000000014 0.0 1.5
    vertex 57.99999999999999 0.0 0.0
    vertex 57.99999999999999 0.0 7.5
  endloop
endfacet
facet normal 0.0 -1.0 0.0
  outer loop
    vertex 49.500000000000014 0.0 1.5
    vertex 57.99999999999999 0.0 7.5
    vertex 49.500000000000014 0.0 7.5
  endloop
endfacet
facet normal 0.0 -1.0 0.0
  outer loop
    vertex 0.0 0.0 0.0
    vertex 8.500000000000002 0.0 1.5
    vertex 0.0 0.0 7.5000000000000115
  endloop
endfacet
facet normal 0.0 -1.0 0.0
  outer loop
    vertex 8.500000000000002 0.0 1.5
    vertex 0.0 0.0 0.0
    vertex 49.500000000000014 0.0 1.5
  endloop
endfacet
facet normal 0.0 -1.0 0.0
  outer loop
    vertex 0.0 0.0 7.5000000000000115
    vertex 8.500000000000002 0.0 1.5
    vertex 8.500000000000002 0.0 7.5000000000000115
  endloop
endfacet
facet normal -0.7933533402912356 0.6087614290087199 -0.0
  outer loop
    vertex 5.635640646055102 1.700000000000001 7.5000000000000115
    vertex 5.3813708498984765 1.368629150101525 2.8199664825478975e-15
    vertex 5.3813708498984765 1.368629150101525 7.5000000000000115
  endloop
endfacet
facet normal -0.7933533402912356 0.6087614290087199 -0.0
  outer loop
    vertex 5.3813708498984765 1.368629150101525 2.8199664825478975e-15
    vertex 5.635640646055102 1.700000000000001 7.5000000000000115
    vertex 5.635640646055102 1.700000000000001 2.8199664825478975e-15
  endloop
endfacet
facet normal -0.6087614290087203 0.7933533402912354 -0.0
  outer loop
    vertex 5.050000000000001 1.1143593539448993 7.5000000000000115
    vertex 5.3813708498984765 1.368629150101525 2.8199664825478975e-15
    vertex 5.050000000000001 1.1143593539448993 2.8199664825478975e-15
  endloop
endfacet
facet normal -0.6087614290087203 0.7933533402912354 -0.0
  outer loop
    vertex 5.3813708498984765 1.368629150101525 2.8199664825478975e-15
    vertex 5.050000000000001 1.1143593539448993 7.5000000000000115
    vertex 5.3813708498984765 1.368629150101525 7.5000000000000115
  endloop
endfacet
facet normal -0.38268343236508956 0.9238795325112867 -0.0
  outer loop
    vertex 4.664110472164034 0.9545186779374921 7.5000000000000115
    vertex 5.050000000000001 1.1143593539448993 2.8199664825478975e-15
    vertex 4.664110472164034 0.9545186779374921 2.8199664825478975e-15
  endloop
endfacet
facet normal -0.38268343236508956 0.9238795325112867 -0.0
  outer loop
    vertex 5.050000000000001 1.1143593539448993 2.8199664825478975e-15
    vertex 4.664110472164034 0.9545186779374921 7.5000000000000115
    vertex 5.050000000000001 1.1143593539448993 7.5000000000000115
  endloop
endfacet
facet normal -0.13052619222005196 0.9914448613738104 -0.0
  outer loop
    vertex 4.250000000000001 0.9000000000000011 7.5000000000000115
    vertex 4.664110472164034 0.9545186779374921 2.8199664825478975e-15
    vertex 4.250000000000001 0.9000000000000011 2.8199664825478975e-15
  endloop
endfacet
facet normal -0.13052619222005196 0.9914448613738104 -0.0
  outer loop
    vertex 4.664110472164034 0.9545186779374921 2.8199664825478975e-15
    vertex 4.250000000000001 0.9000000000000011 7.5000000000000115
    vertex 4.664110472164034 0.9545186779374921 7.5000000000000115
  endloop
endfacet
facet normal 0.13052619222005155 0.9914448613738104 0.0
  outer loop
    vertex 3.8358895278359673 0.9545186779374919 7.5000000000000115
    vertex 4.250000000000001 0.9000000000000011 2.8199664825478975e-15
    vertex 3.8358895278359673 0.9545186779374919 2.8199664825478975e-15
  endloop
endfacet
facet normal 0.13052619222005155 0.9914448613738104 0.0
  outer loop
    vertex 4.250000000000001 0.9000000000000011 2.8199664825478975e-15
    vertex 3.8358895278359673 0.9545186779374919 7.5000000000000115
    vertex 4.250000000000001 0.9000000000000011 7.5000000000000115
  endloop
endfacet
facet normal 0.38268343236508956 0.9238795325112867 0.0
  outer loop
    vertex 3.4500000000000006 1.1143593539448993 7.5000000000000115
    vertex 3.8358895278359673 0.9545186779374919 2.8199664825478975e-15
    vertex 3.4500000000000006 1.1143593539448993 2.8199664825478975e-15
  endloop
endfacet
facet normal 0.38268343236508956 0.9238795325112867 0.0
  outer loop
    vertex 3.8358895278359673 0.9545186779374919 2.8199664825478975e-15
    vertex 3.4500000000000006 1.1143593539448993 7.5000000000000115
    vertex 3.8358895278359673 0.9545186779374919 7.5000000000000115
  endloop
endfacet
facet normal 0.608761429008721 0.7933533402912349 0.0
  outer loop
    vertex 3.118629150101525 1.368629150101525 7.5000000000000115
    vertex 3.4500000000000006 1.1143593539448993 2.8199664825478975e-15
    vertex 3.118629150101525 1.368629150101525 2.8199664825478975e-15
  endloop
endfacet
facet normal 0.608761429008721 0.7933533402912349 0.0
  outer loop
    vertex 3.4500000000000006 1.1143593539448993 2.8199664825478975e-15
    vertex 3.118629150101525 1.368629150101525 7.5000000000000115
    vertex 3.4500000000000006 1.1143593539448993 7.5000000000000115
  endloop
endfacet
facet normal 0.7933533402912347 0.6087614290087213 0.0
  outer loop
    vertex 2.864359353944899 1.7000000000000004 2.8199664825478975e-15
    vertex 3.118629150101525 1.368629150101525 7.5000000000000115
    vertex 3.118629150101525 1.368629150101525 2.8199664825478975e-15
  endloop
endfacet
facet normal 0.7933533402912347 0.6087614290087213 0.0
  outer loop
    vertex 3.118629150101525 1.368629150101525 7.5000000000000115
    vertex 2.864359353944899 1.7000000000000004 2.8199664825478975e-15
    vertex 2.864359353944899 1.7000000000000004 7.5000000000000115
  endloop
endfacet
facet normal 0.923879532511287 0.3826834323650893 0.0
  outer loop
    vertex 2.7045186779374917 2.0858895278359673 2.8199664825478975e-15
    vertex 2.864359353944899 1.7000000000000004 7.5000000000000115
    vertex 2.864359353944899 1.7000000000000004 2.8199664825478975e-15
  endloop
endfacet
facet normal 0.923879532511287 0.3826834323650893 0.0
  outer loop
    vertex 2.864359353944899 1.7000000000000004 7.5000000000000115
    vertex 2.7045186779374917 2.0858895278359673 2.8199664825478975e-15
    vertex 2.7045186779374917 2.0858895278359673 7.5000000000000115
  endloop
endfacet
facet normal 0.9914448613738104 0.13052619222005238 0.0
  outer loop
    vertex 2.650000000000001 2.500000000000001 2.8199664825478975e-15
    vertex 2.7045186779374917 2.0858895278359673 7.5000000000000115
    vertex 2.7045186779374917 2.0858895278359673 2.8199664825478975e-15
  endloop
endfacet
facet normal 0.9914448613738104 0.13052619222005238 0.0
  outer loop
    vertex 2.7045186779374917 2.0858895278359673 7.5000000000000115
    vertex 2.650000000000001 2.500000000000001 2.8199664825478975e-15
    vertex 2.650000000000001 2.500000000000001 7.5000000000000115
  endloop
endfacet
facet normal 0.9914448613738106 -0.13052619222005082 -0.0
  outer loop
    vertex 2.7045186779374912 2.9141104721640336 2.8199664825478975e-15
    vertex 2.650000000000001 2.500000000000001 7.5000000000000115
    vertex 2.650000000000001 2.500000000000001 2.8199664825478975e-15
  endloop
endfacet
facet normal 0.9914448613738106 -0.13052619222005082 -0.0
  outer loop
    vertex 2.650000000000001 2.500000000000001 7.5000000000000115
    vertex 2.7045186779374912 2.9141104721640336 2.8199664825478975e-15
    vertex 2.7045186779374912 2.9141104721640336 7.5000000000000115
  endloop
endfacet
facet normal 0.9238795325112867 -0.38268343236508956 -0.0
  outer loop
    vertex 2.8643593539448986 3.3000000000000003 2.8199664825478975e-15
    vertex 2.7045186779374912 2.9141104721640336 7.5000000000000115
    vertex 2.7045186779374912 2.9141104721640336 2.8199664825478975e-15
  endloop
endfacet
facet normal 0.9238795325112867 -0.38268343236508956 -0.0
  outer loop
    vertex 2.7045186779374912 2.9141104721640336 7.5000000000000115
    vertex 2.8643593539448986 3.3000000000000003 2.8199664825478975e-15
    vertex 2.8643593539448986 3.3000000000000003 7.5000000000000115
  endloop
endfacet
facet normal 0.7933533402912354 -0.6087614290087203 -0.0
  outer loop
    vertex 3.118629150101524 3.6313708498984765 2.8199664825478975e-15
    vertex 2.8643593539448986 3.3000000000000003 7.5000000000000115
    vertex 2.8643593539448986 3.3000000000000003 2.8199664825478975e-15
  endloop
endfacet
facet normal 0.7933533402912354 -0.6087614290087203 -0.0
  outer loop
    vertex 2.8643593539448986 3.3000000000000003 7.5000000000000115
    vertex 3.118629150101524 3.6313708498984765 2.8199664825478975e-15
    vertex 3.118629150101524 3.6313708498984765 7.5000000000000115
  endloop
endfacet
facet normal 0.6087614290087212 -0.7933533402912347 -0.0
  outer loop
    vertex 3.45 3.8856406460551027 7.5000000000000115
    vertex 3.118629150101524 3.6313708498984765 2.8199664825478975e-15
    vertex 3.45 3.8856406460551027 2.8199664825478975e-15
  endloop
endfacet
facet normal 0.6087614290087212 -0.7933533402912347 -0.0
  outer loop
    vertex 3.118629150101524 3.6313708498984765 2.8199664825478975e-15
    vertex 3.45 3.8856406460551027 7.5000000000000115
    vertex 3.118629150101524 3.6313708498984765 7.5000000000000115
  endloop
endfacet
facet normal 0.38268343236509017 -0.9238795325112866 -0.0
  outer loop
    vertex 3.835889527835966 4.04548132206251 7.5000000000000115
    vertex 3.45 3.8856406460551027 2.8199664825478975e-15
    vertex 3.835889527835966 4.04548132206251 2.8199664825478975e-15
  endloop
endfacet
facet normal 0.38268343236509017 -0.9238795325112866 -0.0
  outer loop
    vertex 3.45 3.8856406460551027 2.8199664825478975e-15
    vertex 3.835889527835966 4.04548132206251 7.5000000000000115
    vertex 3.45 3.8856406460551027 7.5000000000000115
  endloop
endfacet
facet normal 0.13052619222005193 -0.9914448613738104 -0.0
  outer loop
    vertex 4.250000000000001 4.1000000000000005 7.5000000000000115
    vertex 3.835889527835966 4.04548132206251 2.8199664825478975e-15
    vertex 4.250000000000001 4.1000000000000005 2.8199664825478975e-15
  endloop
endfacet
facet normal 0.13052619222005193 -0.9914448613738104 -0.0
  outer loop
    vertex 3.835889527835966 4.04548132206251 2.8199664825478975e-15
    vertex 4.250000000000001 4.1000000000000005 7.5000000000000115
    vertex 3.835889527835966 4.04548132206251 7.5000000000000115
  endloop
endfacet
facet normal -0.13052619222005094 -0.9914448613738106 -0.0
  outer loop
    vertex 4.664110472164033 4.0454813220625105 7.5000000000000115
    vertex 4.250000000000001 4.1000000000000005 2.8199664825478975e-15
    vertex 4.664110472164033 4.0454813220625105 2.8199664825478975e-15
  endloop
endfacet
facet normal -0.13052619222005094 -0.9914448613738106 -0.0
  outer loop
    vertex 4.250000000000001 4.1000000000000005 2.8199664825478975e-15
    vertex 4.664110472164033 4.0454813220625105 7.5000000000000115
    vertex 4.250000000000001 4.1000000000000005 7.5000000000000115
  endloop
endfacet
facet normal -0.38268343236509017 -0.9238795325112866 -0.0
  outer loop
    vertex 5.049999999999999 3.885640646055103 7.5000000000000115
    vertex 4.664110472164033 4.0454813220625105 2.8199664825478975e-15
    vertex 5.049999999999999 3.885640646055103 2.8199664825478975e-15
  endloop
endfacet
facet normal -0.38268343236509017 -0.9238795325112866 -0.0
  outer loop
    vertex 4.664110472164033 4.0454813220625105 2.8199664825478975e-15
    vertex 5.049999999999999 3.885640646055103 7.5000000000000115
    vertex 4.664110472164033 4.0454813220625105 7.5000000000000115
  endloop
endfacet
facet normal -0.60876142900872 -0.7933533402912356 -0.0
  outer loop
    vertex 5.3813708498984765 3.6313708498984774 7.5000000000000115
    vertex 5.049999999999999 3.885640646055103 2.8199664825478975e-15
    vertex 5.3813708498984765 3.6313708498984774 2.8199664825478975e-15
  endloop
endfacet
facet normal -0.60876142900872 -0.7933533402912356 -0.0
  outer loop
    vertex 5.049999999999999 3.885640646055103 2.8199664825478975e-15
    vertex 5.3813708498984765 3.6313708498984774 7.5000000000000115
    vertex 5.049999999999999 3.885640646055103 7.5000000000000115
  endloop
endfacet
facet normal -0.7933533402912344 -0.6087614290087217 -0.0
  outer loop
    vertex 5.3813708498984765 3.6313708498984774 7.5000000000000115
    vertex 5.635640646055102 3.3000000000000016 2.8199664825478975e-15
    vertex 5.635640646055102 3.3000000000000016 7.5000000000000115
  endloop
endfacet
facet normal -0.7933533402912344 -0.6087614290087217 -0.0
  outer loop
    vertex 5.635640646055102 3.3000000000000016 2.8199664825478975e-15
    vertex 5.3813708498984765 3.6313708498984774 7.5000000000000115
    vertex 5.3813708498984765 3.6313708498984774 2.8199664825478975e-15
  endloop
endfacet
facet normal -0.9238795325112866 -0.38268343236508984 -0.0
  outer loop
    vertex 5.635640646055102 3.3000000000000016 7.5000000000000115
    vertex 5.79548132206251 2.9141104721640354 2.8199664825478975e-15
    vertex 5.79548132206251 2.9141104721640354 7.5000000000000115
  endloop
endfacet
facet normal -0.9238795325112866 -0.38268343236508984 -0.0
  outer loop
    vertex 5.79548132206251 2.9141104721640354 2.8199664825478975e-15
    vertex 5.635640646055102 3.3000000000000016 7.5000000000000115
    vertex 5.635640646055102 3.3000000000000016 2.8199664825478975e-15
  endloop
endfacet
facet normal -0.9914448613738105 -0.13052619222005205 -0.0
  outer loop
    vertex 5.79548132206251 2.9141104721640354 7.5000000000000115
    vertex 5.8500000000000005 2.500000000000001 2.8199664825478975e-15
    vertex 5.8500000000000005 2.500000000000001 7.5000000000000115
  endloop
endfacet
facet normal -0.9914448613738105 -0.13052619222005205 -0.0
  outer loop
    vertex 5.8500000000000005 2.500000000000001 2.8199664825478975e-15
    vertex 5.79548132206251 2.9141104721640354 7.5000000000000115
    vertex 5.79548132206251 2.9141104721640354 2.8199664825478975e-15
  endloop
endfacet
facet normal -0.9914448613738104 0.13052619222005238 -0.0
  outer loop
    vertex 5.8500000000000005 2.500000000000001 7.5000000000000115
    vertex 5.79548132206251 2.0858895278359677 2.8199664825478975e-15
    vertex 5.79548132206251 2.0858895278359677 7.5000000000000115
  endloop
endfacet
facet normal -0.9914448613738104 0.13052619222005238 -0.0
  outer loop
    vertex 5.79548132206251 2.0858895278359677 2.8199664825478975e-15
    vertex 5.8500000000000005 2.500000000000001 7.5000000000000115
    vertex 5.8500000000000005 2.500000000000001 2.8199664825478975e-15
  endloop
endfacet
facet normal -0.9238795325112867 0.38268343236508956 -0.0
  outer loop
    vertex 5.79548132206251 2.0858895278359677 7.5000000000000115
    vertex 5.635640646055102 1.700000000000001 2.8199664825478975e-15
    vertex 5.635640646055102 1.700000000000001 7.5000000000000115
  endloop
endfacet
facet normal -0.9238795325112867 0.38268343236508956 -0.0
  outer loop
    vertex 5.635640646055102 1.700000000000001 2.8199664825478975e-15
    vertex 5.79548132206251 2.0858895278359677 7.5000000000000115
    vertex 5.79548132206251 2.0858895278359677 2.8199664825478975e-15
  endloop
endfacet
facet normal 1.0 -0.0 -0.0
  outer loop
    vertex 8.500000000000002 5.250000000000002 1.5
    vertex 8.500000000000002 0.0 7.5000000000000115
    vertex 8.500000000000002 0.0 1.5
  endloop
endfacet
facet normal 1.0 -0.0 -0.0
  outer loop
    vertex 8.500000000000002 0.0 7.5000000000000115
    vertex 8.500000000000002 5.250000000000002 1.5
    vertex 8.500000000000002 5.250000000000002 7.5000000000000115
  endloop
endfacet
facet normal -2.0633901091813879e-16 -1.0 -8.889666726587732e-33
  outer loop
    vertex 49.500000000000014 5.249999999999993 7.5
    vertex 8.500000000000002 5.250000000000002 1.5
    vertex 49.500000000000014 5.249999999999993 1.5
  endloop
endfacet
facet normal -2.0633901091813879e-16 -1.0 -8.889666726587732e-33
  outer loop
    vertex 8.500000000000002 5.250000000000002 1.5
    vertex 49.500000000000014 5.249999999999993 7.5
    vertex 8.500000000000002 5.250000000000002 7.5000000000000115
  endloop
endfacet
facet normal -0.0 -0.0 1.0
  outer loop
    vertex 0.0 6.750000000000002 1.5
    vertex 11.000000000000002 18.267949192431125 1.5
    vertex 0.0 24.0 1.5
  endloop
endfacet
facet normal -0.0 -0.0 1.0
  outer loop
    vertex 11.000000000000002 18.267949192431125 1.5
    vertex 0.0 6.750000000000002 1.5
    vertex 11.48236190979496 18.068148347421868 1.5
  endloop
endfacet
facet normal -0.0 -0.0 1.0
  outer loop
    vertex 11.48236190979496 18.068148347421868 1.5
    vertex 0.0 6.750000000000002 1.5
    vertex 57.99999999999999 6.749999999999993 1.5
  endloop
endfacet
facet normal -0.0 -0.0 1.0
  outer loop
    vertex 0.0 24.0 1.5
    vertex 11.000000000000002 18.267949192431125 1.5
    vertex 10.585786437626908 18.585786437626908 1.5
  endloop
endfacet
facet normal -0.0 -0.0 1.0
  outer loop
    vertex 0.0 24.0 1.5
    vertex 10.585786437626908 18.585786437626908 1.5
    vertex 10.267949192431125 19.000000000000004 1.5
  endloop
endfacet
facet normal -0.0 -0.0 1.0
  outer loop
    vertex 0.0 24.0 1.5
    vertex 10.267949192431125 19.000000000000004 1.5
    vertex 10.068148347421864 19.48236190979496 1.5
  endloop
endfacet
facet normal -0.0 -0.0 1.0
  outer loop
    vertex 0.0 24.0 1.5
    vertex 10.068148347421864 19.48236190979496 1.5
    vertex 10.000000000000002 20.000000000000004 1.5
  endloop
endfacet
facet normal -0.0 -0.0 1.0
  outer loop
    vertex 11.48236190979496 18.068148347421868 1.5
    vertex 57.99999999999999 6.749999999999993 1.5
    vertex 12.0 18.000000000000004 1.5
  endloop
endfacet
facet normal -0.0 -0.0 1.0
  outer loop
    vertex 12.0 18.000000000000004 1.5
    vertex 57.99999999999999 6.749999999999993 1.5
    vertex 12.517638090205041 18.068148347421868 1.5
  endloop
endfacet
facet normal -0.0 -0.0 1.0
  outer loop
    vertex 12.517638090205041 18.068148347421868 1.5
    vertex 57.99999999999999 6.749999999999993 1.5
    vertex 13.000000000000002 18.26794919243113 1.5
  endloop
endfacet
facet normal -0.0 -0.0 1.0
  outer loop
    vertex 13.000000000000002 18.26794919243113 1.5
    vertex 57.99999999999999 6.749999999999993 1.5
    vertex 13.414213562373096 18.58578643762691 1.5
  endloop
endfacet
facet normal -0.0 -0.0 1.0
  outer loop
    vertex 13.414213562373096 18.58578643762691 1.5
    vertex 57.99999999999999 6.749999999999993 1.5
    vertex 13.732050807568877 19.000000000000004 1.5
  endloop
endfacet
facet normal -0.0 -0.0 1.0
  outer loop
    vertex 13.732050807568877 19.000000000000004 1.5
    vertex 57.99999999999999 6.749999999999993 1.5
    vertex 13.931851652578136 19.482361909794964 1.5
  endloop
endfacet
facet normal -0.0 -0.0 1.0
  outer loop
    vertex 13.931851652578136 19.482361909794964 1.5
    vertex 57.99999999999999 6.749999999999993 1.5
    vertex 14.0 20.000000000000004 1.5
  endloop
endfacet
facet normal -0.0 -0.0 1.0
  outer loop
    vertex 0.0 24.0 1.5
    vertex 12.0 22.000000000000004 1.5
    vertex 57.99999999999999 24.0 1.5
  endloop
endfacet
facet normal -0.0 -0.0 1.0
  outer loop
    vertex 12.0 22.000000000000004 1.5
    vertex 0.0 24.0 1.5
    vertex 11.482361909794959 21.93185165257814 1.5
  endloop
endfacet
facet normal -0.0 -0.0 1.0
  outer loop
    vertex 11.482361909794959 21.93185165257814 1.5
    vertex 0.0 24.0 1.5
    vertex 11.0 21.73205080756888 1.5
  endloop
endfacet
facet normal -0.0 -0.0 1.0
  outer loop
    vertex 11.0 21.73205080756888 1.5
    vertex 0.0 24.0 1.5
    vertex 10.585786437626906 21.414213562373096 1.5
  endloop
endfacet
facet normal -0.0 -0.0 1.0
  outer loop
    vertex 10.585786437626906 21.414213562373096 1.5
    vertex 0.0 24.0 1.5
    vertex 10.267949192431123 21.0 1.5
  endloop
endfacet
facet normal -0.0 -0.0 1.0
  outer loop
    vertex 10.267949192431123 21.0 1.5
    vertex 0.0 24.0 1.5
    vertex 10.068148347421864 20.517638090205043 1.5
  endloop
endfacet
facet normal -0.0 -0.0 1.0
  outer loop
    vertex 10.068148347421864 20.517638090205043 1.5
    vertex 0.0 24.0 1.5
    vertex 10.000000000000002 20.000000000000004 1.5
  endloop
endfacet
facet normal -0.0 -0.0 1.0
  outer loop
    vertex 57.99999999999999 24.0 1.5
    vertex 12.0 22.000000000000004 1.5
    vertex 12.517638090205041 21.93185165257814 1.5
  endloop
endfacet
facet normal -0.0 -0.0 1.0
  outer loop
    vertex 57.99999999999999 24.0 1.5
    vertex 12.517638090205041 21.93185165257814 1.5
    vertex 12.999999999999998 21.73205080756888 1.5
  endloop
endfacet
facet normal -0.0 -0.0 1.0
  outer loop
    vertex 57.99999999999999 24.0 1.5
    vertex 12.999999999999998 21.73205080756888 1.5
    vertex 13.414213562373096 21.4142135623731 1.5
  endloop
endfacet
facet normal -0.0 -0.0 1.0
  outer loop
    vertex 57.99999999999999 24.0 1.5
    vertex 13.414213562373096 21.4142135623731 1.5
    vertex 13.732050807568877 21.000000000000004 1.5
  endloop
endfacet
facet normal -0.0 -0.0 1.0
  outer loop
    vertex 57.99999999999999 24.0 1.5
    vertex 13.732050807568877 21.000000000000004 1.5
    vertex 13.931851652578136 20.517638090205047 1.5
  endloop
endfacet
facet normal -0.0 -0.0 1.0
  outer loop
    vertex 57.99999999999999 24.0 1.5
    vertex 13.931851652578136 20.517638090205047 1.5
    vertex 14.0 20.000000000000004 1.5
  endloop
endfacet
facet normal -0.0 -0.0 1.0
  outer loop
    vertex 57.99999999999999 24.0 1.5
    vertex 14.0 20.000000000000004 1.5
    vertex 57.99999999999999 6.749999999999993 1.5
  endloop
endfacet
facet normal 1.458603353042016e-16 1.0 -1.9423503788188254e-32
  outer loop
    vertex 0.0 6.750000000000002 7.5000000000000115
    vertex 57.99999999999999 6.749999999999993 1.5
    vertex 0.0 6.750000000000002 1.5
  endloop
endfacet
facet normal 1.458603353042016e-16 1.0 -1.9423503788188254e-32
  outer loop
    vertex 57.99999999999999 6.749999999999993 1.5
    vertex 0.0 6.750000000000002 7.5000000000000115
    vertex 57.99999999999999 6.749999999999993 7.5
  endloop
endfacet
endsolid SIOST-PSCover
