solid SIOST-Standoff
facet normal -0.0 0.0 -1.0
  outer loop
    vertex 0.732233047033656 0.7322330470336292 0.0
    vertex 2.0858895278359637 0.9545186779374824 0.0
    vertex 2.5000000000000178 0.8999999999999984 0.0
  endloop
endfacet
facet normal -0.0 0.0 -1.0
  outer loop
    vertex 2.0858895278359637 0.9545186779374824 0.0
    vertex 0.732233047033656 0.7322330470336292 0.0
    vertex 0.3349364905389229 1.2499999999999962 0.0
  endloop
endfacet
facet normal -0.0 0.0 -1.0
  outer loop
    vertex 2.0858895278359637 0.9545186779374824 0.0
    vertex 0.3349364905389229 1.2499999999999962 0.0
    vertex 1.7000000000000195 1.1143593539448995 0.0
  endloop
endfacet
facet normal -0.0 0.0 -1.0
  outer loop
    vertex 1.7000000000000195 1.1143593539448995 0.0
    vertex 0.3349364905389229 1.2499999999999962 0.0
    vertex 1.368629150101503 1.3686291501015142 0.0
  endloop
endfacet
facet normal -0.0 0.0 -1.0
  outer loop
    vertex 1.368629150101503 1.3686291501015142 0.0
    vertex 0.3349364905389229 1.2499999999999962 0.0
    vertex 0.08518543427735475 1.8529523872436942 0.0
  endloop
endfacet
facet normal -0.0 0.0 -1.0
  outer loop
    vertex 1.368629150101503 1.3686291501015142 0.0
    vertex 0.08518543427735475 1.8529523872436942 0.0
    vertex 1.1143593539448882 1.6999999999999955 0.0
  endloop
endfacet
facet normal -0.0 0.0 -1.0
  outer loop
    vertex 1.1143593539448882 1.6999999999999955 0.0
    vertex 0.08518543427735475 1.8529523872436942 0.0
    vertex 0.9545186779374486 2.085889527835962 0.0
  endloop
endfacet
facet normal -0.0 0.0 -1.0
  outer loop
    vertex 0.9545186779374486 2.085889527835962 0.0
    vertex 0.08518543427735475 1.8529523872436942 0.0
    vertex 2.255973186038318e-14 2.4999999999999942 0.0
  endloop
endfacet
facet normal -0.0 0.0 -1.0
  outer loop
    vertex 0.9545186779374486 2.085889527835962 0.0
    vertex 2.255973186038318e-14 2.4999999999999942 0.0
    vertex 0.9000000000000209 2.4999999999999942 0.0
  endloop
endfacet
facet normal -0.0 0.0 -1.0
  outer loop
    vertex 0.9000000000000209 2.4999999999999942 0.0
    vertex 2.255973186038318e-14 2.4999999999999942 0.0
    vertex 0.08518543427735475 3.147047612756295 0.0
  endloop
endfacet
facet normal -0.0 0.0 -1.0
  outer loop
    vertex 0.9000000000000209 2.4999999999999942 0.0
    vertex 0.08518543427735475 3.147047612756295 0.0
    vertex 0.9545186779374486 2.914110472164026 0.0
  endloop
endfacet
facet normal -0.0 0.0 -1.0
  outer loop
    vertex 0.9545186779374486 2.914110472164026 0.0
    vertex 0.08518543427735475 3.147047612756295 0.0
    vertex 1.1143593539448882 3.2999999999999927 0.0
  endloop
endfacet
facet normal -0.0 0.0 -1.0
  outer loop
    vertex 1.1143593539448882 3.2999999999999927 0.0
    vertex 0.08518543427735475 3.147047612756295 0.0
    vertex 0.3349364905389229 3.7499999999999933 0.0
  endloop
endfacet
facet normal -0.0 0.0 -1.0
  outer loop
    vertex 1.1143593539448882 3.2999999999999927 0.0
    vertex 0.3349364905389229 3.7499999999999933 0.0
    vertex 1.368629150101503 3.6313708498984765 0.0
  endloop
endfacet
facet normal -0.0 0.0 -1.0
  outer loop
    vertex 1.368629150101503 3.6313708498984765 0.0
    vertex 0.3349364905389229 3.7499999999999933 0.0
    vertex 1.7000000000000195 3.885640646055091 0.0
  endloop
endfacet
facet normal -0.0 0.0 -1.0
  outer loop
    vertex 1.7000000000000195 3.885640646055091 0.0
    vertex 0.3349364905389229 3.7499999999999933 0.0
    vertex 0.732233047033656 4.267766952966362 0.0
  endloop
endfacet
facet normal -0.0 0.0 -1.0
  outer loop
    vertex 1.7000000000000195 3.885640646055091 0.0
    vertex 0.732233047033656 4.267766952966362 0.0
    vertex 2.0858895278359637 4.045481322062509 0.0
  endloop
endfacet
facet normal -0.0 0.0 -1.0
  outer loop
    vertex 2.0858895278359637 4.045481322062509 0.0
    vertex 0.732233047033656 4.267766952966362 0.0
    vertex 2.5000000000000178 4.0999999999999925 0.0
  endloop
endfacet
facet normal -0.0 0.0 -1.0
  outer loop
    vertex 4.999999999999991 49.5 0.0
    vertex 6.0 28.999999999999996 0.0
    vertex 5.000000000000002 28.999999999999996 0.0
  endloop
endfacet
facet normal -0.0 0.0 -1.0
  outer loop
    vertex 1.8529523872436942 49.585185434277335 0.0
    vertex 4.999999999999991 49.5 0.0
    vertex 2.4999999999999956 49.5 0.0
  endloop
endfacet
facet normal -0.0 0.0 -1.0
  outer loop
    vertex 0.7322330470336335 50.23223304703363 0.0
    vertex 2.085889527835941 50.45451867793749 0.0
    vertex 2.4999999999999956 50.4 0.0
  endloop
endfacet
facet normal -0.0 0.0 -1.0
  outer loop
    vertex 2.085889527835941 50.45451867793749 0.0
    vertex 0.7322330470336335 50.23223304703363 0.0
    vertex 0.3349364905389003 50.75 0.0
  endloop
endfacet
facet normal -0.0 0.0 -1.0
  outer loop
    vertex 2.085889527835941 50.45451867793749 0.0
    vertex 0.3349364905389003 50.75 0.0
    vertex 1.6999999999999968 50.614359353944884 0.0
  endloop
endfacet
facet normal -0.0 0.0 -1.0
  outer loop
    vertex 1.6999999999999968 50.614359353944884 0.0
    vertex 0.3349364905389003 50.75 0.0
    vertex 1.3686291501014805 50.868629150101526 0.0
  endloop
endfacet
facet normal -0.0 0.0 -1.0
  outer loop
    vertex 1.3686291501014805 50.868629150101526 0.0
    vertex 0.3349364905389003 50.75 0.0
    vertex 0.0851854342773322 51.3529523872437 0.0
  endloop
endfacet
facet normal -0.0 0.0 -1.0
  outer loop
    vertex 1.3686291501014805 50.868629150101526 0.0
    vertex 0.0851854342773322 51.3529523872437 0.0
    vertex 1.1143593539448657 51.199999999999996 0.0
  endloop
endfacet
facet normal -0.0 0.0 -1.0
  outer loop
    vertex 1.1143593539448657 51.199999999999996 0.0
    vertex 0.0851854342773322 51.3529523872437 0.0
    vertex 0.954518677937426 51.58588952783596 0.0
  endloop
endfacet
facet normal -0.0 0.0 -1.0
  outer loop
    vertex 0.954518677937426 51.58588952783596 0.0
    vertex 0.0851854342773322 51.3529523872437 0.0
    vertex 0.0 51.99999999999999 0.0
  endloop
endfacet
facet normal -0.0 0.0 -1.0
  outer loop
    vertex 0.954518677937426 51.58588952783596 0.0
    vertex 0.0 51.99999999999999 0.0
    vertex 0.8999999999999984 51.99999999999999 0.0
  endloop
endfacet
facet normal -0.0 0.0 -1.0
  outer loop
    vertex 0.8999999999999984 51.99999999999999 0.0
    vertex 0.0 51.99999999999999 0.0
    vertex 0.0851854342773322 52.647047612756296 0.0
  endloop
endfacet
facet normal -0.0 0.0 -1.0
  outer loop
    vertex 0.8999999999999984 51.99999999999999 0.0
    vertex 0.0851854342773322 52.647047612756296 0.0
    vertex 0.954518677937426 52.414110472164026 0.0
  endloop
endfacet
facet normal -0.0 0.0 -1.0
  outer loop
    vertex 0.954518677937426 52.414110472164026 0.0
    vertex 0.0851854342773322 52.647047612756296 0.0
    vertex 1.1143593539448657 52.79999999999999 0.0
  endloop
endfacet
facet normal -0.0 0.0 -1.0
  outer loop
    vertex 1.1143593539448657 52.79999999999999 0.0
    vertex 0.0851854342773322 52.647047612756296 0.0
    vertex 0.3349364905389003 53.24999999999999 0.0
  endloop
endfacet
facet normal -0.0 0.0 -1.0
  outer loop
    vertex 1.1143593539448657 52.79999999999999 0.0
    vertex 0.3349364905389003 53.24999999999999 0.0
    vertex 1.3686291501014805 53.13137084989849 0.0
  endloop
endfacet
facet normal -0.0 0.0 -1.0
  outer loop
    vertex 1.3686291501014805 53.13137084989849 0.0
    vertex 0.3349364905389003 53.24999999999999 0.0
    vertex 1.6999999999999968 53.3856406460551 0.0
  endloop
endfacet
facet normal -0.0 0.0 -1.0
  outer loop
    vertex 1.6999999999999968 53.3856406460551 0.0
    vertex 0.3349364905389003 53.24999999999999 0.0
    vertex 0.7322330470336335 53.767766952966355 0.0
  endloop
endfacet
facet normal -0.0 0.0 -1.0
  outer loop
    vertex 1.6999999999999968 53.3856406460551 0.0
    vertex 0.7322330470336335 53.767766952966355 0.0
    vertex 2.085889527835941 53.54548132206252 0.0
  endloop
endfacet
facet normal -0.0 0.0 -1.0
  outer loop
    vertex 2.085889527835941 53.54548132206252 0.0
    vertex 0.7322330470336335 53.767766952966355 0.0
    vertex 2.4999999999999956 53.599999999999994 0.0
  endloop
endfacet
facet normal -0.0 0.0 -1.0
  outer loop
    vertex 1.8529523872437168 0.08518543427732939 0.0
    vertex 13.00000000000001 4.229949723821846e-15 0.0
    vertex 2.5000000000000178 0.0 0.0
  endloop
endfacet
facet normal -0.0 0.0 -1.0
  outer loop
    vertex 13.00000000000001 4.229949723821846e-15 0.0
    vertex 1.8529523872437168 0.08518543427732939 0.0
    vertex 3.3000000000000167 1.1143593539448995 0.0
  endloop
endfacet
facet normal -0.0 0.0 -1.0
  outer loop
    vertex 13.00000000000001 4.229949723821846e-15 0.0
    vertex 3.3000000000000167 1.1143593539448995 0.0
    vertex 3.631370849898533 1.3686291501015142 0.0
  endloop
endfacet
facet normal -0.0 0.0 -1.0
  outer loop
    vertex 13.00000000000001 4.229949723821846e-15 0.0
    vertex 3.631370849898533 1.3686291501015142 0.0
    vertex 3.8856406460551476 1.6999999999999968 0.0
  endloop
endfacet
facet normal -0.0 0.0 -1.0
  outer loop
    vertex 13.00000000000001 4.229949723821846e-15 0.0
    vertex 3.8856406460551476 1.6999999999999968 0.0
    vertex 4.045481322062588 2.0858895278359637 0.0
  endloop
endfacet
facet normal -0.0 0.0 -1.0
  outer loop
    vertex 13.00000000000001 4.229949723821846e-15 0.0
    vertex 4.045481322062588 2.0858895278359637 0.0
    vertex 5.000000000000013 4.999999999999992 0.0
  endloop
endfacet
facet normal -0.0 0.0 -1.0
  outer loop
    vertex 13.00000000000001 4.229949723821846e-15 0.0
    vertex 5.000000000000013 4.999999999999992 0.0
    vertex 12.999999999999993 54.49999999999999 0.0
  endloop
endfacet
facet normal -0.0 0.0 -1.0
  outer loop
    vertex 3.3000000000000167 1.1143593539448995 0.0
    vertex 1.8529523872437168 0.08518543427732939 0.0
    vertex 2.9141104721640723 0.9545186779374824 0.0
  endloop
endfacet
facet normal -0.0 0.0 -1.0
  outer loop
    vertex 2.9141104721640723 0.9545186779374824 0.0
    vertex 1.8529523872437168 0.08518543427732939 0.0
    vertex 1.2500000000000202 0.3349364905389031 0.0
  endloop
endfacet
facet normal -0.0 0.0 -1.0
  outer loop
    vertex 2.9141104721640723 0.9545186779374824 0.0
    vertex 1.2500000000000202 0.3349364905389031 0.0
    vertex 2.5000000000000178 0.8999999999999984 0.0
  endloop
endfacet
facet normal -0.0 0.0 -1.0
  outer loop
    vertex 2.5000000000000178 0.8999999999999984 0.0
    vertex 1.2500000000000202 0.3349364905389031 0.0
    vertex 0.732233047033656 0.7322330470336292 0.0
  endloop
endfacet
facet normal -0.0 0.0 -1.0
  outer loop
    vertex 5.000000000000013 4.999999999999992 0.0
    vertex 4.045481322062588 2.0858895278359637 0.0
    vertex 4.100000000000015 2.4999999999999956 0.0
  endloop
endfacet
facet normal -0.0 0.0 -1.0
  outer loop
    vertex 5.000000000000013 4.999999999999992 0.0
    vertex 4.100000000000015 2.4999999999999956 0.0
    vertex 4.045481322062588 2.9141104721640274 0.0
  endloop
endfacet
facet normal -0.0 0.0 -1.0
  outer loop
    vertex 5.000000000000013 4.999999999999992 0.0
    vertex 4.045481322062588 2.9141104721640274 0.0
    vertex 3.8856406460551476 3.299999999999994 0.0
  endloop
endfacet
facet normal -0.0 0.0 -1.0
  outer loop
    vertex 5.000000000000013 4.999999999999992 0.0
    vertex 3.8856406460551476 3.299999999999994 0.0
    vertex 3.631370849898533 3.6313708498984765 0.0
  endloop
endfacet
facet normal -0.0 0.0 -1.0
  outer loop
    vertex 5.000000000000013 4.999999999999992 0.0
    vertex 3.631370849898533 3.6313708498984765 0.0
    vertex 3.3000000000000167 3.885640646055091 0.0
  endloop
endfacet
facet normal -0.0 0.0 -1.0
  outer loop
    vertex 5.000000000000013 4.999999999999992 0.0
    vertex 3.3000000000000167 3.885640646055091 0.0
    vertex 2.9141104721640723 4.045481322062509 0.0
  endloop
endfacet
facet normal -0.0 0.0 -1.0
  outer loop
    vertex 5.000000000000013 4.999999999999992 0.0
    vertex 2.9141104721640723 4.045481322062509 0.0
    vertex 2.5000000000000178 4.0999999999999925 0.0
  endloop
endfacet
facet normal -0.0 0.0 -1.0
  outer loop
    vertex 5.000000000000013 4.999999999999992 0.0
    vertex 2.5000000000000178 4.0999999999999925 0.0
    vertex 0.732233047033656 4.267766952966362 0.0
  endloop
endfacet
facet normal -0.0 0.0 -1.0
  outer loop
    vertex 5.000000000000013 4.999999999999992 0.0
    vertex 0.732233047033656 4.267766952966362 0.0
    vertex 1.2500000000000202 4.665063509461087 0.0
  endloop
endfacet
facet normal -0.0 0.0 -1.0
  outer loop
    vertex 5.000000000000013 4.999999999999992 0.0
    vertex 1.2500000000000202 4.665063509461087 0.0
    vertex 1.8529523872437168 4.91481456572266 0.0
  endloop
endfacet
facet normal -0.0 0.0 -1.0
  outer loop
    vertex 5.000000000000013 4.999999999999992 0.0
    vertex 1.8529523872437168 4.91481456572266 0.0
    vertex 2.5000000000000178 4.999999999999989 0.0
  endloop
endfacet
facet normal -0.0 0.0 -1.0
  outer loop
    vertex 12.999999999999993 54.49999999999999 0.0
    vertex 5.000000000000013 4.999999999999992 0.0
    vertex 6.0 12.000000000000002 0.0
  endloop
endfacet
facet normal -0.0 0.0 -1.0
  outer loop
    vertex 6.0 12.000000000000002 0.0
    vertex 5.000000000000013 4.999999999999992 0.0
    vertex 5.000000000000002 12.000000000000002 0.0
  endloop
endfacet
facet normal -0.0 0.0 -1.0
  outer loop
    vertex 12.999999999999993 54.49999999999999 0.0
    vertex 6.0 12.000000000000002 0.0
    vertex 6.0 28.999999999999996 0.0
  endloop
endfacet
facet normal -0.0 0.0 -1.0
  outer loop
    vertex 12.999999999999993 54.49999999999999 0.0
    vertex 6.0 28.999999999999996 0.0
    vertex 4.999999999999991 49.5 0.0
  endloop
endfacet
facet normal -0.0 0.0 -1.0
  outer loop
    vertex 12.999999999999993 54.49999999999999 0.0
    vertex 4.999999999999991 49.5 0.0
    vertex 1.8529523872436942 49.585185434277335 0.0
  endloop
endfacet
facet normal -0.0 0.0 -1.0
  outer loop
    vertex 12.999999999999993 54.49999999999999 0.0
    vertex 1.8529523872436942 49.585185434277335 0.0
    vertex 2.91411047216405 50.45451867793749 0.0
  endloop
endfacet
facet normal -0.0 0.0 -1.0
  outer loop
    vertex 2.91411047216405 50.45451867793749 0.0
    vertex 1.8529523872436942 49.585185434277335 0.0
    vertex 1.2499999999999978 49.8349364905389 0.0
  endloop
endfacet
facet normal -0.0 0.0 -1.0
  outer loop
    vertex 2.91411047216405 50.45451867793749 0.0
    vertex 1.2499999999999978 49.8349364905389 0.0
    vertex 2.4999999999999956 50.4 0.0
  endloop
endfacet
facet normal -0.0 0.0 -1.0
  outer loop
    vertex 2.4999999999999956 50.4 0.0
    vertex 1.2499999999999978 49.8349364905389 0.0
    vertex 0.7322330470336335 50.23223304703363 0.0
  endloop
endfacet
facet normal -0.0 0.0 -1.0
  outer loop
    vertex 12.999999999999993 54.49999999999999 0.0
    vertex 2.91411047216405 50.45451867793749 0.0
    vertex 3.299999999999994 50.614359353944884 0.0
  endloop
endfacet
facet normal -0.0 0.0 -1.0
  outer loop
    vertex 12.999999999999993 54.49999999999999 0.0
    vertex 3.299999999999994 50.614359353944884 0.0
    vertex 3.6313708498985102 50.868629150101526 0.0
  endloop
endfacet
facet normal -0.0 0.0 -1.0
  outer loop
    vertex 12.999999999999993 54.49999999999999 0.0
    vertex 3.6313708498985102 50.868629150101526 0.0
    vertex 3.8856406460551254 51.199999999999996 0.0
  endloop
endfacet
facet normal -0.0 0.0 -1.0
  outer loop
    vertex 12.999999999999993 54.49999999999999 0.0
    vertex 3.8856406460551254 51.199999999999996 0.0
    vertex 4.045481322062565 51.58588952783596 0.0
  endloop
endfacet
facet normal -0.0 0.0 -1.0
  outer loop
    vertex 12.999999999999993 54.49999999999999 0.0
    vertex 4.045481322062565 51.58588952783596 0.0
    vertex 4.0999999999999925 51.99999999999999 0.0
  endloop
endfacet
facet normal -0.0 0.0 -1.0
  outer loop
    vertex 12.999999999999993 54.49999999999999 0.0
    vertex 4.0999999999999925 51.99999999999999 0.0
    vertex 4.045481322062565 52.414110472164026 0.0
  endloop
endfacet
facet normal -0.0 0.0 -1.0
  outer loop
    vertex 12.999999999999993 54.49999999999999 0.0
    vertex 4.045481322062565 52.414110472164026 0.0
    vertex 3.8856406460551254 52.79999999999999 0.0
  endloop
endfacet
facet normal -0.0 0.0 -1.0
  outer loop
    vertex 12.999999999999993 54.49999999999999 0.0
    vertex 3.8856406460551254 52.79999999999999 0.0
    vertex 3.6313708498985102 53.13137084989847 0.0
  endloop
endfacet
facet normal -0.0 0.0 -1.0
  outer loop
    vertex 12.999999999999993 54.49999999999999 0.0
    vertex 3.6313708498985102 53.13137084989847 0.0
    vertex 3.299999999999994 53.3856406460551 0.0
  endloop
endfacet
facet normal -0.0 0.0 -1.0
  outer loop
    vertex 12.999999999999993 54.49999999999999 0.0
    vertex 3.299999999999994 53.3856406460551 0.0
    vertex 2.91411047216405 53.54548132206252 0.0
  endloop
endfacet
facet normal -0.0 0.0 -1.0
  outer loop
    vertex 12.999999999999993 54.49999999999999 0.0
    vertex 2.91411047216405 53.54548132206252 0.0
    vertex 2.4999999999999956 53.599999999999994 0.0
  endloop
endfacet
facet normal -0.0 0.0 -1.0
  outer loop
    vertex 12.999999999999993 54.49999999999999 0.0
    vertex 2.4999999999999956 53.599999999999994 0.0
    vertex 0.7322330470336335 53.767766952966355 0.0
  endloop
endfacet
facet normal -0.0 0.0 -1.0
  outer loop
    vertex 12.999999999999993 54.49999999999999 0.0
    vertex 0.7322330470336335 53.767766952966355 0.0
    vertex 1.2499999999999978 54.16506350946109 0.0
  endloop
endfacet
facet normal -0.0 0.0 -1.0
  outer loop
    vertex 12.999999999999993 54.49999999999999 0.0
    vertex 1.2499999999999978 54.16506350946109 0.0
    vertex 1.8529523872436942 54.41481456572266 0.0
  endloop
endfacet
facet normal -0.0 0.0 -1.0
  outer loop
    vertex 12.999999999999993 54.49999999999999 0.0
    vertex 1.8529523872436942 54.41481456572266 0.0
    vertex 2.4999999999999956 54.49999999999999 0.0
  endloop
endfacet
facet normal 3.8285686989269494e-16 -1.0 0.0
  outer loop
    vertex 2.5000000000000178 0.0 9.999999999999982
    vertex 7.000000000000021 1.4099832412739487e-15 6.0
    vertex 7.000000000000021 1.4099832412739487e-15 9.999999999999998
  endloop
endfacet
facet normal 3.8285686989269494e-16 -1.0 0.0
  outer loop
    vertex 11.000000000000009 2.8199664825478975e-15 9.999999999999996
    vertex 13.00000000000001 4.229949723821846e-15 0.0
    vertex 13.00000000000001 4.229949723821846e-15 9.999999999999996
  endloop
endfacet
facet normal 3.8285686989269494e-16 -1.0 0.0
  outer loop
    vertex 13.00000000000001 4.229949723821846e-15 0.0
    vertex 11.000000000000009 2.8199664825478975e-15 9.999999999999996
    vertex 11.000000000000009 2.8199664825478975e-15 6.0
  endloop
endfacet
facet normal 3.8285686989269494e-16 -1.0 0.0
  outer loop
    vertex 13.00000000000001 4.229949723821846e-15 0.0
    vertex 11.000000000000009 2.8199664825478975e-15 6.0
    vertex 2.5000000000000178 0.0 0.0
  endloop
endfacet
facet normal 3.8285686989269494e-16 -1.0 0.0
  outer loop
    vertex 2.5000000000000178 0.0 0.0
    vertex 11.000000000000009 2.8199664825478975e-15 6.0
    vertex 7.000000000000021 1.4099832412739487e-15 6.0
  endloop
endfacet
facet normal 3.8285686989269494e-16 -1.0 0.0
  outer loop
    vertex 2.5000000000000178 0.0 0.0
    vertex 7.000000000000021 1.4099832412739487e-15 6.0
    vertex 2.5000000000000178 0.0 9.999999999999982
  endloop
endfacet
facet normal 1.0 3.8285686989269494e-16 0.0
  outer loop
    vertex 12.999999999999993 54.49999999999999 9.999999999999996
    vertex 13.00000000000001 4.229949723821846e-15 0.0
    vertex 12.999999999999993 54.49999999999999 0.0
  endloop
endfacet
facet normal 1.0 3.8285686989269494e-16 0.0
  outer loop
    vertex 13.00000000000001 4.229949723821846e-15 0.0
    vertex 12.999999999999993 54.49999999999999 9.999999999999996
    vertex 13.00000000000001 4.229949723821846e-15 9.999999999999996
  endloop
endfacet
facet normal -3.8285686989269494e-16 1.0 0.0
  outer loop
    vertex 12.999999999999993 54.49999999999999 0.0
    vertex 10.999999999999991 54.49999999999999 6.0
    vertex 12.999999999999993 54.49999999999999 9.999999999999996
  endloop
endfacet
facet normal -3.8285686989269494e-16 1.0 0.0
  outer loop
    vertex 10.999999999999991 54.49999999999999 6.0
    vertex 12.999999999999993 54.49999999999999 0.0
    vertex 2.4999999999999956 54.49999999999999 0.0
  endloop
endfacet
facet normal -3.8285686989269494e-16 1.0 0.0
  outer loop
    vertex 10.999999999999991 54.49999999999999 6.0
    vertex 2.4999999999999956 54.49999999999999 0.0
    vertex 6.999999999999998 54.49999999999999 6.0
  endloop
endfacet
facet normal -3.8285686989269494e-16 1.0 0.0
  outer loop
    vertex 6.999999999999998 54.49999999999999 6.0
    vertex 2.4999999999999956 54.49999999999999 0.0
    vertex 6.999999999999998 54.49999999999999 9.999999999999998
  endloop
endfacet
facet normal -3.8285686989269494e-16 1.0 0.0
  outer loop
    vertex 6.999999999999998 54.49999999999999 9.999999999999998
    vertex 2.4999999999999956 54.49999999999999 0.0
    vertex 2.4999999999999956 54.49999999999999 9.999999999999998
  endloop
endfacet
facet normal -3.8285686989269494e-16 1.0 0.0
  outer loop
    vertex 10.999999999999991 54.49999999999999 9.999999999999996
    vertex 12.999999999999993 54.49999999999999 9.999999999999996
    vertex 10.999999999999991 54.49999999999999 6.0
  endloop
endfacet
facet normal -0.1305261922200565 0.9914448613738097 0.0
  outer loop
    vertex 1.8529523872436942 54.41481456572266 0.0
    vertex 2.4999999999999956 54.49999999999999 9.999999999999998
    vertex 2.4999999999999956 54.49999999999999 0.0
  endloop
endfacet
facet normal -0.1305261922200565 0.9914448613738097 0.0
  outer loop
    vertex 2.4999999999999956 54.49999999999999 9.999999999999998
    vertex 1.8529523872436942 54.41481456572266 0.0
    vertex 1.8529523872436942 54.41481456572266 9.999999999999998
  endloop
endfacet
facet normal -0.3826834323650832 0.9238795325112895 0.0
  outer loop
    vertex 1.2499999999999978 54.16506350946109 0.0
    vertex 1.8529523872436942 54.41481456572266 9.999999999999998
    vertex 1.8529523872436942 54.41481456572266 0.0
  endloop
endfacet
facet normal -0.3826834323650832 0.9238795325112895 0.0
  outer loop
    vertex 1.8529523872436942 54.41481456572266 9.999999999999998
    vertex 1.2499999999999978 54.16506350946109 0.0
    vertex 1.2499999999999978 54.16506350946109 9.999999999999998
  endloop
endfacet
facet normal -0.6087614290087295 0.7933533402912285 0.0
  outer loop
    vertex 0.7322330470336335 53.767766952966355 0.0
    vertex 1.2499999999999978 54.16506350946109 9.999999999999998
    vertex 1.2499999999999978 54.16506350946109 0.0
  endloop
endfacet
facet normal -0.6087614290087295 0.7933533402912285 0.0
  outer loop
    vertex 1.2499999999999978 54.16506350946109 9.999999999999998
    vertex 0.7322330470336335 53.767766952966355 0.0
    vertex 0.7322330470336335 53.767766952966355 9.999999999999998
  endloop
endfacet
facet normal -0.793353340291229 0.6087614290087289 0.0
  outer loop
    vertex 0.3349364905389003 53.24999999999999 9.999999999999998
    vertex 0.7322330470336335 53.767766952966355 0.0
    vertex 0.3349364905389003 53.24999999999999 0.0
  endloop
endfacet
facet normal -0.793353340291229 0.6087614290087289 0.0
  outer loop
    vertex 0.7322330470336335 53.767766952966355 0.0
    vertex 0.3349364905389003 53.24999999999999 9.999999999999998
    vertex 0.7322330470336335 53.767766952966355 9.999999999999998
  endloop
endfacet
facet normal -0.9238795325112897 0.3826834323650825 0.0
  outer loop
    vertex 0.0851854342773322 52.647047612756296 9.999999999999998
    vertex 0.3349364905389003 53.24999999999999 0.0
    vertex 0.0851854342773322 52.647047612756296 0.0
  endloop
endfacet
facet normal -0.9238795325112897 0.3826834323650825 0.0
  outer loop
    vertex 0.3349364905389003 53.24999999999999 0.0
    vertex 0.0851854342773322 52.647047612756296 9.999999999999998
    vertex 0.3349364905389003 53.24999999999999 9.999999999999998
  endloop
endfacet
facet normal -0.9914448613738099 0.13052619222005574 0.0
  outer loop
    vertex 0.0 51.99999999999999 9.999999999999998
    vertex 0.0851854342773322 52.647047612756296 0.0
    vertex 0.0 51.99999999999999 0.0
  endloop
endfacet
facet normal -0.9914448613738099 0.13052619222005574 0.0
  outer loop
    vertex 0.0851854342773322 52.647047612756296 0.0
    vertex 0.0 51.99999999999999 9.999999999999998
    vertex 0.0851854342773322 52.647047612756296 9.999999999999998
  endloop
endfacet
facet normal -0.9914448613738097 -0.1305261922200565 0.0
  outer loop
    vertex 0.0851854342773322 51.3529523872437 9.999999999999998
    vertex 0.0 51.99999999999999 0.0
    vertex 0.0851854342773322 51.3529523872437 0.0
  endloop
endfacet
facet normal -0.9914448613738097 -0.1305261922200565 0.0
  outer loop
    vertex 0.0 51.99999999999999 0.0
    vertex 0.0851854342773322 51.3529523872437 9.999999999999998
    vertex 0.0 51.99999999999999 9.999999999999998
  endloop
endfacet
facet normal -0.9238795325112895 -0.3826834323650832 0.0
  outer loop
    vertex 0.3349364905389003 50.75 9.999999999999998
    vertex 0.0851854342773322 51.3529523872437 0.0
    vertex 0.3349364905389003 50.75 0.0
  endloop
endfacet
facet normal -0.9238795325112895 -0.3826834323650832 0.0
  outer loop
    vertex 0.0851854342773322 51.3529523872437 0.0
    vertex 0.3349364905389003 50.75 9.999999999999998
    vertex 0.0851854342773322 51.3529523872437 9.999999999999998
  endloop
endfacet
facet normal -0.7933533402912285 -0.6087614290087295 0.0
  outer loop
    vertex 0.7322330470336335 50.23223304703363 9.999999999999998
    vertex 0.3349364905389003 50.75 0.0
    vertex 0.7322330470336335 50.23223304703363 0.0
  endloop
endfacet
facet normal -0.7933533402912285 -0.6087614290087295 0.0
  outer loop
    vertex 0.3349364905389003 50.75 0.0
    vertex 0.7322330470336335 50.23223304703363 9.999999999999998
    vertex 0.3349364905389003 50.75 9.999999999999998
  endloop
endfacet
facet normal -0.6087614290087289 -0.793353340291229 0.0
  outer loop
    vertex 0.7322330470336335 50.23223304703363 9.999999999999998
    vertex 1.2499999999999978 49.8349364905389 0.0
    vertex 1.2499999999999978 49.8349364905389 9.999999999999998
  endloop
endfacet
facet normal -0.6087614290087289 -0.793353340291229 0.0
  outer loop
    vertex 1.2499999999999978 49.8349364905389 0.0
    vertex 0.7322330470336335 50.23223304703363 9.999999999999998
    vertex 0.7322330470336335 50.23223304703363 0.0
  endloop
endfacet
facet normal -0.3826834323650825 -0.9238795325112897 0.0
  outer loop
    vertex 1.2499999999999978 49.8349364905389 9.999999999999998
    vertex 1.8529523872436942 49.585185434277335 0.0
    vertex 1.8529523872436942 49.585185434277335 9.999999999999998
  endloop
endfacet
facet normal -0.3826834323650825 -0.9238795325112897 0.0
  outer loop
    vertex 1.8529523872436942 49.585185434277335 0.0
    vertex 1.2499999999999978 49.8349364905389 9.999999999999998
    vertex 1.2499999999999978 49.8349364905389 0.0
  endloop
endfacet
facet normal -0.13052619222005574 -0.9914448613738099 0.0
  outer loop
    vertex 1.8529523872436942 49.585185434277335 9.999999999999998
    vertex 2.4999999999999956 49.5 0.0
    vertex 2.4999999999999956 49.5 9.999999999999998
  endloop
endfacet
facet normal -0.13052619222005574 -0.9914448613738099 0.0
  outer loop
    vertex 2.4999999999999956 49.5 0.0
    vertex 1.8529523872436942 49.585185434277335 9.999999999999998
    vertex 1.8529523872436942 49.585185434277335 0.0
  endloop
endfacet
facet normal 3.8285686989269494e-16 -1.0 -0.0
  outer loop
    vertex 2.4999999999999956 49.5 9.999999999999998
    vertex 4.999999999999991 49.5 0.0
    vertex 4.999999999999991 49.5 9.999999999999998
  endloop
endfacet
facet normal 3.8285686989269494e-16 -1.0 -0.0
  outer loop
    vertex 4.999999999999991 49.5 0.0
    vertex 2.4999999999999956 49.5 9.999999999999998
    vertex 2.4999999999999956 49.5 0.0
  endloop
endfacet
facet normal -1.0 -3.8285686989269494e-16 0.0
  outer loop
    vertex 5.000000000000013 4.999999999999992 9.999999999999998
    vertex 5.000000000000002 12.000000000000002 0.0
    vertex 5.000000000000013 4.999999999999992 0.0
  endloop
endfacet
facet normal -1.0 -3.8285686989269494e-16 0.0
  outer loop
    vertex 5.000000000000002 12.000000000000002 0.0
    vertex 5.000000000000013 4.999999999999992 9.999999999999998
    vertex 5.000000000000002 12.000000000000002 9.999999999999998
  endloop
endfacet
facet normal -3.8285686989269494e-16 1.0 0.0
  outer loop
    vertex 2.5000000000000178 4.999999999999989 0.0
    vertex 5.000000000000013 4.999999999999992 9.999999999999998
    vertex 5.000000000000013 4.999999999999992 0.0
  endloop
endfacet
facet normal -3.8285686989269494e-16 1.0 0.0
  outer loop
    vertex 5.000000000000013 4.999999999999992 9.999999999999998
    vertex 2.5000000000000178 4.999999999999989 0.0
    vertex 2.5000000000000178 4.999999999999989 9.999999999999998
  endloop
endfacet
facet normal -0.9914448613738098 -0.1305261922200568 -3.3274269256525736e-19
  outer loop
    vertex 0.08518543427735475 1.8529523872436942 9.999999999999993
    vertex 2.255973186038318e-14 2.4999999999999942 0.0
    vertex 0.08518543427735475 1.8529523872436942 0.0
  endloop
endfacet
facet normal -0.9914448613738098 -0.1305261922200568 -3.3274269256525736e-19
  outer loop
    vertex 2.255973186038318e-14 2.4999999999999942 0.0
    vertex 0.08518543427735475 1.8529523872436942 9.999999999999993
    vertex 2.255973186038318e-14 2.4999999999999942 9.999999999999998
  endloop
endfacet
facet normal -0.9238795325112898 -0.3826834323650824 0.0
  outer loop
    vertex 0.3349364905389229 1.2499999999999962 9.999999999999993
    vertex 0.08518543427735475 1.8529523872436942 0.0
    vertex 0.3349364905389229 1.2499999999999962 0.0
  endloop
endfacet
facet normal -0.9238795325112898 -0.3826834323650824 0.0
  outer loop
    vertex 0.08518543427735475 1.8529523872436942 0.0
    vertex 0.3349364905389229 1.2499999999999962 9.999999999999993
    vertex 0.08518543427735475 1.8529523872436942 9.999999999999993
  endloop
endfacet
facet normal -0.79335334029123 -0.6087614290087275 0.0
  outer loop
    vertex 0.732233047033656 0.7322330470336292 9.999999999999993
    vertex 0.3349364905389229 1.2499999999999962 0.0
    vertex 0.732233047033656 0.7322330470336292 0.0
  endloop
endfacet
facet normal -0.79335334029123 -0.6087614290087275 0.0
  outer loop
    vertex 0.3349364905389229 1.2499999999999962 0.0
    vertex 0.732233047033656 0.7322330470336292 9.999999999999993
    vertex 0.3349364905389229 1.2499999999999962 9.999999999999993
  endloop
endfacet
facet normal -0.6087614290087234 -0.793353340291233 0.0
  outer loop
    vertex 0.732233047033656 0.7322330470336292 9.999999999999993
    vertex 1.2500000000000202 0.3349364905389031 0.0
    vertex 1.2500000000000202 0.3349364905389031 9.999999999999993
  endloop
endfacet
facet normal -0.6087614290087234 -0.793353340291233 0.0
  outer loop
    vertex 1.2500000000000202 0.3349364905389031 0.0
    vertex 0.732233047033656 0.7322330470336292 9.999999999999993
    vertex 0.732233047033656 0.7322330470336292 0.0
  endloop
endfacet
facet normal -0.3826834323650899 -0.9238795325112866 0.0
  outer loop
    vertex 1.2500000000000202 0.3349364905389031 9.999999999999993
    vertex 1.8529523872437168 0.08518543427732939 0.0
    vertex 1.8529523872437168 0.08518543427732939 9.999999999999993
  endloop
endfacet
facet normal -0.3826834323650899 -0.9238795325112866 0.0
  outer loop
    vertex 1.8529523872437168 0.08518543427732939 0.0
    vertex 1.2500000000000202 0.3349364905389031 9.999999999999993
    vertex 1.2500000000000202 0.3349364905389031 0.0
  endloop
endfacet
facet normal -0.1305261922200515 -0.9914448613738105 -5.323883081044109e-19
  outer loop
    vertex 1.8529523872437168 0.08518543427732939 9.999999999999993
    vertex 2.5000000000000178 0.0 0.0
    vertex 2.5000000000000178 0.0 9.999999999999982
  endloop
endfacet
facet normal -0.1305261922200515 -0.9914448613738105 -5.323883081044109e-19
  outer loop
    vertex 2.5000000000000178 0.0 0.0
    vertex 1.8529523872437168 0.08518543427732939 9.999999999999993
    vertex 1.8529523872437168 0.08518543427732939 0.0
  endloop
endfacet
facet normal -0.7933533402912439 0.6087614290087092 0.0
  outer loop
    vertex 3.6313708498985102 50.868629150101526 9.999999999999998
    vertex 3.8856406460551254 51.199999999999996 0.0
    vertex 3.6313708498985102 50.868629150101526 0.0
  endloop
endfacet
facet normal -0.7933533402912439 0.6087614290087092 0.0
  outer loop
    vertex 3.8856406460551254 51.199999999999996 0.0
    vertex 3.6313708498985102 50.868629150101526 9.999999999999998
    vertex 3.8856406460551254 51.199999999999996 9.999999999999998
  endloop
endfacet
facet normal -0.6087614290086917 0.7933533402912575 0.0
  outer loop
    vertex 3.299999999999994 50.614359353944884 0.0
    vertex 3.6313708498985102 50.868629150101526 9.999999999999998
    vertex 3.6313708498985102 50.868629150101526 0.0
  endloop
endfacet
facet normal -0.6087614290086917 0.7933533402912575 0.0
  outer loop
    vertex 3.6313708498985102 50.868629150101526 9.999999999999998
    vertex 3.299999999999994 50.614359353944884 0.0
    vertex 3.299999999999994 50.614359353944884 9.999999999999998
  endloop
endfacet
facet normal -0.38268343236508306 0.9238795325112895 0.0
  outer loop
    vertex 2.91411047216405 50.45451867793749 0.0
    vertex 3.299999999999994 50.614359353944884 9.999999999999998
    vertex 3.299999999999994 50.614359353944884 0.0
  endloop
endfacet
facet normal -0.38268343236508306 0.9238795325112895 0.0
  outer loop
    vertex 3.299999999999994 50.614359353944884 9.999999999999998
    vertex 2.91411047216405 50.45451867793749 0.0
    vertex 2.91411047216405 50.45451867793749 9.999999999999998
  endloop
endfacet
facet normal -0.13052619222005615 0.9914448613738098 0.0
  outer loop
    vertex 2.4999999999999956 50.4 0.0
    vertex 2.91411047216405 50.45451867793749 9.999999999999998
    vertex 2.91411047216405 50.45451867793749 0.0
  endloop
endfacet
facet normal -0.13052619222005615 0.9914448613738098 0.0
  outer loop
    vertex 2.91411047216405 50.45451867793749 9.999999999999998
    vertex 2.4999999999999956 50.4 0.0
    vertex 2.4999999999999956 50.4 9.999999999999998
  endloop
endfacet
facet normal 0.1305261922200554 0.99144486137381 0.0
  outer loop
    vertex 2.085889527835941 50.45451867793749 0.0
    vertex 2.4999999999999956 50.4 9.999999999999998
    vertex 2.4999999999999956 50.4 0.0
  endloop
endfacet
facet normal 0.1305261922200554 0.99144486137381 0.0
  outer loop
    vertex 2.4999999999999956 50.4 9.999999999999998
    vertex 2.085889527835941 50.45451867793749 0.0
    vertex 2.085889527835941 50.45451867793749 9.999999999999998
  endloop
endfacet
facet normal 0.3826834323650825 0.92387953251129 0.0
  outer loop
    vertex 1.6999999999999968 50.614359353944884 0.0
    vertex 2.085889527835941 50.45451867793749 9.999999999999998
    vertex 2.085889527835941 50.45451867793749 0.0
  endloop
endfacet
facet normal 0.3826834323650825 0.92387953251129 0.0
  outer loop
    vertex 2.085889527835941 50.45451867793749 9.999999999999998
    vertex 1.6999999999999968 50.614359353944884 0.0
    vertex 1.6999999999999968 50.614359353944884 9.999999999999998
  endloop
endfacet
facet normal 0.608761429008691 0.7933533402912579 0.0
  outer loop
    vertex 1.3686291501014805 50.868629150101526 0.0
    vertex 1.6999999999999968 50.614359353944884 9.999999999999998
    vertex 1.6999999999999968 50.614359353944884 0.0
  endloop
endfacet
facet normal 0.608761429008691 0.7933533402912579 0.0
  outer loop
    vertex 1.6999999999999968 50.614359353944884 9.999999999999998
    vertex 1.3686291501014805 50.868629150101526 0.0
    vertex 1.3686291501014805 50.868629150101526 9.999999999999998
  endloop
endfacet
facet normal 0.7933533402912435 0.6087614290087099 0.0
  outer loop
    vertex 1.1143593539448657 51.199999999999996 9.999999999999998
    vertex 1.3686291501014805 50.868629150101526 0.0
    vertex 1.1143593539448657 51.199999999999996 0.0
  endloop
endfacet
facet normal 0.7933533402912435 0.6087614290087099 0.0
  outer loop
    vertex 1.3686291501014805 50.868629150101526 0.0
    vertex 1.1143593539448657 51.199999999999996 9.999999999999998
    vertex 1.3686291501014805 50.868629150101526 9.999999999999998
  endloop
endfacet
facet normal 0.9238795325112593 0.3826834323651562 0.0
  outer loop
    vertex 0.954518677937426 51.58588952783596 9.999999999999998
    vertex 1.1143593539448657 51.199999999999996 0.0
    vertex 0.954518677937426 51.58588952783596 0.0
  endloop
endfacet
facet normal 0.9238795325112593 0.3826834323651562 0.0
  outer loop
    vertex 1.1143593539448657 51.199999999999996 0.0
    vertex 0.954518677937426 51.58588952783596 9.999999999999998
    vertex 1.1143593539448657 51.199999999999996 9.999999999999998
  endloop
endfacet
facet normal 0.9914448613738298 0.13052619221990386 0.0
  outer loop
    vertex 0.8999999999999984 51.99999999999999 9.999999999999998
    vertex 0.954518677937426 51.58588952783596 0.0
    vertex 0.8999999999999984 51.99999999999999 0.0
  endloop
endfacet
facet normal 0.9914448613738298 0.13052619221990386 0.0
  outer loop
    vertex 0.954518677937426 51.58588952783596 0.0
    vertex 0.8999999999999984 51.99999999999999 9.999999999999998
    vertex 0.954518677937426 51.58588952783596 9.999999999999998
  endloop
endfacet
facet normal 0.99144486137383 -0.1305261922199031 -0.0
  outer loop
    vertex 0.954518677937426 52.414110472164026 9.999999999999998
    vertex 0.8999999999999984 51.99999999999999 0.0
    vertex 0.954518677937426 52.414110472164026 0.0
  endloop
endfacet
facet normal 0.99144486137383 -0.1305261922199031 -0.0
  outer loop
    vertex 0.8999999999999984 51.99999999999999 0.0
    vertex 0.954518677937426 52.414110472164026 9.999999999999998
    vertex 0.8999999999999984 51.99999999999999 9.999999999999998
  endloop
endfacet
facet normal 0.9238795325112595 -0.3826834323651555 -0.0
  outer loop
    vertex 1.1143593539448657 52.79999999999999 9.999999999999998
    vertex 0.954518677937426 52.414110472164026 0.0
    vertex 1.1143593539448657 52.79999999999999 0.0
  endloop
endfacet
facet normal 0.9238795325112595 -0.3826834323651555 -0.0
  outer loop
    vertex 0.954518677937426 52.414110472164026 0.0
    vertex 1.1143593539448657 52.79999999999999 9.999999999999998
    vertex 0.954518677937426 52.414110472164026 9.999999999999998
  endloop
endfacet
facet normal 0.7933533402912639 -0.6087614290086831 -0.0
  outer loop
    vertex 1.3686291501014805 53.13137084989849 9.999999999999998
    vertex 1.1143593539448657 52.79999999999999 0.0
    vertex 1.3686291501014805 53.13137084989849 0.0
  endloop
endfacet
facet normal 0.7933533402912639 -0.6087614290086831 -0.0
  outer loop
    vertex 1.1143593539448657 52.79999999999999 0.0
    vertex 1.3686291501014805 53.13137084989849 9.999999999999998
    vertex 1.1143593539448657 52.79999999999999 9.999999999999998
  endloop
endfacet
facet normal 0.6087614290086577 -0.7933533402912836 -0.0
  outer loop
    vertex 1.3686291501014805 53.13137084989849 9.999999999999998
    vertex 1.6999999999999968 53.3856406460551 0.0
    vertex 1.6999999999999968 53.3856406460551 9.999999999999998
  endloop
endfacet
facet normal 0.6087614290086577 -0.7933533402912836 -0.0
  outer loop
    vertex 1.6999999999999968 53.3856406460551 0.0
    vertex 1.3686291501014805 53.13137084989849 9.999999999999998
    vertex 1.3686291501014805 53.13137084989849 0.0
  endloop
endfacet
facet normal 0.38268343236512925 -0.9238795325112706 -0.0
  outer loop
    vertex 1.6999999999999968 53.3856406460551 9.999999999999998
    vertex 2.085889527835941 53.54548132206252 0.0
    vertex 2.085889527835941 53.54548132206252 9.999999999999998
  endloop
endfacet
facet normal 0.38268343236512925 -0.9238795325112706 -0.0
  outer loop
    vertex 2.085889527835941 53.54548132206252 0.0
    vertex 1.6999999999999968 53.3856406460551 9.999999999999998
    vertex 1.6999999999999968 53.3856406460551 0.0
  endloop
endfacet
facet normal 0.13052619222000308 -0.9914448613738169 -0.0
  outer loop
    vertex 2.085889527835941 53.54548132206252 9.999999999999998
    vertex 2.4999999999999956 53.599999999999994 0.0
    vertex 2.4999999999999956 53.599999999999994 9.999999999999998
  endloop
endfacet
facet normal 0.13052619222000308 -0.9914448613738169 -0.0
  outer loop
    vertex 2.4999999999999956 53.599999999999994 0.0
    vertex 2.085889527835941 53.54548132206252 9.999999999999998
    vertex 2.085889527835941 53.54548132206252 0.0
  endloop
endfacet
facet normal -0.1305261922200023 -0.9914448613738169 0.0
  outer loop
    vertex 2.4999999999999956 53.599999999999994 9.999999999999998
    vertex 2.91411047216405 53.54548132206252 0.0
    vertex 2.91411047216405 53.54548132206252 9.999999999999998
  endloop
endfacet
facet normal -0.1305261922200023 -0.9914448613738169 0.0
  outer loop
    vertex 2.91411047216405 53.54548132206252 0.0
    vertex 2.4999999999999956 53.599999999999994 9.999999999999998
    vertex 2.4999999999999956 53.599999999999994 0.0
  endloop
endfacet
facet normal -0.3826834323651286 -0.9238795325112709 0.0
  outer loop
    vertex 2.91411047216405 53.54548132206252 9.999999999999998
    vertex 3.299999999999994 53.3856406460551 0.0
    vertex 3.299999999999994 53.3856406460551 9.999999999999998
  endloop
endfacet
facet normal -0.3826834323651286 -0.9238795325112709 0.0
  outer loop
    vertex 3.299999999999994 53.3856406460551 0.0
    vertex 2.91411047216405 53.54548132206252 9.999999999999998
    vertex 2.91411047216405 53.54548132206252 0.0
  endloop
endfacet
facet normal -0.608761429008691 -0.7933533402912579 0.0
  outer loop
    vertex 3.299999999999994 53.3856406460551 9.999999999999998
    vertex 3.6313708498985102 53.13137084989847 0.0
    vertex 3.6313708498985102 53.13137084989847 9.999999999999998
  endloop
endfacet
facet normal -0.608761429008691 -0.7933533402912579 0.0
  outer loop
    vertex 3.6313708498985102 53.13137084989847 0.0
    vertex 3.299999999999994 53.3856406460551 9.999999999999998
    vertex 3.299999999999994 53.3856406460551 0.0
  endloop
endfacet
facet normal -0.7933533402912435 -0.6087614290087099 0.0
  outer loop
    vertex 3.8856406460551254 52.79999999999999 9.999999999999998
    vertex 3.6313708498985102 53.13137084989847 0.0
    vertex 3.8856406460551254 52.79999999999999 0.0
  endloop
endfacet
facet normal -0.7933533402912435 -0.6087614290087099 0.0
  outer loop
    vertex 3.6313708498985102 53.13137084989847 0.0
    vertex 3.8856406460551254 52.79999999999999 9.999999999999998
    vertex 3.6313708498985102 53.13137084989847 9.999999999999998
  endloop
endfacet
facet normal -0.9238795325112593 -0.3826834323651562 0.0
  outer loop
    vertex 4.045481322062565 52.414110472164026 9.999999999999998
    vertex 3.8856406460551254 52.79999999999999 0.0
    vertex 4.045481322062565 52.414110472164026 0.0
  endloop
endfacet
facet normal -0.9238795325112593 -0.3826834323651562 0.0
  outer loop
    vertex 3.8856406460551254 52.79999999999999 0.0
    vertex 4.045481322062565 52.414110472164026 9.999999999999998
    vertex 3.8856406460551254 52.79999999999999 9.999999999999998
  endloop
endfacet
facet normal -0.9914448613738298 -0.13052619221990386 0.0
  outer loop
    vertex 4.0999999999999925 51.99999999999999 9.999999999999998
    vertex 4.045481322062565 52.414110472164026 0.0
    vertex 4.0999999999999925 51.99999999999999 0.0
  endloop
endfacet
facet normal -0.9914448613738298 -0.13052619221990386 0.0
  outer loop
    vertex 4.045481322062565 52.414110472164026 0.0
    vertex 4.0999999999999925 51.99999999999999 9.999999999999998
    vertex 4.045481322062565 52.414110472164026 9.999999999999998
  endloop
endfacet
facet normal -0.99144486137383 0.1305261922199031 0.0
  outer loop
    vertex 4.045481322062565 51.58588952783596 9.999999999999998
    vertex 4.0999999999999925 51.99999999999999 0.0
    vertex 4.045481322062565 51.58588952783596 0.0
  endloop
endfacet
facet normal -0.99144486137383 0.1305261922199031 0.0
  outer loop
    vertex 4.0999999999999925 51.99999999999999 0.0
    vertex 4.045481322062565 51.58588952783596 9.999999999999998
    vertex 4.0999999999999925 51.99999999999999 9.999999999999998
  endloop
endfacet
facet normal -0.9238795325112595 0.3826834323651555 0.0
  outer loop
    vertex 3.8856406460551254 51.199999999999996 9.999999999999998
    vertex 4.045481322062565 51.58588952783596 0.0
    vertex 3.8856406460551254 51.199999999999996 0.0
  endloop
endfacet
facet normal -0.9238795325112595 0.3826834323651555 0.0
  outer loop
    vertex 4.045481322062565 51.58588952783596 0.0
    vertex 3.8856406460551254 51.199999999999996 9.999999999999998
    vertex 4.045481322062565 51.58588952783596 9.999999999999998
  endloop
endfacet
facet normal -0.6087614290086577 0.7933533402912836 0.0
  outer loop
    vertex 3.3000000000000167 1.1143593539448995 0.0
    vertex 3.631370849898533 1.3686291501015142 9.999999999999998
    vertex 3.631370849898533 1.3686291501015142 0.0
  endloop
endfacet
facet normal -0.6087614290086577 0.7933533402912836 0.0
  outer loop
    vertex 3.631370849898533 1.3686291501015142 9.999999999999998
    vertex 3.3000000000000167 1.1143593539448995 0.0
    vertex 3.3000000000000167 1.1143593539448995 9.999999999999998
  endloop
endfacet
facet normal -0.38268343236512925 0.9238795325112706 0.0
  outer loop
    vertex 2.9141104721640723 0.9545186779374824 0.0
    vertex 3.3000000000000167 1.1143593539448995 9.999999999999998
    vertex 3.3000000000000167 1.1143593539448995 0.0
  endloop
endfacet
facet normal -0.38268343236512925 0.9238795325112706 0.0
  outer loop
    vertex 3.3000000000000167 1.1143593539448995 9.999999999999998
    vertex 2.9141104721640723 0.9545186779374824 0.0
    vertex 2.9141104721640723 0.9545186779374824 9.999999999999998
  endloop
endfacet
facet normal -0.13052619222002962 0.9914448613738133 0.0
  outer loop
    vertex 2.5000000000000178 0.8999999999999984 0.0
    vertex 2.9141104721640723 0.9545186779374824 9.999999999999998
    vertex 2.9141104721640723 0.9545186779374824 0.0
  endloop
endfacet
facet normal -0.13052619222002962 0.9914448613738133 0.0
  outer loop
    vertex 2.9141104721640723 0.9545186779374824 9.999999999999998
    vertex 2.5000000000000178 0.8999999999999984 0.0
    vertex 2.5000000000000178 0.8999999999999984 9.999999999999998
  endloop
endfacet
facet normal 0.13052619222002887 0.9914448613738135 0.0
  outer loop
    vertex 2.0858895278359637 0.9545186779374824 0.0
    vertex 2.5000000000000178 0.8999999999999984 9.999999999999998
    vertex 2.5000000000000178 0.8999999999999984 0.0
  endloop
endfacet
facet normal 0.13052619222002887 0.9914448613738135 0.0
  outer loop
    vertex 2.5000000000000178 0.8999999999999984 9.999999999999998
    vertex 2.0858895278359637 0.9545186779374824 0.0
    vertex 2.0858895278359637 0.9545186779374824 9.999999999999998
  endloop
endfacet
facet normal 0.3826834323651286 0.9238795325112709 0.0
  outer loop
    vertex 1.7000000000000195 1.1143593539448995 0.0
    vertex 2.0858895278359637 0.9545186779374824 9.999999999999998
    vertex 2.0858895278359637 0.9545186779374824 0.0
  endloop
endfacet
facet normal 0.3826834323651286 0.9238795325112709 0.0
  outer loop
    vertex 2.0858895278359637 0.9545186779374824 9.999999999999998
    vertex 1.7000000000000195 1.1143593539448995 0.0
    vertex 1.7000000000000195 1.1143593539448995 9.999999999999998
  endloop
endfacet
facet normal 0.608761429008657 0.793353340291284 0.0
  outer loop
    vertex 1.368629150101503 1.3686291501015142 0.0
    vertex 1.7000000000000195 1.1143593539448995 9.999999999999998
    vertex 1.7000000000000195 1.1143593539448995 0.0
  endloop
endfacet
facet normal 0.608761429008657 0.793353340291284 0.0
  outer loop
    vertex 1.7000000000000195 1.1143593539448995 9.999999999999998
    vertex 1.368629150101503 1.3686291501015142 0.0
    vertex 1.368629150101503 1.3686291501015142 9.999999999999998
  endloop
endfacet
facet normal 0.7933533402912534 0.6087614290086968 0.0
  outer loop
    vertex 1.1143593539448882 1.6999999999999955 9.999999999999998
    vertex 1.368629150101503 1.3686291501015142 0.0
    vertex 1.1143593539448882 1.6999999999999955 0.0
  endloop
endfacet
facet normal 0.7933533402912534 0.6087614290086968 0.0
  outer loop
    vertex 1.368629150101503 1.3686291501015142 0.0
    vertex 1.1143593539448882 1.6999999999999955 9.999999999999998
    vertex 1.368629150101503 1.3686291501015142 9.999999999999998
  endloop
endfacet
facet normal 0.9238795325112593 0.3826834323651562 0.0
  outer loop
    vertex 0.9545186779374486 2.085889527835962 9.999999999999998
    vertex 1.1143593539448882 1.6999999999999955 0.0
    vertex 0.9545186779374486 2.085889527835962 0.0
  endloop
endfacet
facet normal 0.9238795325112593 0.3826834323651562 0.0
  outer loop
    vertex 1.1143593539448882 1.6999999999999955 0.0
    vertex 0.9545186779374486 2.085889527835962 9.999999999999998
    vertex 1.1143593539448882 1.6999999999999955 9.999999999999998
  endloop
endfacet
facet normal 0.9914448613738298 0.13052619221990386 0.0
  outer loop
    vertex 0.9000000000000209 2.4999999999999942 9.999999999999998
    vertex 0.9545186779374486 2.085889527835962 0.0
    vertex 0.9000000000000209 2.4999999999999942 0.0
  endloop
endfacet
facet normal 0.9914448613738298 0.13052619221990386 0.0
  outer loop
    vertex 0.9545186779374486 2.085889527835962 0.0
    vertex 0.9000000000000209 2.4999999999999942 9.999999999999998
    vertex 0.9545186779374486 2.085889527835962 9.999999999999998
  endloop
endfacet
facet normal 0.99144486137383 -0.1305261922199031 -0.0
  outer loop
    vertex 0.9545186779374486 2.914110472164026 9.999999999999998
    vertex 0.9000000000000209 2.4999999999999942 0.0
    vertex 0.9545186779374486 2.914110472164026 0.0
  endloop
endfacet
facet normal 0.99144486137383 -0.1305261922199031 -0.0
  outer loop
    vertex 0.9000000000000209 2.4999999999999942 0.0
    vertex 0.9545186779374486 2.914110472164026 9.999999999999998
    vertex 0.9000000000000209 2.4999999999999942 9.999999999999998
  endloop
endfacet
facet normal 0.9238795325112595 -0.3826834323651555 -0.0
  outer loop
    vertex 1.1143593539448882 3.2999999999999927 9.999999999999998
    vertex 0.9545186779374486 2.914110472164026 0.0
    vertex 1.1143593539448882 3.2999999999999927 0.0
  endloop
endfacet
facet normal 0.9238795325112595 -0.3826834323651555 -0.0
  outer loop
    vertex 0.9545186779374486 2.914110472164026 0.0
    vertex 1.1143593539448882 3.2999999999999927 9.999999999999998
    vertex 0.9545186779374486 2.914110472164026 9.999999999999998
  endloop
endfacet
facet normal 0.793353340291254 -0.6087614290086962 -0.0
  outer loop
    vertex 1.368629150101503 3.6313708498984765 9.999999999999998
    vertex 1.1143593539448882 3.2999999999999927 0.0
    vertex 1.368629150101503 3.6313708498984765 0.0
  endloop
endfacet
facet normal 0.793353340291254 -0.6087614290086962 -0.0
  outer loop
    vertex 1.1143593539448882 3.2999999999999927 0.0
    vertex 1.368629150101503 3.6313708498984765 9.999999999999998
    vertex 1.1143593539448882 3.2999999999999927 9.999999999999998
  endloop
endfacet
facet normal 0.6087614290086577 -0.7933533402912836 -0.0
  outer loop
    vertex 1.368629150101503 3.6313708498984765 9.999999999999998
    vertex 1.7000000000000195 3.885640646055091 0.0
    vertex 1.7000000000000195 3.885640646055091 9.999999999999998
  endloop
endfacet
facet normal 0.6087614290086577 -0.7933533402912836 -0.0
  outer loop
    vertex 1.7000000000000195 3.885640646055091 0.0
    vertex 1.368629150101503 3.6313708498984765 9.999999999999998
    vertex 1.368629150101503 3.6313708498984765 0.0
  endloop
endfacet
facet normal 0.38268343236512925 -0.9238795325112706 -0.0
  outer loop
    vertex 1.7000000000000195 3.885640646055091 9.999999999999998
    vertex 2.0858895278359637 4.045481322062509 0.0
    vertex 2.0858895278359637 4.045481322062509 9.999999999999998
  endloop
endfacet
facet normal 0.38268343236512925 -0.9238795325112706 -0.0
  outer loop
    vertex 2.0858895278359637 4.045481322062509 0.0
    vertex 1.7000000000000195 3.885640646055091 9.999999999999998
    vertex 1.7000000000000195 3.885640646055091 0.0
  endloop
endfacet
facet normal 0.13052619222002962 -0.9914448613738133 -0.0
  outer loop
    vertex 2.0858895278359637 4.045481322062509 9.999999999999998
    vertex 2.5000000000000178 4.0999999999999925 0.0
    vertex 2.5000000000000178 4.0999999999999925 9.999999999999998
  endloop
endfacet
facet normal 0.13052619222002962 -0.9914448613738133 -0.0
  outer loop
    vertex 2.5000000000000178 4.0999999999999925 0.0
    vertex 2.0858895278359637 4.045481322062509 9.999999999999998
    vertex 2.0858895278359637 4.045481322062509 0.0
  endloop
endfacet
facet normal -0.13052619222002887 -0.9914448613738135 0.0
  outer loop
    vertex 2.5000000000000178 4.0999999999999925 9.999999999999998
    vertex 2.9141104721640723 4.045481322062509 0.0
    vertex 2.9141104721640723 4.045481322062509 9.999999999999998
  endloop
endfacet
facet normal -0.13052619222002887 -0.9914448613738135 0.0
  outer loop
    vertex 2.9141104721640723 4.045481322062509 0.0
    vertex 2.5000000000000178 4.0999999999999925 9.999999999999998
    vertex 2.5000000000000178 4.0999999999999925 0.0
  endloop
endfacet
facet normal -0.3826834323651286 -0.9238795325112709 0.0
  outer loop
    vertex 2.9141104721640723 4.045481322062509 9.999999999999998
    vertex 3.3000000000000167 3.885640646055091 0.0
    vertex 3.3000000000000167 3.885640646055091 9.999999999999998
  endloop
endfacet
facet normal -0.3826834323651286 -0.9238795325112709 0.0
  outer loop
    vertex 3.3000000000000167 3.885640646055091 0.0
    vertex 2.9141104721640723 4.045481322062509 9.999999999999998
    vertex 2.9141104721640723 4.045481322062509 0.0
  endloop
endfacet
facet normal -0.608761429008657 -0.793353340291284 0.0
  outer loop
    vertex 3.3000000000000167 3.885640646055091 9.999999999999998
    vertex 3.631370849898533 3.6313708498984765 0.0
    vertex 3.631370849898533 3.6313708498984765 9.999999999999998
  endloop
endfacet
facet normal -0.608761429008657 -0.793353340291284 0.0
  outer loop
    vertex 3.631370849898533 3.6313708498984765 0.0
    vertex 3.3000000000000167 3.885640646055091 9.999999999999998
    vertex 3.3000000000000167 3.885640646055091 0.0
  endloop
endfacet
facet normal -0.7933533402912534 -0.6087614290086968 0.0
  outer loop
    vertex 3.8856406460551476 3.299999999999994 9.999999999999998
    vertex 3.631370849898533 3.6313708498984765 0.0
    vertex 3.8856406460551476 3.299999999999994 0.0
  endloop
endfacet
facet normal -0.7933533402912534 -0.6087614290086968 0.0
  outer loop
    vertex 3.631370849898533 3.6313708498984765 0.0
    vertex 3.8856406460551476 3.299999999999994 9.999999999999998
    vertex 3.631370849898533 3.6313708498984765 9.999999999999998
  endloop
endfacet
facet normal -0.9238795325112593 -0.3826834323651562 0.0
  outer loop
    vertex 4.045481322062588 2.9141104721640274 9.999999999999998
    vertex 3.8856406460551476 3.299999999999994 0.0
    vertex 4.045481322062588 2.9141104721640274 0.0
  endloop
endfacet
facet normal -0.9238795325112593 -0.3826834323651562 0.0
  outer loop
    vertex 3.8856406460551476 3.299999999999994 0.0
    vertex 4.045481322062588 2.9141104721640274 9.999999999999998
    vertex 3.8856406460551476 3.299999999999994 9.999999999999998
  endloop
endfacet
facet normal -0.9914448613738298 -0.13052619221990386 0.0
  outer loop
    vertex 4.100000000000015 2.4999999999999956 9.999999999999998
    vertex 4.045481322062588 2.9141104721640274 0.0
    vertex 4.100000000000015 2.4999999999999956 0.0
  endloop
endfacet
facet normal -0.9914448613738298 -0.13052619221990386 0.0
  outer loop
    vertex 4.045481322062588 2.9141104721640274 0.0
    vertex 4.100000000000015 2.4999999999999956 9.999999999999998
    vertex 4.045481322062588 2.9141104721640274 9.999999999999998
  endloop
endfacet
facet normal -0.99144486137383 0.1305261922199031 0.0
  outer loop
    vertex 4.045481322062588 2.0858895278359637 9.999999999999998
    vertex 4.100000000000015 2.4999999999999956 0.0
    vertex 4.045481322062588 2.0858895278359637 0.0
  endloop
endfacet
facet normal -0.99144486137383 0.1305261922199031 0.0
  outer loop
    vertex 4.100000000000015 2.4999999999999956 0.0
    vertex 4.045481322062588 2.0858895278359637 9.999999999999998
    vertex 4.100000000000015 2.4999999999999956 9.999999999999998
  endloop
endfacet
facet normal -0.9238795325112595 0.3826834323651555 0.0
  outer loop
    vertex 3.8856406460551476 1.6999999999999968 9.999999999999998
    vertex 4.045481322062588 2.0858895278359637 0.0
    vertex 3.8856406460551476 1.6999999999999968 0.0
  endloop
endfacet
facet normal -0.9238795325112595 0.3826834323651555 0.0
  outer loop
    vertex 4.045481322062588 2.0858895278359637 0.0
    vertex 3.8856406460551476 1.6999999999999968 9.999999999999998
    vertex 4.045481322062588 2.0858895278359637 9.999999999999998
  endloop
endfacet
facet normal -0.793353340291254 0.6087614290086962 0.0
  outer loop
    vertex 3.631370849898533 1.3686291501015142 9.999999999999998
    vertex 3.8856406460551476 1.6999999999999968 0.0
    vertex 3.631370849898533 1.3686291501015142 0.0
  endloop
endfacet
facet normal -0.793353340291254 0.6087614290086962 0.0
  outer loop
    vertex 3.8856406460551476 1.6999999999999968 0.0
    vertex 3.631370849898533 1.3686291501015142 9.999999999999998
    vertex 3.8856406460551476 1.6999999999999968 9.999999999999998
  endloop
endfacet
facet normal -1.0 -3.8285686989269494e-16 0.0
  outer loop
    vertex 11.000000000000009 2.8199664825478975e-15 9.999999999999996
    vertex 10.999999999999991 54.49999999999999 6.0
    vertex 11.000000000000009 2.8199664825478975e-15 6.0
  endloop
endfacet
facet normal -1.0 -3.8285686989269494e-16 0.0
  outer loop
    vertex 10.999999999999991 54.49999999999999 6.0
    vertex 11.000000000000009 2.8199664825478975e-15 9.999999999999996
    vertex 10.999999999999991 54.49999999999999 9.999999999999996
  endloop
endfacet
facet normal 1.0 3.8285686989269494e-16 0.0
  outer loop
    vertex 6.999999999999998 54.49999999999999 9.999999999999998
    vertex 7.000000000000021 1.4099832412739487e-15 6.0
    vertex 6.999999999999998 54.49999999999999 6.0
  endloop
endfacet
facet normal 1.0 3.8285686989269494e-16 0.0
  outer loop
    vertex 7.000000000000021 1.4099832412739487e-15 6.0
    vertex 6.999999999999998 54.49999999999999 9.999999999999998
    vertex 7.000000000000021 1.4099832412739487e-15 9.999999999999998
  endloop
endfacet
facet normal 0.0 0.0 1.0
  outer loop
    vertex 10.999999999999991 54.49999999999999 6.0
    vertex 7.000000000000021 1.4099832412739487e-15 6.0
    vertex 11.000000000000009 2.8199664825478975e-15 6.0
  endloop
endfacet
facet normal 0.0 0.0 1.0
  outer loop
    vertex 7.000000000000021 1.4099832412739487e-15 6.0
    vertex 10.999999999999991 54.49999999999999 6.0
    vertex 6.999999999999998 54.49999999999999 6.0
  endloop
endfacet
facet normal -1.0 -3.8285686989269494e-16 0.0
  outer loop
    vertex 5.000000000000002 28.999999999999996 9.999999999999998
    vertex 4.999999999999991 49.5 0.0
    vertex 5.000000000000002 28.999999999999996 0.0
  endloop
endfacet
facet normal -1.0 -3.8285686989269494e-16 0.0
  outer loop
    vertex 4.999999999999991 49.5 0.0
    vertex 5.000000000000002 28.999999999999996 9.999999999999998
    vertex 4.999999999999991 49.5 9.999999999999998
  endloop
endfacet
facet normal -1.0 -3.8285686989269494e-16 0.0
  outer loop
    vertex 6.0 12.000000000000002 9.999999999999998
    vertex 6.0 28.999999999999996 0.0
    vertex 6.0 12.000000000000002 0.0
  endloop
endfacet
facet normal -1.0 -3.8285686989269494e-16 0.0
  outer loop
    vertex 6.0 28.999999999999996 0.0
    vertex 6.0 12.000000000000002 9.999999999999998
    vertex 6.0 28.999999999999996 9.999999999999998
  endloop
endfacet
facet normal -3.8285686989269494e-16 1.0 0.0
  outer loop
    vertex 5.000000000000002 12.000000000000002 0.0
    vertex 6.0 12.000000000000002 9.999999999999998
    vertex 6.0 12.000000000000002 0.0
  endloop
endfacet
facet normal -3.8285686989269494e-16 1.0 0.0
  outer loop
    vertex 6.0 12.000000000000002 9.999999999999998
    vertex 5.000000000000002 12.000000000000002 0.0
    vertex 5.000000000000002 12.000000000000002 9.999999999999998
  endloop
endfacet
facet normal 3.8285686989269494e-16 -1.0 -0.0
  outer loop
    vertex 5.000000000000002 28.999999999999996 9.999999999999998
    vertex 6.0 28.999999999999996 0.0
    vertex 6.0 28.999999999999996 9.999999999999998
  endloop
endfacet
facet normal 3.8285686989269494e-16 -1.0 -0.0
  outer loop
    vertex 6.0 28.999999999999996 0.0
    vertex 5.000000000000002 28.999999999999996 9.999999999999998
    vertex 5.000000000000002 28.999999999999996 0.0
  endloop
endfacet
facet normal 0.0 0.0 1.0
  outer loop
    vertex 12.999999999999993 54.49999999999999 9.999999999999996
    vertex 11.000000000000009 2.8199664825478975e-15 9.999999999999996
    vertex 13.00000000000001 4.229949723821846e-15 9.999999999999996
  endloop
endfacet
facet normal 0.0 0.0 1.0
  outer loop
    vertex 11.000000000000009 2.8199664825478975e-15 9.999999999999996
    vertex 12.999999999999993 54.49999999999999 9.999999999999996
    vertex 10.999999999999991 54.49999999999999 9.999999999999996
  endloop
endfacet
facet normal -0.6087614290087213 0.7933533402912346 0.0
  outer loop
    vertex 0.732233047033656 4.267766952966362 0.0
    vertex 1.2500000000000202 4.665063509461087 9.999999999999998
    vertex 1.2500000000000202 4.665063509461087 0.0
  endloop
endfacet
facet normal -0.6087614290087213 0.7933533402912346 0.0
  outer loop
    vertex 1.2500000000000202 4.665063509461087 9.999999999999998
    vertex 0.732233047033656 4.267766952966362 0.0
    vertex 0.732233047033656 4.267766952966362 9.999999999999998
  endloop
endfacet
facet normal -0.99144486137381 0.13052619222005576 -4.658397695913582e-19
  outer loop
    vertex 2.255973186038318e-14 2.4999999999999942 9.999999999999998
    vertex 0.08518543427735475 3.147047612756295 0.0
    vertex 2.255973186038318e-14 2.4999999999999942 0.0
  endloop
endfacet
facet normal -0.99144486137381 0.13052619222005576 -4.658397695913582e-19
  outer loop
    vertex 0.08518543427735475 3.147047612756295 0.0
    vertex 2.255973186038318e-14 2.4999999999999942 9.999999999999998
    vertex 0.08518543427735475 3.147047612756295 9.999999999999998
  endloop
endfacet
facet normal -0.3826834323650906 0.9238795325112864 0.0
  outer loop
    vertex 1.2500000000000202 4.665063509461087 0.0
    vertex 1.8529523872437168 4.91481456572266 9.999999999999998
    vertex 1.8529523872437168 4.91481456572266 0.0
  endloop
endfacet
facet normal -0.3826834323650906 0.9238795325112864 0.0
  outer loop
    vertex 1.8529523872437168 4.91481456572266 9.999999999999998
    vertex 1.2500000000000202 4.665063509461087 0.0
    vertex 1.2500000000000202 4.665063509461087 9.999999999999998
  endloop
endfacet
facet normal -0.7933533402912314 0.6087614290087259 0.0
  outer loop
    vertex 0.3349364905389229 3.7499999999999933 9.999999999999998
    vertex 0.732233047033656 4.267766952966362 0.0
    vertex 0.3349364905389229 3.7499999999999933 0.0
  endloop
endfacet
facet normal -0.7933533402912314 0.6087614290087259 0.0
  outer loop
    vertex 0.732233047033656 4.267766952966362 0.0
    vertex 0.3349364905389229 3.7499999999999933 9.999999999999998
    vertex 0.732233047033656 4.267766952966362 9.999999999999998
  endloop
endfacet
facet normal -0.9238795325112903 0.38268343236508184 0.0
  outer loop
    vertex 0.08518543427735475 3.147047612756295 9.999999999999998
    vertex 0.3349364905389229 3.7499999999999933 0.0
    vertex 0.08518543427735475 3.147047612756295 0.0
  endloop
endfacet
facet normal -0.9238795325112903 0.38268343236508184 0.0
  outer loop
    vertex 0.3349364905389229 3.7499999999999933 0.0
    vertex 0.08518543427735475 3.147047612756295 9.999999999999998
    vertex 0.3349364905389229 3.7499999999999933 9.999999999999998
  endloop
endfacet
facet normal -0.13052619222005227 0.9914448613738103 -3.3274269256525597e-19
  outer loop
    vertex 1.8529523872437168 4.91481456572266 0.0
    vertex 2.5000000000000178 4.999999999999989 9.999999999999998
    vertex 2.5000000000000178 4.999999999999989 0.0
  endloop
endfacet
facet normal -0.13052619222005227 0.9914448613738103 -3.3274269256525597e-19
  outer loop
    vertex 2.5000000000000178 4.999999999999989 9.999999999999998
    vertex 1.8529523872437168 4.91481456572266 0.0
    vertex 1.8529523872437168 4.91481456572266 9.999999999999998
  endloop
endfacet
facet normal -2.257177260901224e-16 -6.283828672499676e-17 1.0
  outer loop
    vertex 7.000000000000021 1.4099832412739487e-15 9.999999999999998
    vertex 3.631370849898533 1.3686291501015142 9.999999999999998
    vertex 2.5000000000000178 0.0 9.999999999999982
  endloop
endfacet
facet normal -2.257177260901224e-16 -6.283828672499676e-17 1.0
  outer loop
    vertex 3.631370849898533 1.3686291501015142 9.999999999999998
    vertex 7.000000000000021 1.4099832412739487e-15 9.999999999999998
    vertex 3.8856406460551476 1.6999999999999968 9.999999999999998
  endloop
endfacet
facet normal -2.257177260901224e-16 -6.283828672499676e-17 1.0
  outer loop
    vertex 3.8856406460551476 1.6999999999999968 9.999999999999998
    vertex 7.000000000000021 1.4099832412739487e-15 9.999999999999998
    vertex 4.045481322062588 2.0858895278359637 9.999999999999998
  endloop
endfacet
facet normal -2.257177260901224e-16 -6.283828672499676e-17 1.0
  outer loop
    vertex 4.045481322062588 2.0858895278359637 9.999999999999998
    vertex 7.000000000000021 1.4099832412739487e-15 9.999999999999998
    vertex 5.000000000000013 4.999999999999992 9.999999999999998
  endloop
endfacet
facet normal -2.257177260901224e-16 -6.283828672499676e-17 1.0
  outer loop
    vertex 5.000000000000013 4.999999999999992 9.999999999999998
    vertex 7.000000000000021 1.4099832412739487e-15 9.999999999999998
    vertex 6.0 12.000000000000002 9.999999999999998
  endloop
endfacet
facet normal -2.257177260901224e-16 -6.283828672499676e-17 1.0
  outer loop
    vertex 6.0 12.000000000000002 9.999999999999998
    vertex 7.000000000000021 1.4099832412739487e-15 9.999999999999998
    vertex 6.999999999999998 54.49999999999999 9.999999999999998
  endloop
endfacet
facet normal -2.257177260901224e-16 -6.283828672499676e-17 1.0
  outer loop
    vertex 2.5000000000000178 0.0 9.999999999999982
    vertex 3.631370849898533 1.3686291501015142 9.999999999999998
    vertex 3.3000000000000167 1.1143593539448995 9.999999999999998
  endloop
endfacet
facet normal -2.257177260901224e-16 -6.283828672499676e-17 1.0
  outer loop
    vertex 2.5000000000000178 0.0 9.999999999999982
    vertex 3.3000000000000167 1.1143593539448995 9.999999999999998
    vertex 1.8529523872437168 0.08518543427732939 9.999999999999993
  endloop
endfacet
facet normal -2.257177260901224e-16 -6.283828672499676e-17 1.0
  outer loop
    vertex 1.8529523872437168 0.08518543427732939 9.999999999999993
    vertex 3.3000000000000167 1.1143593539448995 9.999999999999998
    vertex 2.9141104721640723 0.9545186779374824 9.999999999999998
  endloop
endfacet
facet normal -2.257177260901224e-16 -6.283828672499676e-17 1.0
  outer loop
    vertex 1.8529523872437168 0.08518543427732939 9.999999999999993
    vertex 2.9141104721640723 0.9545186779374824 9.999999999999998
    vertex 1.2500000000000202 0.3349364905389031 9.999999999999993
  endloop
endfacet
facet normal -2.257177260901224e-16 -6.283828672499676e-17 1.0
  outer loop
    vertex 1.2500000000000202 0.3349364905389031 9.999999999999993
    vertex 2.9141104721640723 0.9545186779374824 9.999999999999998
    vertex 2.5000000000000178 0.8999999999999984 9.999999999999998
  endloop
endfacet
facet normal -2.257177260901224e-16 -6.283828672499676e-17 1.0
  outer loop
    vertex 1.2500000000000202 0.3349364905389031 9.999999999999993
    vertex 2.5000000000000178 0.8999999999999984 9.999999999999998
    vertex 0.732233047033656 0.7322330470336292 9.999999999999993
  endloop
endfacet
facet normal -2.257177260901224e-16 -6.283828672499676e-17 1.0
  outer loop
    vertex 4.045481322062588 2.0858895278359637 9.999999999999998
    vertex 5.000000000000013 4.999999999999992 9.999999999999998
    vertex 4.100000000000015 2.4999999999999956 9.999999999999998
  endloop
endfacet
facet normal -2.257177260901224e-16 -6.283828672499676e-17 1.0
  outer loop
    vertex 4.100000000000015 2.4999999999999956 9.999999999999998
    vertex 5.000000000000013 4.999999999999992 9.999999999999998
    vertex 4.045481322062588 2.9141104721640274 9.999999999999998
  endloop
endfacet
facet normal -2.257177260901224e-16 -6.283828672499676e-17 1.0
  outer loop
    vertex 4.045481322062588 2.9141104721640274 9.999999999999998
    vertex 5.000000000000013 4.999999999999992 9.999999999999998
    vertex 3.8856406460551476 3.299999999999994 9.999999999999998
  endloop
endfacet
facet normal -2.257177260901224e-16 -6.283828672499676e-17 1.0
  outer loop
    vertex 3.8856406460551476 3.299999999999994 9.999999999999998
    vertex 5.000000000000013 4.999999999999992 9.999999999999998
    vertex 3.631370849898533 3.6313708498984765 9.999999999999998
  endloop
endfacet
facet normal -2.257177260901224e-16 -6.283828672499676e-17 1.0
  outer loop
    vertex 3.631370849898533 3.6313708498984765 9.999999999999998
    vertex 5.000000000000013 4.999999999999992 9.999999999999998
    vertex 3.3000000000000167 3.885640646055091 9.999999999999998
  endloop
endfacet
facet normal -2.257177260901224e-16 -6.283828672499676e-17 1.0
  outer loop
    vertex 3.3000000000000167 3.885640646055091 9.999999999999998
    vertex 5.000000000000013 4.999999999999992 9.999999999999998
    vertex 2.9141104721640723 4.045481322062509 9.999999999999998
  endloop
endfacet
facet normal -2.257177260901224e-16 -6.283828672499676e-17 1.0
  outer loop
    vertex 2.9141104721640723 4.045481322062509 9.999999999999998
    vertex 5.000000000000013 4.999999999999992 9.999999999999998
    vertex 2.5000000000000178 4.0999999999999925 9.999999999999998
  endloop
endfacet
facet normal -2.257177260901224e-16 -6.283828672499676e-17 1.0
  outer loop
    vertex 2.5000000000000178 4.0999999999999925 9.999999999999998
    vertex 5.000000000000013 4.999999999999992 9.999999999999998
    vertex 0.732233047033656 4.267766952966362 9.999999999999998
  endloop
endfacet
facet normal -2.257177260901224e-16 -6.283828672499676e-17 1.0
  outer loop
    vertex 0.732233047033656 4.267766952966362 9.999999999999998
    vertex 5.000000000000013 4.999999999999992 9.999999999999998
    vertex 1.2500000000000202 4.665063509461087 9.999999999999998
  endloop
endfacet
facet normal -2.257177260901224e-16 -6.283828672499676e-17 1.0
  outer loop
    vertex 1.2500000000000202 4.665063509461087 9.999999999999998
    vertex 5.000000000000013 4.999999999999992 9.999999999999998
    vertex 1.8529523872437168 4.91481456572266 9.999999999999998
  endloop
endfacet
facet normal -2.257177260901224e-16 -6.283828672499676e-17 1.0
  outer loop
    vertex 6.0 12.000000000000002 9.999999999999998
    vertex 6.999999999999998 54.49999999999999 9.999999999999998
    vertex 6.0 28.999999999999996 9.999999999999998
  endloop
endfacet
facet normal -2.257177260901224e-16 -6.283828672499676e-17 1.0
  outer loop
    vertex 6.0 28.999999999999996 9.999999999999998
    vertex 6.999999999999998 54.49999999999999 9.999999999999998
    vertex 5.000000000000002 28.999999999999996 9.999999999999998
  endloop
endfacet
facet normal -2.257177260901224e-16 -6.283828672499676e-17 1.0
  outer loop
    vertex 5.000000000000002 28.999999999999996 9.999999999999998
    vertex 6.999999999999998 54.49999999999999 9.999999999999998
    vertex 4.999999999999991 49.5 9.999999999999998
  endloop
endfacet
facet normal -2.257177260901224e-16 -6.283828672499676e-17 1.0
  outer loop
    vertex 4.999999999999991 49.5 9.999999999999998
    vertex 6.999999999999998 54.49999999999999 9.999999999999998
    vertex 2.4999999999999956 49.5 9.999999999999998
  endloop
endfacet
facet normal -2.257177260901224e-16 -6.283828672499676e-17 1.0
  outer loop
    vertex 2.4999999999999956 49.5 9.999999999999998
    vertex 6.999999999999998 54.49999999999999 9.999999999999998
    vertex 3.6313708498985102 50.868629150101526 9.999999999999998
  endloop
endfacet
facet normal -2.257177260901224e-16 -6.283828672499676e-17 1.0
  outer loop
    vertex 2.4999999999999956 49.5 9.999999999999998
    vertex 3.6313708498985102 50.868629150101526 9.999999999999998
    vertex 3.299999999999994 50.614359353944884 9.999999999999998
  endloop
endfacet
facet normal -2.257177260901224e-16 -6.283828672499676e-17 1.0
  outer loop
    vertex 2.4999999999999956 49.5 9.999999999999998
    vertex 3.299999999999994 50.614359353944884 9.999999999999998
    vertex 1.8529523872436942 49.585185434277335 9.999999999999998
  endloop
endfacet
facet normal -2.257177260901224e-16 -6.283828672499676e-17 1.0
  outer loop
    vertex 1.8529523872436942 49.585185434277335 9.999999999999998
    vertex 3.299999999999994 50.614359353944884 9.999999999999998
    vertex 2.91411047216405 50.45451867793749 9.999999999999998
  endloop
endfacet
facet normal -2.257177260901224e-16 -6.283828672499676e-17 1.0
  outer loop
    vertex 1.8529523872436942 49.585185434277335 9.999999999999998
    vertex 2.91411047216405 50.45451867793749 9.999999999999998
    vertex 1.2499999999999978 49.8349364905389 9.999999999999998
  endloop
endfacet
facet normal -2.257177260901224e-16 -6.283828672499676e-17 1.0
  outer loop
    vertex 1.2499999999999978 49.8349364905389 9.999999999999998
    vertex 2.91411047216405 50.45451867793749 9.999999999999998
    vertex 2.4999999999999956 50.4 9.999999999999998
  endloop
endfacet
facet normal -2.257177260901224e-16 -6.283828672499676e-17 1.0
  outer loop
    vertex 1.2499999999999978 49.8349364905389 9.999999999999998
    vertex 2.4999999999999956 50.4 9.999999999999998
    vertex 0.7322330470336335 50.23223304703363 9.999999999999998
  endloop
endfacet
facet normal -2.257177260901224e-16 -6.283828672499676e-17 1.0
  outer loop
    vertex 3.6313708498985102 50.868629150101526 9.999999999999998
    vertex 6.999999999999998 54.49999999999999 9.999999999999998
    vertex 3.8856406460551254 51.199999999999996 9.999999999999998
  endloop
endfacet
facet normal -2.257177260901224e-16 -6.283828672499676e-17 1.0
  outer loop
    vertex 3.8856406460551254 51.199999999999996 9.999999999999998
    vertex 6.999999999999998 54.49999999999999 9.999999999999998
    vertex 4.045481322062565 51.58588952783596 9.999999999999998
  endloop
endfacet
facet normal -2.257177260901224e-16 -6.283828672499676e-17 1.0
  outer loop
    vertex 4.045481322062565 51.58588952783596 9.999999999999998
    vertex 6.999999999999998 54.49999999999999 9.999999999999998
    vertex 4.0999999999999925 51.99999999999999 9.999999999999998
  endloop
endfacet
facet normal -2.257177260901224e-16 -6.283828672499676e-17 1.0
  outer loop
    vertex 4.0999999999999925 51.99999999999999 9.999999999999998
    vertex 6.999999999999998 54.49999999999999 9.999999999999998
    vertex 4.045481322062565 52.414110472164026 9.999999999999998
  endloop
endfacet
facet normal -2.257177260901224e-16 -6.283828672499676e-17 1.0
  outer loop
    vertex 4.045481322062565 52.414110472164026 9.999999999999998
    vertex 6.999999999999998 54.49999999999999 9.999999999999998
    vertex 3.8856406460551254 52.79999999999999 9.999999999999998
  endloop
endfacet
facet normal -2.257177260901224e-16 -6.283828672499676e-17 1.0
  outer loop
    vertex 3.8856406460551254 52.79999999999999 9.999999999999998
    vertex 6.999999999999998 54.49999999999999 9.999999999999998
    vertex 3.6313708498985102 53.13137084989847 9.999999999999998
  endloop
endfacet
facet normal -2.257177260901224e-16 -6.283828672499676e-17 1.0
  outer loop
    vertex 3.6313708498985102 53.13137084989847 9.999999999999998
    vertex 6.999999999999998 54.49999999999999 9.999999999999998
    vertex 3.299999999999994 53.3856406460551 9.999999999999998
  endloop
endfacet
facet normal -2.257177260901224e-16 -6.283828672499676e-17 1.0
  outer loop
    vertex 3.299999999999994 53.3856406460551 9.999999999999998
    vertex 6.999999999999998 54.49999999999999 9.999999999999998
    vertex 2.91411047216405 53.54548132206252 9.999999999999998
  endloop
endfacet
facet normal -2.257177260901224e-16 -6.283828672499676e-17 1.0
  outer loop
    vertex 2.91411047216405 53.54548132206252 9.999999999999998
    vertex 6.999999999999998 54.49999999999999 9.999999999999998
    vertex 2.4999999999999956 53.599999999999994 9.999999999999998
  endloop
endfacet
facet normal -2.257177260901224e-16 -6.283828672499676e-17 1.0
  outer loop
    vertex 2.4999999999999956 53.599999999999994 9.999999999999998
    vertex 6.999999999999998 54.49999999999999 9.999999999999998
    vertex 0.7322330470336335 53.767766952966355 9.999999999999998
  endloop
endfacet
facet normal -2.257177260901224e-16 -6.283828672499676e-17 1.0
  outer loop
    vertex 0.7322330470336335 53.767766952966355 9.999999999999998
    vertex 6.999999999999998 54.49999999999999 9.999999999999998
    vertex 1.2499999999999978 54.16506350946109 9.999999999999998
  endloop
endfacet
facet normal -2.257177260901224e-16 -6.283828672499676e-17 1.0
  outer loop
    vertex 1.2499999999999978 54.16506350946109 9.999999999999998
    vertex 6.999999999999998 54.49999999999999 9.999999999999998
    vertex 1.8529523872436942 54.41481456572266 9.999999999999998
  endloop
endfacet
facet normal -2.257177260901224e-16 -6.283828672499676e-17 1.0
  outer loop
    vertex 1.8529523872436942 54.41481456572266 9.999999999999998
    vertex 6.999999999999998 54.49999999999999 9.999999999999998
    vertex 2.4999999999999956 54.49999999999999 9.999999999999998
  endloop
endfacet
facet normal -2.257177260901224e-16 -6.283828672499676e-17 1.0
  outer loop
    vertex 0.7322330470336335 50.23223304703363 9.999999999999998
    vertex 2.085889527835941 50.45451867793749 9.999999999999998
    vertex 0.3349364905389003 50.75 9.999999999999998
  endloop
endfacet
facet normal -2.257177260901224e-16 -6.283828672499676e-17 1.0
  outer loop
    vertex 2.085889527835941 50.45451867793749 9.999999999999998
    vertex 0.7322330470336335 50.23223304703363 9.999999999999998
    vertex 2.4999999999999956 50.4 9.999999999999998
  endloop
endfacet
facet normal -2.257177260901224e-16 -6.283828672499676e-17 1.0
  outer loop
    vertex 0.3349364905389003 50.75 9.999999999999998
    vertex 2.085889527835941 50.45451867793749 9.999999999999998
    vertex 1.6999999999999968 50.614359353944884 9.999999999999998
  endloop
endfacet
facet normal -2.257177260901224e-16 -6.283828672499676e-17 1.0
  outer loop
    vertex 0.3349364905389003 50.75 9.999999999999998
    vertex 1.6999999999999968 50.614359353944884 9.999999999999998
    vertex 1.3686291501014805 50.868629150101526 9.999999999999998
  endloop
endfacet
facet normal -2.257177260901224e-16 -6.283828672499676e-17 1.0
  outer loop
    vertex 0.3349364905389003 50.75 9.999999999999998
    vertex 1.3686291501014805 50.868629150101526 9.999999999999998
    vertex 0.0851854342773322 51.3529523872437 9.999999999999998
  endloop
endfacet
facet normal -2.257177260901224e-16 -6.283828672499676e-17 1.0
  outer loop
    vertex 0.0851854342773322 51.3529523872437 9.999999999999998
    vertex 1.3686291501014805 50.868629150101526 9.999999999999998
    vertex 1.1143593539448657 51.199999999999996 9.999999999999998
  endloop
endfacet
facet normal -2.257177260901224e-16 -6.283828672499676e-17 1.0
  outer loop
    vertex 0.0851854342773322 51.3529523872437 9.999999999999998
    vertex 1.1143593539448657 51.199999999999996 9.999999999999998
    vertex 0.954518677937426 51.58588952783596 9.999999999999998
  endloop
endfacet
facet normal -2.257177260901224e-16 -6.283828672499676e-17 1.0
  outer loop
    vertex 0.0851854342773322 51.3529523872437 9.999999999999998
    vertex 0.954518677937426 51.58588952783596 9.999999999999998
    vertex 0.0 51.99999999999999 9.999999999999998
  endloop
endfacet
facet normal -2.257177260901224e-16 -6.283828672499676e-17 1.0
  outer loop
    vertex 0.0 51.99999999999999 9.999999999999998
    vertex 0.954518677937426 51.58588952783596 9.999999999999998
    vertex 0.8999999999999984 51.99999999999999 9.999999999999998
  endloop
endfacet
facet normal -2.257177260901224e-16 -6.283828672499676e-17 1.0
  outer loop
    vertex 0.0 51.99999999999999 9.999999999999998
    vertex 0.8999999999999984 51.99999999999999 9.999999999999998
    vertex 0.954518677937426 52.414110472164026 9.999999999999998
  endloop
endfacet
facet normal -2.257177260901224e-16 -6.283828672499676e-17 1.0
  outer loop
    vertex 0.0 51.99999999999999 9.999999999999998
    vertex 0.954518677937426 52.414110472164026 9.999999999999998
    vertex 0.0851854342773322 52.647047612756296 9.999999999999998
  endloop
endfacet
facet normal -2.257177260901224e-16 -6.283828672499676e-17 1.0
  outer loop
    vertex 0.0851854342773322 52.647047612756296 9.999999999999998
    vertex 0.954518677937426 52.414110472164026 9.999999999999998
    vertex 1.1143593539448657 52.79999999999999 9.999999999999998
  endloop
endfacet
facet normal -2.257177260901224e-16 -6.283828672499676e-17 1.0
  outer loop
    vertex 0.0851854342773322 52.647047612756296 9.999999999999998
    vertex 1.1143593539448657 52.79999999999999 9.999999999999998
    vertex 0.3349364905389003 53.24999999999999 9.999999999999998
  endloop
endfacet
facet normal -2.257177260901224e-16 -6.283828672499676e-17 1.0
  outer loop
    vertex 0.3349364905389003 53.24999999999999 9.999999999999998
    vertex 1.1143593539448657 52.79999999999999 9.999999999999998
    vertex 1.3686291501014805 53.13137084989849 9.999999999999998
  endloop
endfacet
facet normal -2.257177260901224e-16 -6.283828672499676e-17 1.0
  outer loop
    vertex 0.3349364905389003 53.24999999999999 9.999999999999998
    vertex 1.3686291501014805 53.13137084989849 9.999999999999998
    vertex 1.6999999999999968 53.3856406460551 9.999999999999998
  endloop
endfacet
facet normal -2.257177260901224e-16 -6.283828672499676e-17 1.0
  outer loop
    vertex 0.3349364905389003 53.24999999999999 9.999999999999998
    vertex 1.6999999999999968 53.3856406460551 9.999999999999998
    vertex 0.7322330470336335 53.767766952966355 9.999999999999998
  endloop
endfacet
facet normal -2.257177260901224e-16 -6.283828672499676e-17 1.0
  outer loop
    vertex 0.7322330470336335 53.767766952966355 9.999999999999998
    vertex 1.6999999999999968 53.3856406460551 9.999999999999998
    vertex 2.085889527835941 53.54548132206252 9.999999999999998
  endloop
endfacet
facet normal -2.257177260901224e-16 -6.283828672499676e-17 1.0
  outer loop
    vertex 0.7322330470336335 53.767766952966355 9.999999999999998
    vertex 2.085889527835941 53.54548132206252 9.999999999999998
    vertex 2.4999999999999956 53.599999999999994 9.999999999999998
  endloop
endfacet
facet normal -2.257177260901224e-16 -6.283828672499676e-17 1.0
  outer loop
    vertex 0.732233047033656 0.7322330470336292 9.999999999999993
    vertex 2.0858895278359637 0.9545186779374824 9.999999999999998
    vertex 0.3349364905389229 1.2499999999999962 9.999999999999993
  endloop
endfacet
facet normal -2.257177260901224e-16 -6.283828672499676e-17 1.0
  outer loop
    vertex 2.0858895278359637 0.9545186779374824 9.999999999999998
    vertex 0.732233047033656 0.7322330470336292 9.999999999999993
    vertex 2.5000000000000178 0.8999999999999984 9.999999999999998
  endloop
endfacet
facet normal -2.257177260901224e-16 -6.283828672499676e-17 1.0
  outer loop
    vertex 0.3349364905389229 1.2499999999999962 9.999999999999993
    vertex 2.0858895278359637 0.9545186779374824 9.999999999999998
    vertex 1.7000000000000195 1.1143593539448995 9.999999999999998
  endloop
endfacet
facet normal -2.257177260901224e-16 -6.283828672499676e-17 1.0
  outer loop
    vertex 0.3349364905389229 1.2499999999999962 9.999999999999993
    vertex 1.7000000000000195 1.1143593539448995 9.999999999999998
    vertex 1.368629150101503 1.3686291501015142 9.999999999999998
  endloop
endfacet
facet normal -2.257177260901224e-16 -6.283828672499676e-17 1.0
  outer loop
    vertex 0.3349364905389229 1.2499999999999962 9.999999999999993
    vertex 1.368629150101503 1.3686291501015142 9.999999999999998
    vertex 0.08518543427735475 1.8529523872436942 9.999999999999993
  endloop
endfacet
facet normal -2.257177260901224e-16 -6.283828672499676e-17 1.0
  outer loop
    vertex 0.08518543427735475 1.8529523872436942 9.999999999999993
    vertex 1.368629150101503 1.3686291501015142 9.999999999999998
    vertex 1.1143593539448882 1.6999999999999955 9.999999999999998
  endloop
endfacet
facet normal -2.257177260901224e-16 -6.283828672499676e-17 1.0
  outer loop
    vertex 0.08518543427735475 1.8529523872436942 9.999999999999993
    vertex 1.1143593539448882 1.6999999999999955 9.999999999999998
    vertex 0.9545186779374486 2.085889527835962 9.999999999999998
  endloop
endfacet
facet normal -2.257177260901224e-16 -6.283828672499676e-17 1.0
  outer loop
    vertex 0.08518543427735475 1.8529523872436942 9.999999999999993
    vertex 0.9545186779374486 2.085889527835962 9.999999999999998
    vertex 2.255973186038318e-14 2.4999999999999942 9.999999999999998
  endloop
endfacet
facet normal -2.257177260901224e-16 -6.283828672499676e-17 1.0
  outer loop
    vertex 2.255973186038318e-14 2.4999999999999942 9.999999999999998
    vertex 0.9545186779374486 2.085889527835962 9.999999999999998
    vertex 0.9000000000000209 2.4999999999999942 9.999999999999998
  endloop
endfacet
facet normal -2.257177260901224e-16 -6.283828672499676e-17 1.0
  outer loop
    vertex 2.255973186038318e-14 2.4999999999999942 9.999999999999998
    vertex 0.9000000000000209 2.4999999999999942 9.999999999999998
    vertex 0.9545186779374486 2.914110472164026 9.999999999999998
  endloop
endfacet
facet normal -2.257177260901224e-16 -6.283828672499676e-17 1.0
  outer loop
    vertex 2.255973186038318e-14 2.4999999999999942 9.999999999999998
    vertex 0.9545186779374486 2.914110472164026 9.999999999999998
    vertex 0.08518543427735475 3.147047612756295 9.999999999999998
  endloop
endfacet
facet normal -2.257177260901224e-16 -6.283828672499676e-17 1.0
  outer loop
    vertex 0.08518543427735475 3.147047612756295 9.999999999999998
    vertex 0.9545186779374486 2.914110472164026 9.999999999999998
    vertex 1.1143593539448882 3.2999999999999927 9.999999999999998
  endloop
endfacet
facet normal -2.257177260901224e-16 -6.283828672499676e-17 1.0
  outer loop
    vertex 0.08518543427735475 3.147047612756295 9.999999999999998
    vertex 1.1143593539448882 3.2999999999999927 9.999999999999998
    vertex 0.3349364905389229 3.7499999999999933 9.999999999999998
  endloop
endfacet
facet normal -2.257177260901224e-16 -6.283828672499676e-17 1.0
  outer loop
    vertex 0.3349364905389229 3.7499999999999933 9.999999999999998
    vertex 1.1143593539448882 3.2999999999999927 9.999999999999998
    vertex 1.368629150101503 3.6313708498984765 9.999999999999998
  endloop
endfacet
facet normal -2.257177260901224e-16 -6.283828672499676e-17 1.0
  outer loop
    vertex 0.3349364905389229 3.7499999999999933 9.999999999999998
    vertex 1.368629150101503 3.6313708498984765 9.999999999999998
    vertex 1.7000000000000195 3.885640646055091 9.999999999999998
  endloop
endfacet
facet normal -2.257177260901224e-16 -6.283828672499676e-17 1.0
  outer loop
    vertex 0.3349364905389229 3.7499999999999933 9.999999999999998
    vertex 1.7000000000000195 3.885640646055091 9.999999999999998
    vertex 0.732233047033656 4.267766952966362 9.999999999999998
  endloop
endfacet
facet normal -2.257177260901224e-16 -6.283828672499676e-17 1.0
  outer loop
    vertex 0.732233047033656 4.267766952966362 9.999999999999998
    vertex 1.7000000000000195 3.885640646055091 9.999999999999998
    vertex 2.0858895278359637 4.045481322062509 9.999999999999998
  endloop
endfacet
facet normal -2.257177260901224e-16 -6.283828672499676e-17 1.0
  outer loop
    vertex 0.732233047033656 4.267766952966362 9.999999999999998
    vertex 2.0858895278359637 4.045481322062509 9.999999999999998
    vertex 2.5000000000000178 4.0999999999999925 9.999999999999998
  endloop
endfacet
facet normal -2.257177260901224e-16 -6.283828672499676e-17 1.0
  outer loop
    vertex 5.000000000000002 12.000000000000002 9.999999999999998
    vertex 5.000000000000013 4.999999999999992 9.999999999999998
    vertex 6.0 12.000000000000002 9.999999999999998
  endloop
endfacet
facet normal -2.257177260901224e-16 -6.283828672499676e-17 1.0
  outer loop
    vertex 2.5000000000000178 4.999999999999989 9.999999999999998
    vertex 1.8529523872437168 4.91481456572266 9.999999999999998
    vertex 5.000000000000013 4.999999999999992 9.999999999999998
  endloop
endfacet
endsolid SIOST-Standoff
