solid SIOST-KBCover
facet normal -1.0 6.523250186303262e-16 1.1799820253747937e-16
  outer loop
    vertex 6.100000000000168 1.900000000000062 -3.0
    vertex 6.100000000000168 2.2235428646924995 -5.897777478867205
    vertex 6.100000000000168 1.500000000000062 -5.598076211353316
  endloop
endfacet
facet normal -1.0 6.523250186303262e-16 1.1799820253747937e-16
  outer loop
    vertex 6.100000000000168 2.2235428646924995 -5.897777478867205
    vertex 6.100000000000168 1.900000000000062 -3.0
    vertex 6.100000000000168 1.9374815910820873 -3.284700949612774
  endloop
endfacet
facet normal -1.0 6.523250186303262e-16 1.1799820253747937e-16
  outer loop
    vertex 6.100000000000168 2.2235428646924995 -5.897777478867205
    vertex 6.100000000000168 1.9374815910820873 -3.284700949612774
    vertex 6.100000000000168 2.04737205583718 -3.5500000000000007
  endloop
endfacet
facet normal -1.0 6.523250186303262e-16 1.1799820253747937e-16
  outer loop
    vertex 6.100000000000168 2.2235428646924995 -5.897777478867205
    vertex 6.100000000000168 2.04737205583718 -3.5500000000000007
    vertex 6.100000000000168 2.22218254069486 -3.7778174593052025
  endloop
endfacet
facet normal -1.0 6.523250186303262e-16 1.1799820253747937e-16
  outer loop
    vertex 6.100000000000168 2.2235428646924995 -5.897777478867205
    vertex 6.100000000000168 2.22218254069486 -3.7778174593052025
    vertex 6.100000000000168 2.450000000000063 -3.9526279441628835
  endloop
endfacet
facet normal -1.0 6.523250186303262e-16 1.1799820253747937e-16
  outer loop
    vertex 6.100000000000168 2.2235428646924995 -5.897777478867205
    vertex 6.100000000000168 2.450000000000063 -3.9526279441628835
    vertex 6.100000000000168 3.0000000000000617 -6.0
  endloop
endfacet
facet normal -1.0 6.523250186303262e-16 1.1799820253747937e-16
  outer loop
    vertex 6.100000000000168 3.0000000000000617 -6.0
    vertex 6.100000000000168 2.450000000000063 -3.9526279441628835
    vertex 6.100000000000168 2.71529905038729 -4.062518408917976
  endloop
endfacet
facet normal -1.0 6.523250186303262e-16 1.1799820253747937e-16
  outer loop
    vertex 6.100000000000168 3.0000000000000617 -6.0
    vertex 6.100000000000168 2.71529905038729 -4.062518408917976
    vertex 6.100000000000168 3.0000000000000626 -4.1000000000000005
  endloop
endfacet
facet normal -1.0 6.523250186303262e-16 1.1799820253747937e-16
  outer loop
    vertex 6.100000000000168 3.0000000000000617 -6.0
    vertex 6.100000000000168 3.0000000000000626 -4.1000000000000005
    vertex 6.100000000000168 3.776457135307624 -5.897777478867205
  endloop
endfacet
facet normal -1.0 6.523250186303262e-16 1.1799820253747937e-16
  outer loop
    vertex 6.100000000000168 3.776457135307624 -5.897777478867205
    vertex 6.100000000000168 3.0000000000000626 -4.1000000000000005
    vertex 6.100000000000168 3.2847009496128354 -4.062518408917975
  endloop
endfacet
facet normal -1.0 6.523250186303262e-16 1.1799820253747937e-16
  outer loop
    vertex 6.100000000000168 3.776457135307624 -5.897777478867205
    vertex 6.100000000000168 3.2847009496128354 -4.062518408917975
    vertex 6.100000000000168 3.5500000000000624 -3.9526279441628827
  endloop
endfacet
facet normal -1.0 6.523250186303262e-16 1.1799820253747937e-16
  outer loop
    vertex 6.100000000000168 3.776457135307624 -5.897777478867205
    vertex 6.100000000000168 3.5500000000000624 -3.9526279441628827
    vertex 6.100000000000168 3.777817459305265 -3.7778174593052025
  endloop
endfacet
facet normal -1.0 6.523250186303262e-16 1.1799820253747937e-16
  outer loop
    vertex 6.100000000000168 3.776457135307624 -5.897777478867205
    vertex 6.100000000000168 3.777817459305265 -3.7778174593052025
    vertex 6.100000000000168 4.500000000000061 -5.598076211353316
  endloop
endfacet
facet normal -1.0 6.523250186303262e-16 1.1799820253747937e-16
  outer loop
    vertex 6.100000000000168 4.500000000000061 -5.598076211353316
    vertex 6.100000000000168 3.777817459305265 -3.7778174593052025
    vertex 6.100000000000168 3.952627944162945 -3.55
  endloop
endfacet
facet normal -1.0 6.523250186303262e-16 1.1799820253747937e-16
  outer loop
    vertex 6.100000000000168 4.500000000000061 -5.598076211353316
    vertex 6.100000000000168 3.952627944162945 -3.55
    vertex 6.100000000000168 4.062518408918038 -3.284700949612773
  endloop
endfacet
facet normal -1.0 6.523250186303262e-16 1.1799820253747937e-16
  outer loop
    vertex 6.100000000000168 4.500000000000061 -5.598076211353316
    vertex 6.100000000000168 4.062518408918038 -3.284700949612773
    vertex 6.100000000000168 4.100000000000063 -3.0
  endloop
endfacet
facet normal -1.0 6.523250186303262e-16 1.1799820253747937e-16
  outer loop
    vertex 6.100000000000168 6.203926261605374e-14 0.24999999999999672
    vertex 6.100000000000168 6.000000000000062 0.0
    vertex 6.100000000000168 6.203926261605374e-14 -3.0
  endloop
endfacet
facet normal -1.0 6.523250186303262e-16 1.1799820253747937e-16
  outer loop
    vertex 6.100000000000168 6.000000000000062 0.0
    vertex 6.100000000000168 6.203926261605374e-14 0.24999999999999672
    vertex 6.100000000000194 39.900000000000276 0.24999999999999672
  endloop
endfacet
facet normal -1.0 6.523250186303262e-16 1.1799820253747937e-16
  outer loop
    vertex 6.100000000000168 6.203926261605374e-14 -3.0
    vertex 6.100000000000168 6.000000000000062 0.0
    vertex 6.100000000000168 2.4500000000000624 -2.0473720558371173
  endloop
endfacet
facet normal -1.0 6.523250186303262e-16 1.1799820253747937e-16
  outer loop
    vertex 6.100000000000168 6.203926261605374e-14 -3.0
    vertex 6.100000000000168 2.4500000000000624 -2.0473720558371173
    vertex 6.100000000000168 0.10222252113285729 -3.776457135307562
  endloop
endfacet
facet normal -1.0 6.523250186303262e-16 1.1799820253747937e-16
  outer loop
    vertex 6.100000000000168 0.10222252113285729 -3.776457135307562
    vertex 6.100000000000168 2.4500000000000624 -2.0473720558371173
    vertex 6.100000000000168 2.22218254069486 -2.222182540694798
  endloop
endfacet
facet normal -1.0 6.523250186303262e-16 1.1799820253747937e-16
  outer loop
    vertex 6.100000000000168 0.10222252113285729 -3.776457135307562
    vertex 6.100000000000168 2.22218254069486 -2.222182540694798
    vertex 6.100000000000168 0.40192378864674644 -4.5
  endloop
endfacet
facet normal -1.0 6.523250186303262e-16 1.1799820253747937e-16
  outer loop
    vertex 6.100000000000168 0.40192378864674644 -4.5
    vertex 6.100000000000168 2.22218254069486 -2.222182540694798
    vertex 6.100000000000168 2.0473720558371795 -2.45
  endloop
endfacet
facet normal -1.0 6.523250186303262e-16 1.1799820253747937e-16
  outer loop
    vertex 6.100000000000168 0.40192378864674644 -4.5
    vertex 6.100000000000168 2.0473720558371795 -2.45
    vertex 6.100000000000168 0.8786796564404196 -5.121320343559643
  endloop
endfacet
facet normal -1.0 6.523250186303262e-16 1.1799820253747937e-16
  outer loop
    vertex 6.100000000000168 0.8786796564404196 -5.121320343559643
    vertex 6.100000000000168 2.0473720558371795 -2.45
    vertex 6.100000000000168 1.9374815910820868 -2.7152990503872276
  endloop
endfacet
facet normal -1.0 6.523250186303262e-16 1.1799820253747937e-16
  outer loop
    vertex 6.100000000000168 0.8786796564404196 -5.121320343559643
    vertex 6.100000000000168 1.9374815910820868 -2.7152990503872276
    vertex 6.100000000000168 1.500000000000062 -5.598076211353316
  endloop
endfacet
facet normal -1.0 6.523250186303262e-16 1.1799820253747937e-16
  outer loop
    vertex 6.100000000000168 1.500000000000062 -5.598076211353316
    vertex 6.100000000000168 1.9374815910820868 -2.7152990503872276
    vertex 6.100000000000168 1.900000000000062 -3.0
  endloop
endfacet
facet normal -1.0 6.523250186303262e-16 1.1799820253747937e-16
  outer loop
    vertex 6.100000000000168 2.4500000000000624 -2.0473720558371173
    vertex 6.100000000000168 6.000000000000062 0.0
    vertex 6.100000000000168 2.7152990503872894 -1.9374815910820253
  endloop
endfacet
facet normal -1.0 6.523250186303262e-16 1.1799820253747937e-16
  outer loop
    vertex 6.100000000000168 2.7152990503872894 -1.9374815910820253
    vertex 6.100000000000168 6.000000000000062 0.0
    vertex 6.100000000000168 3.000000000000062 -1.9000000000000001
  endloop
endfacet
facet normal -1.0 6.523250186303262e-16 1.1799820253747937e-16
  outer loop
    vertex 6.100000000000168 3.000000000000062 -1.9000000000000001
    vertex 6.100000000000168 6.000000000000062 0.0
    vertex 6.100000000000168 3.284700949612835 -1.937481591082025
  endloop
endfacet
facet normal -1.0 6.523250186303262e-16 1.1799820253747937e-16
  outer loop
    vertex 6.100000000000168 3.284700949612835 -1.937481591082025
    vertex 6.100000000000168 6.000000000000062 0.0
    vertex 6.100000000000168 3.550000000000062 -2.0473720558371173
  endloop
endfacet
facet normal -1.0 6.523250186303262e-16 1.1799820253747937e-16
  outer loop
    vertex 6.100000000000168 3.550000000000062 -2.0473720558371173
    vertex 6.100000000000168 6.000000000000062 0.0
    vertex 6.100000000000168 3.7778174593052642 -2.222182540694798
  endloop
endfacet
facet normal -1.0 6.523250186303262e-16 1.1799820253747937e-16
  outer loop
    vertex 6.100000000000168 3.7778174593052642 -2.222182540694798
    vertex 6.100000000000168 6.000000000000062 0.0
    vertex 6.100000000000168 3.952627944162945 -2.4499999999999997
  endloop
endfacet
facet normal -1.0 6.523250186303262e-16 1.1799820253747937e-16
  outer loop
    vertex 6.100000000000168 3.952627944162945 -2.4499999999999997
    vertex 6.100000000000168 6.000000000000062 0.0
    vertex 6.100000000000168 4.062518408918037 -2.715299050387227
  endloop
endfacet
facet normal -1.0 6.523250186303262e-16 1.1799820253747937e-16
  outer loop
    vertex 6.100000000000168 4.062518408918037 -2.715299050387227
    vertex 6.100000000000168 6.000000000000062 0.0
    vertex 6.100000000000168 4.100000000000063 -3.0
  endloop
endfacet
facet normal -1.0 6.523250186303262e-16 1.1799820253747937e-16
  outer loop
    vertex 6.100000000000168 4.100000000000063 -3.0
    vertex 6.100000000000168 6.000000000000062 0.0
    vertex 6.100000000000168 4.500000000000061 -5.598076211353316
  endloop
endfacet
facet normal -1.0 6.523250186303262e-16 1.1799820253747937e-16
  outer loop
    vertex 6.100000000000168 4.500000000000061 -5.598076211353316
    vertex 6.100000000000168 6.000000000000062 0.0
    vertex 6.100000000000168 5.121320343559704 -5.121320343559643
  endloop
endfacet
facet normal -1.0 6.523250186303262e-16 1.1799820253747937e-16
  outer loop
    vertex 6.100000000000168 5.121320343559704 -5.121320343559643
    vertex 6.100000000000168 6.000000000000062 0.0
    vertex 6.100000000000168 5.598076211353377 -4.500000000000002
  endloop
endfacet
facet normal -1.0 6.523250186303262e-16 1.1799820253747937e-16
  outer loop
    vertex 6.100000000000168 5.598076211353377 -4.500000000000002
    vertex 6.100000000000168 6.000000000000062 0.0
    vertex 6.100000000000168 5.897777478867267 -3.7764571353075636
  endloop
endfacet
facet normal -1.0 6.523250186303262e-16 1.1799820253747937e-16
  outer loop
    vertex 6.100000000000168 6.000000000000062 0.0
    vertex 6.100000000000194 39.900000000000276 0.24999999999999672
    vertex 6.100000000000194 39.900000000000276 0.0
  endloop
endfacet
facet normal -1.0 6.523250186303262e-16 1.1799820253747937e-16
  outer loop
    vertex 6.100000000000168 6.000000000000062 -3.0000000000000004
    vertex 6.100000000000168 5.897777478867267 -3.7764571353075636
    vertex 6.100000000000168 6.000000000000062 0.0
  endloop
endfacet
facet normal 0.7071067811865493 -1.4854506067138522e-15 -0.7071067811865458
  outer loop
    vertex 44.900000000000205 39.900000000000254 0.24999999999999672
    vertex 45.650000000000176 2.664868326007763e-13 1.0000000000000546
    vertex 44.900000000000176 2.664868326007763e-13 0.2500000000000531
  endloop
endfacet
facet normal 0.7071067811865493 -1.4854506067138522e-15 -0.7071067811865458
  outer loop
    vertex 45.650000000000176 2.664868326007763e-13 1.0000000000000546
    vertex 44.900000000000205 39.900000000000254 0.24999999999999672
    vertex 45.650000000000205 40.65000000000026 0.9999999999999981
  endloop
endfacet
facet normal -0.707106781186548 4.506288200951515e-16 -0.707106781186547
  outer loop
    vertex 5.350000000000168 6.767919558114953e-14 0.9999999999999981
    vertex 6.100000000000194 39.900000000000276 0.24999999999999672
    vertex 6.100000000000168 6.203926261605374e-14 0.24999999999999672
  endloop
endfacet
facet normal -0.707106781186548 4.506288200951515e-16 -0.707106781186547
  outer loop
    vertex 6.100000000000194 39.900000000000276 0.24999999999999672
    vertex 5.350000000000168 6.767919558114953e-14 0.9999999999999981
    vertex 5.850000000000191 35.850000000000236 0.5000000000000019
  endloop
endfacet
facet normal -0.707106781186548 4.506288200951515e-16 -0.707106781186547
  outer loop
    vertex 5.850000000000191 35.850000000000236 0.5000000000000019
    vertex 5.350000000000168 6.767919558114953e-14 0.9999999999999981
    vertex 5.350000000000194 35.850000000000236 0.9999999999999953
  endloop
endfacet
facet normal -0.707106781186548 4.506288200951515e-16 -0.707106781186547
  outer loop
    vertex 6.100000000000194 39.900000000000276 0.24999999999999672
    vertex 5.850000000000191 35.850000000000236 0.5000000000000019
    vertex 5.850000000000187 40.150000000000254 0.5000000000000019
  endloop
endfacet
facet normal 1.0 -5.022899317995613e-16 4.705678078401367e-16
  outer loop
    vertex 44.90000000000019 2.2235428646924995 -5.897777478867205
    vertex 44.90000000000019 1.900000000000062 -3.0
    vertex 44.90000000000019 1.500000000000062 -5.598076211353316
  endloop
endfacet
facet normal 1.0 -5.022899317995613e-16 4.705678078401367e-16
  outer loop
    vertex 44.90000000000019 1.900000000000062 -3.0
    vertex 44.90000000000019 2.2235428646924995 -5.897777478867205
    vertex 44.90000000000019 1.9374815910820873 -3.284700949612774
  endloop
endfacet
facet normal 1.0 -5.022899317995613e-16 4.705678078401367e-16
  outer loop
    vertex 44.90000000000019 1.9374815910820873 -3.284700949612774
    vertex 44.90000000000019 2.2235428646924995 -5.897777478867205
    vertex 44.90000000000019 2.04737205583718 -3.5500000000000007
  endloop
endfacet
facet normal 1.0 -5.022899317995613e-16 4.705678078401367e-16
  outer loop
    vertex 44.90000000000019 2.04737205583718 -3.5500000000000007
    vertex 44.90000000000019 2.2235428646924995 -5.897777478867205
    vertex 44.90000000000019 2.22218254069486 -3.7778174593052025
  endloop
endfacet
facet normal 1.0 -5.022899317995613e-16 4.705678078401367e-16
  outer loop
    vertex 44.90000000000019 2.22218254069486 -3.7778174593052025
    vertex 44.90000000000019 2.2235428646924995 -5.897777478867205
    vertex 44.90000000000019 2.450000000000063 -3.9526279441628835
  endloop
endfacet
facet normal 1.0 -5.022899317995613e-16 4.705678078401367e-16
  outer loop
    vertex 44.90000000000019 2.450000000000063 -3.9526279441628835
    vertex 44.90000000000019 2.2235428646924995 -5.897777478867205
    vertex 44.90000000000019 3.0000000000000617 -6.0
  endloop
endfacet
facet normal 1.0 -5.022899317995613e-16 4.705678078401367e-16
  outer loop
    vertex 44.90000000000019 2.450000000000063 -3.9526279441628835
    vertex 44.90000000000019 3.0000000000000617 -6.0
    vertex 44.90000000000019 2.71529905038729 -4.062518408917976
  endloop
endfacet
facet normal 1.0 -5.022899317995613e-16 4.705678078401367e-16
  outer loop
    vertex 44.90000000000019 2.71529905038729 -4.062518408917976
    vertex 44.90000000000019 3.0000000000000617 -6.0
    vertex 44.90000000000019 3.0000000000000626 -4.1000000000000005
  endloop
endfacet
facet normal 1.0 -5.022899317995613e-16 4.705678078401367e-16
  outer loop
    vertex 44.90000000000019 3.0000000000000626 -4.1000000000000005
    vertex 44.90000000000019 3.0000000000000617 -6.0
    vertex 44.90000000000019 3.776457135307624 -5.897777478867205
  endloop
endfacet
facet normal 1.0 -5.022899317995613e-16 4.705678078401367e-16
  outer loop
    vertex 44.90000000000019 3.0000000000000626 -4.1000000000000005
    vertex 44.90000000000019 3.776457135307624 -5.897777478867205
    vertex 44.90000000000019 3.2847009496128354 -4.062518408917975
  endloop
endfacet
facet normal 1.0 -5.022899317995613e-16 4.705678078401367e-16
  outer loop
    vertex 44.90000000000019 3.2847009496128354 -4.062518408917975
    vertex 44.90000000000019 3.776457135307624 -5.897777478867205
    vertex 44.90000000000019 3.5500000000000624 -3.9526279441628827
  endloop
endfacet
facet normal 1.0 -5.022899317995613e-16 4.705678078401367e-16
  outer loop
    vertex 44.90000000000019 3.5500000000000624 -3.9526279441628827
    vertex 44.90000000000019 3.776457135307624 -5.897777478867205
    vertex 44.90000000000019 3.777817459305265 -3.7778174593052025
  endloop
endfacet
facet normal 1.0 -5.022899317995613e-16 4.705678078401367e-16
  outer loop
    vertex 44.90000000000019 3.777817459305265 -3.7778174593052025
    vertex 44.90000000000019 3.776457135307624 -5.897777478867205
    vertex 44.90000000000019 4.500000000000061 -5.598076211353316
  endloop
endfacet
facet normal 1.0 -5.022899317995613e-16 4.705678078401367e-16
  outer loop
    vertex 44.90000000000019 3.777817459305265 -3.7778174593052025
    vertex 44.90000000000019 4.500000000000061 -5.598076211353316
    vertex 44.90000000000019 3.952627944162945 -3.55
  endloop
endfacet
facet normal 1.0 -5.022899317995613e-16 4.705678078401367e-16
  outer loop
    vertex 44.90000000000019 3.952627944162945 -3.55
    vertex 44.90000000000019 4.500000000000061 -5.598076211353316
    vertex 44.90000000000019 4.062518408918038 -3.284700949612773
  endloop
endfacet
facet normal 1.0 -5.022899317995613e-16 4.705678078401367e-16
  outer loop
    vertex 44.90000000000019 4.062518408918038 -3.284700949612773
    vertex 44.90000000000019 4.500000000000061 -5.598076211353316
    vertex 44.90000000000019 4.100000000000063 -3.0
  endloop
endfacet
facet normal 1.0 -5.022899317995613e-16 4.705678078401367e-16
  outer loop
    vertex 44.90000000000019 0.10222252113285729 -3.776457135307562
    vertex 44.900000000000176 2.664868326007763e-13 0.2500000000000531
    vertex 44.90000000000019 6.203926261605374e-14 -3.0
  endloop
endfacet
facet normal 1.0 -5.022899317995613e-16 4.705678078401367e-16
  outer loop
    vertex 44.900000000000176 2.664868326007763e-13 0.2500000000000531
    vertex 44.90000000000019 0.10222252113285729 -3.776457135307562
    vertex 44.90000000000019 2.4500000000000624 -2.0473720558371173
  endloop
endfacet
facet normal 1.0 -5.022899317995613e-16 4.705678078401367e-16
  outer loop
    vertex 44.900000000000176 2.664868326007763e-13 0.2500000000000531
    vertex 44.90000000000019 2.4500000000000624 -2.0473720558371173
    vertex 44.90000000000019 6.000000000000062 0.0
  endloop
endfacet
facet normal 1.0 -5.022899317995613e-16 4.705678078401367e-16
  outer loop
    vertex 44.900000000000176 2.664868326007763e-13 0.2500000000000531
    vertex 44.90000000000019 6.000000000000062 0.0
    vertex 44.900000000000205 39.900000000000254 0.24999999999999672
  endloop
endfacet
facet normal 1.0 -5.022899317995613e-16 4.705678078401367e-16
  outer loop
    vertex 44.90000000000019 2.4500000000000624 -2.0473720558371173
    vertex 44.90000000000019 0.10222252113285729 -3.776457135307562
    vertex 44.90000000000019 2.22218254069486 -2.222182540694798
  endloop
endfacet
facet normal 1.0 -5.022899317995613e-16 4.705678078401367e-16
  outer loop
    vertex 44.90000000000019 2.22218254069486 -2.222182540694798
    vertex 44.90000000000019 0.10222252113285729 -3.776457135307562
    vertex 44.90000000000019 0.40192378864674644 -4.5
  endloop
endfacet
facet normal 1.0 -5.022899317995613e-16 4.705678078401367e-16
  outer loop
    vertex 44.90000000000019 2.22218254069486 -2.222182540694798
    vertex 44.90000000000019 0.40192378864674644 -4.5
    vertex 44.90000000000019 2.0473720558371795 -2.45
  endloop
endfacet
facet normal 1.0 -5.022899317995613e-16 4.705678078401367e-16
  outer loop
    vertex 44.90000000000019 2.0473720558371795 -2.45
    vertex 44.90000000000019 0.40192378864674644 -4.5
    vertex 44.90000000000019 0.8786796564404196 -5.121320343559643
  endloop
endfacet
facet normal 1.0 -5.022899317995613e-16 4.705678078401367e-16
  outer loop
    vertex 44.90000000000019 2.0473720558371795 -2.45
    vertex 44.90000000000019 0.8786796564404196 -5.121320343559643
    vertex 44.90000000000019 1.9374815910820868 -2.7152990503872276
  endloop
endfacet
facet normal 1.0 -5.022899317995613e-16 4.705678078401367e-16
  outer loop
    vertex 44.90000000000019 1.9374815910820868 -2.7152990503872276
    vertex 44.90000000000019 0.8786796564404196 -5.121320343559643
    vertex 44.90000000000019 1.500000000000062 -5.598076211353316
  endloop
endfacet
facet normal 1.0 -5.022899317995613e-16 4.705678078401367e-16
  outer loop
    vertex 44.90000000000019 1.9374815910820868 -2.7152990503872276
    vertex 44.90000000000019 1.500000000000062 -5.598076211353316
    vertex 44.90000000000019 1.900000000000062 -3.0
  endloop
endfacet
facet normal 1.0 -5.022899317995613e-16 4.705678078401367e-16
  outer loop
    vertex 44.90000000000019 6.000000000000062 0.0
    vertex 44.90000000000019 2.4500000000000624 -2.0473720558371173
    vertex 44.90000000000019 2.7152990503872894 -1.9374815910820253
  endloop
endfacet
facet normal 1.0 -5.022899317995613e-16 4.705678078401367e-16
  outer loop
    vertex 44.90000000000019 6.000000000000062 0.0
    vertex 44.90000000000019 2.7152990503872894 -1.9374815910820253
    vertex 44.90000000000019 3.000000000000062 -1.9000000000000001
  endloop
endfacet
facet normal 1.0 -5.022899317995613e-16 4.705678078401367e-16
  outer loop
    vertex 44.90000000000019 6.000000000000062 0.0
    vertex 44.90000000000019 3.000000000000062 -1.9000000000000001
    vertex 44.90000000000019 3.284700949612835 -1.937481591082025
  endloop
endfacet
facet normal 1.0 -5.022899317995613e-16 4.705678078401367e-16
  outer loop
    vertex 44.90000000000019 6.000000000000062 0.0
    vertex 44.90000000000019 3.284700949612835 -1.937481591082025
    vertex 44.90000000000019 3.550000000000062 -2.0473720558371173
  endloop
endfacet
facet normal 1.0 -5.022899317995613e-16 4.705678078401367e-16
  outer loop
    vertex 44.90000000000019 6.000000000000062 0.0
    vertex 44.90000000000019 3.550000000000062 -2.0473720558371173
    vertex 44.90000000000019 3.7778174593052642 -2.222182540694798
  endloop
endfacet
facet normal 1.0 -5.022899317995613e-16 4.705678078401367e-16
  outer loop
    vertex 44.90000000000019 6.000000000000062 0.0
    vertex 44.90000000000019 3.7778174593052642 -2.222182540694798
    vertex 44.90000000000019 3.952627944162945 -2.4499999999999997
  endloop
endfacet
facet normal 1.0 -5.022899317995613e-16 4.705678078401367e-16
  outer loop
    vertex 44.90000000000019 6.000000000000062 0.0
    vertex 44.90000000000019 3.952627944162945 -2.4499999999999997
    vertex 44.90000000000019 4.062518408918037 -2.715299050387227
  endloop
endfacet
facet normal 1.0 -5.022899317995613e-16 4.705678078401367e-16
  outer loop
    vertex 44.90000000000019 6.000000000000062 0.0
    vertex 44.90000000000019 4.062518408918037 -2.715299050387227
    vertex 44.90000000000019 4.100000000000063 -3.0
  endloop
endfacet
facet normal 1.0 -5.022899317995613e-16 4.705678078401367e-16
  outer loop
    vertex 44.90000000000019 6.000000000000062 0.0
    vertex 44.90000000000019 4.100000000000063 -3.0
    vertex 44.90000000000019 4.500000000000061 -5.598076211353316
  endloop
endfacet
facet normal 1.0 -5.022899317995613e-16 4.705678078401367e-16
  outer loop
    vertex 44.90000000000019 6.000000000000062 0.0
    vertex 44.90000000000019 4.500000000000061 -5.598076211353316
    vertex 44.90000000000019 5.121320343559704 -5.121320343559643
  endloop
endfacet
facet normal 1.0 -5.022899317995613e-16 4.705678078401367e-16
  outer loop
    vertex 44.90000000000019 6.000000000000062 0.0
    vertex 44.90000000000019 5.121320343559704 -5.121320343559643
    vertex 44.90000000000019 5.598076211353377 -4.500000000000002
  endloop
endfacet
facet normal 1.0 -5.022899317995613e-16 4.705678078401367e-16
  outer loop
    vertex 44.90000000000019 6.000000000000062 0.0
    vertex 44.90000000000019 5.598076211353377 -4.500000000000002
    vertex 44.90000000000019 5.897777478867267 -3.7764571353075636
  endloop
endfacet
facet normal 1.0 -5.022899317995613e-16 4.705678078401367e-16
  outer loop
    vertex 44.90000000000019 6.000000000000062 0.0
    vertex 44.90000000000019 5.897777478867267 -3.7764571353075636
    vertex 44.90000000000019 6.000000000000062 -3.0000000000000004
  endloop
endfacet
facet normal 1.0 -5.022899317995613e-16 4.705678078401367e-16
  outer loop
    vertex 44.900000000000205 39.900000000000254 0.24999999999999672
    vertex 44.90000000000019 6.000000000000062 0.0
    vertex 44.900000000000205 39.900000000000254 0.0
  endloop
endfacet
facet normal -0.0 0.9914448613738105 -0.13052619222005157
  outer loop
    vertex 6.100000000000168 1.9374815910820868 -2.7152990503872276
    vertex 44.90000000000019 1.900000000000062 -3.0
    vertex 6.100000000000168 1.900000000000062 -3.0
  endloop
endfacet
facet normal -0.0 0.9914448613738105 -0.13052619222005157
  outer loop
    vertex 44.90000000000019 1.900000000000062 -3.0
    vertex 6.100000000000168 1.9374815910820868 -2.7152990503872276
    vertex 44.90000000000019 1.9374815910820868 -2.7152990503872276
  endloop
endfacet
facet normal -0.0 0.7933533402912349 -0.6087614290087212
  outer loop
    vertex 6.100000000000168 5.598076211353377 -4.500000000000002
    vertex 44.90000000000019 5.121320343559704 -5.121320343559643
    vertex 6.100000000000168 5.121320343559704 -5.121320343559643
  endloop
endfacet
facet normal -0.0 0.7933533402912349 -0.6087614290087212
  outer loop
    vertex 44.90000000000019 5.121320343559704 -5.121320343559643
    vertex 6.100000000000168 5.598076211353377 -4.500000000000002
    vertex 44.90000000000019 5.598076211353377 -4.500000000000002
  endloop
endfacet
facet normal -0.0 0.9238795325112867 -0.38268343236509034
  outer loop
    vertex 6.100000000000168 5.897777478867267 -3.7764571353075636
    vertex 44.90000000000019 5.598076211353377 -4.500000000000002
    vertex 6.100000000000168 5.598076211353377 -4.500000000000002
  endloop
endfacet
facet normal -0.0 0.9238795325112867 -0.38268343236509034
  outer loop
    vertex 44.90000000000019 5.598076211353377 -4.500000000000002
    vertex 6.100000000000168 5.897777478867267 -3.7764571353075636
    vertex 44.90000000000019 5.897777478867267 -3.7764571353075636
  endloop
endfacet
facet normal -0.0 0.9914448613738105 -0.13052619222005163
  outer loop
    vertex 6.100000000000168 6.000000000000062 -3.0000000000000004
    vertex 44.90000000000019 5.897777478867267 -3.7764571353075636
    vertex 6.100000000000168 5.897777478867267 -3.7764571353075636
  endloop
endfacet
facet normal -0.0 0.9914448613738105 -0.13052619222005163
  outer loop
    vertex 44.90000000000019 5.897777478867267 -3.7764571353075636
    vertex 6.100000000000168 6.000000000000062 -3.0000000000000004
    vertex 44.90000000000019 6.000000000000062 -3.0000000000000004
  endloop
endfacet
facet normal -0.0 0.6087614290087217 0.7933533402912346
  outer loop
    vertex 44.90000000000019 2.22218254069486 -3.7778174593052025
    vertex 6.100000000000168 2.450000000000063 -3.9526279441628835
    vertex 6.100000000000168 2.22218254069486 -3.7778174593052025
  endloop
endfacet
facet normal -0.0 0.6087614290087217 0.7933533402912346
  outer loop
    vertex 6.100000000000168 2.450000000000063 -3.9526279441628835
    vertex 44.90000000000019 2.22218254069486 -3.7778174593052025
    vertex 44.90000000000019 2.450000000000063 -3.9526279441628835
  endloop
endfacet
facet normal 0.0 0.1305261922200526 -0.9914448613738103
  outer loop
    vertex 44.90000000000019 3.000000000000062 -1.9000000000000001
    vertex 6.100000000000168 2.7152990503872894 -1.9374815910820253
    vertex 6.100000000000168 3.000000000000062 -1.9000000000000001
  endloop
endfacet
facet normal 0.0 0.1305261922200526 -0.9914448613738103
  outer loop
    vertex 6.100000000000168 2.7152990503872894 -1.9374815910820253
    vertex 44.90000000000019 3.000000000000062 -1.9000000000000001
    vertex 44.90000000000019 2.7152990503872894 -1.9374815910820253
  endloop
endfacet
facet normal -0.0 0.9238795325112865 0.3826834323650908
  outer loop
    vertex 6.100000000000168 1.9374815910820873 -3.284700949612774
    vertex 44.90000000000019 2.04737205583718 -3.5500000000000007
    vertex 6.100000000000168 2.04737205583718 -3.5500000000000007
  endloop
endfacet
facet normal -0.0 0.9238795325112865 0.3826834323650908
  outer loop
    vertex 44.90000000000019 2.04737205583718 -3.5500000000000007
    vertex 6.100000000000168 1.9374815910820873 -3.284700949612774
    vertex 44.90000000000019 1.9374815910820873 -3.284700949612774
  endloop
endfacet
facet normal 0.0 -0.7933533402912344 -0.6087614290087219
  outer loop
    vertex 44.90000000000019 3.7778174593052642 -2.222182540694798
    vertex 6.100000000000168 3.952627944162945 -2.4499999999999997
    vertex 44.90000000000019 3.952627944162945 -2.4499999999999997
  endloop
endfacet
facet normal 0.0 -0.7933533402912344 -0.6087614290087219
  outer loop
    vertex 6.100000000000168 3.952627944162945 -2.4499999999999997
    vertex 44.90000000000019 3.7778174593052642 -2.222182540694798
    vertex 6.100000000000168 3.7778174593052642 -2.222182540694798
  endloop
endfacet
facet normal -0.0 0.1305261922200504 0.9914448613738107
  outer loop
    vertex 44.90000000000019 2.71529905038729 -4.062518408917976
    vertex 6.100000000000168 3.0000000000000626 -4.1000000000000005
    vertex 6.100000000000168 2.71529905038729 -4.062518408917976
  endloop
endfacet
facet normal -0.0 0.1305261922200504 0.9914448613738107
  outer loop
    vertex 6.100000000000168 3.0000000000000626 -4.1000000000000005
    vertex 44.90000000000019 2.71529905038729 -4.062518408917976
    vertex 44.90000000000019 3.0000000000000626 -4.1000000000000005
  endloop
endfacet
facet normal -0.0 0.3826834323650889 0.9238795325112873
  outer loop
    vertex 44.90000000000019 2.450000000000063 -3.9526279441628835
    vertex 6.100000000000168 2.71529905038729 -4.062518408917976
    vertex 6.100000000000168 2.450000000000063 -3.9526279441628835
  endloop
endfacet
facet normal -0.0 0.3826834323650889 0.9238795325112873
  outer loop
    vertex 6.100000000000168 2.71529905038729 -4.062518408917976
    vertex 44.90000000000019 2.450000000000063 -3.9526279441628835
    vertex 44.90000000000019 2.71529905038729 -4.062518408917976
  endloop
endfacet
facet normal 0.0 -0.9238795325112863 0.38268343236509095
  outer loop
    vertex 44.90000000000019 4.062518408918038 -3.284700949612773
    vertex 6.100000000000168 3.952627944162945 -3.55
    vertex 44.90000000000019 3.952627944162945 -3.55
  endloop
endfacet
facet normal 0.0 -0.9238795325112863 0.38268343236509095
  outer loop
    vertex 6.100000000000168 3.952627944162945 -3.55
    vertex 44.90000000000019 4.062518408918038 -3.284700949612773
    vertex 6.100000000000168 4.062518408918038 -3.284700949612773
  endloop
endfacet
facet normal -0.0 -0.13052619222005266 0.9914448613738103
  outer loop
    vertex 44.90000000000019 3.0000000000000626 -4.1000000000000005
    vertex 6.100000000000168 3.2847009496128354 -4.062518408917975
    vertex 6.100000000000168 3.0000000000000626 -4.1000000000000005
  endloop
endfacet
facet normal -0.0 -0.13052619222005266 0.9914448613738103
  outer loop
    vertex 6.100000000000168 3.2847009496128354 -4.062518408917975
    vertex 44.90000000000019 3.0000000000000626 -4.1000000000000005
    vertex 44.90000000000019 3.2847009496128354 -4.062518408917975
  endloop
endfacet
facet normal -0.0 0.7933533402912347 -0.6087614290087212
  outer loop
    vertex 6.100000000000168 2.22218254069486 -2.222182540694798
    vertex 44.90000000000019 2.0473720558371795 -2.45
    vertex 6.100000000000168 2.0473720558371795 -2.45
  endloop
endfacet
facet normal -0.0 0.7933533402912347 -0.6087614290087212
  outer loop
    vertex 44.90000000000019 2.0473720558371795 -2.45
    vertex 6.100000000000168 2.22218254069486 -2.222182540694798
    vertex 44.90000000000019 2.22218254069486 -2.222182540694798
  endloop
endfacet
facet normal -0.0 0.9914448613738105 0.13052619222005218
  outer loop
    vertex 6.100000000000168 1.900000000000062 -3.0
    vertex 44.90000000000019 1.9374815910820873 -3.284700949612774
    vertex 6.100000000000168 1.9374815910820873 -3.284700949612774
  endloop
endfacet
facet normal -0.0 0.9914448613738105 0.13052619222005218
  outer loop
    vertex 44.90000000000019 1.9374815910820873 -3.284700949612774
    vertex 6.100000000000168 1.900000000000062 -3.0
    vertex 44.90000000000019 1.900000000000062 -3.0
  endloop
endfacet
facet normal 0.0 -0.38268343236508984 -0.9238795325112867
  outer loop
    vertex 44.90000000000019 3.550000000000062 -2.0473720558371173
    vertex 6.100000000000168 3.284700949612835 -1.937481591082025
    vertex 6.100000000000168 3.550000000000062 -2.0473720558371173
  endloop
endfacet
facet normal 0.0 -0.38268343236508984 -0.9238795325112867
  outer loop
    vertex 6.100000000000168 3.284700949612835 -1.937481591082025
    vertex 44.90000000000019 3.550000000000062 -2.0473720558371173
    vertex 44.90000000000019 3.284700949612835 -1.937481591082025
  endloop
endfacet
facet normal 0.0 -0.13052619222005155 -0.9914448613738105
  outer loop
    vertex 44.90000000000019 3.284700949612835 -1.937481591082025
    vertex 6.100000000000168 3.000000000000062 -1.9000000000000001
    vertex 6.100000000000168 3.284700949612835 -1.937481591082025
  endloop
endfacet
facet normal 0.0 -0.13052619222005155 -0.9914448613738105
  outer loop
    vertex 6.100000000000168 3.000000000000062 -1.9000000000000001
    vertex 44.90000000000019 3.284700949612835 -1.937481591082025
    vertex 44.90000000000019 3.000000000000062 -1.9000000000000001
  endloop
endfacet
facet normal 5.814363881542055e-16 1.0 -0.0
  outer loop
    vertex 6.100000000000194 39.900000000000276 0.24999999999999672
    vertex 44.900000000000205 39.900000000000254 0.0
    vertex 6.100000000000194 39.900000000000276 0.0
  endloop
endfacet
facet normal 5.814363881542055e-16 1.0 -0.0
  outer loop
    vertex 44.900000000000205 39.900000000000254 0.0
    vertex 6.100000000000194 39.900000000000276 0.24999999999999672
    vertex 44.900000000000205 39.900000000000254 0.24999999999999672
  endloop
endfacet
facet normal 0.0 -0.9238795325112875 -0.38268343236508845
  outer loop
    vertex 44.90000000000019 3.952627944162945 -2.4499999999999997
    vertex 6.100000000000168 4.062518408918037 -2.715299050387227
    vertex 44.90000000000019 4.062518408918037 -2.715299050387227
  endloop
endfacet
facet normal 0.0 -0.9238795325112875 -0.38268343236508845
  outer loop
    vertex 6.100000000000168 4.062518408918037 -2.715299050387227
    vertex 44.90000000000019 3.952627944162945 -2.4499999999999997
    vertex 6.100000000000168 3.952627944162945 -2.4499999999999997
  endloop
endfacet
facet normal 0.0 -0.3826834323650897 -0.9238795325112868
  outer loop
    vertex 44.90000000000019 2.2235428646924995 -5.897777478867205
    vertex 6.100000000000168 1.500000000000062 -5.598076211353316
    vertex 6.100000000000168 2.2235428646924995 -5.897777478867205
  endloop
endfacet
facet normal 0.0 -0.3826834323650897 -0.9238795325112868
  outer loop
    vertex 6.100000000000168 1.500000000000062 -5.598076211353316
    vertex 44.90000000000019 2.2235428646924995 -5.897777478867205
    vertex 44.90000000000019 1.500000000000062 -5.598076211353316
  endloop
endfacet
facet normal 0.0 0.6087614290087212 -0.7933533402912347
  outer loop
    vertex 44.90000000000019 2.4500000000000624 -2.0473720558371173
    vertex 6.100000000000168 2.22218254069486 -2.222182540694798
    vertex 6.100000000000168 2.4500000000000624 -2.0473720558371173
  endloop
endfacet
facet normal 0.0 0.6087614290087212 -0.7933533402912347
  outer loop
    vertex 6.100000000000168 2.22218254069486 -2.222182540694798
    vertex 44.90000000000019 2.4500000000000624 -2.0473720558371173
    vertex 44.90000000000019 2.22218254069486 -2.222182540694798
  endloop
endfacet
facet normal 0.0 0.3826834323650889 -0.9238795325112873
  outer loop
    vertex 44.90000000000019 2.7152990503872894 -1.9374815910820253
    vertex 6.100000000000168 2.4500000000000624 -2.0473720558371173
    vertex 6.100000000000168 2.7152990503872894 -1.9374815910820253
  endloop
endfacet
facet normal 0.0 0.3826834323650889 -0.9238795325112873
  outer loop
    vertex 6.100000000000168 2.4500000000000624 -2.0473720558371173
    vertex 44.90000000000019 2.7152990503872894 -1.9374815910820253
    vertex 44.90000000000019 2.4500000000000624 -2.0473720558371173
  endloop
endfacet
facet normal 0.0 0.6087614290087202 -0.7933533402912357
  outer loop
    vertex 44.90000000000019 5.121320343559704 -5.121320343559643
    vertex 6.100000000000168 4.500000000000061 -5.598076211353316
    vertex 6.100000000000168 5.121320343559704 -5.121320343559643
  endloop
endfacet
facet normal 0.0 0.6087614290087202 -0.7933533402912357
  outer loop
    vertex 6.100000000000168 4.500000000000061 -5.598076211353316
    vertex 44.90000000000019 5.121320343559704 -5.121320343559643
    vertex 44.90000000000019 4.500000000000061 -5.598076211353316
  endloop
endfacet
facet normal -2.0876629987681028e-14 -1.4864939597926883e-14 -1.0
  outer loop
    vertex 1.6929590445573064e-14 40.150000000000254 0.5000000000000019
    vertex 5.850000000000191 35.850000000000236 0.5000000000000019
    vertex 1.6919798895287383e-14 35.850000000000236 0.5000000000001936
  endloop
endfacet
facet normal -2.0876629987681028e-14 -1.4864939597926883e-14 -1.0
  outer loop
    vertex 5.850000000000191 35.850000000000236 0.5000000000000019
    vertex 1.6929590445573064e-14 40.150000000000254 0.5000000000000019
    vertex 5.850000000000187 40.150000000000254 0.5000000000000019
  endloop
endfacet
facet normal 0.0 -0.13052619222005174 -0.9914448613738105
  outer loop
    vertex 44.90000000000019 3.0000000000000617 -6.0
    vertex 6.100000000000168 2.2235428646924995 -5.897777478867205
    vertex 6.100000000000168 3.0000000000000617 -6.0
  endloop
endfacet
facet normal 0.0 -0.13052619222005174 -0.9914448613738105
  outer loop
    vertex 6.100000000000168 2.2235428646924995 -5.897777478867205
    vertex 44.90000000000019 3.0000000000000617 -6.0
    vertex 44.90000000000019 2.2235428646924995 -5.897777478867205
  endloop
endfacet
facet normal 0.0 0.13052619222005174 -0.9914448613738105
  outer loop
    vertex 44.90000000000019 3.776457135307624 -5.897777478867205
    vertex 6.100000000000168 3.0000000000000617 -6.0
    vertex 6.100000000000168 3.776457135307624 -5.897777478867205
  endloop
endfacet
facet normal 0.0 0.13052619222005174 -0.9914448613738105
  outer loop
    vertex 6.100000000000168 3.0000000000000617 -6.0
    vertex 44.90000000000019 3.776457135307624 -5.897777478867205
    vertex 44.90000000000019 3.0000000000000617 -6.0
  endloop
endfacet
facet normal 0.0 -0.7933533402912356 -0.6087614290087203
  outer loop
    vertex 44.90000000000019 0.40192378864674644 -4.5
    vertex 6.100000000000168 0.8786796564404196 -5.121320343559643
    vertex 44.90000000000019 0.8786796564404196 -5.121320343559643
  endloop
endfacet
facet normal 0.0 -0.7933533402912356 -0.6087614290087203
  outer loop
    vertex 6.100000000000168 0.8786796564404196 -5.121320343559643
    vertex 44.90000000000019 0.40192378864674644 -4.5
    vertex 6.100000000000168 0.40192378864674644 -4.5
  endloop
endfacet
facet normal -0.0 0.9238795325112868 -0.38268343236508945
  outer loop
    vertex 6.100000000000168 2.0473720558371795 -2.45
    vertex 44.90000000000019 1.9374815910820868 -2.7152990503872276
    vertex 6.100000000000168 1.9374815910820868 -2.7152990503872276
  endloop
endfacet
facet normal -0.0 0.9238795325112868 -0.38268343236508945
  outer loop
    vertex 44.90000000000019 1.9374815910820868 -2.7152990503872276
    vertex 6.100000000000168 2.0473720558371795 -2.45
    vertex 44.90000000000019 2.0473720558371795 -2.45
  endloop
endfacet
facet normal 0.0 -0.9238795325112867 -0.3826834323650899
  outer loop
    vertex 44.90000000000019 0.10222252113285729 -3.776457135307562
    vertex 6.100000000000168 0.40192378864674644 -4.5
    vertex 44.90000000000019 0.40192378864674644 -4.5
  endloop
endfacet
facet normal 0.0 -0.9238795325112867 -0.3826834323650899
  outer loop
    vertex 6.100000000000168 0.40192378864674644 -4.5
    vertex 44.90000000000019 0.10222252113285729 -3.776457135307562
    vertex 6.100000000000168 0.10222252113285729 -3.776457135307562
  endloop
endfacet
facet normal 3.631154777940634e-17 1.0 -2.5504091642637123e-16
  outer loop
    vertex 6.100000000000168 6.000000000000062 0.0
    vertex 44.90000000000019 6.000000000000062 -3.0000000000000004
    vertex 6.100000000000168 6.000000000000062 -3.0000000000000004
  endloop
endfacet
facet normal 3.631154777940634e-17 1.0 -2.5504091642637123e-16
  outer loop
    vertex 44.90000000000019 6.000000000000062 -3.0000000000000004
    vertex 6.100000000000168 6.000000000000062 0.0
    vertex 6.850000000000217 6.000000000000065 -0.006257500000191436
  endloop
endfacet
facet normal 3.631154777940634e-17 1.0 -2.5504091642637123e-16
  outer loop
    vertex 6.850000000000217 6.000000000000065 2.4999999999995586
    vertex 44.15000000000017 6.000000000000062 -0.0062574999999844335
    vertex 6.850000000000217 6.000000000000065 -0.006257500000191436
  endloop
endfacet
facet normal 3.631154777940634e-17 1.0 -2.5504091642637123e-16
  outer loop
    vertex 44.15000000000017 6.000000000000062 -0.0062574999999844335
    vertex 6.850000000000217 6.000000000000065 2.4999999999995586
    vertex 44.15000000000017 6.000000000000062 2.5000000000000293
  endloop
endfacet
facet normal 3.631154777940634e-17 1.0 -2.5504091642637123e-16
  outer loop
    vertex 44.90000000000019 6.000000000000062 -3.0000000000000004
    vertex 44.15000000000017 6.000000000000062 -0.0062574999999844335
    vertex 44.90000000000019 6.000000000000062 0.0
  endloop
endfacet
facet normal 3.631154777940634e-17 1.0 -2.5504091642637123e-16
  outer loop
    vertex 44.15000000000017 6.000000000000062 -0.0062574999999844335
    vertex 44.90000000000019 6.000000000000062 -3.0000000000000004
    vertex 6.850000000000217 6.000000000000065 -0.006257500000191436
  endloop
endfacet
facet normal 0.0 -0.9914448613738105 -0.1305261922200518
  outer loop
    vertex 44.90000000000019 6.203926261605374e-14 -3.0
    vertex 6.100000000000168 0.10222252113285729 -3.776457135307562
    vertex 44.90000000000019 0.10222252113285729 -3.776457135307562
  endloop
endfacet
facet normal 0.0 -0.9914448613738105 -0.1305261922200518
  outer loop
    vertex 6.100000000000168 0.10222252113285729 -3.776457135307562
    vertex 44.90000000000019 6.203926261605374e-14 -3.0
    vertex 6.100000000000168 6.203926261605374e-14 -3.0
  endloop
endfacet
facet normal 0.0 -0.6087614290087205 -0.7933533402912353
  outer loop
    vertex 44.90000000000019 1.500000000000062 -5.598076211353316
    vertex 6.100000000000168 0.8786796564404196 -5.121320343559643
    vertex 6.100000000000168 1.500000000000062 -5.598076211353316
  endloop
endfacet
facet normal 0.0 -0.6087614290087205 -0.7933533402912353
  outer loop
    vertex 6.100000000000168 0.8786796564404196 -5.121320343559643
    vertex 44.90000000000019 1.500000000000062 -5.598076211353316
    vertex 44.90000000000019 0.8786796564404196 -5.121320343559643
  endloop
endfacet
facet normal -0.0 0.793353340291235 0.6087614290087211
  outer loop
    vertex 6.100000000000168 2.04737205583718 -3.5500000000000007
    vertex 44.90000000000019 2.22218254069486 -3.7778174593052025
    vertex 6.100000000000168 2.22218254069486 -3.7778174593052025
  endloop
endfacet
facet normal -0.0 0.793353340291235 0.6087614290087211
  outer loop
    vertex 44.90000000000019 2.22218254069486 -3.7778174593052025
    vertex 6.100000000000168 2.04737205583718 -3.5500000000000007
    vertex 44.90000000000019 2.04737205583718 -3.5500000000000007
  endloop
endfacet
facet normal 0.0 -0.9914448613738107 0.1305261922200504
  outer loop
    vertex 44.90000000000019 4.100000000000063 -3.0
    vertex 6.100000000000168 4.062518408918038 -3.284700949612773
    vertex 44.90000000000019 4.062518408918038 -3.284700949612773
  endloop
endfacet
facet normal 0.0 -0.9914448613738107 0.1305261922200504
  outer loop
    vertex 6.100000000000168 4.062518408918038 -3.284700949612773
    vertex 44.90000000000019 4.100000000000063 -3.0
    vertex 6.100000000000168 4.100000000000063 -3.0
  endloop
endfacet
facet normal -0.0 -0.6087614290087207 0.7933533402912352
  outer loop
    vertex 44.90000000000019 3.5500000000000624 -3.9526279441628827
    vertex 6.100000000000168 3.777817459305265 -3.7778174593052025
    vertex 6.100000000000168 3.5500000000000624 -3.9526279441628827
  endloop
endfacet
facet normal -0.0 -0.6087614290087207 0.7933533402912352
  outer loop
    vertex 6.100000000000168 3.777817459305265 -3.7778174593052025
    vertex 44.90000000000019 3.5500000000000624 -3.9526279441628827
    vertex 44.90000000000019 3.777817459305265 -3.7778174593052025
  endloop
endfacet
facet normal 0.0 -0.9914448613738103 -0.13052619222005263
  outer loop
    vertex 44.90000000000019 4.062518408918037 -2.715299050387227
    vertex 6.100000000000168 4.100000000000063 -3.0
    vertex 44.90000000000019 4.100000000000063 -3.0
  endloop
endfacet
facet normal 0.0 -0.9914448613738103 -0.13052619222005263
  outer loop
    vertex 6.100000000000168 4.100000000000063 -3.0
    vertex 44.90000000000019 4.062518408918037 -2.715299050387227
    vertex 6.100000000000168 4.062518408918037 -2.715299050387227
  endloop
endfacet
facet normal 0.0 0.3826834323650898 -0.9238795325112867
  outer loop
    vertex 44.90000000000019 4.500000000000061 -5.598076211353316
    vertex 6.100000000000168 3.776457135307624 -5.897777478867205
    vertex 6.100000000000168 4.500000000000061 -5.598076211353316
  endloop
endfacet
facet normal 0.0 0.3826834323650898 -0.9238795325112867
  outer loop
    vertex 6.100000000000168 3.776457135307624 -5.897777478867205
    vertex 44.90000000000019 4.500000000000061 -5.598076211353316
    vertex 44.90000000000019 3.776457135307624 -5.897777478867205
  endloop
endfacet
facet normal 0.0 -0.6087614290087207 -0.7933533402912352
  outer loop
    vertex 44.90000000000019 3.7778174593052642 -2.222182540694798
    vertex 6.100000000000168 3.550000000000062 -2.0473720558371173
    vertex 6.100000000000168 3.7778174593052642 -2.222182540694798
  endloop
endfacet
facet normal 0.0 -0.6087614290087207 -0.7933533402912352
  outer loop
    vertex 6.100000000000168 3.550000000000062 -2.0473720558371173
    vertex 44.90000000000019 3.7778174593052642 -2.222182540694798
    vertex 44.90000000000019 3.550000000000062 -2.0473720558371173
  endloop
endfacet
facet normal 0.0 -0.7933533402912364 0.6087614290087191
  outer loop
    vertex 44.90000000000019 3.952627944162945 -3.55
    vertex 6.100000000000168 3.777817459305265 -3.7778174593052025
    vertex 44.90000000000019 3.777817459305265 -3.7778174593052025
  endloop
endfacet
facet normal 0.0 -0.7933533402912364 0.6087614290087191
  outer loop
    vertex 6.100000000000168 3.777817459305265 -3.7778174593052025
    vertex 44.90000000000019 3.952627944162945 -3.55
    vertex 6.100000000000168 3.952627944162945 -3.55
  endloop
endfacet
facet normal -0.0 -0.3826834323650889 0.9238795325112873
  outer loop
    vertex 44.90000000000019 3.2847009496128354 -4.062518408917975
    vertex 6.100000000000168 3.5500000000000624 -3.9526279441628827
    vertex 6.100000000000168 3.2847009496128354 -4.062518408917975
  endloop
endfacet
facet normal -0.0 -0.3826834323650889 0.9238795325112873
  outer loop
    vertex 6.100000000000168 3.5500000000000624 -3.9526279441628827
    vertex 44.90000000000019 3.2847009496128354 -4.062518408917975
    vertex 44.90000000000019 3.5500000000000624 -3.9526279441628827
  endloop
endfacet
facet normal 9.075292718568195e-30 -1.0 -7.166559581523964e-15
  outer loop
    vertex 44.150000000000176 38.150000000000254 -0.012514999999953098
    vertex 6.850000000000453 38.150000000000254 2.5
    vertex 6.850000000000454 38.150000000000254 -0.012515000000000331
  endloop
endfacet
facet normal 9.075292718568195e-30 -1.0 -7.166559581523964e-15
  outer loop
    vertex 6.850000000000453 38.150000000000254 2.5
    vertex 44.150000000000176 38.150000000000254 -0.012514999999953098
    vertex 44.150000000000176 38.150000000000254 2.500000000000047
  endloop
endfacet
facet normal 1.0 -7.58709655180585e-15 3.7517260811370284e-16
  outer loop
    vertex 6.850000000000454 38.150000000000254 -0.012515000000000331
    vertex 6.850000000000217 6.000000000000065 2.4999999999995586
    vertex 6.850000000000217 6.000000000000065 -0.006257500000191436
  endloop
endfacet
facet normal 1.0 -7.58709655180585e-15 3.7517260811370284e-16
  outer loop
    vertex 6.850000000000217 6.000000000000065 2.4999999999995586
    vertex 6.850000000000454 38.150000000000254 -0.012515000000000331
    vertex 6.850000000000453 38.150000000000254 2.5
  endloop
endfacet
facet normal -1.0 1.754255976701636e-16 1.2046809804237122e-31
  outer loop
    vertex 44.150000000000176 38.150000000000254 2.500000000000047
    vertex 44.15000000000017 6.000000000000062 -0.0062574999999844335
    vertex 44.15000000000017 6.000000000000062 2.5000000000000293
  endloop
endfacet
facet normal -1.0 1.754255976701636e-16 1.2046809804237122e-31
  outer loop
    vertex 44.15000000000017 6.000000000000062 -0.0062574999999844335
    vertex 44.150000000000176 38.150000000000254 2.500000000000047
    vertex 44.150000000000176 38.150000000000254 -0.012514999999953098
  endloop
endfacet
facet normal 3.248868391004545e-05 -0.00011539098697942712 -0.9999999928147028
  outer loop
    vertex 6.100000000000194 39.900000000000276 0.0
    vertex 6.850000000000217 6.000000000000065 -0.006257500000191436
    vertex 6.100000000000168 6.000000000000062 0.0
  endloop
endfacet
facet normal 3.248868391004545e-05 -0.00011539098697942712 -0.9999999928147028
  outer loop
    vertex 6.850000000000217 6.000000000000065 -0.006257500000191436
    vertex 6.100000000000194 39.900000000000276 0.0
    vertex 6.850000000000454 38.150000000000254 -0.012515000000000331
  endloop
endfacet
facet normal 3.248868391004545e-05 -0.00011539098697942712 -0.9999999928147028
  outer loop
    vertex 6.850000000000454 38.150000000000254 -0.012515000000000331
    vertex 6.100000000000194 39.900000000000276 0.0
    vertex 44.900000000000205 39.900000000000254 0.0
  endloop
endfacet
facet normal 3.248868391004545e-05 -0.00011539098697942712 -0.9999999928147028
  outer loop
    vertex 6.850000000000454 38.150000000000254 -0.012515000000000331
    vertex 44.900000000000205 39.900000000000254 0.0
    vertex 44.150000000000176 38.150000000000254 -0.012514999999953098
  endloop
endfacet
facet normal 3.248868391004545e-05 -0.00011539098697942712 -0.9999999928147028
  outer loop
    vertex 44.150000000000176 38.150000000000254 -0.012514999999953098
    vertex 44.900000000000205 39.900000000000254 0.0
    vertex 44.90000000000019 6.000000000000062 0.0
  endloop
endfacet
facet normal 3.248868391004545e-05 -0.00011539098697942712 -0.9999999928147028
  outer loop
    vertex 44.90000000000019 6.000000000000062 0.0
    vertex 44.15000000000017 6.000000000000062 -0.0062574999999844335
    vertex 44.150000000000176 38.150000000000254 -0.012514999999953098
  endloop
endfacet
facet normal -7.261367352442965e-15 -0.7071067811865782 0.7071067811865168
  outer loop
    vertex 45.650000000000176 2.6789681584205027e-13 2.500000000000049
    vertex 6.850000000000176 1.5000000000000502 3.99999999999956
    vertex 5.350000000000168 6.767919558114953e-14 2.499999999999519
  endloop
endfacet
facet normal -7.261367352442965e-15 -0.7071067811865782 0.7071067811865168
  outer loop
    vertex 6.850000000000176 1.5000000000000502 3.99999999999956
    vertex 45.650000000000176 2.6789681584205027e-13 2.500000000000049
    vertex 44.15000000000012 1.5000000000000473 4.000000000000031
  endloop
endfacet
facet normal 5.9088042739149535e-15 8.169544064635342e-15 -1.0
  outer loop
    vertex 6.850000000000453 38.150000000000254 2.5
    vertex 44.15000000000017 6.000000000000062 2.5000000000000293
    vertex 6.850000000000217 6.000000000000065 2.4999999999995586
  endloop
endfacet
facet normal 5.9088042739149535e-15 8.169544064635342e-15 -1.0
  outer loop
    vertex 44.15000000000017 6.000000000000062 2.5000000000000293
    vertex 6.850000000000453 38.150000000000254 2.5
    vertex 44.150000000000176 38.150000000000254 2.500000000000047
  endloop
endfacet
facet normal -1.5715778848570164e-15 1.0 2.2380783730737533e-16
  outer loop
    vertex -2.3466662183006073 40.15000000000025 0.6646857029614847
    vertex -1.4999999999997928 40.150000000000254 0.5000000000000019
    vertex -2.461501876181941 40.15000000000025 0.08736786499039823
  endloop
endfacet
facet normal -1.5715778848570164e-15 1.0 2.2380783730737533e-16
  outer loop
    vertex -1.4999999999997928 40.150000000000254 0.5000000000000019
    vertex -2.3466662183006073 40.15000000000025 0.6646857029614847
    vertex -1.4999999999997928 40.150000000000254 1.500000000000049
  endloop
endfacet
facet normal -1.5715778848570164e-15 1.0 2.2380783730737533e-16
  outer loop
    vertex -1.4999999999997928 40.150000000000254 1.500000000000049
    vertex -2.3466662183006073 40.15000000000025 0.6646857029614847
    vertex -2.1574578963005986 40.15000000000025 1.2220754456430216
  endloop
endfacet
facet normal -1.5715778848570164e-15 1.0 2.2380783730737533e-16
  outer loop
    vertex -1.4999999999997928 40.150000000000254 1.500000000000049
    vertex -2.1574578963005986 40.15000000000025 1.2220754456430216
    vertex -1.897114317029793 40.15000000000025 1.750000000000095
  endloop
endfacet
facet normal -1.5715778848570164e-15 1.0 2.2380783730737533e-16
  outer loop
    vertex -1.4999999999997928 40.150000000000254 1.500000000000049
    vertex -1.897114317029793 40.15000000000025 1.750000000000095
    vertex -1.7300696575500674 40.15000000000025 1.9999999999999487
  endloop
endfacet
facet normal -1.5715778848570164e-15 1.0 2.2380783730737533e-16
  outer loop
    vertex -2.1874999999998175 40.150000000000254 -16.41626587736504
    vertex 1.6928510495173904e-14 40.150000000000254 -14.624999999999806
    vertex -1.8749999999998403 40.150000000000254 -16.499999999999805
  endloop
endfacet
facet normal -1.5715778848570164e-15 1.0 2.2380783730737533e-16
  outer loop
    vertex 1.6928510495173904e-14 40.150000000000254 -14.624999999999806
    vertex -2.1874999999998175 40.150000000000254 -16.41626587736504
    vertex -2.4162658773650745 40.150000000000254 -16.18749999999978
  endloop
endfacet
facet normal -1.5715778848570164e-15 1.0 2.2380783730737533e-16
  outer loop
    vertex 1.6928510495173904e-14 40.150000000000254 -14.624999999999806
    vertex -2.4162658773650745 40.150000000000254 -16.18749999999978
    vertex -2.4999999999997926 40.150000000000254 -15.874999999999805
  endloop
endfacet
facet normal -1.5715778848570164e-15 1.0 2.2380783730737533e-16
  outer loop
    vertex 1.6928510495173904e-14 40.150000000000254 -14.624999999999806
    vertex -2.4999999999997926 40.150000000000254 -15.874999999999805
    vertex -2.4999999999997926 40.15000000000025 -0.4999999999998068
  endloop
endfacet
facet normal -1.5715778848570164e-15 1.0 2.2380783730737533e-16
  outer loop
    vertex 1.6928510495173904e-14 40.150000000000254 -14.624999999999806
    vertex -2.4999999999997926 40.15000000000025 -0.4999999999998068
    vertex 1.6929590445573064e-14 40.150000000000254 0.5000000000000019
  endloop
endfacet
facet normal -1.5715778848570164e-15 1.0 2.2380783730737533e-16
  outer loop
    vertex 1.6929590445573064e-14 40.150000000000254 0.5000000000000019
    vertex -2.4999999999997926 40.15000000000025 -0.4999999999998068
    vertex -2.461501876181941 40.15000000000025 0.08736786499039823
  endloop
endfacet
facet normal -1.5715778848570164e-15 1.0 2.2380783730737533e-16
  outer loop
    vertex 1.6929590445573064e-14 40.150000000000254 0.5000000000000019
    vertex -2.461501876181941 40.15000000000025 0.08736786499039823
    vertex -1.4999999999997928 40.150000000000254 0.5000000000000019
  endloop
endfacet
facet normal -7.047561699066768e-05 0.7119181515283529 -0.702262444217004
  outer loop
    vertex -1.3487864281207038 40.650000000000006 1.0176380902054507
    vertex 1.6929590445573064e-14 40.150000000000254 0.5000000000000019
    vertex -1.4999999999997928 40.150000000000254 0.5000000000000019
  endloop
endfacet
facet normal -7.047561699066768e-05 0.7119181515283529 -0.702262444217004
  outer loop
    vertex 1.6929590445573064e-14 40.150000000000254 0.5000000000000019
    vertex -1.3487864281207038 40.650000000000006 1.0176380902054507
    vertex 5.850000000000187 40.150000000000254 0.5000000000000019
  endloop
endfacet
facet normal -7.047561699066768e-05 0.7119181515283529 -0.702262444217004
  outer loop
    vertex 5.850000000000187 40.150000000000254 0.5000000000000019
    vertex -1.3487864281207038 40.650000000000006 1.0176380902054507
    vertex 45.650000000000205 40.65000000000026 0.9999999999999981
  endloop
endfacet
facet normal -7.047561699066768e-05 0.7119181515283529 -0.702262444217004
  outer loop
    vertex 5.850000000000187 40.150000000000254 0.5000000000000019
    vertex 44.900000000000205 39.900000000000254 0.24999999999999672
    vertex 6.100000000000194 39.900000000000276 0.24999999999999672
  endloop
endfacet
facet normal -7.047561699066768e-05 0.7119181515283529 -0.702262444217004
  outer loop
    vertex 44.900000000000205 39.900000000000254 0.24999999999999672
    vertex 5.850000000000187 40.150000000000254 0.5000000000000019
    vertex 45.650000000000205 40.65000000000026 0.9999999999999981
  endloop
endfacet
facet normal 0.0 -1.0 0.0
  outer loop
    vertex 5.350000000000194 35.850000000000236 0.9999999999999953
    vertex 1.6919798895287383e-14 35.850000000000236 0.5000000000001936
    vertex 5.850000000000191 35.850000000000236 0.5000000000000019
  endloop
endfacet
facet normal 0.0 -1.0 0.0
  outer loop
    vertex 1.6919798895287383e-14 35.850000000000236 0.5000000000001936
    vertex 5.350000000000194 35.850000000000236 0.9999999999999953
    vertex -2.3466662183006073 35.850000000000236 0.6646857029614847
  endloop
endfacet
facet normal 0.0 -1.0 0.0
  outer loop
    vertex -2.3466662183006073 35.850000000000236 0.6646857029614847
    vertex 5.350000000000194 35.850000000000236 0.9999999999999953
    vertex -2.1574578963005986 35.850000000000236 1.2220754456430216
  endloop
endfacet
facet normal 0.0 -1.0 0.0
  outer loop
    vertex -2.1574578963005986 35.850000000000236 1.2220754456430216
    vertex 5.350000000000194 35.850000000000236 0.9999999999999953
    vertex 5.3500000000004535 35.850000000000236 2.4999999999999982
  endloop
endfacet
facet normal 0.0 -1.0 0.0
  outer loop
    vertex -2.1574578963005986 35.850000000000236 1.2220754456430216
    vertex 5.3500000000004535 35.850000000000236 2.4999999999999982
    vertex -1.897114317029793 35.850000000000236 1.750000000000095
  endloop
endfacet
facet normal 0.0 -1.0 0.0
  outer loop
    vertex -1.897114317029793 35.850000000000236 1.750000000000095
    vertex 5.3500000000004535 35.850000000000236 2.4999999999999982
    vertex -1.5700900313103918 35.850000000000236 2.2394264305393174
  endloop
endfacet
facet normal 0.0 -1.0 0.0
  outer loop
    vertex -1.5700900313103918 35.850000000000236 2.2394264305393174
    vertex 5.3500000000004535 35.850000000000236 2.4999999999999982
    vertex -1.181980515339314 35.850000000000236 2.6819805153395198
  endloop
endfacet
facet normal 0.0 -1.0 0.0
  outer loop
    vertex -1.181980515339314 35.850000000000236 2.6819805153395198
    vertex 5.3500000000004535 35.850000000000236 2.4999999999999982
    vertex 6.850000000000428 35.850000000000236 3.9999999999999996
  endloop
endfacet
facet normal 0.0 -1.0 0.0
  outer loop
    vertex -1.181980515339314 35.850000000000236 2.6819805153395198
    vertex 6.850000000000428 35.850000000000236 3.9999999999999996
    vertex -0.7394264305391118 35.850000000000236 3.0700900313105977
  endloop
endfacet
facet normal 0.0 -1.0 0.0
  outer loop
    vertex -0.7394264305391118 35.850000000000236 3.0700900313105977
    vertex 6.850000000000428 35.850000000000236 3.9999999999999996
    vertex -0.24999999999988956 35.850000000000236 3.3971143170299998
  endloop
endfacet
facet normal 0.0 -1.0 0.0
  outer loop
    vertex -0.24999999999988956 35.850000000000236 3.3971143170299998
    vertex 6.850000000000428 35.850000000000236 3.9999999999999996
    vertex 0.2779245543571833 35.850000000000236 3.6574578963008046
  endloop
endfacet
facet normal 0.0 -1.0 0.0
  outer loop
    vertex 0.2779245543571833 35.850000000000236 3.6574578963008046
    vertex 6.850000000000428 35.850000000000236 3.9999999999999996
    vertex 0.8353142970387201 35.850000000000236 3.846666218300814
  endloop
endfacet
facet normal 0.0 -1.0 0.0
  outer loop
    vertex 0.8353142970387201 35.850000000000236 3.846666218300814
    vertex 6.850000000000428 35.850000000000236 3.9999999999999996
    vertex 1.4126321350098066 35.850000000000236 3.961501876182147
  endloop
endfacet
facet normal 0.0 -1.0 0.0
  outer loop
    vertex 1.4126321350098066 35.850000000000236 3.961501876182147
    vertex 6.850000000000428 35.850000000000236 3.9999999999999996
    vertex 2.0000000000000133 35.850000000000236 3.9999999999999996
  endloop
endfacet
facet normal 0.0 -1.0 0.0
  outer loop
    vertex 1.6919798895287383e-14 35.850000000000236 0.5000000000001936
    vertex -2.4999999999997926 35.850000000000236 -0.4999999999998068
    vertex 1.692008688206049e-14 35.850000000000236 -0.4999999999998068
  endloop
endfacet
facet normal 0.0 -1.0 0.0
  outer loop
    vertex -2.4999999999997926 35.850000000000236 -0.4999999999998068
    vertex 1.6919798895287383e-14 35.850000000000236 0.5000000000001936
    vertex -2.461501876181941 35.850000000000236 0.08736786499039823
  endloop
endfacet
facet normal 0.0 -1.0 0.0
  outer loop
    vertex -2.461501876181941 35.850000000000236 0.08736786499039823
    vertex 1.6919798895287383e-14 35.850000000000236 0.5000000000001936
    vertex -2.3466662183006073 35.850000000000236 0.6646857029614847
  endloop
endfacet
facet normal -0.659345815100069 -5.5495259422043836e-17 0.7518398074789774
  outer loop
    vertex -1.181980515339314 35.850000000000236 2.6819805153395198
    vertex -0.7394264305391133 39.07990996868962 3.070090031310597
    vertex -1.1819805153393146 39.46801948466069 2.6819805153395198
  endloop
endfacet
facet normal -0.659345815100069 -5.5495259422043836e-17 0.7518398074789774
  outer loop
    vertex -0.7394264305391133 39.07990996868962 3.070090031310597
    vertex -1.181980515339314 35.850000000000236 2.6819805153395198
    vertex -0.7394264305391118 35.850000000000236 3.0700900313105977
  endloop
endfacet
facet normal -0.7518398074789778 1.8914774905988327e-18 0.6593458151000684
  outer loop
    vertex -1.1819805153393146 39.46801948466069 2.6819805153395198
    vertex -1.5700900313103918 35.850000000000236 2.2394264305393174
    vertex -1.181980515339314 35.850000000000236 2.6819805153395198
  endloop
endfacet
facet normal -0.7518398074789778 1.8914774905988327e-18 0.6593458151000684
  outer loop
    vertex -1.5700900313103918 35.850000000000236 2.2394264305393174
    vertex -1.1819805153393146 39.46801948466069 2.6819805153395198
    vertex -1.5700900313103918 39.91057356946088 2.2394264305393166
  endloop
endfacet
facet normal -0.8314696123025457 -2.4089112415438545e-17 0.5555702330196016
  outer loop
    vertex -1.5700900313103918 39.91057356946088 2.2394264305393166
    vertex -1.897114317029793 35.850000000000236 1.750000000000095
    vertex -1.5700900313103918 35.850000000000236 2.2394264305393174
  endloop
endfacet
facet normal -0.8314696123025457 -2.4089112415438545e-17 0.5555702330196016
  outer loop
    vertex -1.897114317029793 35.850000000000236 1.750000000000095
    vertex -1.5700900313103918 39.91057356946088 2.2394264305393166
    vertex -1.897114317029793 40.15000000000025 1.750000000000095
  endloop
endfacet
facet normal -0.8314696123025457 -2.4089112415438545e-17 0.5555702330196016
  outer loop
    vertex -1.897114317029793 40.15000000000025 1.750000000000095
    vertex -1.5700900313103918 39.91057356946088 2.2394264305393166
    vertex -1.7300696575500674 40.15000000000025 1.9999999999999487
  endloop
endfacet
facet normal -0.8968727415326883 0.0 0.4422886902190015
  outer loop
    vertex -1.897114317029793 40.15000000000025 1.750000000000095
    vertex -2.1574578963005986 35.850000000000236 1.2220754456430216
    vertex -1.897114317029793 35.850000000000236 1.750000000000095
  endloop
endfacet
facet normal -0.8968727415326883 0.0 0.4422886902190015
  outer loop
    vertex -2.1574578963005986 35.850000000000236 1.2220754456430216
    vertex -1.897114317029793 40.15000000000025 1.750000000000095
    vertex -2.1574578963005986 40.15000000000025 1.2220754456430216
  endloop
endfacet
facet normal -0.9469301294951058 0.0 0.32143946530316114
  outer loop
    vertex -2.1574578963005986 40.15000000000025 1.2220754456430216
    vertex -2.3466662183006073 35.850000000000236 0.6646857029614847
    vertex -2.1574578963005986 35.850000000000236 1.2220754456430216
  endloop
endfacet
facet normal -0.9469301294951058 0.0 0.32143946530316114
  outer loop
    vertex -2.3466662183006073 35.850000000000236 0.6646857029614847
    vertex -2.1574578963005986 40.15000000000025 1.2220754456430216
    vertex -2.3466662183006073 40.15000000000025 0.6646857029614847
  endloop
endfacet
facet normal -0.9807852804032308 0.0 0.1950903220161271
  outer loop
    vertex -2.3466662183006073 40.15000000000025 0.6646857029614847
    vertex -2.461501876181941 35.850000000000236 0.08736786499039823
    vertex -2.3466662183006073 35.850000000000236 0.6646857029614847
  endloop
endfacet
facet normal -0.9807852804032308 0.0 0.1950903220161271
  outer loop
    vertex -2.461501876181941 35.850000000000236 0.08736786499039823
    vertex -2.3466662183006073 40.15000000000025 0.6646857029614847
    vertex -2.461501876181941 40.15000000000025 0.08736786499039823
  endloop
endfacet
facet normal -0.9978589232386036 -1.0729021996484023e-31 0.06540312923014342
  outer loop
    vertex -2.461501876181941 40.15000000000025 0.08736786499039823
    vertex -2.4999999999997926 35.850000000000236 -0.4999999999998068
    vertex -2.461501876181941 35.850000000000236 0.08736786499039823
  endloop
endfacet
facet normal -0.9978589232386036 -1.0729021996484023e-31 0.06540312923014342
  outer loop
    vertex -2.4999999999997926 35.850000000000236 -0.4999999999998068
    vertex -2.461501876181941 40.15000000000025 0.08736786499039823
    vertex -2.4999999999997926 40.15000000000025 -0.4999999999998068
  endloop
endfacet
facet normal -0.9571844942243222 0.289478572637991 -1.5331016957568973e-14
  outer loop
    vertex -1.3487864281207038 40.65000000000014 1.500000000000049
    vertex -1.4999999999997928 40.150000000000254 0.5000000000000019
    vertex -1.4999999999997928 40.150000000000254 1.500000000000049
  endloop
endfacet
facet normal -0.9571844942243222 0.289478572637991 -1.5331016957568973e-14
  outer loop
    vertex -1.4999999999997928 40.150000000000254 0.5000000000000019
    vertex -1.3487864281207038 40.65000000000014 1.500000000000049
    vertex -1.3487864281207038 40.650000000000006 1.0176380902054507
  endloop
endfacet
facet normal -3.983245435274466e-15 1.0 -1.2358635684422923e-13
  outer loop
    vertex -1.3487864281207038 40.650000000000006 1.0176380902054507
    vertex 45.65000000000019 40.650000000000254 1.500000000000049
    vertex 45.650000000000205 40.65000000000026 0.9999999999999981
  endloop
endfacet
facet normal -3.983245435274466e-15 1.0 -1.2358635684422923e-13
  outer loop
    vertex 45.65000000000019 40.650000000000254 1.500000000000049
    vertex -1.3487864281207038 40.650000000000006 1.0176380902054507
    vertex -1.3487864281207038 40.65000000000014 1.500000000000049
  endloop
endfacet
facet normal -1.4111059638751211e-15 0.7071067811865531 0.7071067811865419
  outer loop
    vertex -1.7300696575500674 40.15000000000025 1.9999999999999487
    vertex 45.65000000000019 40.650000000000254 1.500000000000049
    vertex -1.3487864281207038 40.65000000000014 1.500000000000049
  endloop
endfacet
facet normal -1.4111059638751211e-15 0.7071067811865531 0.7071067811865419
  outer loop
    vertex 45.65000000000019 40.650000000000254 1.500000000000049
    vertex -1.7300696575500674 40.15000000000025 1.9999999999999487
    vertex 45.650000000000176 39.650000000000254 2.500000000000049
  endloop
endfacet
facet normal -1.4111059638751211e-15 0.7071067811865531 0.7071067811865419
  outer loop
    vertex 45.650000000000176 39.650000000000254 2.500000000000049
    vertex -1.7300696575500674 40.15000000000025 1.9999999999999487
    vertex -1.5700900313103918 39.91057356946088 2.2394264305393166
  endloop
endfacet
facet normal -1.4111059638751211e-15 0.7071067811865531 0.7071067811865419
  outer loop
    vertex 45.650000000000176 39.650000000000254 2.500000000000049
    vertex -1.5700900313103918 39.91057356946088 2.2394264305393166
    vertex -1.1819805153393146 39.46801948466069 2.6819805153395198
  endloop
endfacet
facet normal -1.4111059638751211e-15 0.7071067811865531 0.7071067811865419
  outer loop
    vertex 45.650000000000176 39.650000000000254 2.500000000000049
    vertex -1.1819805153393146 39.46801948466069 2.6819805153395198
    vertex 44.15000000000016 38.15000000000025 4.000000000000048
  endloop
endfacet
facet normal -1.4111059638751211e-15 0.7071067811865531 0.7071067811865419
  outer loop
    vertex 44.15000000000016 38.15000000000025 4.000000000000048
    vertex -1.1819805153393146 39.46801948466069 2.6819805153395198
    vertex -0.7394264305391133 39.07990996868962 3.070090031310597
  endloop
endfacet
facet normal -1.4111059638751211e-15 0.7071067811865531 0.7071067811865419
  outer loop
    vertex 44.15000000000016 38.15000000000025 4.000000000000048
    vertex -0.7394264305391133 39.07990996868962 3.070090031310597
    vertex -0.24999999999988956 38.75288568297023 3.3971143170300007
  endloop
endfacet
facet normal -1.4111059638751211e-15 0.7071067811865531 0.7071067811865419
  outer loop
    vertex 44.15000000000016 38.15000000000025 4.000000000000048
    vertex -0.24999999999988956 38.75288568297023 3.3971143170300007
    vertex 0.2779245543571827 38.49254210369943 3.6574578963008046
  endloop
endfacet
facet normal -1.4111059638751211e-15 0.7071067811865531 0.7071067811865419
  outer loop
    vertex 44.15000000000016 38.15000000000025 4.000000000000048
    vertex 0.2779245543571827 38.49254210369943 3.6574578963008046
    vertex 0.8353142970387204 38.303333781699415 3.846666218300814
  endloop
endfacet
facet normal -1.4111059638751211e-15 0.7071067811865531 0.7071067811865419
  outer loop
    vertex 44.15000000000016 38.15000000000025 4.000000000000048
    vertex 0.8353142970387204 38.303333781699415 3.846666218300814
    vertex 1.4126321350098063 38.188498123818086 3.9615018761821466
  endloop
endfacet
facet normal -1.4111059638751211e-15 0.7071067811865531 0.7071067811865419
  outer loop
    vertex 44.15000000000016 38.15000000000025 4.000000000000048
    vertex 1.4126321350098063 38.188498123818086 3.9615018761821466
    vertex 2.0000000000000133 38.15000000000025 3.9999999999999996
  endloop
endfacet
facet normal -0.06540312923014557 1.5020380043618803e-16 0.9978589232386034
  outer loop
    vertex 1.4126321350098066 35.850000000000236 3.961501876182147
    vertex 2.0000000000000133 38.15000000000025 3.9999999999999996
    vertex 1.4126321350098063 38.188498123818086 3.9615018761821466
  endloop
endfacet
facet normal -0.06540312923014557 1.5020380043618803e-16 0.9978589232386034
  outer loop
    vertex 2.0000000000000133 38.15000000000025 3.9999999999999996
    vertex 1.4126321350098066 35.850000000000236 3.961501876182147
    vertex 2.0000000000000133 35.850000000000236 3.9999999999999996
  endloop
endfacet
facet normal -0.19509032201612544 1.4693717715697593e-16 0.9807852804032311
  outer loop
    vertex 1.4126321350098066 35.850000000000236 3.961501876182147
    vertex 0.8353142970387204 38.303333781699415 3.846666218300814
    vertex 0.8353142970387201 35.850000000000236 3.846666218300814
  endloop
endfacet
facet normal -0.19509032201612544 1.4693717715697593e-16 0.9807852804032311
  outer loop
    vertex 0.8353142970387204 38.303333781699415 3.846666218300814
    vertex 1.4126321350098066 35.850000000000236 3.961501876182147
    vertex 1.4126321350098063 38.188498123818086 3.9615018761821466
  endloop
endfacet
facet normal -0.3214394653031621 -9.68524139563543e-18 0.9469301294951055
  outer loop
    vertex 0.2779245543571833 35.850000000000236 3.6574578963008046
    vertex 0.8353142970387204 38.303333781699415 3.846666218300814
    vertex 0.2779245543571827 38.49254210369943 3.6574578963008046
  endloop
endfacet
facet normal -0.3214394653031621 -9.68524139563543e-18 0.9469301294951055
  outer loop
    vertex 0.8353142970387204 38.303333781699415 3.846666218300814
    vertex 0.2779245543571833 35.850000000000236 3.6574578963008046
    vertex 0.8353142970387201 35.850000000000236 3.846666218300814
  endloop
endfacet
facet normal -0.44228869021900064 -1.6047974788843458e-16 0.8968727415326886
  outer loop
    vertex 0.2779245543571833 35.850000000000236 3.6574578963008046
    vertex -0.24999999999988956 38.75288568297023 3.3971143170300007
    vertex -0.24999999999988956 35.850000000000236 3.3971143170299998
  endloop
endfacet
facet normal -0.44228869021900064 -1.6047974788843458e-16 0.8968727415326886
  outer loop
    vertex -0.24999999999988956 38.75288568297023 3.3971143170300007
    vertex 0.2779245543571833 35.850000000000236 3.6574578963008046
    vertex 0.2779245543571827 38.49254210369943 3.6574578963008046
  endloop
endfacet
facet normal -0.5555702330196028 -1.784511209940264e-16 0.8314696123025448
  outer loop
    vertex -0.7394264305391118 35.850000000000236 3.0700900313105977
    vertex -0.24999999999988956 38.75288568297023 3.3971143170300007
    vertex -0.7394264305391133 39.07990996868962 3.070090031310597
  endloop
endfacet
facet normal -0.5555702330196028 -1.784511209940264e-16 0.8314696123025448
  outer loop
    vertex -0.24999999999988956 38.75288568297023 3.3971143170300007
    vertex -0.7394264305391118 35.850000000000236 3.0700900313105977
    vertex -0.24999999999988956 35.850000000000236 3.3971143170299998
  endloop
endfacet
facet normal -0.875983789742761 0.26492127551042793 -0.4030745810514954
  outer loop
    vertex -1.3487864281207038 40.65000000000014 1.500000000000049
    vertex -1.4999999999997928 40.150000000000254 1.500000000000049
    vertex -1.7300696575500674 40.15000000000025 1.9999999999999487
  endloop
endfacet
facet normal 0.7071067811865371 -5.00557129759806e-16 0.7071067811865579
  outer loop
    vertex 45.650000000000176 2.6789681584205027e-13 2.500000000000049
    vertex 44.15000000000016 38.15000000000025 4.000000000000048
    vertex 44.15000000000012 1.5000000000000473 4.000000000000031
  endloop
endfacet
facet normal 0.7071067811865371 -5.00557129759806e-16 0.7071067811865579
  outer loop
    vertex 44.15000000000016 38.15000000000025 4.000000000000048
    vertex 45.650000000000176 2.6789681584205027e-13 2.500000000000049
    vertex 45.650000000000176 39.650000000000254 2.500000000000049
  endloop
endfacet
facet normal 3.836563890394396e-15 -1.0 2.079418762783286e-14
  outer loop
    vertex 44.900000000000176 2.664868326007763e-13 0.2500000000000531
    vertex 6.100000000000168 6.203926261605374e-14 -3.0
    vertex 44.90000000000019 6.203926261605374e-14 -3.0
  endloop
endfacet
facet normal 3.836563890394396e-15 -1.0 2.079418762783286e-14
  outer loop
    vertex 6.100000000000168 6.203926261605374e-14 -3.0
    vertex 44.900000000000176 2.664868326007763e-13 0.2500000000000531
    vertex 6.100000000000168 6.203926261605374e-14 0.24999999999999672
  endloop
endfacet
facet normal 3.836563890394396e-15 -1.0 2.079418762783286e-14
  outer loop
    vertex 6.100000000000168 6.203926261605374e-14 0.24999999999999672
    vertex 44.900000000000176 2.664868326007763e-13 0.2500000000000531
    vertex 5.350000000000168 6.767919558114953e-14 0.9999999999999981
  endloop
endfacet
facet normal 3.836563890394396e-15 -1.0 2.079418762783286e-14
  outer loop
    vertex 5.350000000000168 6.767919558114953e-14 0.9999999999999981
    vertex 44.900000000000176 2.664868326007763e-13 0.2500000000000531
    vertex 45.650000000000176 2.664868326007763e-13 1.0000000000000546
  endloop
endfacet
facet normal 3.836563890394396e-15 -1.0 2.079418762783286e-14
  outer loop
    vertex 5.350000000000168 6.767919558114953e-14 0.9999999999999981
    vertex 45.650000000000176 2.664868326007763e-13 1.0000000000000546
    vertex 5.350000000000168 6.767919558114953e-14 2.499999999999519
  endloop
endfacet
facet normal 3.836563890394396e-15 -1.0 2.079418762783286e-14
  outer loop
    vertex 5.350000000000168 6.767919558114953e-14 2.499999999999519
    vertex 45.650000000000176 2.664868326007763e-13 1.0000000000000546
    vertex 45.650000000000176 2.6789681584205027e-13 2.500000000000049
  endloop
endfacet
facet normal -0.7071067811865538 -3.8623364637098734e-15 0.7071067811865414
  outer loop
    vertex 6.850000000000176 1.5000000000000502 3.99999999999956
    vertex 5.3500000000004535 35.850000000000236 2.4999999999999982
    vertex 5.350000000000168 6.767919558114953e-14 2.499999999999519
  endloop
endfacet
facet normal -0.7071067811865538 -3.8623364637098734e-15 0.7071067811865414
  outer loop
    vertex 5.3500000000004535 35.850000000000236 2.4999999999999982
    vertex 6.850000000000176 1.5000000000000502 3.99999999999956
    vertex 6.850000000000428 35.850000000000236 3.9999999999999996
  endloop
endfacet
facet normal 1.0 -3.5744032662012973e-16 9.297729551254747e-15
  outer loop
    vertex 45.650000000000205 40.65000000000026 0.9999999999999981
    vertex 45.650000000000176 2.6789681584205027e-13 2.500000000000049
    vertex 45.650000000000176 2.664868326007763e-13 1.0000000000000546
  endloop
endfacet
facet normal 1.0 -3.5744032662012973e-16 9.297729551254747e-15
  outer loop
    vertex 45.650000000000176 2.6789681584205027e-13 2.500000000000049
    vertex 45.650000000000205 40.65000000000026 0.9999999999999981
    vertex 45.650000000000176 39.650000000000254 2.500000000000049
  endloop
endfacet
facet normal 1.0 -3.5744032662012973e-16 9.297729551254747e-15
  outer loop
    vertex 45.650000000000176 39.650000000000254 2.500000000000049
    vertex 45.650000000000205 40.65000000000026 0.9999999999999981
    vertex 45.65000000000019 40.650000000000254 1.500000000000049
  endloop
endfacet
facet normal -1.0 4.326308411160754e-15 8.64789721314965e-14
  outer loop
    vertex 5.3500000000004535 35.850000000000236 2.4999999999999982
    vertex 5.350000000000168 6.767919558114953e-14 0.9999999999999981
    vertex 5.350000000000168 6.767919558114953e-14 2.499999999999519
  endloop
endfacet
facet normal -1.0 4.326308411160754e-15 8.64789721314965e-14
  outer loop
    vertex 5.350000000000168 6.767919558114953e-14 0.9999999999999981
    vertex 5.3500000000004535 35.850000000000236 2.4999999999999982
    vertex 5.350000000000194 35.850000000000236 0.9999999999999953
  endloop
endfacet
facet normal -5.065474973261777e-15 -7.65269625088297e-15 1.0
  outer loop
    vertex 44.15000000000012 1.5000000000000473 4.000000000000031
    vertex 6.850000000000428 35.850000000000236 3.9999999999999996
    vertex 6.850000000000176 1.5000000000000502 3.99999999999956
  endloop
endfacet
facet normal -5.065474973261777e-15 -7.65269625088297e-15 1.0
  outer loop
    vertex 6.850000000000428 35.850000000000236 3.9999999999999996
    vertex 2.0000000000000133 38.15000000000025 3.9999999999999996
    vertex 2.0000000000000133 35.850000000000236 3.9999999999999996
  endloop
endfacet
facet normal -5.065474973261777e-15 -7.65269625088297e-15 1.0
  outer loop
    vertex 2.0000000000000133 38.15000000000025 3.9999999999999996
    vertex 6.850000000000428 35.850000000000236 3.9999999999999996
    vertex 44.15000000000016 38.15000000000025 4.000000000000048
  endloop
endfacet
facet normal -5.065474973261777e-15 -7.65269625088297e-15 1.0
  outer loop
    vertex 44.15000000000016 38.15000000000025 4.000000000000048
    vertex 6.850000000000428 35.850000000000236 3.9999999999999996
    vertex 44.15000000000012 1.5000000000000473 4.000000000000031
  endloop
endfacet
facet normal 0.7071067811865744 -0.0 -0.7071067811865207
  outer loop
    vertex -1.8749999999998403 40.150000000000254 -16.499999999999805
    vertex 1.6928510495173904e-14 33.850000000000236 -14.624999999999806
    vertex -1.8749999999998403 33.850000000000236 -16.499999999999805
  endloop
endfacet
facet normal 0.7071067811865744 -0.0 -0.7071067811865207
  outer loop
    vertex 1.6928510495173904e-14 33.850000000000236 -14.624999999999806
    vertex -1.8749999999998403 40.150000000000254 -16.499999999999805
    vertex 1.6928510495173904e-14 40.150000000000254 -14.624999999999806
  endloop
endfacet
facet normal -0.9659258262890692 0.0 -0.25881904510251713
  outer loop
    vertex -2.4999999999997926 40.150000000000254 -15.874999999999805
    vertex -2.4162658773650745 33.850000000000236 -16.18749999999978
    vertex -2.4999999999997926 33.850000000000236 -15.874999999999805
  endloop
endfacet
facet normal -0.9659258262890692 0.0 -0.25881904510251713
  outer loop
    vertex -2.4162658773650745 33.850000000000236 -16.18749999999978
    vertex -2.4999999999997926 40.150000000000254 -15.874999999999805
    vertex -2.4162658773650745 40.150000000000254 -16.18749999999978
  endloop
endfacet
facet normal -0.2588190451026584 0.0 -0.9659258262890316
  outer loop
    vertex -1.8749999999998403 40.150000000000254 -16.499999999999805
    vertex -2.1874999999998175 33.850000000000236 -16.41626587736504
    vertex -2.1874999999998175 40.150000000000254 -16.41626587736504
  endloop
endfacet
facet normal -0.2588190451026584 0.0 -0.9659258262890316
  outer loop
    vertex -2.1874999999998175 33.850000000000236 -16.41626587736504
    vertex -1.8749999999998403 40.150000000000254 -16.499999999999805
    vertex -1.8749999999998403 33.850000000000236 -16.499999999999805
  endloop
endfacet
facet normal -0.7071067811865481 -0.0 -0.707106781186547
  outer loop
    vertex -2.4162658773650745 40.150000000000254 -16.18749999999978
    vertex -2.1874999999998175 33.850000000000236 -16.41626587736504
    vertex -2.4162658773650745 33.850000000000236 -16.18749999999978
  endloop
endfacet
facet normal -0.7071067811865481 -0.0 -0.707106781186547
  outer loop
    vertex -2.1874999999998175 33.850000000000236 -16.41626587736504
    vertex -2.4162658773650745 40.150000000000254 -16.18749999999978
    vertex -2.1874999999998175 40.150000000000254 -16.41626587736504
  endloop
endfacet
facet normal -0.0 -0.0 1.0
  outer loop
    vertex 1.6926782574535256e-14 35.85000000000025 -11.624999999999806
    vertex -2.4999999999997926 38.15000000000025 -11.624999999999806
    vertex -2.4999999999997926 35.85000000000025 -11.624999999999806
  endloop
endfacet
facet normal -0.0 -0.0 1.0
  outer loop
    vertex -2.4999999999997926 38.15000000000025 -11.624999999999806
    vertex 1.6926782574535256e-14 35.85000000000025 -11.624999999999806
    vertex 1.6926782574535256e-14 38.15000000000025 -11.624999999999806
  endloop
endfacet
facet normal 0.0 -1.0 0.0
  outer loop
    vertex 1.6926782574535256e-14 38.15000000000025 -7.624999999999807
    vertex -2.4999999999997926 38.15000000000025 -11.624999999999806
    vertex 1.6926782574535256e-14 38.15000000000025 -11.624999999999806
  endloop
endfacet
facet normal 0.0 -1.0 0.0
  outer loop
    vertex -2.4999999999997926 38.15000000000025 -11.624999999999806
    vertex 1.6926782574535256e-14 38.15000000000025 -7.624999999999807
    vertex -2.4999999999997926 38.15000000000025 -7.624999999999807
  endloop
endfacet
facet normal 0.0 0.0 -1.0
  outer loop
    vertex 1.6926782574535256e-14 38.15000000000025 -7.624999999999807
    vertex -2.4999999999997926 35.85000000000025 -7.624999999999807
    vertex -2.4999999999997926 38.15000000000025 -7.624999999999807
  endloop
endfacet
facet normal 0.0 0.0 -1.0
  outer loop
    vertex -2.4999999999997926 35.85000000000025 -7.624999999999807
    vertex 1.6926782574535256e-14 38.15000000000025 -7.624999999999807
    vertex 1.6926782574535256e-14 35.85000000000025 -7.624999999999807
  endloop
endfacet
facet normal -0.0 1.0 -0.0
  outer loop
    vertex -2.4999999999997926 35.85000000000025 -7.624999999999807
    vertex 1.6926782574535256e-14 35.85000000000025 -11.624999999999806
    vertex -2.4999999999997926 35.85000000000025 -11.624999999999806
  endloop
endfacet
facet normal -0.0 1.0 -0.0
  outer loop
    vertex 1.6926782574535256e-14 35.85000000000025 -11.624999999999806
    vertex -2.4999999999997926 35.85000000000025 -7.624999999999807
    vertex 1.6926782574535256e-14 35.85000000000025 -7.624999999999807
  endloop
endfacet
facet normal 0.0 -1.0 0.0
  outer loop
    vertex 1.6928510495173904e-14 33.850000000000236 -14.624999999999806
    vertex -2.1874999999998175 33.850000000000236 -16.41626587736504
    vertex -1.8749999999998403 33.850000000000236 -16.499999999999805
  endloop
endfacet
facet normal 0.0 -1.0 0.0
  outer loop
    vertex -2.1874999999998175 33.850000000000236 -16.41626587736504
    vertex 1.6928510495173904e-14 33.850000000000236 -14.624999999999806
    vertex -2.4162658773650745 33.850000000000236 -16.18749999999978
  endloop
endfacet
facet normal 0.0 -1.0 0.0
  outer loop
    vertex -2.4162658773650745 33.850000000000236 -16.18749999999978
    vertex 1.6928510495173904e-14 33.850000000000236 -14.624999999999806
    vertex -2.4999999999997926 33.850000000000236 -15.874999999999805
  endloop
endfacet
facet normal 0.0 -1.0 0.0
  outer loop
    vertex -2.4999999999997926 33.850000000000236 -15.874999999999805
    vertex 1.6928510495173904e-14 33.850000000000236 -14.624999999999806
    vertex -2.4999999999997926 33.850000000000236 -5.624999999999807
  endloop
endfacet
facet normal 0.0 -1.0 0.0
  outer loop
    vertex -2.4999999999997926 33.850000000000236 -5.624999999999807
    vertex 1.6928510495173904e-14 33.850000000000236 -14.624999999999806
    vertex 1.6919798895287383e-14 33.850000000000236 -5.624999999999807
  endloop
endfacet
facet normal 1.0 -1.0692404183694598e-18 3.804033738327884e-19
  outer loop
    vertex 1.6928510495173904e-14 33.850000000000236 -14.624999999999806
    vertex 1.6926782574535256e-14 35.85000000000025 -11.624999999999806
    vertex 1.6919798895287383e-14 33.850000000000236 -5.624999999999807
  endloop
endfacet
facet normal 1.0 -1.0692404183694598e-18 3.804033738327884e-19
  outer loop
    vertex 1.6926782574535256e-14 35.85000000000025 -11.624999999999806
    vertex 1.6928510495173904e-14 33.850000000000236 -14.624999999999806
    vertex 1.6928510495173904e-14 40.150000000000254 -14.624999999999806
  endloop
endfacet
facet normal 1.0 -1.0692404183694598e-18 3.804033738327884e-19
  outer loop
    vertex 1.6919798895287383e-14 33.850000000000236 -5.624999999999807
    vertex 1.6926782574535256e-14 35.85000000000025 -11.624999999999806
    vertex 1.692008688206049e-14 35.850000000000236 -0.4999999999998068
  endloop
endfacet
facet normal 1.0 -1.0692404183694598e-18 3.804033738327884e-19
  outer loop
    vertex 1.692008688206049e-14 35.850000000000236 -0.4999999999998068
    vertex 1.6926782574535256e-14 35.85000000000025 -11.624999999999806
    vertex 1.6919798895287383e-14 35.850000000000236 0.5000000000001936
  endloop
endfacet
facet normal 1.0 -1.0692404183694598e-18 3.804033738327884e-19
  outer loop
    vertex 1.6926782574535256e-14 35.85000000000025 -11.624999999999806
    vertex 1.6928510495173904e-14 40.150000000000254 -14.624999999999806
    vertex 1.6926782574535256e-14 38.15000000000025 -11.624999999999806
  endloop
endfacet
facet normal 1.0 -1.0692404183694598e-18 3.804033738327884e-19
  outer loop
    vertex 1.6926782574535256e-14 38.15000000000025 -11.624999999999806
    vertex 1.6928510495173904e-14 40.150000000000254 -14.624999999999806
    vertex 1.6926782574535256e-14 38.15000000000025 -7.624999999999807
  endloop
endfacet
facet normal 1.0 -1.0692404183694598e-18 3.804033738327884e-19
  outer loop
    vertex 1.6919798895287383e-14 35.850000000000236 0.5000000000001936
    vertex 1.6926782574535256e-14 35.85000000000025 -7.624999999999807
    vertex 1.6929590445573064e-14 40.150000000000254 0.5000000000000019
  endloop
endfacet
facet normal 1.0 -1.0692404183694598e-18 3.804033738327884e-19
  outer loop
    vertex 1.6926782574535256e-14 35.85000000000025 -7.624999999999807
    vertex 1.6919798895287383e-14 35.850000000000236 0.5000000000001936
    vertex 1.6926782574535256e-14 35.85000000000025 -11.624999999999806
  endloop
endfacet
facet normal 1.0 -1.0692404183694598e-18 3.804033738327884e-19
  outer loop
    vertex 1.6929590445573064e-14 40.150000000000254 0.5000000000000019
    vertex 1.6926782574535256e-14 35.85000000000025 -7.624999999999807
    vertex 1.6926782574535256e-14 38.15000000000025 -7.624999999999807
  endloop
endfacet
facet normal 1.0 -1.0692404183694598e-18 3.804033738327884e-19
  outer loop
    vertex 1.6929590445573064e-14 40.150000000000254 0.5000000000000019
    vertex 1.6926782574535256e-14 38.15000000000025 -7.624999999999807
    vertex 1.6928510495173904e-14 40.150000000000254 -14.624999999999806
  endloop
endfacet
facet normal -1.0 0.0 0.0
  outer loop
    vertex -2.4999999999997926 40.15000000000025 -0.4999999999998068
    vertex -2.4999999999997926 35.85000000000025 -7.624999999999807
    vertex -2.4999999999997926 35.850000000000236 -0.4999999999998068
  endloop
endfacet
facet normal -1.0 0.0 0.0
  outer loop
    vertex -2.4999999999997926 35.85000000000025 -7.624999999999807
    vertex -2.4999999999997926 40.15000000000025 -0.4999999999998068
    vertex -2.4999999999997926 38.15000000000025 -7.624999999999807
  endloop
endfacet
facet normal -1.0 0.0 0.0
  outer loop
    vertex -2.4999999999997926 38.15000000000025 -7.624999999999807
    vertex -2.4999999999997926 40.15000000000025 -0.4999999999998068
    vertex -2.4999999999997926 38.15000000000025 -11.624999999999806
  endloop
endfacet
facet normal -1.0 0.0 0.0
  outer loop
    vertex -2.4999999999997926 35.850000000000236 -0.4999999999998068
    vertex -2.4999999999997926 33.850000000000236 -15.874999999999805
    vertex -2.4999999999997926 33.850000000000236 -5.624999999999807
  endloop
endfacet
facet normal -1.0 0.0 0.0
  outer loop
    vertex -2.4999999999997926 33.850000000000236 -15.874999999999805
    vertex -2.4999999999997926 35.850000000000236 -0.4999999999998068
    vertex -2.4999999999997926 35.85000000000025 -11.624999999999806
  endloop
endfacet
facet normal -1.0 0.0 0.0
  outer loop
    vertex -2.4999999999997926 33.850000000000236 -15.874999999999805
    vertex -2.4999999999997926 35.85000000000025 -11.624999999999806
    vertex -2.4999999999997926 40.150000000000254 -15.874999999999805
  endloop
endfacet
facet normal -1.0 0.0 0.0
  outer loop
    vertex -2.4999999999997926 35.85000000000025 -11.624999999999806
    vertex -2.4999999999997926 35.850000000000236 -0.4999999999998068
    vertex -2.4999999999997926 35.85000000000025 -7.624999999999807
  endloop
endfacet
facet normal -1.0 0.0 0.0
  outer loop
    vertex -2.4999999999997926 40.150000000000254 -15.874999999999805
    vertex -2.4999999999997926 35.85000000000025 -11.624999999999806
    vertex -2.4999999999997926 38.15000000000025 -11.624999999999806
  endloop
endfacet
facet normal -1.0 0.0 0.0
  outer loop
    vertex -2.4999999999997926 40.150000000000254 -15.874999999999805
    vertex -2.4999999999997926 38.15000000000025 -11.624999999999806
    vertex -2.4999999999997926 40.15000000000025 -0.4999999999998068
  endloop
endfacet
facet normal 0.0 -0.9315776194850601 0.36354248565270675
  outer loop
    vertex 1.692008688206049e-14 35.850000000000236 -0.4999999999998068
    vertex -2.4999999999997926 33.850000000000236 -5.624999999999807
    vertex 1.6919798895287383e-14 33.850000000000236 -5.624999999999807
  endloop
endfacet
facet normal 0.0 -0.9315776194850601 0.36354248565270675
  outer loop
    vertex -2.4999999999997926 33.850000000000236 -5.624999999999807
    vertex 1.692008688206049e-14 35.850000000000236 -0.4999999999998068
    vertex -2.4999999999997926 35.850000000000236 -0.4999999999998068
  endloop
endfacet
endsolid SIOST-KBCover
