solid SIOST-CablePlug
facet normal 0.0 0.0 -1.0
  outer loop
    vertex -4.636443966187527 1.2423314164921009 0.0
    vertex -4.636443966187528 -1.2423314164920976 0.0
    vertex -4.8 5.878304635907295e-16 0.0
  endloop
endfacet
facet normal 0.0 0.0 -1.0
  outer loop
    vertex -4.636443966187528 -1.2423314164920976 0.0
    vertex -4.636443966187527 1.2423314164921009 0.0
    vertex -4.156921938165306 -2.3999999999999986 0.0
  endloop
endfacet
facet normal 0.0 0.0 -1.0
  outer loop
    vertex -4.156921938165306 -2.3999999999999986 0.0
    vertex -4.636443966187527 1.2423314164921009 0.0
    vertex -4.156921938165304 2.4000000000000017 0.0
  endloop
endfacet
facet normal 0.0 0.0 -1.0
  outer loop
    vertex -4.156921938165306 -2.3999999999999986 0.0
    vertex -4.156921938165304 2.4000000000000017 0.0
    vertex -3.39411254969543 -3.394112549695426 0.0
  endloop
endfacet
facet normal 0.0 0.0 -1.0
  outer loop
    vertex -3.39411254969543 -3.394112549695426 0.0
    vertex -4.156921938165304 2.4000000000000017 0.0
    vertex -3.3941125496954276 3.3941125496954276 0.0
  endloop
endfacet
facet normal 0.0 0.0 -1.0
  outer loop
    vertex -3.39411254969543 -3.394112549695426 0.0
    vertex -3.3941125496954276 3.3941125496954276 0.0
    vertex -2.400000000000002 -4.156921938165304 0.0
  endloop
endfacet
facet normal 0.0 0.0 -1.0
  outer loop
    vertex -2.400000000000002 -4.156921938165304 0.0
    vertex -3.3941125496954276 3.3941125496954276 0.0
    vertex -2.3999999999999986 4.156921938165305 0.0
  endloop
endfacet
facet normal 0.0 0.0 -1.0
  outer loop
    vertex -2.400000000000002 -4.156921938165304 0.0
    vertex -2.3999999999999986 4.156921938165305 0.0
    vertex -1.242331416492103 -4.636443966187526 0.0
  endloop
endfacet
facet normal 0.0 0.0 -1.0
  outer loop
    vertex -1.242331416492103 -4.636443966187526 0.0
    vertex -2.3999999999999986 4.156921938165305 0.0
    vertex -1.2423314164920989 4.636443966187528 0.0
  endloop
endfacet
facet normal 0.0 0.0 -1.0
  outer loop
    vertex -1.242331416492103 -4.636443966187526 0.0
    vertex -1.2423314164920989 4.636443966187528 0.0
    vertex -8.817456953860942e-16 -4.8 0.0
  endloop
endfacet
facet normal 0.0 0.0 -1.0
  outer loop
    vertex -8.817456953860942e-16 -4.8 0.0
    vertex -1.2423314164920989 4.636443966187528 0.0
    vertex 2.9391523179536476e-16 4.8 0.0
  endloop
endfacet
facet normal 0.0 0.0 -1.0
  outer loop
    vertex -8.817456953860942e-16 -4.8 0.0
    vertex 2.9391523179536476e-16 4.8 0.0
    vertex 1.2423314164920973 -4.636443966187528 0.0
  endloop
endfacet
facet normal 0.0 0.0 -1.0
  outer loop
    vertex 1.2423314164920973 -4.636443966187528 0.0
    vertex 2.9391523179536476e-16 4.8 0.0
    vertex 1.2423314164921004 4.636443966187527 0.0
  endloop
endfacet
facet normal 0.0 0.0 -1.0
  outer loop
    vertex 1.2423314164920973 -4.636443966187528 0.0
    vertex 1.2423314164921004 4.636443966187527 0.0
    vertex 2.399999999999997 -4.156921938165308 0.0
  endloop
endfacet
facet normal 0.0 0.0 -1.0
  outer loop
    vertex 2.399999999999997 -4.156921938165308 0.0
    vertex 1.2423314164921004 4.636443966187527 0.0
    vertex 2.4000000000000004 4.156921938165304 0.0
  endloop
endfacet
facet normal 0.0 0.0 -1.0
  outer loop
    vertex 2.399999999999997 -4.156921938165308 0.0
    vertex 2.4000000000000004 4.156921938165304 0.0
    vertex 3.394112549695427 -3.3941125496954285 0.0
  endloop
endfacet
facet normal 0.0 0.0 -1.0
  outer loop
    vertex 3.394112549695427 -3.3941125496954285 0.0
    vertex 2.4000000000000004 4.156921938165304 0.0
    vertex 3.3941125496954276 3.3941125496954276 0.0
  endloop
endfacet
facet normal 0.0 0.0 -1.0
  outer loop
    vertex 3.394112549695427 -3.3941125496954285 0.0
    vertex 3.3941125496954276 3.3941125496954276 0.0
    vertex 4.156921938165304 -2.400000000000002 0.0
  endloop
endfacet
facet normal 0.0 0.0 -1.0
  outer loop
    vertex 4.156921938165304 -2.400000000000002 0.0
    vertex 3.3941125496954276 3.3941125496954276 0.0
    vertex 4.156921938165305 2.3999999999999995 0.0
  endloop
endfacet
facet normal 0.0 0.0 -1.0
  outer loop
    vertex 4.156921938165304 -2.400000000000002 0.0
    vertex 4.156921938165305 2.3999999999999995 0.0
    vertex 4.636443966187526 -1.2423314164921035 0.0
  endloop
endfacet
facet normal 0.0 0.0 -1.0
  outer loop
    vertex 4.636443966187526 -1.2423314164921035 0.0
    vertex 4.156921938165305 2.3999999999999995 0.0
    vertex 4.636443966187528 1.2423314164920995 0.0
  endloop
endfacet
facet normal 0.0 0.0 -1.0
  outer loop
    vertex 4.636443966187526 -1.2423314164921035 0.0
    vertex 4.636443966187528 1.2423314164920995 0.0
    vertex 4.8 0.0 0.0
  endloop
endfacet
facet normal -0.0 -0.0 1.0
  outer loop
    vertex -4.636443966187528 -1.2423314164920976 0.9999999999999999
    vertex -4.636443966187527 1.2423314164921009 0.9999999999999999
    vertex -4.8 5.878304635907295e-16 0.9999999999999999
  endloop
endfacet
facet normal -0.0 -0.0 1.0
  outer loop
    vertex -4.636443966187527 1.2423314164921009 0.9999999999999999
    vertex -4.636443966187528 -1.2423314164920976 0.9999999999999999
    vertex -4.156921938165306 -2.3999999999999986 0.9999999999999999
  endloop
endfacet
facet normal -0.0 -0.0 1.0
  outer loop
    vertex -4.636443966187527 1.2423314164921009 0.9999999999999999
    vertex -4.156921938165306 -2.3999999999999986 0.9999999999999999
    vertex -4.156921938165304 2.4000000000000017 0.9999999999999999
  endloop
endfacet
facet normal -0.0 -0.0 1.0
  outer loop
    vertex -4.156921938165304 2.4000000000000017 0.9999999999999999
    vertex -4.156921938165306 -2.3999999999999986 0.9999999999999999
    vertex -3.39411254969543 -3.394112549695426 0.9999999999999999
  endloop
endfacet
facet normal -0.0 -0.0 1.0
  outer loop
    vertex -4.156921938165304 2.4000000000000017 0.9999999999999999
    vertex -3.39411254969543 -3.394112549695426 0.9999999999999999
    vertex -3.75 -4.592425496802575e-16 0.9999999999999999
  endloop
endfacet
facet normal -0.0 -0.0 1.0
  outer loop
    vertex -3.75 -4.592425496802575e-16 0.9999999999999999
    vertex -3.39411254969543 -3.394112549695426 0.9999999999999999
    vertex -3.6222218485840063 -0.9705714191344539 0.9999999999999999
  endloop
endfacet
facet normal -0.0 -0.0 1.0
  outer loop
    vertex -3.6222218485840063 -0.9705714191344539 0.9999999999999999
    vertex -3.39411254969543 -3.394112549695426 0.9999999999999999
    vertex -3.2475952641916446 -1.8750000000000016 0.9999999999999999
  endloop
endfacet
facet normal -0.0 -0.0 1.0
  outer loop
    vertex -3.2475952641916446 -1.8750000000000016 0.9999999999999999
    vertex -3.39411254969543 -3.394112549695426 0.9999999999999999
    vertex -2.400000000000002 -4.156921938165304 0.9999999999999999
  endloop
endfacet
facet normal -0.0 -0.0 1.0
  outer loop
    vertex -3.2475952641916446 -1.8750000000000016 0.9999999999999999
    vertex -2.400000000000002 -4.156921938165304 0.9999999999999999
    vertex -2.6516504294495533 -2.6516504294495533 0.9999999999999999
  endloop
endfacet
facet normal -0.0 -0.0 1.0
  outer loop
    vertex -2.6516504294495533 -2.6516504294495533 0.9999999999999999
    vertex -2.400000000000002 -4.156921938165304 0.9999999999999999
    vertex -1.8749999999999993 -3.2475952641916455 0.9999999999999999
  endloop
endfacet
facet normal -0.0 -0.0 1.0
  outer loop
    vertex -1.8749999999999993 -3.2475952641916455 0.9999999999999999
    vertex -2.400000000000002 -4.156921938165304 0.9999999999999999
    vertex -1.242331416492103 -4.636443966187526 0.9999999999999999
  endloop
endfacet
facet normal -0.0 -0.0 1.0
  outer loop
    vertex -1.8749999999999993 -3.2475952641916455 0.9999999999999999
    vertex -1.242331416492103 -4.636443966187526 0.9999999999999999
    vertex -0.9705714191344524 -3.6222218485840063 0.9999999999999999
  endloop
endfacet
facet normal -0.0 -0.0 1.0
  outer loop
    vertex -0.9705714191344524 -3.6222218485840063 0.9999999999999999
    vertex -1.242331416492103 -4.636443966187526 0.9999999999999999
    vertex -8.817456953860942e-16 -4.8 0.9999999999999999
  endloop
endfacet
facet normal -0.0 -0.0 1.0
  outer loop
    vertex -0.9705714191344524 -3.6222218485840063 0.9999999999999999
    vertex -8.817456953860942e-16 -4.8 0.9999999999999999
    vertex 2.2962127484012875e-16 -3.75 0.9999999999999999
  endloop
endfacet
facet normal -0.0 -0.0 1.0
  outer loop
    vertex 2.2962127484012875e-16 -3.75 0.9999999999999999
    vertex -8.817456953860942e-16 -4.8 0.9999999999999999
    vertex 1.2423314164920973 -4.636443966187528 0.9999999999999999
  endloop
endfacet
facet normal -0.0 -0.0 1.0
  outer loop
    vertex 2.2962127484012875e-16 -3.75 0.9999999999999999
    vertex 1.2423314164920973 -4.636443966187528 0.9999999999999999
    vertex 0.9705714191344537 -3.6222218485840063 0.9999999999999999
  endloop
endfacet
facet normal -0.0 -0.0 1.0
  outer loop
    vertex 0.9705714191344537 -3.6222218485840063 0.9999999999999999
    vertex 1.2423314164920973 -4.636443966187528 0.9999999999999999
    vertex 1.8750000000000004 -3.2475952641916446 0.9999999999999999
  endloop
endfacet
facet normal -0.0 -0.0 1.0
  outer loop
    vertex 1.8750000000000004 -3.2475952641916446 0.9999999999999999
    vertex 1.2423314164920973 -4.636443966187528 0.9999999999999999
    vertex 2.399999999999997 -4.156921938165308 0.9999999999999999
  endloop
endfacet
facet normal -0.0 -0.0 1.0
  outer loop
    vertex 1.8750000000000004 -3.2475952641916446 0.9999999999999999
    vertex 2.399999999999997 -4.156921938165308 0.9999999999999999
    vertex 2.6516504294495533 -2.6516504294495533 0.9999999999999999
  endloop
endfacet
facet normal -0.0 -0.0 1.0
  outer loop
    vertex 2.6516504294495533 -2.6516504294495533 0.9999999999999999
    vertex 2.399999999999997 -4.156921938165308 0.9999999999999999
    vertex 3.394112549695427 -3.3941125496954285 0.9999999999999999
  endloop
endfacet
facet normal -0.0 -0.0 1.0
  outer loop
    vertex 2.6516504294495533 -2.6516504294495533 0.9999999999999999
    vertex 3.394112549695427 -3.3941125496954285 0.9999999999999999
    vertex 3.2475952641916455 -1.8749999999999998 0.9999999999999999
  endloop
endfacet
facet normal -0.0 -0.0 1.0
  outer loop
    vertex 3.2475952641916455 -1.8749999999999998 0.9999999999999999
    vertex 3.394112549695427 -3.3941125496954285 0.9999999999999999
    vertex 3.6222218485840063 -0.9705714191344528 0.9999999999999999
  endloop
endfacet
facet normal -0.0 -0.0 1.0
  outer loop
    vertex 3.6222218485840063 -0.9705714191344528 0.9999999999999999
    vertex 3.394112549695427 -3.3941125496954285 0.9999999999999999
    vertex 4.156921938165304 -2.400000000000002 0.9999999999999999
  endloop
endfacet
facet normal -0.0 -0.0 1.0
  outer loop
    vertex 3.6222218485840063 -0.9705714191344528 0.9999999999999999
    vertex 4.156921938165304 -2.400000000000002 0.9999999999999999
    vertex 3.75 0.0 0.9999999999999999
  endloop
endfacet
facet normal -0.0 -0.0 1.0
  outer loop
    vertex -3.75 -4.592425496802575e-16 0.9999999999999999
    vertex -3.3941125496954276 3.3941125496954276 0.9999999999999999
    vertex -4.156921938165304 2.4000000000000017 0.9999999999999999
  endloop
endfacet
facet normal -0.0 -0.0 1.0
  outer loop
    vertex -3.3941125496954276 3.3941125496954276 0.9999999999999999
    vertex -3.75 -4.592425496802575e-16 0.9999999999999999
    vertex -3.6222218485840068 0.9705714191344514 0.9999999999999999
  endloop
endfacet
facet normal -0.0 -0.0 1.0
  outer loop
    vertex -3.3941125496954276 3.3941125496954276 0.9999999999999999
    vertex -3.6222218485840068 0.9705714191344514 0.9999999999999999
    vertex -3.2475952641916455 1.8749999999999991 0.9999999999999999
  endloop
endfacet
facet normal -0.0 -0.0 1.0
  outer loop
    vertex -3.3941125496954276 3.3941125496954276 0.9999999999999999
    vertex -3.2475952641916455 1.8749999999999991 0.9999999999999999
    vertex -2.3999999999999986 4.156921938165305 0.9999999999999999
  endloop
endfacet
facet normal -0.0 -0.0 1.0
  outer loop
    vertex -2.3999999999999986 4.156921938165305 0.9999999999999999
    vertex -3.2475952641916455 1.8749999999999991 0.9999999999999999
    vertex -2.651650429449555 2.6516504294495515 0.9999999999999999
  endloop
endfacet
facet normal -0.0 -0.0 1.0
  outer loop
    vertex -2.3999999999999986 4.156921938165305 0.9999999999999999
    vertex -2.651650429449555 2.6516504294495515 0.9999999999999999
    vertex -1.8750000000000018 3.2475952641916446 0.9999999999999999
  endloop
endfacet
facet normal -0.0 -0.0 1.0
  outer loop
    vertex -2.3999999999999986 4.156921938165305 0.9999999999999999
    vertex -1.8750000000000018 3.2475952641916446 0.9999999999999999
    vertex -1.2423314164920989 4.636443966187528 0.9999999999999999
  endloop
endfacet
facet normal -0.0 -0.0 1.0
  outer loop
    vertex -1.2423314164920989 4.636443966187528 0.9999999999999999
    vertex -1.8750000000000018 3.2475952641916446 0.9999999999999999
    vertex -0.9705714191344558 3.6222218485840054 0.9999999999999999
  endloop
endfacet
facet normal -0.0 -0.0 1.0
  outer loop
    vertex -1.2423314164920989 4.636443966187528 0.9999999999999999
    vertex -0.9705714191344558 3.6222218485840054 0.9999999999999999
    vertex 2.9391523179536476e-16 4.8 0.9999999999999999
  endloop
endfacet
facet normal -0.0 -0.0 1.0
  outer loop
    vertex 2.9391523179536476e-16 4.8 0.9999999999999999
    vertex -0.9705714191344558 3.6222218485840054 0.9999999999999999
    vertex -6.888638245203862e-16 3.75 0.9999999999999999
  endloop
endfacet
facet normal -0.0 -0.0 1.0
  outer loop
    vertex 2.9391523179536476e-16 4.8 0.9999999999999999
    vertex -6.888638245203862e-16 3.75 0.9999999999999999
    vertex 0.9705714191344512 3.6222218485840068 0.9999999999999999
  endloop
endfacet
facet normal -0.0 -0.0 1.0
  outer loop
    vertex 2.9391523179536476e-16 4.8 0.9999999999999999
    vertex 0.9705714191344512 3.6222218485840068 0.9999999999999999
    vertex 1.2423314164921004 4.636443966187527 0.9999999999999999
  endloop
endfacet
facet normal -0.0 -0.0 1.0
  outer loop
    vertex 1.2423314164921004 4.636443966187527 0.9999999999999999
    vertex 0.9705714191344512 3.6222218485840068 0.9999999999999999
    vertex 1.8749999999999976 3.247595264191647 0.9999999999999999
  endloop
endfacet
facet normal -0.0 -0.0 1.0
  outer loop
    vertex 1.2423314164921004 4.636443966187527 0.9999999999999999
    vertex 1.8749999999999976 3.247595264191647 0.9999999999999999
    vertex 2.4000000000000004 4.156921938165304 0.9999999999999999
  endloop
endfacet
facet normal -0.0 -0.0 1.0
  outer loop
    vertex 2.4000000000000004 4.156921938165304 0.9999999999999999
    vertex 1.8749999999999976 3.247595264191647 0.9999999999999999
    vertex 2.651650429449553 2.6516504294495538 0.9999999999999999
  endloop
endfacet
facet normal -0.0 -0.0 1.0
  outer loop
    vertex 2.4000000000000004 4.156921938165304 0.9999999999999999
    vertex 2.651650429449553 2.6516504294495538 0.9999999999999999
    vertex 3.3941125496954276 3.3941125496954276 0.9999999999999999
  endloop
endfacet
facet normal -0.0 -0.0 1.0
  outer loop
    vertex 3.3941125496954276 3.3941125496954276 0.9999999999999999
    vertex 2.651650429449553 2.6516504294495538 0.9999999999999999
    vertex 3.247595264191644 1.8750000000000018 0.9999999999999999
  endloop
endfacet
facet normal -0.0 -0.0 1.0
  outer loop
    vertex 3.3941125496954276 3.3941125496954276 0.9999999999999999
    vertex 3.247595264191644 1.8750000000000018 0.9999999999999999
    vertex 3.6222218485840054 0.970571419134456 0.9999999999999999
  endloop
endfacet
facet normal -0.0 -0.0 1.0
  outer loop
    vertex 3.3941125496954276 3.3941125496954276 0.9999999999999999
    vertex 3.6222218485840054 0.970571419134456 0.9999999999999999
    vertex 4.156921938165305 2.3999999999999995 0.9999999999999999
  endloop
endfacet
facet normal -0.0 -0.0 1.0
  outer loop
    vertex 4.156921938165305 2.3999999999999995 0.9999999999999999
    vertex 3.6222218485840054 0.970571419134456 0.9999999999999999
    vertex 3.75 0.0 0.9999999999999999
  endloop
endfacet
facet normal -0.0 -0.0 1.0
  outer loop
    vertex 4.156921938165305 2.3999999999999995 0.9999999999999999
    vertex 3.75 0.0 0.9999999999999999
    vertex 4.156921938165304 -2.400000000000002 0.9999999999999999
  endloop
endfacet
facet normal -0.0 -0.0 1.0
  outer loop
    vertex 4.156921938165305 2.3999999999999995 0.9999999999999999
    vertex 4.156921938165304 -2.400000000000002 0.9999999999999999
    vertex 4.636443966187526 -1.2423314164921035 0.9999999999999999
  endloop
endfacet
facet normal -0.0 -0.0 1.0
  outer loop
    vertex 4.156921938165305 2.3999999999999995 0.9999999999999999
    vertex 4.636443966187526 -1.2423314164921035 0.9999999999999999
    vertex 4.636443966187528 1.2423314164920995 0.9999999999999999
  endloop
endfacet
facet normal -0.0 -0.0 1.0
  outer loop
    vertex 4.636443966187528 1.2423314164920995 0.9999999999999999
    vertex 4.636443966187526 -1.2423314164921035 0.9999999999999999
    vertex 4.8 0.0 0.9999999999999999
  endloop
endfacet
facet normal -0.7933533402912348 0.6087614290087211 0.0
  outer loop
    vertex -3.3941125496954276 3.3941125496954276 0.9999999999999999
    vertex -4.156921938165304 2.4000000000000017 0.0
    vertex -4.156921938165304 2.4000000000000017 0.9999999999999999
  endloop
endfacet
facet normal -0.7933533402912348 0.6087614290087211 0.0
  outer loop
    vertex -4.156921938165304 2.4000000000000017 0.0
    vertex -3.3941125496954276 3.3941125496954276 0.9999999999999999
    vertex -3.3941125496954276 3.3941125496954276 0.0
  endloop
endfacet
facet normal -0.6087614290087204 0.7933533402912355 0.0
  outer loop
    vertex -3.3941125496954276 3.3941125496954276 0.9999999999999999
    vertex -2.3999999999999986 4.156921938165305 0.0
    vertex -3.3941125496954276 3.3941125496954276 0.0
  endloop
endfacet
facet normal -0.6087614290087204 0.7933533402912355 0.0
  outer loop
    vertex -2.3999999999999986 4.156921938165305 0.0
    vertex -3.3941125496954276 3.3941125496954276 0.9999999999999999
    vertex -2.3999999999999986 4.156921938165305 0.9999999999999999
  endloop
endfacet
facet normal -0.38268343236509006 0.9238795325112866 0.0
  outer loop
    vertex -2.3999999999999986 4.156921938165305 0.9999999999999999
    vertex -1.2423314164920989 4.636443966187528 0.0
    vertex -2.3999999999999986 4.156921938165305 0.0
  endloop
endfacet
facet normal -0.38268343236509006 0.9238795325112866 0.0
  outer loop
    vertex -1.2423314164920989 4.636443966187528 0.0
    vertex -2.3999999999999986 4.156921938165305 0.9999999999999999
    vertex -1.2423314164920989 4.636443966187528 0.9999999999999999
  endloop
endfacet
facet normal -0.13052619222005135 0.9914448613738106 0.0
  outer loop
    vertex -1.2423314164920989 4.636443966187528 0.9999999999999999
    vertex 2.9391523179536476e-16 4.8 0.0
    vertex -1.2423314164920989 4.636443966187528 0.0
  endloop
endfacet
facet normal -0.13052619222005135 0.9914448613738106 0.0
  outer loop
    vertex 2.9391523179536476e-16 4.8 0.0
    vertex -1.2423314164920989 4.636443966187528 0.9999999999999999
    vertex 2.9391523179536476e-16 4.8 0.9999999999999999
  endloop
endfacet
facet normal 0.1305261922200518 0.9914448613738104 0.0
  outer loop
    vertex 2.9391523179536476e-16 4.8 0.9999999999999999
    vertex 1.2423314164921004 4.636443966187527 0.0
    vertex 2.9391523179536476e-16 4.8 0.0
  endloop
endfacet
facet normal 0.1305261922200518 0.9914448613738104 0.0
  outer loop
    vertex 1.2423314164921004 4.636443966187527 0.0
    vertex 2.9391523179536476e-16 4.8 0.9999999999999999
    vertex 1.2423314164921004 4.636443966187527 0.9999999999999999
  endloop
endfacet
facet normal 0.3826834323650901 0.9238795325112868 0.0
  outer loop
    vertex 1.2423314164921004 4.636443966187527 0.9999999999999999
    vertex 2.4000000000000004 4.156921938165304 0.0
    vertex 1.2423314164921004 4.636443966187527 0.0
  endloop
endfacet
facet normal 0.3826834323650901 0.9238795325112868 0.0
  outer loop
    vertex 2.4000000000000004 4.156921938165304 0.0
    vertex 1.2423314164921004 4.636443966187527 0.9999999999999999
    vertex 2.4000000000000004 4.156921938165304 0.9999999999999999
  endloop
endfacet
facet normal 0.6087614290087207 0.7933533402912352 0.0
  outer loop
    vertex 2.4000000000000004 4.156921938165304 0.9999999999999999
    vertex 3.3941125496954276 3.3941125496954276 0.0
    vertex 2.4000000000000004 4.156921938165304 0.0
  endloop
endfacet
facet normal 0.6087614290087207 0.7933533402912352 0.0
  outer loop
    vertex 3.3941125496954276 3.3941125496954276 0.0
    vertex 2.4000000000000004 4.156921938165304 0.9999999999999999
    vertex 3.3941125496954276 3.3941125496954276 0.9999999999999999
  endloop
endfacet
facet normal 0.7933533402912354 0.6087614290087207 0.0
  outer loop
    vertex 3.3941125496954276 3.3941125496954276 0.0
    vertex 4.156921938165305 2.3999999999999995 0.9999999999999999
    vertex 4.156921938165305 2.3999999999999995 0.0
  endloop
endfacet
facet normal 0.7933533402912354 0.6087614290087207 0.0
  outer loop
    vertex 4.156921938165305 2.3999999999999995 0.9999999999999999
    vertex 3.3941125496954276 3.3941125496954276 0.0
    vertex 3.3941125496954276 3.3941125496954276 0.9999999999999999
  endloop
endfacet
facet normal 0.9238795325112868 0.3826834323650901 0.0
  outer loop
    vertex 4.156921938165305 2.3999999999999995 0.0
    vertex 4.636443966187528 1.2423314164920995 0.9999999999999999
    vertex 4.636443966187528 1.2423314164920995 0.0
  endloop
endfacet
facet normal 0.9238795325112868 0.3826834323650901 0.0
  outer loop
    vertex 4.636443966187528 1.2423314164920995 0.9999999999999999
    vertex 4.156921938165305 2.3999999999999995 0.0
    vertex 4.156921938165305 2.3999999999999995 0.9999999999999999
  endloop
endfacet
facet normal 0.9914448613738104 0.1305261922200513 0.0
  outer loop
    vertex 4.636443966187528 1.2423314164920995 0.0
    vertex 4.8 0.0 0.9999999999999999
    vertex 4.8 0.0 0.0
  endloop
endfacet
facet normal 0.9914448613738104 0.1305261922200513 0.0
  outer loop
    vertex 4.8 0.0 0.9999999999999999
    vertex 4.636443966187528 1.2423314164920995 0.0
    vertex 4.636443966187528 1.2423314164920995 0.9999999999999999
  endloop
endfacet
facet normal 0.9914448613738105 -0.13052619222005202 0.0
  outer loop
    vertex 4.8 0.0 0.0
    vertex 4.636443966187526 -1.2423314164921035 0.9999999999999999
    vertex 4.636443966187526 -1.2423314164921035 0.0
  endloop
endfacet
facet normal 0.9914448613738105 -0.13052619222005202 0.0
  outer loop
    vertex 4.636443966187526 -1.2423314164921035 0.9999999999999999
    vertex 4.8 0.0 0.0
    vertex 4.8 0.0 0.9999999999999999
  endloop
endfacet
facet normal 0.9238795325112865 -0.38268343236509045 0.0
  outer loop
    vertex 4.636443966187526 -1.2423314164921035 0.0
    vertex 4.156921938165304 -2.400000000000002 0.9999999999999999
    vertex 4.156921938165304 -2.400000000000002 0.0
  endloop
endfacet
facet normal 0.9238795325112865 -0.38268343236509045 0.0
  outer loop
    vertex 4.156921938165304 -2.400000000000002 0.9999999999999999
    vertex 4.636443966187526 -1.2423314164921035 0.0
    vertex 4.636443966187526 -1.2423314164921035 0.9999999999999999
  endloop
endfacet
facet normal 0.7933533402912349 -0.6087614290087209 0.0
  outer loop
    vertex 4.156921938165304 -2.400000000000002 0.0
    vertex 3.394112549695427 -3.3941125496954285 0.9999999999999999
    vertex 3.394112549695427 -3.3941125496954285 0.0
  endloop
endfacet
facet normal 0.7933533402912349 -0.6087614290087209 0.0
  outer loop
    vertex 3.394112549695427 -3.3941125496954285 0.9999999999999999
    vertex 4.156921938165304 -2.400000000000002 0.0
    vertex 4.156921938165304 -2.400000000000002 0.9999999999999999
  endloop
endfacet
facet normal 0.6087614290087205 -0.7933533402912354 0.0
  outer loop
    vertex 3.394112549695427 -3.3941125496954285 0.9999999999999999
    vertex 2.399999999999997 -4.156921938165308 0.0
    vertex 3.394112549695427 -3.3941125496954285 0.0
  endloop
endfacet
facet normal 0.6087614290087205 -0.7933533402912354 0.0
  outer loop
    vertex 2.399999999999997 -4.156921938165308 0.0
    vertex 3.394112549695427 -3.3941125496954285 0.9999999999999999
    vertex 2.399999999999997 -4.156921938165308 0.9999999999999999
  endloop
endfacet
facet normal 0.3826834323650888 -0.9238795325112872 0.0
  outer loop
    vertex 2.399999999999997 -4.156921938165308 0.9999999999999999
    vertex 1.2423314164920973 -4.636443966187528 0.0
    vertex 2.399999999999997 -4.156921938165308 0.0
  endloop
endfacet
facet normal 0.3826834323650888 -0.9238795325112872 0.0
  outer loop
    vertex 1.2423314164920973 -4.636443966187528 0.0
    vertex 2.399999999999997 -4.156921938165308 0.9999999999999999
    vertex 1.2423314164920973 -4.636443966187528 0.9999999999999999
  endloop
endfacet
facet normal 0.13052619222005146 -0.9914448613738106 0.0
  outer loop
    vertex 1.2423314164920973 -4.636443966187528 0.9999999999999999
    vertex -8.817456953860942e-16 -4.8 0.0
    vertex 1.2423314164920973 -4.636443966187528 0.0
  endloop
endfacet
facet normal 0.13052619222005146 -0.9914448613738106 0.0
  outer loop
    vertex -8.817456953860942e-16 -4.8 0.0
    vertex 1.2423314164920973 -4.636443966187528 0.9999999999999999
    vertex -8.817456953860942e-16 -4.8 0.9999999999999999
  endloop
endfacet
facet normal -0.13052619222005213 -0.9914448613738104 -0.0
  outer loop
    vertex -8.817456953860942e-16 -4.8 0.9999999999999999
    vertex -1.242331416492103 -4.636443966187526 0.0
    vertex -8.817456953860942e-16 -4.8 0.0
  endloop
endfacet
facet normal -0.13052619222005213 -0.9914448613738104 -0.0
  outer loop
    vertex -1.242331416492103 -4.636443966187526 0.0
    vertex -8.817456953860942e-16 -4.8 0.9999999999999999
    vertex -1.242331416492103 -4.636443966187526 0.9999999999999999
  endloop
endfacet
facet normal -0.3826834323650899 -0.9238795325112867 -0.0
  outer loop
    vertex -1.242331416492103 -4.636443966187526 0.9999999999999999
    vertex -2.400000000000002 -4.156921938165304 0.0
    vertex -1.242331416492103 -4.636443966187526 0.0
  endloop
endfacet
facet normal -0.3826834323650899 -0.9238795325112867 -0.0
  outer loop
    vertex -2.400000000000002 -4.156921938165304 0.0
    vertex -1.242331416492103 -4.636443966187526 0.9999999999999999
    vertex -2.400000000000002 -4.156921938165304 0.9999999999999999
  endloop
endfacet
facet normal -0.6087614290087215 -0.7933533402912346 -0.0
  outer loop
    vertex -2.400000000000002 -4.156921938165304 0.9999999999999999
    vertex -3.39411254969543 -3.394112549695426 0.0
    vertex -2.400000000000002 -4.156921938165304 0.0
  endloop
endfacet
facet normal -0.6087614290087215 -0.7933533402912346 -0.0
  outer loop
    vertex -3.39411254969543 -3.394112549695426 0.0
    vertex -2.400000000000002 -4.156921938165304 0.9999999999999999
    vertex -3.39411254969543 -3.394112549695426 0.9999999999999999
  endloop
endfacet
facet normal -0.7933533402912355 -0.6087614290087203 -0.0
  outer loop
    vertex -4.156921938165306 -2.3999999999999986 0.9999999999999999
    vertex -3.39411254969543 -3.394112549695426 0.0
    vertex -3.39411254969543 -3.394112549695426 0.9999999999999999
  endloop
endfacet
facet normal -0.7933533402912355 -0.6087614290087203 -0.0
  outer loop
    vertex -3.39411254969543 -3.394112549695426 0.0
    vertex -4.156921938165306 -2.3999999999999986 0.9999999999999999
    vertex -4.156921938165306 -2.3999999999999986 0.0
  endloop
endfacet
facet normal -0.9238795325112871 -0.38268343236508934 -0.0
  outer loop
    vertex -4.636443966187528 -1.2423314164920976 0.9999999999999999
    vertex -4.156921938165306 -2.3999999999999986 0.0
    vertex -4.156921938165306 -2.3999999999999986 0.9999999999999999
  endloop
endfacet
facet normal -0.9238795325112871 -0.38268343236508934 -0.0
  outer loop
    vertex -4.156921938165306 -2.3999999999999986 0.0
    vertex -4.636443966187528 -1.2423314164920976 0.9999999999999999
    vertex -4.636443966187528 -1.2423314164920976 0.0
  endloop
endfacet
facet normal -0.9914448613738105 -0.13052619222005146 -0.0
  outer loop
    vertex -4.8 5.878304635907295e-16 0.9999999999999999
    vertex -4.636443966187528 -1.2423314164920976 0.0
    vertex -4.636443966187528 -1.2423314164920976 0.9999999999999999
  endloop
endfacet
facet normal -0.9914448613738105 -0.13052619222005146 -0.0
  outer loop
    vertex -4.636443966187528 -1.2423314164920976 0.0
    vertex -4.8 5.878304635907295e-16 0.9999999999999999
    vertex -4.8 5.878304635907295e-16 0.0
  endloop
endfacet
facet normal -0.9914448613738104 0.13052619222005177 0.0
  outer loop
    vertex -4.636443966187527 1.2423314164921009 0.9999999999999999
    vertex -4.8 5.878304635907295e-16 0.0
    vertex -4.8 5.878304635907295e-16 0.9999999999999999
  endloop
endfacet
facet normal -0.9914448613738104 0.13052619222005177 0.0
  outer loop
    vertex -4.8 5.878304635907295e-16 0.0
    vertex -4.636443966187527 1.2423314164921009 0.9999999999999999
    vertex -4.636443966187527 1.2423314164921009 0.0
  endloop
endfacet
facet normal -0.9238795325112867 0.3826834323650898 0.0
  outer loop
    vertex -4.156921938165304 2.4000000000000017 0.9999999999999999
    vertex -4.636443966187527 1.2423314164921009 0.0
    vertex -4.636443966187527 1.2423314164921009 0.9999999999999999
  endloop
endfacet
facet normal -0.9238795325112867 0.3826834323650898 0.0
  outer loop
    vertex -4.636443966187527 1.2423314164921009 0.0
    vertex -4.156921938165304 2.4000000000000017 0.9999999999999999
    vertex -4.156921938165304 2.4000000000000017 0.0
  endloop
endfacet
facet normal 0.0 0.0 1.0
  outer loop
    vertex -3.2475952641916446 -1.8750000000000016 3.5
    vertex -3.45 -4.2250314570583683e-16 3.5
    vertex -3.6222218485840063 -0.9705714191344539 3.5
  endloop
endfacet
facet normal 0.0 0.0 1.0
  outer loop
    vertex -3.45 -4.2250314570583683e-16 3.5
    vertex -3.2475952641916446 -1.8750000000000016 3.5
    vertex -3.332444100697286 -0.8929257056036976 3.5
  endloop
endfacet
facet normal 0.0 0.0 1.0
  outer loop
    vertex -3.332444100697286 -0.8929257056036976 3.5
    vertex -3.2475952641916446 -1.8750000000000016 3.5
    vertex -2.987787643056313 -1.725000000000001 3.5
  endloop
endfacet
facet normal 0.0 0.0 1.0
  outer loop
    vertex -2.987787643056313 -1.725000000000001 3.5
    vertex -3.2475952641916446 -1.8750000000000016 3.5
    vertex -2.6516504294495533 -2.6516504294495533 3.5
  endloop
endfacet
facet normal 0.0 0.0 1.0
  outer loop
    vertex -2.987787643056313 -1.725000000000001 3.5
    vertex -2.6516504294495533 -2.6516504294495533 3.5
    vertex -2.4395183950935886 -2.439518395093589 3.5
  endloop
endfacet
facet normal 0.0 0.0 1.0
  outer loop
    vertex -2.4395183950935886 -2.439518395093589 3.5
    vertex -2.6516504294495533 -2.6516504294495533 3.5
    vertex -1.8749999999999993 -3.2475952641916455 3.5
  endloop
endfacet
facet normal 0.0 0.0 1.0
  outer loop
    vertex -2.4395183950935886 -2.439518395093589 3.5
    vertex -1.8749999999999993 -3.2475952641916455 3.5
    vertex -1.7249999999999992 -2.9877876430563135 3.5
  endloop
endfacet
facet normal 0.0 0.0 1.0
  outer loop
    vertex -1.7249999999999992 -2.9877876430563135 3.5
    vertex -1.8749999999999993 -3.2475952641916455 3.5
    vertex -0.9705714191344524 -3.6222218485840063 3.5
  endloop
endfacet
facet normal 0.0 0.0 1.0
  outer loop
    vertex -1.7249999999999992 -2.9877876430563135 3.5
    vertex -0.9705714191344524 -3.6222218485840063 3.5
    vertex -0.8929257056036961 -3.332444100697286 3.5
  endloop
endfacet
facet normal 0.0 0.0 1.0
  outer loop
    vertex -0.8929257056036961 -3.332444100697286 3.5
    vertex -0.9705714191344524 -3.6222218485840063 3.5
    vertex 2.2962127484012875e-16 -3.75 3.5
  endloop
endfacet
facet normal 0.0 0.0 1.0
  outer loop
    vertex -0.8929257056036961 -3.332444100697286 3.5
    vertex 2.2962127484012875e-16 -3.75 3.5
    vertex 2.1125157285291842e-16 -3.45 3.5
  endloop
endfacet
facet normal 0.0 0.0 1.0
  outer loop
    vertex 2.1125157285291842e-16 -3.45 3.5
    vertex 2.2962127484012875e-16 -3.75 3.5
    vertex 0.8929257056036973 -3.332444100697286 3.5
  endloop
endfacet
facet normal 0.0 0.0 1.0
  outer loop
    vertex 0.8929257056036973 -3.332444100697286 3.5
    vertex 2.2962127484012875e-16 -3.75 3.5
    vertex 0.9705714191344537 -3.6222218485840063 3.5
  endloop
endfacet
facet normal 0.0 0.0 1.0
  outer loop
    vertex 0.8929257056036973 -3.332444100697286 3.5
    vertex 0.9705714191344537 -3.6222218485840063 3.5
    vertex 1.7250000000000003 -2.987787643056313 3.5
  endloop
endfacet
facet normal 0.0 0.0 1.0
  outer loop
    vertex 1.7250000000000003 -2.987787643056313 3.5
    vertex 0.9705714191344537 -3.6222218485840063 3.5
    vertex 1.8750000000000004 -3.2475952641916446 3.5
  endloop
endfacet
facet normal 0.0 0.0 1.0
  outer loop
    vertex 1.7250000000000003 -2.987787643056313 3.5
    vertex 1.8750000000000004 -3.2475952641916446 3.5
    vertex 2.439518395093589 -2.439518395093589 3.5
  endloop
endfacet
facet normal 0.0 0.0 1.0
  outer loop
    vertex 2.439518395093589 -2.439518395093589 3.5
    vertex 1.8750000000000004 -3.2475952641916446 3.5
    vertex 2.6516504294495533 -2.6516504294495533 3.5
  endloop
endfacet
facet normal 0.0 0.0 1.0
  outer loop
    vertex 2.439518395093589 -2.439518395093589 3.5
    vertex 2.6516504294495533 -2.6516504294495533 3.5
    vertex 2.9877876430563135 -1.7249999999999996 3.5
  endloop
endfacet
facet normal 0.0 0.0 1.0
  outer loop
    vertex 2.9877876430563135 -1.7249999999999996 3.5
    vertex 2.6516504294495533 -2.6516504294495533 3.5
    vertex 3.2475952641916455 -1.8749999999999998 3.5
  endloop
endfacet
facet normal 0.0 0.0 1.0
  outer loop
    vertex 2.9877876430563135 -1.7249999999999996 3.5
    vertex 3.2475952641916455 -1.8749999999999998 3.5
    vertex 3.332444100697286 -0.8929257056036967 3.5
  endloop
endfacet
facet normal 0.0 0.0 1.0
  outer loop
    vertex 3.332444100697286 -0.8929257056036967 3.5
    vertex 3.2475952641916455 -1.8749999999999998 3.5
    vertex 3.6222218485840063 -0.9705714191344528 3.5
  endloop
endfacet
facet normal 0.0 0.0 1.0
  outer loop
    vertex 3.332444100697286 -0.8929257056036967 3.5
    vertex 3.6222218485840063 -0.9705714191344528 3.5
    vertex 3.45 0.0 3.5
  endloop
endfacet
facet normal 0.0 0.0 1.0
  outer loop
    vertex 3.45 0.0 3.5
    vertex 3.6222218485840063 -0.9705714191344528 3.5
    vertex 3.6222218485840054 0.970571419134456 3.5
  endloop
endfacet
facet normal 0.0 0.0 1.0
  outer loop
    vertex 3.6222218485840054 0.970571419134456 3.5
    vertex 3.6222218485840063 -0.9705714191344528 3.5
    vertex 3.75 0.0 3.5
  endloop
endfacet
facet normal 0.0 0.0 1.0
  outer loop
    vertex -3.6222218485840063 -0.9705714191344539 3.5
    vertex -3.6222218485840068 0.9705714191344514 3.5
    vertex -3.75 -4.592425496802575e-16 3.5
  endloop
endfacet
facet normal 0.0 0.0 1.0
  outer loop
    vertex -3.6222218485840068 0.9705714191344514 3.5
    vertex -3.6222218485840063 -0.9705714191344539 3.5
    vertex -3.2475952641916455 1.8749999999999991 3.5
  endloop
endfacet
facet normal 0.0 0.0 1.0
  outer loop
    vertex -3.2475952641916455 1.8749999999999991 3.5
    vertex -3.6222218485840063 -0.9705714191344539 3.5
    vertex -3.45 -4.2250314570583683e-16 3.5
  endloop
endfacet
facet normal 0.0 0.0 1.0
  outer loop
    vertex -3.2475952641916455 1.8749999999999991 3.5
    vertex -3.45 -4.2250314570583683e-16 3.5
    vertex -3.3324441006972862 0.8929257056036952 3.5
  endloop
endfacet
facet normal 0.0 0.0 1.0
  outer loop
    vertex -3.2475952641916455 1.8749999999999991 3.5
    vertex -3.3324441006972862 0.8929257056036952 3.5
    vertex -2.987787643056314 1.724999999999999 3.5
  endloop
endfacet
facet normal 0.0 0.0 1.0
  outer loop
    vertex -3.2475952641916455 1.8749999999999991 3.5
    vertex -2.987787643056314 1.724999999999999 3.5
    vertex -2.651650429449555 2.6516504294495515 3.5
  endloop
endfacet
facet normal 0.0 0.0 1.0
  outer loop
    vertex -2.651650429449555 2.6516504294495515 3.5
    vertex -2.987787643056314 1.724999999999999 3.5
    vertex -2.4395183950935904 2.4395183950935877 3.5
  endloop
endfacet
facet normal 0.0 0.0 1.0
  outer loop
    vertex -2.651650429449555 2.6516504294495515 3.5
    vertex -2.4395183950935904 2.4395183950935877 3.5
    vertex -1.8750000000000018 3.2475952641916446 3.5
  endloop
endfacet
facet normal 0.0 0.0 1.0
  outer loop
    vertex -1.8750000000000018 3.2475952641916446 3.5
    vertex -2.4395183950935904 2.4395183950935877 3.5
    vertex -1.7250000000000014 2.987787643056313 3.5
  endloop
endfacet
facet normal 0.0 0.0 1.0
  outer loop
    vertex -1.8750000000000018 3.2475952641916446 3.5
    vertex -1.7250000000000014 2.987787643056313 3.5
    vertex -0.9705714191344558 3.6222218485840054 3.5
  endloop
endfacet
facet normal 0.0 0.0 1.0
  outer loop
    vertex -0.9705714191344558 3.6222218485840054 3.5
    vertex -1.7250000000000014 2.987787643056313 3.5
    vertex -0.8929257056036993 3.332444100697285 3.5
  endloop
endfacet
facet normal 0.0 0.0 1.0
  outer loop
    vertex -0.9705714191344558 3.6222218485840054 3.5
    vertex -0.8929257056036993 3.332444100697285 3.5
    vertex -6.888638245203862e-16 3.75 3.5
  endloop
endfacet
facet normal 0.0 0.0 1.0
  outer loop
    vertex -6.888638245203862e-16 3.75 3.5
    vertex -0.8929257056036993 3.332444100697285 3.5
    vertex -6.337547185587552e-16 3.45 3.5
  endloop
endfacet
facet normal 0.0 0.0 1.0
  outer loop
    vertex -6.888638245203862e-16 3.75 3.5
    vertex -6.337547185587552e-16 3.45 3.5
    vertex 0.9705714191344512 3.6222218485840068 3.5
  endloop
endfacet
facet normal 0.0 0.0 1.0
  outer loop
    vertex 0.9705714191344512 3.6222218485840068 3.5
    vertex -6.337547185587552e-16 3.45 3.5
    vertex 0.8929257056036951 3.3324441006972862 3.5
  endloop
endfacet
facet normal 0.0 0.0 1.0
  outer loop
    vertex 0.9705714191344512 3.6222218485840068 3.5
    vertex 0.8929257056036951 3.3324441006972862 3.5
    vertex 1.7249999999999976 2.987787643056315 3.5
  endloop
endfacet
facet normal 0.0 0.0 1.0
  outer loop
    vertex 0.9705714191344512 3.6222218485840068 3.5
    vertex 1.7249999999999976 2.987787643056315 3.5
    vertex 1.8749999999999976 3.247595264191647 3.5
  endloop
endfacet
facet normal 0.0 0.0 1.0
  outer loop
    vertex 1.8749999999999976 3.247595264191647 3.5
    vertex 1.7249999999999976 2.987787643056315 3.5
    vertex 2.439518395093588 2.4395183950935895 3.5
  endloop
endfacet
facet normal 0.0 0.0 1.0
  outer loop
    vertex 1.8749999999999976 3.247595264191647 3.5
    vertex 2.439518395093588 2.4395183950935895 3.5
    vertex 2.651650429449553 2.6516504294495538 3.5
  endloop
endfacet
facet normal 0.0 0.0 1.0
  outer loop
    vertex 2.651650429449553 2.6516504294495538 3.5
    vertex 2.439518395093588 2.4395183950935895 3.5
    vertex 2.9877876430563126 1.7250000000000014 3.5
  endloop
endfacet
facet normal 0.0 0.0 1.0
  outer loop
    vertex 2.651650429449553 2.6516504294495538 3.5
    vertex 2.9877876430563126 1.7250000000000014 3.5
    vertex 3.247595264191644 1.8750000000000018 3.5
  endloop
endfacet
facet normal 0.0 0.0 1.0
  outer loop
    vertex 3.247595264191644 1.8750000000000018 3.5
    vertex 2.9877876430563126 1.7250000000000014 3.5
    vertex 3.332444100697285 0.8929257056036994 3.5
  endloop
endfacet
facet normal 0.0 0.0 1.0
  outer loop
    vertex 3.247595264191644 1.8750000000000018 3.5
    vertex 3.332444100697285 0.8929257056036994 3.5
    vertex 3.6222218485840054 0.970571419134456 3.5
  endloop
endfacet
facet normal 0.0 0.0 1.0
  outer loop
    vertex 3.6222218485840054 0.970571419134456 3.5
    vertex 3.332444100697285 0.8929257056036994 3.5
    vertex 3.45 0.0 3.5
  endloop
endfacet
facet normal -0.9238795325112867 -0.3826834323650898 -0.0
  outer loop
    vertex -3.6222218485840063 -0.9705714191344539 3.5
    vertex -3.2475952641916446 -1.8750000000000016 0.9999999999999999
    vertex -3.2475952641916446 -1.8750000000000016 3.5
  endloop
endfacet
facet normal -0.9238795325112867 -0.3826834323650898 -0.0
  outer loop
    vertex -3.2475952641916446 -1.8750000000000016 0.9999999999999999
    vertex -3.6222218485840063 -0.9705714191344539 3.5
    vertex -3.6222218485840063 -0.9705714191344539 0.9999999999999999
  endloop
endfacet
facet normal -0.7933533402912347 -0.6087614290087212 -0.0
  outer loop
    vertex -3.2475952641916446 -1.8750000000000016 3.5
    vertex -2.6516504294495533 -2.6516504294495533 0.9999999999999999
    vertex -2.6516504294495533 -2.6516504294495533 3.5
  endloop
endfacet
facet normal -0.7933533402912347 -0.6087614290087212 -0.0
  outer loop
    vertex -2.6516504294495533 -2.6516504294495533 0.9999999999999999
    vertex -3.2475952641916446 -1.8750000000000016 3.5
    vertex -3.2475952641916446 -1.8750000000000016 0.9999999999999999
  endloop
endfacet
facet normal -0.6087614290087207 -0.7933533402912354 -0.0
  outer loop
    vertex -1.8749999999999993 -3.2475952641916455 3.5
    vertex -2.6516504294495533 -2.6516504294495533 0.9999999999999999
    vertex -1.8749999999999993 -3.2475952641916455 0.9999999999999999
  endloop
endfacet
facet normal -0.6087614290087207 -0.7933533402912354 -0.0
  outer loop
    vertex -2.6516504294495533 -2.6516504294495533 0.9999999999999999
    vertex -1.8749999999999993 -3.2475952641916455 3.5
    vertex -2.6516504294495533 -2.6516504294495533 3.5
  endloop
endfacet
facet normal -0.3826834323650894 -0.923879532511287 -0.0
  outer loop
    vertex -0.9705714191344524 -3.6222218485840063 3.5
    vertex -1.8749999999999993 -3.2475952641916455 0.9999999999999999
    vertex -0.9705714191344524 -3.6222218485840063 0.9999999999999999
  endloop
endfacet
facet normal -0.3826834323650894 -0.923879532511287 -0.0
  outer loop
    vertex -1.8749999999999993 -3.2475952641916455 0.9999999999999999
    vertex -0.9705714191344524 -3.6222218485840063 3.5
    vertex -1.8749999999999993 -3.2475952641916455 3.5
  endloop
endfacet
facet normal -0.13052619222005177 -0.9914448613738105 -0.0
  outer loop
    vertex 2.2962127484012875e-16 -3.75 3.5
    vertex -0.9705714191344524 -3.6222218485840063 0.9999999999999999
    vertex 2.2962127484012875e-16 -3.75 0.9999999999999999
  endloop
endfacet
facet normal -0.13052619222005177 -0.9914448613738105 -0.0
  outer loop
    vertex -0.9705714191344524 -3.6222218485840063 0.9999999999999999
    vertex 2.2962127484012875e-16 -3.75 3.5
    vertex -0.9705714191344524 -3.6222218485840063 3.5
  endloop
endfacet
facet normal 0.13052619222005166 -0.9914448613738104 0.0
  outer loop
    vertex 0.9705714191344537 -3.6222218485840063 3.5
    vertex 2.2962127484012875e-16 -3.75 0.9999999999999999
    vertex 0.9705714191344537 -3.6222218485840063 0.9999999999999999
  endloop
endfacet
facet normal 0.13052619222005166 -0.9914448613738104 0.0
  outer loop
    vertex 2.2962127484012875e-16 -3.75 0.9999999999999999
    vertex 0.9705714191344537 -3.6222218485840063 3.5
    vertex 2.2962127484012875e-16 -3.75 3.5
  endloop
endfacet
facet normal 0.3826834323650901 -0.9238795325112867 0.0
  outer loop
    vertex 1.8750000000000004 -3.2475952641916446 3.5
    vertex 0.9705714191344537 -3.6222218485840063 0.9999999999999999
    vertex 1.8750000000000004 -3.2475952641916446 0.9999999999999999
  endloop
endfacet
facet normal 0.3826834323650901 -0.9238795325112867 0.0
  outer loop
    vertex 0.9705714191344537 -3.6222218485840063 0.9999999999999999
    vertex 1.8750000000000004 -3.2475952641916446 3.5
    vertex 0.9705714191344537 -3.6222218485840063 3.5
  endloop
endfacet
facet normal 0.6087614290087204 -0.7933533402912354 0.0
  outer loop
    vertex 2.6516504294495533 -2.6516504294495533 3.5
    vertex 1.8750000000000004 -3.2475952641916446 0.9999999999999999
    vertex 2.6516504294495533 -2.6516504294495533 0.9999999999999999
  endloop
endfacet
facet normal 0.6087614290087204 -0.7933533402912354 0.0
  outer loop
    vertex 1.8750000000000004 -3.2475952641916446 0.9999999999999999
    vertex 2.6516504294495533 -2.6516504294495533 3.5
    vertex 1.8750000000000004 -3.2475952641916446 3.5
  endloop
endfacet
facet normal 0.7933533402912354 -0.6087614290087207 0.0
  outer loop
    vertex 3.2475952641916455 -1.8749999999999998 0.9999999999999999
    vertex 2.6516504294495533 -2.6516504294495533 3.5
    vertex 2.6516504294495533 -2.6516504294495533 0.9999999999999999
  endloop
endfacet
facet normal 0.7933533402912354 -0.6087614290087207 0.0
  outer loop
    vertex 2.6516504294495533 -2.6516504294495533 3.5
    vertex 3.2475952641916455 -1.8749999999999998 0.9999999999999999
    vertex 3.2475952641916455 -1.8749999999999998 3.5
  endloop
endfacet
facet normal 0.923879532511287 -0.3826834323650894 0.0
  outer loop
    vertex 3.6222218485840063 -0.9705714191344528 0.9999999999999999
    vertex 3.2475952641916455 -1.8749999999999998 3.5
    vertex 3.2475952641916455 -1.8749999999999998 0.9999999999999999
  endloop
endfacet
facet normal 0.923879532511287 -0.3826834323650894 0.0
  outer loop
    vertex 3.2475952641916455 -1.8749999999999998 3.5
    vertex 3.6222218485840063 -0.9705714191344528 0.9999999999999999
    vertex 3.6222218485840063 -0.9705714191344528 3.5
  endloop
endfacet
facet normal 0.9914448613738104 -0.13052619222005174 0.0
  outer loop
    vertex 3.75 0.0 0.9999999999999999
    vertex 3.6222218485840063 -0.9705714191344528 3.5
    vertex 3.6222218485840063 -0.9705714191344528 0.9999999999999999
  endloop
endfacet
facet normal 0.9914448613738104 -0.13052619222005174 0.0
  outer loop
    vertex 3.6222218485840063 -0.9705714191344528 3.5
    vertex 3.75 0.0 0.9999999999999999
    vertex 3.75 0.0 3.5
  endloop
endfacet
facet normal 0.9914448613738105 0.13052619222005205 0.0
  outer loop
    vertex 3.6222218485840054 0.970571419134456 0.9999999999999999
    vertex 3.75 0.0 3.5
    vertex 3.75 0.0 0.9999999999999999
  endloop
endfacet
facet normal 0.9914448613738105 0.13052619222005205 0.0
  outer loop
    vertex 3.75 0.0 3.5
    vertex 3.6222218485840054 0.970571419134456 0.9999999999999999
    vertex 3.6222218485840054 0.970571419134456 3.5
  endloop
endfacet
facet normal 0.9238795325112865 0.3826834323650904 0.0
  outer loop
    vertex 3.247595264191644 1.8750000000000018 0.9999999999999999
    vertex 3.6222218485840054 0.970571419134456 3.5
    vertex 3.6222218485840054 0.970571419134456 0.9999999999999999
  endloop
endfacet
facet normal 0.9238795325112865 0.3826834323650904 0.0
  outer loop
    vertex 3.6222218485840054 0.970571419134456 3.5
    vertex 3.247595264191644 1.8750000000000018 0.9999999999999999
    vertex 3.247595264191644 1.8750000000000018 3.5
  endloop
endfacet
facet normal 0.7933533402912349 0.608761429008721 0.0
  outer loop
    vertex 2.651650429449553 2.6516504294495538 0.9999999999999999
    vertex 3.247595264191644 1.8750000000000018 3.5
    vertex 3.247595264191644 1.8750000000000018 0.9999999999999999
  endloop
endfacet
facet normal 0.7933533402912349 0.608761429008721 0.0
  outer loop
    vertex 3.247595264191644 1.8750000000000018 3.5
    vertex 2.651650429449553 2.6516504294495538 0.9999999999999999
    vertex 2.651650429449553 2.6516504294495538 3.5
  endloop
endfacet
facet normal 0.6087614290087207 0.7933533402912354 0.0
  outer loop
    vertex 1.8749999999999976 3.247595264191647 3.5
    vertex 2.651650429449553 2.6516504294495538 0.9999999999999999
    vertex 1.8749999999999976 3.247595264191647 0.9999999999999999
  endloop
endfacet
facet normal 0.6087614290087207 0.7933533402912354 0.0
  outer loop
    vertex 2.651650429449553 2.6516504294495538 0.9999999999999999
    vertex 1.8749999999999976 3.247595264191647 3.5
    vertex 2.651650429449553 2.6516504294495538 3.5
  endloop
endfacet
facet normal 0.38268343236508895 0.9238795325112871 0.0
  outer loop
    vertex 0.9705714191344512 3.6222218485840068 3.5
    vertex 1.8749999999999976 3.247595264191647 0.9999999999999999
    vertex 0.9705714191344512 3.6222218485840068 0.9999999999999999
  endloop
endfacet
facet normal 0.38268343236508895 0.9238795325112871 0.0
  outer loop
    vertex 1.8749999999999976 3.247595264191647 0.9999999999999999
    vertex 0.9705714191344512 3.6222218485840068 3.5
    vertex 1.8749999999999976 3.247595264191647 3.5
  endloop
endfacet
facet normal 0.13052619222005116 0.9914448613738106 0.0
  outer loop
    vertex -6.888638245203862e-16 3.75 3.5
    vertex 0.9705714191344512 3.6222218485840068 0.9999999999999999
    vertex -6.888638245203862e-16 3.75 0.9999999999999999
  endloop
endfacet
facet normal 0.13052619222005116 0.9914448613738106 0.0
  outer loop
    vertex 0.9705714191344512 3.6222218485840068 0.9999999999999999
    vertex -6.888638245203862e-16 3.75 3.5
    vertex 0.9705714191344512 3.6222218485840068 3.5
  endloop
endfacet
facet normal -0.13052619222005216 0.9914448613738104 0.0
  outer loop
    vertex -0.9705714191344558 3.6222218485840054 3.5
    vertex -6.888638245203862e-16 3.75 0.9999999999999999
    vertex -0.9705714191344558 3.6222218485840054 0.9999999999999999
  endloop
endfacet
facet normal -0.13052619222005216 0.9914448613738104 0.0
  outer loop
    vertex -6.888638245203862e-16 3.75 0.9999999999999999
    vertex -0.9705714191344558 3.6222218485840054 3.5
    vertex -6.888638245203862e-16 3.75 3.5
  endloop
endfacet
facet normal -0.3826834323650898 0.923879532511287 0.0
  outer loop
    vertex -1.8750000000000018 3.2475952641916446 3.5
    vertex -0.9705714191344558 3.6222218485840054 0.9999999999999999
    vertex -1.8750000000000018 3.2475952641916446 0.9999999999999999
  endloop
endfacet
facet normal -0.3826834323650898 0.923879532511287 0.0
  outer loop
    vertex -0.9705714191344558 3.6222218485840054 0.9999999999999999
    vertex -1.8750000000000018 3.2475952641916446 3.5
    vertex -0.9705714191344558 3.6222218485840054 3.5
  endloop
endfacet
facet normal -0.6087614290087217 0.7933533402912346 0.0
  outer loop
    vertex -2.651650429449555 2.6516504294495515 3.5
    vertex -1.8750000000000018 3.2475952641916446 0.9999999999999999
    vertex -2.651650429449555 2.6516504294495515 0.9999999999999999
  endloop
endfacet
facet normal -0.6087614290087217 0.7933533402912346 0.0
  outer loop
    vertex -1.8750000000000018 3.2475952641916446 0.9999999999999999
    vertex -2.651650429449555 2.6516504294495515 3.5
    vertex -1.8750000000000018 3.2475952641916446 3.5
  endloop
endfacet
facet normal -0.7933533402912355 0.6087614290087202 0.0
  outer loop
    vertex -2.651650429449555 2.6516504294495515 3.5
    vertex -3.2475952641916455 1.8749999999999991 0.9999999999999999
    vertex -3.2475952641916455 1.8749999999999991 3.5
  endloop
endfacet
facet normal -0.7933533402912355 0.6087614290087202 0.0
  outer loop
    vertex -3.2475952641916455 1.8749999999999991 0.9999999999999999
    vertex -2.651650429449555 2.6516504294495515 3.5
    vertex -2.651650429449555 2.6516504294495515 0.9999999999999999
  endloop
endfacet
facet normal -0.9238795325112867 0.3826834323650898 0.0
  outer loop
    vertex -3.2475952641916455 1.8749999999999991 3.5
    vertex -3.6222218485840068 0.9705714191344514 0.9999999999999999
    vertex -3.6222218485840068 0.9705714191344514 3.5
  endloop
endfacet
facet normal -0.9238795325112867 0.3826834323650898 0.0
  outer loop
    vertex -3.6222218485840068 0.9705714191344514 0.9999999999999999
    vertex -3.2475952641916455 1.8749999999999991 3.5
    vertex -3.2475952641916455 1.8749999999999991 0.9999999999999999
  endloop
endfacet
facet normal -0.9914448613738106 0.13052619222005116 0.0
  outer loop
    vertex -3.6222218485840068 0.9705714191344514 3.5
    vertex -3.75 -4.592425496802575e-16 0.9999999999999999
    vertex -3.75 -4.592425496802575e-16 3.5
  endloop
endfacet
facet normal -0.9914448613738106 0.13052619222005116 0.0
  outer loop
    vertex -3.75 -4.592425496802575e-16 0.9999999999999999
    vertex -3.6222218485840068 0.9705714191344514 3.5
    vertex -3.6222218485840068 0.9705714191344514 0.9999999999999999
  endloop
endfacet
facet normal -0.9914448613738104 -0.13052619222005168 -0.0
  outer loop
    vertex -3.75 -4.592425496802575e-16 3.5
    vertex -3.6222218485840063 -0.9705714191344539 0.9999999999999999
    vertex -3.6222218485840063 -0.9705714191344539 3.5
  endloop
endfacet
facet normal -0.9914448613738104 -0.13052619222005168 -0.0
  outer loop
    vertex -3.6222218485840063 -0.9705714191344539 0.9999999999999999
    vertex -3.75 -4.592425496802575e-16 3.5
    vertex -3.75 -4.592425496802575e-16 0.9999999999999999
  endloop
endfacet
facet normal 0.38000347143072616 0.9174095344769184 -0.1181402037895715
  outer loop
    vertex 0.9705714191344437 3.622221848584009 6.0
    vertex 1.7249999999999976 2.987787643056315 3.5
    vertex 0.8929257056036951 3.3324441006972862 3.5
  endloop
endfacet
facet normal 0.38000347143072616 0.9174095344769184 -0.1181402037895715
  outer loop
    vertex 1.7249999999999976 2.987787643056315 3.5
    vertex 0.9705714191344437 3.622221848584009 6.0
    vertex 1.8749999999999982 3.2475952641916463 6.0
  endloop
endfacet
facet normal 0.12961210745317361 0.9845016982464304 -0.11814020378957167
  outer loop
    vertex -8.459899447643692e-15 3.75 6.0
    vertex 0.8929257056036951 3.3324441006972862 3.5
    vertex -6.337547185587552e-16 3.45 3.5
  endloop
endfacet
facet normal 0.12961210745317361 0.9845016982464304 -0.11814020378957167
  outer loop
    vertex 0.8929257056036951 3.3324441006972862 3.5
    vertex -8.459899447643692e-15 3.75 6.0
    vertex 0.9705714191344437 3.622221848584009 6.0
  endloop
endfacet
facet normal -0.12961210745317642 0.9845016982464302 -0.11814020378957185
  outer loop
    vertex -0.97057141913446 3.6222218485840045 6.0
    vertex -6.337547185587552e-16 3.45 3.5
    vertex -0.8929257056036993 3.332444100697285 3.5
  endloop
endfacet
facet normal -0.12961210745317642 0.9845016982464302 -0.11814020378957185
  outer loop
    vertex -6.337547185587552e-16 3.45 3.5
    vertex -0.97057141913446 3.6222218485840045 6.0
    vertex -8.459899447643692e-15 3.75 6.0
  endloop
endfacet
facet normal -0.38000347143072777 0.9174095344769175 -0.1181402037895718
  outer loop
    vertex -1.8750000000000053 3.247595264191643 6.0
    vertex -0.8929257056036993 3.332444100697285 3.5
    vertex -1.7250000000000014 2.987787643056313 3.5
  endloop
endfacet
facet normal -0.38000347143072777 0.9174095344769175 -0.1181402037895718
  outer loop
    vertex -0.8929257056036993 3.332444100697285 3.5
    vertex -1.8750000000000053 3.247595264191643 6.0
    vertex -0.97057141913446 3.6222218485840045 6.0
  endloop
endfacet
facet normal -0.6044982268157044 0.7877974270237417 -0.11814020378957171
  outer loop
    vertex -2.651650429449557 2.6516504294495498 6.0
    vertex -1.7250000000000014 2.987787643056313 3.5
    vertex -2.4395183950935904 2.4395183950935877 3.5
  endloop
endfacet
facet normal -0.6044982268157044 0.7877974270237417 -0.11814020378957171
  outer loop
    vertex -1.7250000000000014 2.987787643056313 3.5
    vertex -2.651650429449557 2.6516504294495498 6.0
    vertex -1.8750000000000053 3.247595264191643 6.0
  endloop
endfacet
facet normal -0.7877974270237431 0.6044982268157028 -0.11814020378957167
  outer loop
    vertex -3.247595264191647 1.874999999999997 6.0
    vertex -2.4395183950935904 2.4395183950935877 3.5
    vertex -2.987787643056314 1.724999999999999 3.5
  endloop
endfacet
facet normal -0.7877974270237431 0.6044982268157028 -0.11814020378957167
  outer loop
    vertex -2.4395183950935904 2.4395183950935877 3.5
    vertex -3.247595264191647 1.874999999999997 6.0
    vertex -2.651650429449557 2.6516504294495498 6.0
  endloop
endfacet
facet normal -0.9174095344769182 0.3800034714307265 -0.11814020378957163
  outer loop
    vertex -3.6222218485840068 0.9705714191344503 6.0
    vertex -2.987787643056314 1.724999999999999 3.5
    vertex -3.3324441006972862 0.8929257056036952 3.5
  endloop
endfacet
facet normal -0.9174095344769182 0.3800034714307265 -0.11814020378957163
  outer loop
    vertex -2.987787643056314 1.724999999999999 3.5
    vertex -3.6222218485840068 0.9705714191344503 6.0
    vertex -3.247595264191647 1.874999999999997 6.0
  endloop
endfacet
facet normal -0.9845016982464304 0.12961210745317472 -0.1181402037895716
  outer loop
    vertex -3.6222218485840068 0.9705714191344503 6.0
    vertex -3.45 -4.2250314570583683e-16 3.5
    vertex -3.75 -1.4099832412739487e-15 6.0
  endloop
endfacet
facet normal -0.9845016982464304 0.12961210745317472 -0.1181402037895716
  outer loop
    vertex -3.45 -4.2250314570583683e-16 3.5
    vertex -3.6222218485840068 0.9705714191344503 6.0
    vertex -3.3324441006972862 0.8929257056036952 3.5
  endloop
endfacet
facet normal -0.9845016982464302 -0.12961210745317542 -0.11814020378957164
  outer loop
    vertex -3.75 -1.4099832412739487e-15 6.0
    vertex -3.332444100697286 -0.8929257056036976 3.5
    vertex -3.6222218485840063 -0.9705714191344531 6.0
  endloop
endfacet
facet normal -0.9845016982464302 -0.12961210745317542 -0.11814020378957164
  outer loop
    vertex -3.332444100697286 -0.8929257056036976 3.5
    vertex -3.75 -1.4099832412739487e-15 6.0
    vertex -3.45 -4.2250314570583683e-16 3.5
  endloop
endfacet
facet normal -0.917409534476918 -0.3800034714307271 -0.11814020378957164
  outer loop
    vertex -3.6222218485840063 -0.9705714191344531 6.0
    vertex -2.987787643056313 -1.725000000000001 3.5
    vertex -3.2475952641916455 -1.8749999999999993 6.0
  endloop
endfacet
facet normal -0.917409534476918 -0.3800034714307271 -0.11814020378957164
  outer loop
    vertex -2.987787643056313 -1.725000000000001 3.5
    vertex -3.6222218485840063 -0.9705714191344531 6.0
    vertex -3.332444100697286 -0.8929257056036976 3.5
  endloop
endfacet
facet normal -0.7877974270237427 -0.6044982268157032 -0.11814020378957174
  outer loop
    vertex -3.2475952641916455 -1.8749999999999993 6.0
    vertex -2.4395183950935886 -2.439518395093589 3.5
    vertex -2.6516504294495538 -2.6516504294495533 6.0
  endloop
endfacet
facet normal -0.7877974270237427 -0.6044982268157032 -0.11814020378957174
  outer loop
    vertex -2.4395183950935886 -2.439518395093589 3.5
    vertex -3.2475952641916455 -1.8749999999999993 6.0
    vertex -2.987787643056313 -1.725000000000001 3.5
  endloop
endfacet
facet normal -0.6044982268157031 -0.7877974270237427 -0.11814020378957185
  outer loop
    vertex -1.8749999999999998 -3.2475952641916455 6.0
    vertex -2.4395183950935886 -2.439518395093589 3.5
    vertex -1.7249999999999992 -2.9877876430563135 3.5
  endloop
endfacet
facet normal -0.6044982268157031 -0.7877974270237427 -0.11814020378957185
  outer loop
    vertex -2.4395183950935886 -2.439518395093589 3.5
    vertex -1.8749999999999998 -3.2475952641916455 6.0
    vertex -2.6516504294495538 -2.6516504294495533 6.0
  endloop
endfacet
facet normal -0.3800034714307269 -0.917409534476918 -0.11814020378957181
  outer loop
    vertex -0.9705714191344522 -3.6222218485840068 6.0
    vertex -1.7249999999999992 -2.9877876430563135 3.5
    vertex -0.8929257056036961 -3.332444100697286 3.5
  endloop
endfacet
facet normal -0.3800034714307269 -0.917409534476918 -0.11814020378957181
  outer loop
    vertex -1.7249999999999992 -2.9877876430563135 3.5
    vertex -0.9705714191344522 -3.6222218485840068 6.0
    vertex -1.8749999999999998 -3.2475952641916455 6.0
  endloop
endfacet
facet normal -0.12961210745317495 -0.9845016982464302 -0.11814020378957175
  outer loop
    vertex 1.233735336114705e-15 -3.75 6.0
    vertex -0.8929257056036961 -3.332444100697286 3.5
    vertex 2.1125157285291842e-16 -3.45 3.5
  endloop
endfacet
facet normal -0.12961210745317495 -0.9845016982464302 -0.11814020378957175
  outer loop
    vertex -0.8929257056036961 -3.332444100697286 3.5
    vertex 1.233735336114705e-15 -3.75 6.0
    vertex -0.9705714191344522 -3.6222218485840068 6.0
  endloop
endfacet
facet normal 0.12961210745317528 -0.9845016982464302 -0.11814020378957169
  outer loop
    vertex 0.9705714191344544 -3.6222218485840063 6.0
    vertex 2.1125157285291842e-16 -3.45 3.5
    vertex 0.8929257056036973 -3.332444100697286 3.5
  endloop
endfacet
facet normal 0.12961210745317528 -0.9845016982464302 -0.11814020378957169
  outer loop
    vertex 2.1125157285291842e-16 -3.45 3.5
    vertex 0.9705714191344544 -3.6222218485840063 6.0
    vertex 1.233735336114705e-15 -3.75 6.0
  endloop
endfacet
facet normal 0.3800034714307273 -0.9174095344769178 -0.11814020378957166
  outer loop
    vertex 1.8750000000000022 -3.247595264191644 6.0
    vertex 0.8929257056036973 -3.332444100697286 3.5
    vertex 1.7250000000000003 -2.987787643056313 3.5
  endloop
endfacet
facet normal 0.3800034714307273 -0.9174095344769178 -0.11814020378957166
  outer loop
    vertex 0.8929257056036973 -3.332444100697286 3.5
    vertex 1.8750000000000022 -3.247595264191644 6.0
    vertex 0.9705714191344544 -3.6222218485840063 6.0
  endloop
endfacet
facet normal 0.6044982268157038 -0.7877974270237422 -0.11814020378957166
  outer loop
    vertex 2.651650429449555 -2.6516504294495515 6.0
    vertex 1.7250000000000003 -2.987787643056313 3.5
    vertex 2.439518395093589 -2.439518395093589 3.5
  endloop
endfacet
facet normal 0.6044982268157038 -0.7877974270237422 -0.11814020378957166
  outer loop
    vertex 1.7250000000000003 -2.987787643056313 3.5
    vertex 2.651650429449555 -2.6516504294495515 6.0
    vertex 1.8750000000000022 -3.247595264191644 6.0
  endloop
endfacet
facet normal 0.7877974270237429 -0.604498226815703 -0.11814020378957167
  outer loop
    vertex 2.439518395093589 -2.439518395093589 3.5
    vertex 3.247595264191647 -1.8749999999999973 6.0
    vertex 2.651650429449555 -2.6516504294495515 6.0
  endloop
endfacet
facet normal 0.7877974270237429 -0.604498226815703 -0.11814020378957167
  outer loop
    vertex 3.247595264191647 -1.8749999999999973 6.0
    vertex 2.439518395093589 -2.439518395093589 3.5
    vertex 2.9877876430563135 -1.7249999999999996 3.5
  endloop
endfacet
facet normal 0.9174095344769182 -0.3800034714307263 -0.11814020378957166
  outer loop
    vertex 2.9877876430563135 -1.7249999999999996 3.5
    vertex 3.6222218485840068 -0.97057141913445 6.0
    vertex 3.247595264191647 -1.8749999999999973 6.0
  endloop
endfacet
facet normal 0.9174095344769182 -0.3800034714307263 -0.11814020378957166
  outer loop
    vertex 3.6222218485840068 -0.97057141913445 6.0
    vertex 2.9877876430563135 -1.7249999999999996 3.5
    vertex 3.332444100697286 -0.8929257056036967 3.5
  endloop
endfacet
facet normal 0.9845016982464302 -0.12961210745317497 -0.11814020378957162
  outer loop
    vertex 3.332444100697286 -0.8929257056036967 3.5
    vertex 3.75 2.8199664825478975e-15 6.0
    vertex 3.6222218485840068 -0.97057141913445 6.0
  endloop
endfacet
facet normal 0.9845016982464302 -0.12961210745317497 -0.11814020378957162
  outer loop
    vertex 3.75 2.8199664825478975e-15 6.0
    vertex 3.332444100697286 -0.8929257056036967 3.5
    vertex 3.45 0.0 3.5
  endloop
endfacet
facet normal 0.9845016982464302 0.12961210745317556 -0.11814020378957184
  outer loop
    vertex 3.332444100697285 0.8929257056036994 3.5
    vertex 3.75 2.8199664825478975e-15 6.0
    vertex 3.45 0.0 3.5
  endloop
endfacet
facet normal 0.9845016982464302 0.12961210745317556 -0.11814020378957184
  outer loop
    vertex 3.75 2.8199664825478975e-15 6.0
    vertex 3.332444100697285 0.8929257056036994 3.5
    vertex 3.6222218485840063 0.9705714191344552 6.0
  endloop
endfacet
facet normal 0.9174095344769175 0.38000347143072777 -0.11814020378957174
  outer loop
    vertex 2.9877876430563126 1.7250000000000014 3.5
    vertex 3.6222218485840063 0.9705714191344552 6.0
    vertex 3.332444100697285 0.8929257056036994 3.5
  endloop
endfacet
facet normal 0.9174095344769175 0.38000347143072777 -0.11814020378957174
  outer loop
    vertex 3.6222218485840063 0.9705714191344552 6.0
    vertex 2.9877876430563126 1.7250000000000014 3.5
    vertex 3.247595264191644 1.8750000000000018 6.0
  endloop
endfacet
facet normal 0.7877974270237423 0.6044982268157036 -0.11814020378957164
  outer loop
    vertex 2.439518395093588 2.4395183950935895 3.5
    vertex 3.247595264191644 1.8750000000000018 6.0
    vertex 2.9877876430563126 1.7250000000000014 3.5
  endloop
endfacet
facet normal 0.7877974270237423 0.6044982268157036 -0.11814020378957164
  outer loop
    vertex 3.247595264191644 1.8750000000000018 6.0
    vertex 2.439518395093588 2.4395183950935895 3.5
    vertex 2.6516504294495515 2.651650429449555 6.0
  endloop
endfacet
facet normal 0.6044982268157029 0.787797427023743 -0.11814020378957174
  outer loop
    vertex 1.8749999999999982 3.2475952641916463 6.0
    vertex 2.439518395093588 2.4395183950935895 3.5
    vertex 1.7249999999999976 2.987787643056315 3.5
  endloop
endfacet
facet normal 0.6044982268157029 0.787797427023743 -0.11814020378957174
  outer loop
    vertex 2.439518395093588 2.4395183950935895 3.5
    vertex 1.8749999999999982 3.2475952641916463 6.0
    vertex 2.6516504294495515 2.651650429449555 6.0
  endloop
endfacet
facet normal -1.7966106249048415e-31 -1.7966106249048424e-31 1.0
  outer loop
    vertex -3.6222218485840063 -0.9705714191344531 8.700000000000001
    vertex -3.6222218485840068 0.9705714191344503 8.700000000000001
    vertex -3.75 -1.4099832412739493e-15 8.700000000000001
  endloop
endfacet
facet normal -1.7966106249048415e-31 -1.7966106249048424e-31 1.0
  outer loop
    vertex -3.6222218485840068 0.9705714191344503 8.700000000000001
    vertex -3.6222218485840063 -0.9705714191344531 8.700000000000001
    vertex -3.247595264191647 1.874999999999997 8.700000000000001
  endloop
endfacet
facet normal -1.7966106249048415e-31 -1.7966106249048424e-31 1.0
  outer loop
    vertex -3.247595264191647 1.874999999999997 8.700000000000001
    vertex -3.6222218485840063 -0.9705714191344531 8.700000000000001
    vertex -3.2475952641916455 -1.8749999999999993 8.700000000000001
  endloop
endfacet
facet normal -1.7966106249048415e-31 -1.7966106249048424e-31 1.0
  outer loop
    vertex -3.247595264191647 1.874999999999997 8.700000000000001
    vertex -3.2475952641916455 -1.8749999999999993 8.700000000000001
    vertex -2.651650429449557 2.6516504294495498 8.700000000000001
  endloop
endfacet
facet normal -1.7966106249048415e-31 -1.7966106249048424e-31 1.0
  outer loop
    vertex -2.651650429449557 2.6516504294495498 8.700000000000001
    vertex -3.2475952641916455 -1.8749999999999993 8.700000000000001
    vertex -2.6516504294495538 -2.6516504294495533 8.700000000000001
  endloop
endfacet
facet normal -1.7966106249048415e-31 -1.7966106249048424e-31 1.0
  outer loop
    vertex -2.651650429449557 2.6516504294495498 8.700000000000001
    vertex -2.6516504294495538 -2.6516504294495533 8.700000000000001
    vertex -1.8750000000000053 3.247595264191643 8.700000000000001
  endloop
endfacet
facet normal -1.7966106249048415e-31 -1.7966106249048424e-31 1.0
  outer loop
    vertex -1.8750000000000053 3.247595264191643 8.700000000000001
    vertex -2.6516504294495538 -2.6516504294495533 8.700000000000001
    vertex -1.8749999999999998 -3.2475952641916455 8.700000000000001
  endloop
endfacet
facet normal -1.7966106249048415e-31 -1.7966106249048424e-31 1.0
  outer loop
    vertex -1.8750000000000053 3.247595264191643 8.700000000000001
    vertex -1.8749999999999998 -3.2475952641916455 8.700000000000001
    vertex -0.97057141913446 3.6222218485840045 8.700000000000001
  endloop
endfacet
facet normal -1.7966106249048415e-31 -1.7966106249048424e-31 1.0
  outer loop
    vertex -0.97057141913446 3.6222218485840045 8.700000000000001
    vertex -1.8749999999999998 -3.2475952641916455 8.700000000000001
    vertex -0.9705714191344522 -3.6222218485840068 8.700000000000001
  endloop
endfacet
facet normal -1.7966106249048415e-31 -1.7966106249048424e-31 1.0
  outer loop
    vertex -0.97057141913446 3.6222218485840045 8.700000000000001
    vertex -0.9705714191344522 -3.6222218485840068 8.700000000000001
    vertex -8.459899447643692e-15 3.75 8.700000000000001
  endloop
endfacet
facet normal -1.7966106249048415e-31 -1.7966106249048424e-31 1.0
  outer loop
    vertex -8.459899447643692e-15 3.75 8.700000000000001
    vertex -0.9705714191344522 -3.6222218485840068 8.700000000000001
    vertex 1.2337353361147047e-15 -3.75 8.700000000000001
  endloop
endfacet
facet normal -1.7966106249048415e-31 -1.7966106249048424e-31 1.0
  outer loop
    vertex -8.459899447643692e-15 3.75 8.700000000000001
    vertex 1.2337353361147047e-15 -3.75 8.700000000000001
    vertex 0.9705714191344437 3.622221848584009 8.700000000000001
  endloop
endfacet
facet normal -1.7966106249048415e-31 -1.7966106249048424e-31 1.0
  outer loop
    vertex 0.9705714191344437 3.622221848584009 8.700000000000001
    vertex 1.2337353361147047e-15 -3.75 8.700000000000001
    vertex 0.9705714191344544 -3.6222218485840063 8.700000000000001
  endloop
endfacet
facet normal -1.7966106249048415e-31 -1.7966106249048424e-31 1.0
  outer loop
    vertex 0.9705714191344437 3.622221848584009 8.700000000000001
    vertex 0.9705714191344544 -3.6222218485840063 8.700000000000001
    vertex 1.8749999999999982 3.2475952641916463 8.700000000000001
  endloop
endfacet
facet normal -1.7966106249048415e-31 -1.7966106249048424e-31 1.0
  outer loop
    vertex 1.8749999999999982 3.2475952641916463 8.700000000000001
    vertex 0.9705714191344544 -3.6222218485840063 8.700000000000001
    vertex 1.8750000000000022 -3.247595264191644 8.700000000000001
  endloop
endfacet
facet normal -1.7966106249048415e-31 -1.7966106249048424e-31 1.0
  outer loop
    vertex 1.8749999999999982 3.2475952641916463 8.700000000000001
    vertex 1.8750000000000022 -3.247595264191644 8.700000000000001
    vertex 2.6516504294495515 2.651650429449555 8.700000000000001
  endloop
endfacet
facet normal -1.7966106249048415e-31 -1.7966106249048424e-31 1.0
  outer loop
    vertex 2.6516504294495515 2.651650429449555 8.700000000000001
    vertex 1.8750000000000022 -3.247595264191644 8.700000000000001
    vertex 2.651650429449555 -2.6516504294495515 8.700000000000001
  endloop
endfacet
facet normal -1.7966106249048415e-31 -1.7966106249048424e-31 1.0
  outer loop
    vertex 2.6516504294495515 2.651650429449555 8.700000000000001
    vertex 2.651650429449555 -2.6516504294495515 8.700000000000001
    vertex 3.247595264191644 1.8750000000000018 8.700000000000001
  endloop
endfacet
facet normal -1.7966106249048415e-31 -1.7966106249048424e-31 1.0
  outer loop
    vertex 3.247595264191644 1.8750000000000018 8.700000000000001
    vertex 2.651650429449555 -2.6516504294495515 8.700000000000001
    vertex 3.247595264191647 -1.8749999999999973 8.700000000000001
  endloop
endfacet
facet normal -1.7966106249048415e-31 -1.7966106249048424e-31 1.0
  outer loop
    vertex 3.247595264191644 1.8750000000000018 8.700000000000001
    vertex 3.247595264191647 -1.8749999999999973 8.700000000000001
    vertex 3.6222218485840063 0.9705714191344552 8.700000000000001
  endloop
endfacet
facet normal -1.7966106249048415e-31 -1.7966106249048424e-31 1.0
  outer loop
    vertex 3.6222218485840063 0.9705714191344552 8.700000000000001
    vertex 3.247595264191647 -1.8749999999999973 8.700000000000001
    vertex 3.6222218485840068 -0.97057141913445 8.700000000000001
  endloop
endfacet
facet normal -1.7966106249048415e-31 -1.7966106249048424e-31 1.0
  outer loop
    vertex 3.6222218485840063 0.9705714191344552 8.700000000000001
    vertex 3.6222218485840068 -0.97057141913445 8.700000000000001
    vertex 3.75 2.8199664825478967e-15 8.700000000000001
  endloop
endfacet
facet normal 0.3826834323650885 0.9238795325112874 2.3473849048040686e-31
  outer loop
    vertex 0.9705714191344437 3.622221848584009 8.700000000000001
    vertex 1.8749999999999982 3.2475952641916463 6.0
    vertex 0.9705714191344437 3.622221848584009 6.0
  endloop
endfacet
facet normal 0.3826834323650885 0.9238795325112874 2.3473849048040686e-31
  outer loop
    vertex 1.8749999999999982 3.2475952641916463 6.0
    vertex 0.9705714191344437 3.622221848584009 8.700000000000001
    vertex 1.8749999999999982 3.2475952641916463 8.700000000000001
  endloop
endfacet
facet normal 0.13052619222004902 0.9914448613738107 2.0157451157224085e-31
  outer loop
    vertex -8.459899447643692e-15 3.75 8.700000000000001
    vertex 0.9705714191344437 3.622221848584009 6.0
    vertex -8.459899447643692e-15 3.75 6.0
  endloop
endfacet
facet normal 0.13052619222004902 0.9914448613738107 2.0157451157224085e-31
  outer loop
    vertex 0.9705714191344437 3.622221848584009 6.0
    vertex -8.459899447643692e-15 3.75 8.700000000000001
    vertex 0.9705714191344437 3.622221848584009 8.700000000000001
  endloop
endfacet
facet normal -0.13052619222005332 0.9914448613738102 1.5467356281805767e-31
  outer loop
    vertex -0.97057141913446 3.6222218485840045 8.700000000000001
    vertex -8.459899447643692e-15 3.75 6.0
    vertex -0.97057141913446 3.6222218485840045 6.0
  endloop
endfacet
facet normal -0.13052619222005332 0.9914448613738102 1.5467356281805767e-31
  outer loop
    vertex -8.459899447643692e-15 3.75 6.0
    vertex -0.97057141913446 3.6222218485840045 8.700000000000001
    vertex -8.459899447643692e-15 3.75 8.700000000000001
  endloop
endfacet
facet normal -0.3826834323650913 0.9238795325112863 9.723186636797195e-32
  outer loop
    vertex -1.8750000000000053 3.247595264191643 8.700000000000001
    vertex -0.97057141913446 3.6222218485840045 6.0
    vertex -1.8750000000000053 3.247595264191643 6.0
  endloop
endfacet
facet normal -0.3826834323650913 0.9238795325112863 9.723186636797195e-32
  outer loop
    vertex -0.97057141913446 3.6222218485840045 6.0
    vertex -1.8750000000000053 3.247595264191643 8.700000000000001
    vertex -0.97057141913446 3.6222218485840045 8.700000000000001
  endloop
endfacet
facet normal -0.6087614290087222 0.7933533402912339 3.3163978908165325e-32
  outer loop
    vertex -2.651650429449557 2.6516504294495498 8.700000000000001
    vertex -1.8750000000000053 3.247595264191643 6.0
    vertex -2.651650429449557 2.6516504294495498 6.0
  endloop
endfacet
facet normal -0.6087614290087222 0.7933533402912339 3.3163978908165325e-32
  outer loop
    vertex -1.8750000000000053 3.247595264191643 6.0
    vertex -2.651650429449557 2.6516504294495498 8.700000000000001
    vertex -1.8750000000000053 3.247595264191643 8.700000000000001
  endloop
endfacet
facet normal -0.7933533402912359 0.6087614290087199 -3.316397890816597e-32
  outer loop
    vertex -2.651650429449557 2.6516504294495498 8.700000000000001
    vertex -3.247595264191647 1.874999999999997 6.0
    vertex -3.247595264191647 1.874999999999997 8.700000000000001
  endloop
endfacet
facet normal -0.7933533402912359 0.6087614290087199 -3.316397890816597e-32
  outer loop
    vertex -3.247595264191647 1.874999999999997 6.0
    vertex -2.651650429449557 2.6516504294495498 8.700000000000001
    vertex -2.651650429449557 2.6516504294495498 6.0
  endloop
endfacet
facet normal -0.9238795325112871 0.3826834323650889 -9.72318663679724e-32
  outer loop
    vertex -3.247595264191647 1.874999999999997 8.700000000000001
    vertex -3.6222218485840068 0.9705714191344503 6.0
    vertex -3.6222218485840068 0.9705714191344503 8.700000000000001
  endloop
endfacet
facet normal -0.9238795325112871 0.3826834323650889 -9.72318663679724e-32
  outer loop
    vertex -3.6222218485840068 0.9705714191344503 6.0
    vertex -3.247595264191647 1.874999999999997 8.700000000000001
    vertex -3.247595264191647 1.874999999999997 6.0
  endloop
endfacet
facet normal -0.9914448613738106 0.13052619222005118 -1.5467356281805802e-31
  outer loop
    vertex -3.6222218485840068 0.9705714191344503 8.700000000000001
    vertex -3.75 -1.4099832412739487e-15 6.0
    vertex -3.75 -1.4099832412739493e-15 8.700000000000001
  endloop
endfacet
facet normal -0.9914448613738106 0.13052619222005118 -1.5467356281805802e-31
  outer loop
    vertex -3.75 -1.4099832412739487e-15 6.0
    vertex -3.6222218485840068 0.9705714191344503 8.700000000000001
    vertex -3.6222218485840068 0.9705714191344503 6.0
  endloop
endfacet
facet normal -0.9914448613738104 -0.13052619222005188 -2.0157451157224124e-31
  outer loop
    vertex -3.75 -1.4099832412739493e-15 8.700000000000001
    vertex -3.6222218485840063 -0.9705714191344531 6.0
    vertex -3.6222218485840063 -0.9705714191344531 8.700000000000001
  endloop
endfacet
facet normal -0.9914448613738104 -0.13052619222005188 -2.0157451157224124e-31
  outer loop
    vertex -3.6222218485840063 -0.9705714191344531 6.0
    vertex -3.75 -1.4099832412739493e-15 8.700000000000001
    vertex -3.75 -1.4099832412739487e-15 6.0
  endloop
endfacet
facet normal -0.923879532511287 -0.3826834323650897 -2.3473849048040695e-31
  outer loop
    vertex -3.6222218485840063 -0.9705714191344531 8.700000000000001
    vertex -3.2475952641916455 -1.8749999999999993 6.0
    vertex -3.2475952641916455 -1.8749999999999993 8.700000000000001
  endloop
endfacet
facet normal -0.923879532511287 -0.3826834323650897 -2.3473849048040695e-31
  outer loop
    vertex -3.2475952641916455 -1.8749999999999993 6.0
    vertex -3.6222218485840063 -0.9705714191344531 8.700000000000001
    vertex -3.6222218485840063 -0.9705714191344531 6.0
  endloop
endfacet
facet normal -0.7933533402912355 -0.6087614290087202 -2.5190542918603017e-31
  outer loop
    vertex -3.2475952641916455 -1.8749999999999993 8.700000000000001
    vertex -2.6516504294495538 -2.6516504294495533 6.0
    vertex -2.6516504294495538 -2.6516504294495533 8.700000000000001
  endloop
endfacet
facet normal -0.7933533402912355 -0.6087614290087202 -2.5190542918603017e-31
  outer loop
    vertex -2.6516504294495538 -2.6516504294495533 6.0
    vertex -3.2475952641916455 -1.8749999999999993 8.700000000000001
    vertex -3.2475952641916455 -1.8749999999999993 6.0
  endloop
endfacet
facet normal -0.6087614290087204 -0.7933533402912354 -2.519054291860302e-31
  outer loop
    vertex -1.8749999999999998 -3.2475952641916455 8.700000000000001
    vertex -2.6516504294495538 -2.6516504294495533 6.0
    vertex -1.8749999999999998 -3.2475952641916455 6.0
  endloop
endfacet
facet normal -0.6087614290087204 -0.7933533402912354 -2.519054291860302e-31
  outer loop
    vertex -2.6516504294495538 -2.6516504294495533 6.0
    vertex -1.8749999999999998 -3.2475952641916455 8.700000000000001
    vertex -2.6516504294495538 -2.6516504294495533 8.700000000000001
  endloop
endfacet
facet normal -0.3826834323650899 -0.9238795325112868 -2.3473849048040704e-31
  outer loop
    vertex -0.9705714191344522 -3.6222218485840068 8.700000000000001
    vertex -1.8749999999999998 -3.2475952641916455 6.0
    vertex -0.9705714191344522 -3.6222218485840068 6.0
  endloop
endfacet
facet normal -0.3826834323650899 -0.9238795325112868 -2.3473849048040704e-31
  outer loop
    vertex -1.8749999999999998 -3.2475952641916455 6.0
    vertex -0.9705714191344522 -3.6222218485840068 8.700000000000001
    vertex -1.8749999999999998 -3.2475952641916455 8.700000000000001
  endloop
endfacet
facet normal -0.13052619222005096 -0.9914448613738106 -2.015745115722412e-31
  outer loop
    vertex 1.2337353361147047e-15 -3.75 8.700000000000001
    vertex -0.9705714191344522 -3.6222218485840068 6.0
    vertex 1.233735336114705e-15 -3.75 6.0
  endloop
endfacet
facet normal -0.13052619222005096 -0.9914448613738106 -2.015745115722412e-31
  outer loop
    vertex -0.9705714191344522 -3.6222218485840068 6.0
    vertex 1.2337353361147047e-15 -3.75 8.700000000000001
    vertex -0.9705714191344522 -3.6222218485840068 8.700000000000001
  endloop
endfacet
facet normal 0.1305261922200517 -0.9914448613738105 -1.54673562818058e-31
  outer loop
    vertex 0.9705714191344544 -3.6222218485840063 8.700000000000001
    vertex 1.233735336114705e-15 -3.75 6.0
    vertex 0.9705714191344544 -3.6222218485840063 6.0
  endloop
endfacet
facet normal 0.1305261922200517 -0.9914448613738105 -1.54673562818058e-31
  outer loop
    vertex 1.233735336114705e-15 -3.75 6.0
    vertex 0.9705714191344544 -3.6222218485840063 8.700000000000001
    vertex 1.2337353361147047e-15 -3.75 8.700000000000001
  endloop
endfacet
facet normal 0.3826834323650904 -0.9238795325112867 -9.723186636797218e-32
  outer loop
    vertex 1.8750000000000022 -3.247595264191644 8.700000000000001
    vertex 0.9705714191344544 -3.6222218485840063 6.0
    vertex 1.8750000000000022 -3.247595264191644 6.0
  endloop
endfacet
facet normal 0.3826834323650904 -0.9238795325112867 -9.723186636797218e-32
  outer loop
    vertex 0.9705714191344544 -3.6222218485840063 6.0
    vertex 1.8750000000000022 -3.247595264191644 8.700000000000001
    vertex 0.9705714191344544 -3.6222218485840063 8.700000000000001
  endloop
endfacet
facet normal 0.6087614290087213 -0.7933533402912346 -3.31639789081656e-32
  outer loop
    vertex 2.651650429449555 -2.6516504294495515 8.700000000000001
    vertex 1.8750000000000022 -3.247595264191644 6.0
    vertex 2.651650429449555 -2.6516504294495515 6.0
  endloop
endfacet
facet normal 0.6087614290087213 -0.7933533402912346 -3.31639789081656e-32
  outer loop
    vertex 1.8750000000000022 -3.247595264191644 6.0
    vertex 2.651650429449555 -2.6516504294495515 8.700000000000001
    vertex 1.8750000000000022 -3.247595264191644 8.700000000000001
  endloop
endfacet
facet normal 0.7933533402912355 -0.6087614290087202 3.3163978908165856e-32
  outer loop
    vertex 3.247595264191647 -1.8749999999999973 6.0
    vertex 2.651650429449555 -2.6516504294495515 8.700000000000001
    vertex 2.651650429449555 -2.6516504294495515 6.0
  endloop
endfacet
facet normal 0.7933533402912355 -0.6087614290087202 3.3163978908165856e-32
  outer loop
    vertex 2.651650429449555 -2.6516504294495515 8.700000000000001
    vertex 3.247595264191647 -1.8749999999999973 6.0
    vertex 3.247595264191647 -1.8749999999999973 8.700000000000001
  endloop
endfacet
facet normal 0.9238795325112873 -0.38268343236508867 9.723186636797249e-32
  outer loop
    vertex 3.6222218485840068 -0.97057141913445 6.0
    vertex 3.247595264191647 -1.8749999999999973 8.700000000000001
    vertex 3.247595264191647 -1.8749999999999973 6.0
  endloop
endfacet
facet normal 0.9238795325112873 -0.38268343236508867 9.723186636797249e-32
  outer loop
    vertex 3.247595264191647 -1.8749999999999973 8.700000000000001
    vertex 3.6222218485840068 -0.97057141913445 6.0
    vertex 3.6222218485840068 -0.97057141913445 8.700000000000001
  endloop
endfacet
facet normal 0.9914448613738106 -0.13052619222005105 1.5467356281805806e-31
  outer loop
    vertex 3.75 2.8199664825478975e-15 6.0
    vertex 3.6222218485840068 -0.97057141913445 8.700000000000001
    vertex 3.6222218485840068 -0.97057141913445 6.0
  endloop
endfacet
facet normal 0.9914448613738106 -0.13052619222005105 1.5467356281805806e-31
  outer loop
    vertex 3.6222218485840068 -0.97057141913445 8.700000000000001
    vertex 3.75 2.8199664825478975e-15 6.0
    vertex 3.75 2.8199664825478967e-15 8.700000000000001
  endloop
endfacet
facet normal 0.9914448613738104 0.1305261922200518 2.0157451157224124e-31
  outer loop
    vertex 3.75 2.8199664825478975e-15 6.0
    vertex 3.6222218485840063 0.9705714191344552 8.700000000000001
    vertex 3.75 2.8199664825478967e-15 8.700000000000001
  endloop
endfacet
facet normal 0.9914448613738104 0.1305261922200518 2.0157451157224124e-31
  outer loop
    vertex 3.6222218485840063 0.9705714191344552 8.700000000000001
    vertex 3.75 2.8199664825478975e-15 6.0
    vertex 3.6222218485840063 0.9705714191344552 6.0
  endloop
endfacet
facet normal 0.9238795325112865 0.3826834323650908 2.347384904804071e-31
  outer loop
    vertex 3.247595264191644 1.8750000000000018 6.0
    vertex 3.6222218485840063 0.9705714191344552 8.700000000000001
    vertex 3.6222218485840063 0.9705714191344552 6.0
  endloop
endfacet
facet normal 0.9238795325112865 0.3826834323650908 2.347384904804071e-31
  outer loop
    vertex 3.6222218485840063 0.9705714191344552 8.700000000000001
    vertex 3.247595264191644 1.8750000000000018 6.0
    vertex 3.247595264191644 1.8750000000000018 8.700000000000001
  endloop
endfacet
facet normal 0.7933533402912348 0.6087614290087211 2.519054291860302e-31
  outer loop
    vertex 2.6516504294495515 2.651650429449555 6.0
    vertex 3.247595264191644 1.8750000000000018 8.700000000000001
    vertex 3.247595264191644 1.8750000000000018 6.0
  endloop
endfacet
facet normal 0.7933533402912348 0.6087614290087211 2.519054291860302e-31
  outer loop
    vertex 3.247595264191644 1.8750000000000018 8.700000000000001
    vertex 2.6516504294495515 2.651650429449555 6.0
    vertex 2.6516504294495515 2.651650429449555 8.700000000000001
  endloop
endfacet
facet normal 0.6087614290087203 0.7933533402912356 2.519054291860302e-31
  outer loop
    vertex 1.8749999999999982 3.2475952641916463 8.700000000000001
    vertex 2.6516504294495515 2.651650429449555 6.0
    vertex 1.8749999999999982 3.2475952641916463 6.0
  endloop
endfacet
facet normal 0.6087614290087203 0.7933533402912356 2.519054291860302e-31
  outer loop
    vertex 2.6516504294495515 2.651650429449555 6.0
    vertex 1.8749999999999982 3.2475952641916463 8.700000000000001
    vertex 2.6516504294495515 2.651650429449555 8.700000000000001
  endloop
endfacet
endsolid SIOST-CablePlug
