M48
; DRILL file {KiCad (5.1.7)-1} date 02/26/21 06:52:55
; FORMAT={-:-/ absolute / metric / decimal}
; #@! TF.CreationDate,2021-02-26T06:52:55-07:00
; #@! TF.GenerationSoftware,Kicad,Pcbnew,(5.1.7)-1
; #@! TF.FileFunction,Plated,1,2,PTH
FMAT,2
METRIC
T1C0.900
T2C1.000
T3C1.100
T4C2.700
%
G90
G05
T1
X12.446Y13.97
X12.446Y11.43
T2
X10.668Y16.51
X13.208Y16.51
X15.748Y16.51
T3
X31.115Y11.389
X31.115Y4.889
X35.615Y11.389
X35.615Y4.889
X22.352Y6.731
X22.352Y2.231
X28.852Y6.731
X28.852Y2.231
X22.329Y14.025
X22.329Y9.525
X28.829Y14.025
X28.829Y9.525
X2.898Y6.722
X2.898Y2.222
X9.398Y6.722
X9.398Y2.222
X2.898Y14.025
X2.898Y9.525
X9.398Y14.025
X9.398Y9.525
X15.566Y11.367
X15.566Y4.866
X20.066Y11.367
X20.066Y4.866
T4
X34.29Y20.066
X4.064Y20.066
T0
M30
