G04 #@! TF.GenerationSoftware,KiCad,Pcbnew,(5.1.7)-1*
G04 #@! TF.CreationDate,2021-02-26T06:52:40-07:00*
G04 #@! TF.ProjectId,Buttons,42757474-6f6e-4732-9e6b-696361645f70,rev?*
G04 #@! TF.SameCoordinates,PX7b89fa0PY567a2f0*
G04 #@! TF.FileFunction,Copper,L1,Top*
G04 #@! TF.FilePolarity,Positive*
%FSLAX46Y46*%
G04 Gerber Fmt 4.6, Leading zero omitted, Abs format (unit mm)*
G04 Created by KiCad (PCBNEW (5.1.7)-1) date 2021-02-26 06:52:40*
%MOMM*%
%LPD*%
G01*
G04 APERTURE LIST*
G04 #@! TA.AperFunction,ComponentPad*
%ADD10C,5.400000*%
G04 #@! TD*
G04 #@! TA.AperFunction,ComponentPad*
%ADD11O,1.700000X1.700000*%
G04 #@! TD*
G04 #@! TA.AperFunction,ComponentPad*
%ADD12R,1.700000X1.700000*%
G04 #@! TD*
G04 #@! TA.AperFunction,ComponentPad*
%ADD13C,2.000000*%
G04 #@! TD*
G04 #@! TA.AperFunction,ComponentPad*
%ADD14R,1.800000X1.800000*%
G04 #@! TD*
G04 #@! TA.AperFunction,ComponentPad*
%ADD15C,1.800000*%
G04 #@! TD*
G04 #@! TA.AperFunction,Conductor*
%ADD16C,0.800000*%
G04 #@! TD*
G04 #@! TA.AperFunction,Conductor*
%ADD17C,1.000000*%
G04 #@! TD*
G04 #@! TA.AperFunction,Conductor*
%ADD18C,0.600000*%
G04 #@! TD*
G04 #@! TA.AperFunction,Conductor*
%ADD19C,0.400000*%
G04 #@! TD*
G04 APERTURE END LIST*
D10*
X34290000Y20066000D03*
X4064000Y20066000D03*
D11*
X15748000Y16510000D03*
X13208000Y16510000D03*
D12*
X10668000Y16510000D03*
G04 #@! TA.AperFunction,SMDPad,CuDef*
G36*
G01*
X5645998Y10014000D02*
X6546002Y10014000D01*
G75*
G02*
X6796000Y9764002I0J-249998D01*
G01*
X6796000Y9238998D01*
G75*
G02*
X6546002Y8989000I-249998J0D01*
G01*
X5645998Y8989000D01*
G75*
G02*
X5396000Y9238998I0J249998D01*
G01*
X5396000Y9764002D01*
G75*
G02*
X5645998Y10014000I249998J0D01*
G01*
G37*
G04 #@! TD.AperFunction*
G04 #@! TA.AperFunction,SMDPad,CuDef*
G36*
G01*
X5645998Y11839000D02*
X6546002Y11839000D01*
G75*
G02*
X6796000Y11589002I0J-249998D01*
G01*
X6796000Y11063998D01*
G75*
G02*
X6546002Y10814000I-249998J0D01*
G01*
X5645998Y10814000D01*
G75*
G02*
X5396000Y11063998I0J249998D01*
G01*
X5396000Y11589002D01*
G75*
G02*
X5645998Y11839000I249998J0D01*
G01*
G37*
G04 #@! TD.AperFunction*
G04 #@! TA.AperFunction,SMDPad,CuDef*
G36*
G01*
X6546002Y6242000D02*
X5645998Y6242000D01*
G75*
G02*
X5396000Y6491998I0J249998D01*
G01*
X5396000Y7017002D01*
G75*
G02*
X5645998Y7267000I249998J0D01*
G01*
X6546002Y7267000D01*
G75*
G02*
X6796000Y7017002I0J-249998D01*
G01*
X6796000Y6491998D01*
G75*
G02*
X6546002Y6242000I-249998J0D01*
G01*
G37*
G04 #@! TD.AperFunction*
G04 #@! TA.AperFunction,SMDPad,CuDef*
G36*
G01*
X6546002Y4417000D02*
X5645998Y4417000D01*
G75*
G02*
X5396000Y4666998I0J249998D01*
G01*
X5396000Y5192002D01*
G75*
G02*
X5645998Y5442000I249998J0D01*
G01*
X6546002Y5442000D01*
G75*
G02*
X6796000Y5192002I0J-249998D01*
G01*
X6796000Y4666998D01*
G75*
G02*
X6546002Y4417000I-249998J0D01*
G01*
G37*
G04 #@! TD.AperFunction*
G04 #@! TA.AperFunction,SMDPad,CuDef*
G36*
G01*
X16110000Y8832002D02*
X16110000Y7931998D01*
G75*
G02*
X15860002Y7682000I-249998J0D01*
G01*
X15334998Y7682000D01*
G75*
G02*
X15085000Y7931998I0J249998D01*
G01*
X15085000Y8832002D01*
G75*
G02*
X15334998Y9082000I249998J0D01*
G01*
X15860002Y9082000D01*
G75*
G02*
X16110000Y8832002I0J-249998D01*
G01*
G37*
G04 #@! TD.AperFunction*
G04 #@! TA.AperFunction,SMDPad,CuDef*
G36*
G01*
X17935000Y8832002D02*
X17935000Y7931998D01*
G75*
G02*
X17685002Y7682000I-249998J0D01*
G01*
X17159998Y7682000D01*
G75*
G02*
X16910000Y7931998I0J249998D01*
G01*
X16910000Y8832002D01*
G75*
G02*
X17159998Y9082000I249998J0D01*
G01*
X17685002Y9082000D01*
G75*
G02*
X17935000Y8832002I0J-249998D01*
G01*
G37*
G04 #@! TD.AperFunction*
G04 #@! TA.AperFunction,SMDPad,CuDef*
G36*
G01*
X25203998Y5442000D02*
X26104002Y5442000D01*
G75*
G02*
X26354000Y5192002I0J-249998D01*
G01*
X26354000Y4666998D01*
G75*
G02*
X26104002Y4417000I-249998J0D01*
G01*
X25203998Y4417000D01*
G75*
G02*
X24954000Y4666998I0J249998D01*
G01*
X24954000Y5192002D01*
G75*
G02*
X25203998Y5442000I249998J0D01*
G01*
G37*
G04 #@! TD.AperFunction*
G04 #@! TA.AperFunction,SMDPad,CuDef*
G36*
G01*
X25203998Y7267000D02*
X26104002Y7267000D01*
G75*
G02*
X26354000Y7017002I0J-249998D01*
G01*
X26354000Y6491998D01*
G75*
G02*
X26104002Y6242000I-249998J0D01*
G01*
X25203998Y6242000D01*
G75*
G02*
X24954000Y6491998I0J249998D01*
G01*
X24954000Y7017002D01*
G75*
G02*
X25203998Y7267000I249998J0D01*
G01*
G37*
G04 #@! TD.AperFunction*
G04 #@! TA.AperFunction,SMDPad,CuDef*
G36*
G01*
X26104002Y10814000D02*
X25203998Y10814000D01*
G75*
G02*
X24954000Y11063998I0J249998D01*
G01*
X24954000Y11589002D01*
G75*
G02*
X25203998Y11839000I249998J0D01*
G01*
X26104002Y11839000D01*
G75*
G02*
X26354000Y11589002I0J-249998D01*
G01*
X26354000Y11063998D01*
G75*
G02*
X26104002Y10814000I-249998J0D01*
G01*
G37*
G04 #@! TD.AperFunction*
G04 #@! TA.AperFunction,SMDPad,CuDef*
G36*
G01*
X26104002Y8989000D02*
X25203998Y8989000D01*
G75*
G02*
X24954000Y9238998I0J249998D01*
G01*
X24954000Y9764002D01*
G75*
G02*
X25203998Y10014000I249998J0D01*
G01*
X26104002Y10014000D01*
G75*
G02*
X26354000Y9764002I0J-249998D01*
G01*
X26354000Y9238998D01*
G75*
G02*
X26104002Y8989000I-249998J0D01*
G01*
G37*
G04 #@! TD.AperFunction*
G04 #@! TA.AperFunction,SMDPad,CuDef*
G36*
G01*
X32404000Y7677998D02*
X32404000Y8578002D01*
G75*
G02*
X32653998Y8828000I249998J0D01*
G01*
X33179002Y8828000D01*
G75*
G02*
X33429000Y8578002I0J-249998D01*
G01*
X33429000Y7677998D01*
G75*
G02*
X33179002Y7428000I-249998J0D01*
G01*
X32653998Y7428000D01*
G75*
G02*
X32404000Y7677998I0J249998D01*
G01*
G37*
G04 #@! TD.AperFunction*
G04 #@! TA.AperFunction,SMDPad,CuDef*
G36*
G01*
X30579000Y7677998D02*
X30579000Y8578002D01*
G75*
G02*
X30828998Y8828000I249998J0D01*
G01*
X31354002Y8828000D01*
G75*
G02*
X31604000Y8578002I0J-249998D01*
G01*
X31604000Y7677998D01*
G75*
G02*
X31354002Y7428000I-249998J0D01*
G01*
X30828998Y7428000D01*
G75*
G02*
X30579000Y7677998I0J249998D01*
G01*
G37*
G04 #@! TD.AperFunction*
D13*
X9398000Y14025000D03*
X9398000Y9525000D03*
X2898000Y14025000D03*
X2898000Y9525000D03*
X9398000Y6722500D03*
X9398000Y2222500D03*
X2898000Y6722500D03*
X2898000Y2222500D03*
X22329000Y9525000D03*
X22329000Y14025000D03*
X28829000Y9525000D03*
X28829000Y14025000D03*
X15566000Y11366500D03*
X20066000Y11366500D03*
X15566000Y4866500D03*
X20066000Y4866500D03*
X22352000Y2231000D03*
X22352000Y6731000D03*
X28852000Y2231000D03*
X28852000Y6731000D03*
X31115000Y11389500D03*
X35615000Y11389500D03*
X31115000Y4889500D03*
X35615000Y4889500D03*
D14*
X12446000Y11430000D03*
D15*
X12446000Y13970000D03*
G04 #@! TA.AperFunction,SMDPad,CuDef*
G36*
G01*
X4925000Y13519999D02*
X4925000Y14420001D01*
G75*
G02*
X5174999Y14670000I249999J0D01*
G01*
X5700001Y14670000D01*
G75*
G02*
X5950000Y14420001I0J-249999D01*
G01*
X5950000Y13519999D01*
G75*
G02*
X5700001Y13270000I-249999J0D01*
G01*
X5174999Y13270000D01*
G75*
G02*
X4925000Y13519999I0J249999D01*
G01*
G37*
G04 #@! TD.AperFunction*
G04 #@! TA.AperFunction,SMDPad,CuDef*
G36*
G01*
X6750000Y13519999D02*
X6750000Y14420001D01*
G75*
G02*
X6999999Y14670000I249999J0D01*
G01*
X7525001Y14670000D01*
G75*
G02*
X7775000Y14420001I0J-249999D01*
G01*
X7775000Y13519999D01*
G75*
G02*
X7525001Y13270000I-249999J0D01*
G01*
X6999999Y13270000D01*
G75*
G02*
X6750000Y13519999I0J249999D01*
G01*
G37*
G04 #@! TD.AperFunction*
D16*
X19613000Y11199000D02*
X19613000Y11309000D01*
D17*
X1921001Y3230999D02*
X2921000Y2231000D01*
X1197999Y3954001D02*
X1921001Y3230999D01*
X1197999Y12324999D02*
X1197999Y3954001D01*
X2898000Y14025000D02*
X1197999Y12324999D01*
X2921000Y2231000D02*
X9421000Y2231000D01*
X22352000Y2231000D02*
X28852000Y2231000D01*
D16*
X22329000Y14025000D02*
X28829000Y14025000D01*
X22343500Y2222500D02*
X22352000Y2231000D01*
X12319000Y2222500D02*
X19685000Y2222500D01*
X9398000Y2222500D02*
X12319000Y2222500D01*
X20066000Y11366500D02*
X20066000Y4866500D01*
X22329000Y14025000D02*
X22329000Y13629500D01*
X20066000Y4866500D02*
X20066000Y2222500D01*
X19685000Y2222500D02*
X20066000Y2222500D01*
X20066000Y2222500D02*
X22343500Y2222500D01*
X35615000Y11389500D02*
X35615000Y4889500D01*
X32956500Y2231000D02*
X35615000Y4889500D01*
X28852000Y2231000D02*
X32956500Y2231000D01*
X9851000Y14478000D02*
X9398000Y14025000D01*
X32979500Y14025000D02*
X28829000Y14025000D01*
X35615000Y11389500D02*
X32979500Y14025000D01*
X9398000Y14025000D02*
X10215000Y14025000D01*
X10668000Y14478000D02*
X10668000Y16510000D01*
X10215000Y14025000D02*
X10668000Y14478000D01*
X5383000Y16510000D02*
X2898000Y14025000D01*
X10668000Y16510000D02*
X5383000Y16510000D01*
X5382500Y14025000D02*
X5437500Y13970000D01*
X2898000Y14025000D02*
X5382500Y14025000D01*
D18*
X9374500Y9501500D02*
X9398000Y9525000D01*
X6096000Y9501500D02*
X9374500Y9501500D01*
X2921500Y9501500D02*
X2898000Y9525000D01*
X6096000Y9501500D02*
X2921500Y9501500D01*
X9366000Y6754500D02*
X9398000Y6722500D01*
X6096000Y6754500D02*
X9366000Y6754500D01*
X2930000Y6754500D02*
X2898000Y6722500D01*
X6096000Y6754500D02*
X2930000Y6754500D01*
X31115000Y8151500D02*
X31091500Y8128000D01*
X31115000Y11389500D02*
X31115000Y8151500D01*
X31115000Y8104500D02*
X31091500Y8128000D01*
X31115000Y4889500D02*
X31115000Y8104500D01*
X28805500Y9501500D02*
X28829000Y9525000D01*
X25654000Y9501500D02*
X28805500Y9501500D01*
X22352500Y9501500D02*
X22329000Y9525000D01*
X25654000Y9501500D02*
X22352500Y9501500D01*
X28828500Y6754500D02*
X28852000Y6731000D01*
X25654000Y6754500D02*
X28828500Y6754500D01*
X22375500Y6754500D02*
X22352000Y6731000D01*
X25654000Y6754500D02*
X22375500Y6754500D01*
D19*
X15597500Y11335000D02*
X15566000Y11366500D01*
X15597500Y8382000D02*
X15597500Y11335000D01*
X15597500Y4898000D02*
X15566000Y4866500D01*
X15597500Y8382000D02*
X15597500Y4898000D01*
D18*
X7262500Y13970000D02*
X7262500Y13311500D01*
X11749490Y12126510D02*
X12446000Y11430000D01*
X8447490Y12126510D02*
X11749490Y12126510D01*
X7262500Y13311500D02*
X8447490Y12126510D01*
X8911002Y4929500D02*
X6096000Y4929500D01*
X10474003Y3366499D02*
X8911002Y4929500D01*
X17422500Y4502998D02*
X16286001Y3366499D01*
X17422500Y8382000D02*
X17422500Y4502998D01*
X11748499Y9394503D02*
X11748499Y3366499D01*
X9816502Y11326500D02*
X11748499Y9394503D01*
X6096000Y11326500D02*
X9816502Y11326500D01*
X11748499Y3366499D02*
X10474003Y3366499D01*
X16286001Y3366499D02*
X11748499Y3366499D01*
X32916500Y11808002D02*
X32916500Y8128000D01*
X31835001Y12889501D02*
X32916500Y11808002D01*
X30415501Y12889501D02*
X31835001Y12889501D01*
X28852500Y11326500D02*
X30415501Y12889501D01*
X25654000Y11326500D02*
X28852500Y11326500D01*
X28373502Y4929500D02*
X25654000Y4929500D01*
X31835001Y3389499D02*
X29913503Y3389499D01*
X29913503Y3389499D02*
X28373502Y4929500D01*
X32916500Y4470998D02*
X31835001Y3389499D01*
X32916500Y8128000D02*
X32916500Y4470998D01*
X25654000Y11326500D02*
X22709500Y11326500D01*
X17422500Y13565500D02*
X17422500Y8382000D01*
X20470500Y13565500D02*
X17422500Y13565500D01*
X22709500Y11326500D02*
X20470500Y13565500D01*
X15748000Y16510000D02*
X15748000Y14478000D01*
X16660500Y13565500D02*
X17422500Y13565500D01*
X15748000Y14478000D02*
X16660500Y13565500D01*
X13208000Y14732000D02*
X12446000Y13970000D01*
X13208000Y16510000D02*
X13208000Y14732000D01*
M02*
