%TF.GenerationSoftware,KiCad,Pcbnew,7.0.10*%
%TF.CreationDate,2024-01-29T09:08:00-07:00*%
%TF.ProjectId,AMPE32T30,414d5045-3332-4543-9330-2e6b69636164,rev?*%
%TF.SameCoordinates,PX76efc10PY5962530*%
%TF.FileFunction,Soldermask,Bot*%
%TF.FilePolarity,Negative*%
%FSLAX46Y46*%
G04 Gerber Fmt 4.6, Leading zero omitted, Abs format (unit mm)*
G04 Created by KiCad (PCBNEW 7.0.10) date 2024-01-29 09:08:00*
%MOMM*%
%LPD*%
G01*
G04 APERTURE LIST*
G04 Aperture macros list*
%AMRoundRect*
0 Rectangle with rounded corners*
0 $1 Rounding radius*
0 $2 $3 $4 $5 $6 $7 $8 $9 X,Y pos of 4 corners*
0 Add a 4 corners polygon primitive as box body*
4,1,4,$2,$3,$4,$5,$6,$7,$8,$9,$2,$3,0*
0 Add four circle primitives for the rounded corners*
1,1,$1+$1,$2,$3*
1,1,$1+$1,$4,$5*
1,1,$1+$1,$6,$7*
1,1,$1+$1,$8,$9*
0 Add four rect primitives between the rounded corners*
20,1,$1+$1,$2,$3,$4,$5,0*
20,1,$1+$1,$4,$5,$6,$7,0*
20,1,$1+$1,$6,$7,$8,$9,0*
20,1,$1+$1,$8,$9,$2,$3,0*%
G04 Aperture macros list end*
%ADD10R,1.700000X1.700000*%
%ADD11O,1.700000X1.700000*%
%ADD12C,4.400000*%
%ADD13R,3.500000X3.500000*%
%ADD14RoundRect,0.750000X-0.750000X-1.000000X0.750000X-1.000000X0.750000X1.000000X-0.750000X1.000000X0*%
%ADD15RoundRect,0.875000X-0.875000X-0.875000X0.875000X-0.875000X0.875000X0.875000X-0.875000X0.875000X0*%
%ADD16RoundRect,0.750000X1.000000X-0.750000X1.000000X0.750000X-1.000000X0.750000X-1.000000X-0.750000X0*%
%ADD17RoundRect,0.875000X0.875000X-0.875000X0.875000X0.875000X-0.875000X0.875000X-0.875000X-0.875000X0*%
G04 APERTURE END LIST*
D10*
%TO.C,J4*%
X10414000Y32004000D03*
D11*
X12954000Y32004000D03*
X15494000Y32004000D03*
X18034000Y32004000D03*
X20574000Y32004000D03*
X23114000Y32004000D03*
X25654000Y32004000D03*
%TD*%
D10*
%TO.C,J5*%
X10668000Y18288000D03*
D11*
X10668000Y15748000D03*
X13208000Y18288000D03*
X13208000Y15748000D03*
X15748000Y18288000D03*
X15748000Y15748000D03*
X18288000Y18288000D03*
X18288000Y15748000D03*
X20828000Y18288000D03*
X20828000Y15748000D03*
X23368000Y18288000D03*
X23368000Y15748000D03*
X25908000Y18288000D03*
X25908000Y15748000D03*
X28448000Y18288000D03*
X28448000Y15748000D03*
%TD*%
D10*
%TO.C,J6*%
X10414000Y29210000D03*
D11*
X12954000Y29210000D03*
%TD*%
D12*
%TO.C,f*%
X34544000Y66802000D03*
%TD*%
%TO.C,e*%
X3048000Y16002000D03*
%TD*%
D10*
%TO.C,J7*%
X4318000Y58166000D03*
D11*
X1778000Y58166000D03*
X4318000Y55626000D03*
X1778000Y55626000D03*
X4318000Y53086000D03*
X1778000Y53086000D03*
X4318000Y50546000D03*
X1778000Y50546000D03*
X4318000Y48006000D03*
X1778000Y48006000D03*
X4318000Y45466000D03*
X1778000Y45466000D03*
X4318000Y42926000D03*
X1778000Y42926000D03*
%TD*%
D10*
%TO.C,MP*%
X25908000Y70612000D03*
D11*
X23368000Y70612000D03*
X20828000Y70612000D03*
X18288000Y70612000D03*
%TD*%
D10*
%TO.C,J1*%
X4318000Y73406000D03*
D11*
X1778000Y73406000D03*
X4318000Y70866000D03*
X1778000Y70866000D03*
X4318000Y68326000D03*
X1778000Y68326000D03*
X4318000Y65786000D03*
X1778000Y65786000D03*
%TD*%
D10*
%TO.C,J3*%
X8128000Y73406000D03*
D11*
X8128000Y70866000D03*
X8128000Y68326000D03*
X8128000Y65786000D03*
%TD*%
D10*
%TO.C,J12*%
X27178000Y1778000D03*
%TD*%
%TO.C,J14*%
X9144000Y39116000D03*
D11*
X11684000Y39116000D03*
X14224000Y39116000D03*
X16764000Y39116000D03*
X19304000Y39116000D03*
X21844000Y39116000D03*
X24384000Y39116000D03*
%TD*%
D10*
%TO.C,J11*%
X27178000Y10414000D03*
%TD*%
%TO.C,J13*%
X11684000Y1778000D03*
%TD*%
%TO.C,J10*%
X11684000Y10414000D03*
%TD*%
%TO.C,J2*%
X19558000Y25146000D03*
D11*
X19558000Y22606000D03*
X17018000Y25146000D03*
X17018000Y22606000D03*
X14478000Y25146000D03*
X14478000Y22606000D03*
%TD*%
D13*
%TO.C,J8*%
X9048000Y5080000D03*
D14*
X3048000Y5080000D03*
D15*
X6048000Y9780000D03*
%TD*%
D13*
%TO.C,J9*%
X34290000Y8032000D03*
D16*
X34290000Y2032000D03*
D17*
X29590000Y5032000D03*
%TD*%
M02*
