%TF.GenerationSoftware,KiCad,Pcbnew,7.0.10*%
%TF.CreationDate,2024-01-29T09:08:00-07:00*%
%TF.ProjectId,AMPE32T30,414d5045-3332-4543-9330-2e6b69636164,rev?*%
%TF.SameCoordinates,PX76efc10PY5962530*%
%TF.FileFunction,Copper,L2,Bot*%
%TF.FilePolarity,Positive*%
%FSLAX46Y46*%
G04 Gerber Fmt 4.6, Leading zero omitted, Abs format (unit mm)*
G04 Created by KiCad (PCBNEW 7.0.10) date 2024-01-29 09:08:00*
%MOMM*%
%LPD*%
G01*
G04 APERTURE LIST*
G04 Aperture macros list*
%AMRoundRect*
0 Rectangle with rounded corners*
0 $1 Rounding radius*
0 $2 $3 $4 $5 $6 $7 $8 $9 X,Y pos of 4 corners*
0 Add a 4 corners polygon primitive as box body*
4,1,4,$2,$3,$4,$5,$6,$7,$8,$9,$2,$3,0*
0 Add four circle primitives for the rounded corners*
1,1,$1+$1,$2,$3*
1,1,$1+$1,$4,$5*
1,1,$1+$1,$6,$7*
1,1,$1+$1,$8,$9*
0 Add four rect primitives between the rounded corners*
20,1,$1+$1,$2,$3,$4,$5,0*
20,1,$1+$1,$4,$5,$6,$7,0*
20,1,$1+$1,$6,$7,$8,$9,0*
20,1,$1+$1,$8,$9,$2,$3,0*%
G04 Aperture macros list end*
%TA.AperFunction,ComponentPad*%
%ADD10R,1.700000X1.700000*%
%TD*%
%TA.AperFunction,ComponentPad*%
%ADD11O,1.700000X1.700000*%
%TD*%
%TA.AperFunction,ComponentPad*%
%ADD12C,4.400000*%
%TD*%
%TA.AperFunction,ComponentPad*%
%ADD13R,3.500000X3.500000*%
%TD*%
%TA.AperFunction,ComponentPad*%
%ADD14RoundRect,0.750000X-0.750000X-1.000000X0.750000X-1.000000X0.750000X1.000000X-0.750000X1.000000X0*%
%TD*%
%TA.AperFunction,ComponentPad*%
%ADD15RoundRect,0.875000X-0.875000X-0.875000X0.875000X-0.875000X0.875000X0.875000X-0.875000X0.875000X0*%
%TD*%
%TA.AperFunction,ComponentPad*%
%ADD16RoundRect,0.750000X1.000000X-0.750000X1.000000X0.750000X-1.000000X0.750000X-1.000000X-0.750000X0*%
%TD*%
%TA.AperFunction,ComponentPad*%
%ADD17RoundRect,0.875000X0.875000X-0.875000X0.875000X0.875000X-0.875000X0.875000X-0.875000X-0.875000X0*%
%TD*%
G04 APERTURE END LIST*
D10*
%TO.P,J4,1,Pin_1*%
%TO.N,/GND*%
X10414000Y32004000D03*
D11*
%TO.P,J4,2,Pin_2*%
%TO.N,/VCC*%
X12954000Y32004000D03*
%TO.P,J4,3,Pin_3*%
%TO.N,/AUX*%
X15494000Y32004000D03*
%TO.P,J4,4,Pin_4*%
%TO.N,/RXD*%
X18034000Y32004000D03*
%TO.P,J4,5,Pin_5*%
%TO.N,/TXD*%
X20574000Y32004000D03*
%TO.P,J4,6,Pin_6*%
%TO.N,/M1*%
X23114000Y32004000D03*
%TO.P,J4,7,Pin_7*%
%TO.N,/M0*%
X25654000Y32004000D03*
%TD*%
D10*
%TO.P,J5,1,Pin_1*%
%TO.N,/GND*%
X10668000Y18288000D03*
D11*
%TO.P,J5,2,Pin_2*%
X10668000Y15748000D03*
%TO.P,J5,3,Pin_3*%
%TO.N,/VCC*%
X13208000Y18288000D03*
%TO.P,J5,4,Pin_4*%
X13208000Y15748000D03*
%TO.P,J5,5,Pin_5*%
%TO.N,/SCK*%
X15748000Y18288000D03*
%TO.P,J5,6,Pin_6*%
%TO.N,/SET*%
X15748000Y15748000D03*
%TO.P,J5,7,Pin_7*%
%TO.N,/SDA*%
X18288000Y18288000D03*
%TO.P,J5,8,Pin_8*%
%TO.N,/OK*%
X18288000Y15748000D03*
%TO.P,J5,9,Pin_9*%
%TO.N,/RES*%
X20828000Y18288000D03*
%TO.P,J5,10,Pin_10*%
%TO.N,/RT*%
X20828000Y15748000D03*
%TO.P,J5,11,Pin_11*%
%TO.N,/RS*%
X23368000Y18288000D03*
%TO.P,J5,12,Pin_12*%
%TO.N,/UP*%
X23368000Y15748000D03*
%TO.P,J5,13,Pin_13*%
%TO.N,/CS*%
X25908000Y18288000D03*
%TO.P,J5,14,Pin_14*%
%TO.N,/DW*%
X25908000Y15748000D03*
%TO.P,J5,15,Pin_15*%
%TO.N,/BL*%
X28448000Y18288000D03*
%TO.P,J5,16,Pin_16*%
%TO.N,/LFT*%
X28448000Y15748000D03*
%TD*%
D10*
%TO.P,J6,1,Pin_1*%
%TO.N,/GND*%
X10414000Y29210000D03*
D11*
%TO.P,J6,2,Pin_2*%
%TO.N,/VCC*%
X12954000Y29210000D03*
%TD*%
D12*
%TO.P,f,1*%
%TO.N,N/C*%
X34544000Y66802000D03*
%TD*%
%TO.P,e,1*%
%TO.N,N/C*%
X3048000Y16002000D03*
%TD*%
D10*
%TO.P,J7,1,Pin_1*%
%TO.N,/LFT*%
X4318000Y58166000D03*
D11*
%TO.P,J7,2,Pin_2*%
%TO.N,/DW*%
X1778000Y58166000D03*
%TO.P,J7,3,Pin_3*%
%TO.N,/BL*%
X4318000Y55626000D03*
%TO.P,J7,4,Pin_4*%
%TO.N,/RES*%
X1778000Y55626000D03*
%TO.P,J7,5,Pin_5*%
%TO.N,/CS*%
X4318000Y53086000D03*
%TO.P,J7,6,Pin_6*%
%TO.N,/RS*%
X1778000Y53086000D03*
%TO.P,J7,7,Pin_7*%
%TO.N,Net-(J7-Pin_7)*%
X4318000Y50546000D03*
%TO.P,J7,8,Pin_8*%
%TO.N,/M0*%
X1778000Y50546000D03*
%TO.P,J7,9,Pin_9*%
%TO.N,/RT*%
X4318000Y48006000D03*
%TO.P,J7,10,Pin_10*%
%TO.N,/UP*%
X1778000Y48006000D03*
%TO.P,J7,11,Pin_11*%
%TO.N,/SET*%
X4318000Y45466000D03*
%TO.P,J7,12,Pin_12*%
%TO.N,/OK*%
X1778000Y45466000D03*
%TO.P,J7,13,Pin_13*%
%TO.N,/TXR*%
X4318000Y42926000D03*
%TO.P,J7,14,Pin_14*%
%TO.N,/RXR*%
X1778000Y42926000D03*
%TD*%
D10*
%TO.P,MP,1*%
%TO.N,N/C*%
X25908000Y70612000D03*
D11*
%TO.P,MP,2*%
X23368000Y70612000D03*
%TO.P,MP,3*%
X20828000Y70612000D03*
%TO.P,MP,4*%
X18288000Y70612000D03*
%TD*%
D10*
%TO.P,J1,1,Pin_1*%
%TO.N,/VIN*%
X4318000Y73406000D03*
D11*
%TO.P,J1,2,Pin_2*%
X1778000Y73406000D03*
%TO.P,J1,3,Pin_3*%
%TO.N,/GND*%
X4318000Y70866000D03*
%TO.P,J1,4,Pin_4*%
X1778000Y70866000D03*
%TO.P,J1,5,Pin_5*%
%TO.N,/VCC*%
X4318000Y68326000D03*
%TO.P,J1,6,Pin_6*%
X1778000Y68326000D03*
%TO.P,J1,7,Pin_7*%
%TO.N,/3V3*%
X4318000Y65786000D03*
%TO.P,J1,8,Pin_8*%
X1778000Y65786000D03*
%TD*%
D10*
%TO.P,J3,1,Pin_1*%
%TO.N,/VIN*%
X8128000Y73406000D03*
D11*
%TO.P,J3,2,Pin_2*%
%TO.N,/GND*%
X8128000Y70866000D03*
%TO.P,J3,3,Pin_3*%
%TO.N,/VCC*%
X8128000Y68326000D03*
%TO.P,J3,4,Pin_4*%
%TO.N,/3V3*%
X8128000Y65786000D03*
%TD*%
D10*
%TO.P,J12,1,Pin_1*%
%TO.N,/VCC*%
X27178000Y1778000D03*
%TD*%
%TO.P,J14,1,Pin_1*%
%TO.N,/GND*%
X9144000Y39116000D03*
D11*
%TO.P,J14,2,Pin_2*%
%TO.N,/VCC*%
X11684000Y39116000D03*
%TO.P,J14,3,Pin_3*%
%TO.N,/AUX*%
X14224000Y39116000D03*
%TO.P,J14,4,Pin_4*%
%TO.N,/RXD*%
X16764000Y39116000D03*
%TO.P,J14,5,Pin_5*%
%TO.N,/TXD*%
X19304000Y39116000D03*
%TO.P,J14,6,Pin_6*%
%TO.N,/M1*%
X21844000Y39116000D03*
%TO.P,J14,7,Pin_7*%
%TO.N,/M0*%
X24384000Y39116000D03*
%TD*%
D10*
%TO.P,J11,1,Pin_1*%
%TO.N,/GND*%
X27178000Y10414000D03*
%TD*%
%TO.P,J13,1,Pin_1*%
%TO.N,/HVIN*%
X11684000Y1778000D03*
%TD*%
%TO.P,J10,1,Pin_1*%
%TO.N,/GND*%
X11684000Y10414000D03*
%TD*%
%TO.P,J2,1,Pin_1*%
%TO.N,/AUX*%
X19558000Y25146000D03*
D11*
%TO.P,J2,2,Pin_2*%
%TO.N,/VCC*%
X19558000Y22606000D03*
%TO.P,J2,3,Pin_3*%
%TO.N,/SCK*%
X17018000Y25146000D03*
%TO.P,J2,4,Pin_4*%
%TO.N,/SDA*%
X17018000Y22606000D03*
%TO.P,J2,5,Pin_5*%
%TO.N,unconnected-(J2-Pin_5-Pad5)*%
X14478000Y25146000D03*
%TO.P,J2,6,Pin_6*%
%TO.N,/GND*%
X14478000Y22606000D03*
%TD*%
D13*
%TO.P,J8,1*%
%TO.N,/HVIN*%
X9048000Y5080000D03*
D14*
%TO.P,J8,2*%
%TO.N,/GND*%
X3048000Y5080000D03*
D15*
%TO.P,J8,3*%
X6048000Y9780000D03*
%TD*%
D13*
%TO.P,J9,1*%
%TO.N,/VCC*%
X34290000Y8032000D03*
D16*
%TO.P,J9,2*%
%TO.N,/GND*%
X34290000Y2032000D03*
D17*
%TO.P,J9,3*%
X29590000Y5032000D03*
%TD*%
M02*
