%TF.GenerationSoftware,KiCad,Pcbnew,7.0.10*%
%TF.CreationDate,2024-01-29T09:08:00-07:00*%
%TF.ProjectId,AMPE32T30,414d5045-3332-4543-9330-2e6b69636164,rev?*%
%TF.SameCoordinates,PX76efc10PY5962530*%
%TF.FileFunction,Copper,L1,Top*%
%TF.FilePolarity,Positive*%
%FSLAX46Y46*%
G04 Gerber Fmt 4.6, Leading zero omitted, Abs format (unit mm)*
G04 Created by KiCad (PCBNEW 7.0.10) date 2024-01-29 09:08:00*
%MOMM*%
%LPD*%
G01*
G04 APERTURE LIST*
G04 Aperture macros list*
%AMRoundRect*
0 Rectangle with rounded corners*
0 $1 Rounding radius*
0 $2 $3 $4 $5 $6 $7 $8 $9 X,Y pos of 4 corners*
0 Add a 4 corners polygon primitive as box body*
4,1,4,$2,$3,$4,$5,$6,$7,$8,$9,$2,$3,0*
0 Add four circle primitives for the rounded corners*
1,1,$1+$1,$2,$3*
1,1,$1+$1,$4,$5*
1,1,$1+$1,$6,$7*
1,1,$1+$1,$8,$9*
0 Add four rect primitives between the rounded corners*
20,1,$1+$1,$2,$3,$4,$5,0*
20,1,$1+$1,$4,$5,$6,$7,0*
20,1,$1+$1,$6,$7,$8,$9,0*
20,1,$1+$1,$8,$9,$2,$3,0*%
G04 Aperture macros list end*
%TA.AperFunction,ComponentPad*%
%ADD10R,1.700000X1.700000*%
%TD*%
%TA.AperFunction,ComponentPad*%
%ADD11O,1.700000X1.700000*%
%TD*%
%TA.AperFunction,ComponentPad*%
%ADD12C,4.400000*%
%TD*%
%TA.AperFunction,SMDPad,CuDef*%
%ADD13RoundRect,0.250000X0.350000X0.450000X-0.350000X0.450000X-0.350000X-0.450000X0.350000X-0.450000X0*%
%TD*%
%TA.AperFunction,SMDPad,CuDef*%
%ADD14RoundRect,0.250000X-0.350000X-0.450000X0.350000X-0.450000X0.350000X0.450000X-0.350000X0.450000X0*%
%TD*%
%TA.AperFunction,ComponentPad*%
%ADD15R,3.500000X3.500000*%
%TD*%
%TA.AperFunction,ComponentPad*%
%ADD16RoundRect,0.750000X-0.750000X-1.000000X0.750000X-1.000000X0.750000X1.000000X-0.750000X1.000000X0*%
%TD*%
%TA.AperFunction,ComponentPad*%
%ADD17RoundRect,0.875000X-0.875000X-0.875000X0.875000X-0.875000X0.875000X0.875000X-0.875000X0.875000X0*%
%TD*%
%TA.AperFunction,ComponentPad*%
%ADD18RoundRect,0.750000X1.000000X-0.750000X1.000000X0.750000X-1.000000X0.750000X-1.000000X-0.750000X0*%
%TD*%
%TA.AperFunction,ComponentPad*%
%ADD19RoundRect,0.875000X0.875000X-0.875000X0.875000X0.875000X-0.875000X0.875000X-0.875000X-0.875000X0*%
%TD*%
%TA.AperFunction,Conductor*%
%ADD20C,0.800000*%
%TD*%
%TA.AperFunction,Conductor*%
%ADD21C,0.400000*%
%TD*%
G04 APERTURE END LIST*
D10*
%TO.P,J4,1,Pin_1*%
%TO.N,/GND*%
X10414000Y32004000D03*
D11*
%TO.P,J4,2,Pin_2*%
%TO.N,/VCC*%
X12954000Y32004000D03*
%TO.P,J4,3,Pin_3*%
%TO.N,/AUX*%
X15494000Y32004000D03*
%TO.P,J4,4,Pin_4*%
%TO.N,/RXD*%
X18034000Y32004000D03*
%TO.P,J4,5,Pin_5*%
%TO.N,/TXD*%
X20574000Y32004000D03*
%TO.P,J4,6,Pin_6*%
%TO.N,/M1*%
X23114000Y32004000D03*
%TO.P,J4,7,Pin_7*%
%TO.N,/M0*%
X25654000Y32004000D03*
%TD*%
D10*
%TO.P,J5,1,Pin_1*%
%TO.N,/GND*%
X10668000Y18288000D03*
D11*
%TO.P,J5,2,Pin_2*%
X10668000Y15748000D03*
%TO.P,J5,3,Pin_3*%
%TO.N,/VCC*%
X13208000Y18288000D03*
%TO.P,J5,4,Pin_4*%
X13208000Y15748000D03*
%TO.P,J5,5,Pin_5*%
%TO.N,/SCK*%
X15748000Y18288000D03*
%TO.P,J5,6,Pin_6*%
%TO.N,/SET*%
X15748000Y15748000D03*
%TO.P,J5,7,Pin_7*%
%TO.N,/SDA*%
X18288000Y18288000D03*
%TO.P,J5,8,Pin_8*%
%TO.N,/OK*%
X18288000Y15748000D03*
%TO.P,J5,9,Pin_9*%
%TO.N,/RES*%
X20828000Y18288000D03*
%TO.P,J5,10,Pin_10*%
%TO.N,/RT*%
X20828000Y15748000D03*
%TO.P,J5,11,Pin_11*%
%TO.N,/RS*%
X23368000Y18288000D03*
%TO.P,J5,12,Pin_12*%
%TO.N,/UP*%
X23368000Y15748000D03*
%TO.P,J5,13,Pin_13*%
%TO.N,/CS*%
X25908000Y18288000D03*
%TO.P,J5,14,Pin_14*%
%TO.N,/DW*%
X25908000Y15748000D03*
%TO.P,J5,15,Pin_15*%
%TO.N,/BL*%
X28448000Y18288000D03*
%TO.P,J5,16,Pin_16*%
%TO.N,/LFT*%
X28448000Y15748000D03*
%TD*%
D10*
%TO.P,J6,1,Pin_1*%
%TO.N,/GND*%
X10414000Y29210000D03*
D11*
%TO.P,J6,2,Pin_2*%
%TO.N,/VCC*%
X12954000Y29210000D03*
%TD*%
D12*
%TO.P,f,1*%
%TO.N,N/C*%
X34544000Y66802000D03*
%TD*%
%TO.P,e,1*%
%TO.N,N/C*%
X3048000Y16002000D03*
%TD*%
D10*
%TO.P,J7,1,Pin_1*%
%TO.N,/LFT*%
X4318000Y58166000D03*
D11*
%TO.P,J7,2,Pin_2*%
%TO.N,/DW*%
X1778000Y58166000D03*
%TO.P,J7,3,Pin_3*%
%TO.N,/BL*%
X4318000Y55626000D03*
%TO.P,J7,4,Pin_4*%
%TO.N,/RES*%
X1778000Y55626000D03*
%TO.P,J7,5,Pin_5*%
%TO.N,/CS*%
X4318000Y53086000D03*
%TO.P,J7,6,Pin_6*%
%TO.N,/RS*%
X1778000Y53086000D03*
%TO.P,J7,7,Pin_7*%
%TO.N,Net-(J7-Pin_7)*%
X4318000Y50546000D03*
%TO.P,J7,8,Pin_8*%
%TO.N,/M0*%
X1778000Y50546000D03*
%TO.P,J7,9,Pin_9*%
%TO.N,/RT*%
X4318000Y48006000D03*
%TO.P,J7,10,Pin_10*%
%TO.N,/UP*%
X1778000Y48006000D03*
%TO.P,J7,11,Pin_11*%
%TO.N,/SET*%
X4318000Y45466000D03*
%TO.P,J7,12,Pin_12*%
%TO.N,/OK*%
X1778000Y45466000D03*
%TO.P,J7,13,Pin_13*%
%TO.N,/TXR*%
X4318000Y42926000D03*
%TO.P,J7,14,Pin_14*%
%TO.N,/RXR*%
X1778000Y42926000D03*
%TD*%
D13*
%TO.P,R1,1*%
%TO.N,/RXD*%
X13938000Y44704000D03*
%TO.P,R1,2*%
%TO.N,/RXR*%
X11938000Y44704000D03*
%TD*%
D10*
%TO.P,MP,1*%
%TO.N,N/C*%
X25908000Y70612000D03*
D11*
%TO.P,MP,2*%
X23368000Y70612000D03*
%TO.P,MP,3*%
X20828000Y70612000D03*
%TO.P,MP,4*%
X18288000Y70612000D03*
%TD*%
D10*
%TO.P,J1,1,Pin_1*%
%TO.N,/VIN*%
X4318000Y73406000D03*
D11*
%TO.P,J1,2,Pin_2*%
X1778000Y73406000D03*
%TO.P,J1,3,Pin_3*%
%TO.N,/GND*%
X4318000Y70866000D03*
%TO.P,J1,4,Pin_4*%
X1778000Y70866000D03*
%TO.P,J1,5,Pin_5*%
%TO.N,/VCC*%
X4318000Y68326000D03*
%TO.P,J1,6,Pin_6*%
X1778000Y68326000D03*
%TO.P,J1,7,Pin_7*%
%TO.N,/3V3*%
X4318000Y65786000D03*
%TO.P,J1,8,Pin_8*%
X1778000Y65786000D03*
%TD*%
D10*
%TO.P,J3,1,Pin_1*%
%TO.N,/VIN*%
X8128000Y73406000D03*
D11*
%TO.P,J3,2,Pin_2*%
%TO.N,/GND*%
X8128000Y70866000D03*
%TO.P,J3,3,Pin_3*%
%TO.N,/VCC*%
X8128000Y68326000D03*
%TO.P,J3,4,Pin_4*%
%TO.N,/3V3*%
X8128000Y65786000D03*
%TD*%
D14*
%TO.P,R5,1*%
%TO.N,/M1*%
X21844000Y43434000D03*
%TO.P,R5,2*%
%TO.N,Net-(J7-Pin_7)*%
X23844000Y43434000D03*
%TD*%
D10*
%TO.P,J12,1,Pin_1*%
%TO.N,/VCC*%
X27178000Y1778000D03*
%TD*%
%TO.P,J14,1,Pin_1*%
%TO.N,/GND*%
X9144000Y39116000D03*
D11*
%TO.P,J14,2,Pin_2*%
%TO.N,/VCC*%
X11684000Y39116000D03*
%TO.P,J14,3,Pin_3*%
%TO.N,/AUX*%
X14224000Y39116000D03*
%TO.P,J14,4,Pin_4*%
%TO.N,/RXD*%
X16764000Y39116000D03*
%TO.P,J14,5,Pin_5*%
%TO.N,/TXD*%
X19304000Y39116000D03*
%TO.P,J14,6,Pin_6*%
%TO.N,/M1*%
X21844000Y39116000D03*
%TO.P,J14,7,Pin_7*%
%TO.N,/M0*%
X24384000Y39116000D03*
%TD*%
D13*
%TO.P,R2,1*%
%TO.N,Net-(R2-Pad1)*%
X13938000Y42672000D03*
%TO.P,R2,2*%
%TO.N,/TXR*%
X11938000Y42672000D03*
%TD*%
D10*
%TO.P,J11,1,Pin_1*%
%TO.N,/GND*%
X27178000Y10414000D03*
%TD*%
%TO.P,J13,1,Pin_1*%
%TO.N,/HVIN*%
X11684000Y1778000D03*
%TD*%
%TO.P,J10,1,Pin_1*%
%TO.N,/GND*%
X11684000Y10414000D03*
%TD*%
%TO.P,J2,1,Pin_1*%
%TO.N,/AUX*%
X19558000Y25146000D03*
D11*
%TO.P,J2,2,Pin_2*%
%TO.N,/VCC*%
X19558000Y22606000D03*
%TO.P,J2,3,Pin_3*%
%TO.N,/SCK*%
X17018000Y25146000D03*
%TO.P,J2,4,Pin_4*%
%TO.N,/SDA*%
X17018000Y22606000D03*
%TO.P,J2,5,Pin_5*%
%TO.N,unconnected-(J2-Pin_5-Pad5)*%
X14478000Y25146000D03*
%TO.P,J2,6,Pin_6*%
%TO.N,/GND*%
X14478000Y22606000D03*
%TD*%
D14*
%TO.P,R3,1*%
%TO.N,/VCC*%
X22384000Y22606000D03*
%TO.P,R3,2*%
%TO.N,/OK*%
X24384000Y22606000D03*
%TD*%
D13*
%TO.P,R4,1*%
%TO.N,/TXD*%
X24384000Y25654000D03*
%TO.P,R4,2*%
%TO.N,Net-(R2-Pad1)*%
X22384000Y25654000D03*
%TD*%
D15*
%TO.P,J8,1*%
%TO.N,/HVIN*%
X9048000Y5080000D03*
D16*
%TO.P,J8,2*%
%TO.N,/GND*%
X3048000Y5080000D03*
D17*
%TO.P,J8,3*%
X6048000Y9780000D03*
%TD*%
D15*
%TO.P,J9,1*%
%TO.N,/VCC*%
X34290000Y8032000D03*
D18*
%TO.P,J9,2*%
%TO.N,/GND*%
X34290000Y2032000D03*
D19*
%TO.P,J9,3*%
X29590000Y5032000D03*
%TD*%
D20*
%TO.N,/GND*%
X10414000Y32004000D02*
X10414000Y34290000D01*
X30645580Y12097969D02*
X27178000Y12097969D01*
X34290000Y5032000D02*
X29590000Y5032000D01*
X10668000Y15748000D02*
X10668000Y17398000D01*
X31704066Y39669934D02*
X31704063Y21124634D01*
X36640000Y5682000D02*
X35990000Y5032000D01*
X10668000Y18288000D02*
X10668000Y15748000D01*
X14478000Y22606000D02*
X10668000Y18796000D01*
X4318000Y70866000D02*
X8128000Y70866000D01*
X32698041Y14150430D02*
X30645580Y12097969D01*
X7617979Y20069563D02*
X10414000Y22865584D01*
X9922418Y12097969D02*
X7617979Y14402408D01*
X34290000Y2032000D02*
X34290000Y5032000D01*
X31750000Y48514000D02*
X31750000Y39715868D01*
X11176000Y9906000D02*
X11684000Y10414000D01*
X36640000Y10382000D02*
X36640000Y5682000D01*
X27178000Y12097969D02*
X11684000Y12097969D01*
X32698039Y15602430D02*
X32698041Y15602428D01*
X10668000Y18796000D02*
X10668000Y18288000D01*
X1778000Y70866000D02*
X4318000Y70866000D01*
X10414000Y34290000D02*
X9144000Y35560000D01*
X11684000Y10414000D02*
X11684000Y12097969D01*
X9330081Y70866000D02*
X12446000Y67750081D01*
X35990000Y5032000D02*
X34290000Y5032000D01*
X5842000Y9906000D02*
X11176000Y9906000D01*
X2842000Y5206000D02*
X2842000Y6906000D01*
X31750000Y39715868D02*
X31704066Y39669934D01*
X2842000Y6906000D02*
X5842000Y9906000D01*
X27178000Y10414000D02*
X36608000Y10414000D01*
X7617979Y14402408D02*
X7617979Y20069563D01*
X10414000Y32004000D02*
X10414000Y29210000D01*
X8128000Y70866000D02*
X9330081Y70866000D01*
X27178000Y10414000D02*
X27178000Y12097969D01*
X36608000Y10414000D02*
X36640000Y10382000D01*
X11684000Y12097969D02*
X9922418Y12097969D01*
X10414000Y22865584D02*
X10414000Y29210000D01*
X32698041Y15602428D02*
X32698041Y14150430D01*
X12446000Y67750081D02*
X12513919Y67750081D01*
X31704063Y21124634D02*
X32698039Y20130658D01*
X9144000Y35560000D02*
X9144000Y39116000D01*
X12513919Y67750081D02*
X31750000Y48514000D01*
X32698039Y20130658D02*
X32698039Y15602430D01*
D21*
%TO.N,/RES*%
X20138002Y18288000D02*
X20828000Y18288000D01*
X29904047Y20379040D02*
X29904047Y46688583D01*
X19538001Y13989999D02*
X19538001Y16403459D01*
X19630011Y13897989D02*
X19538001Y13989999D01*
X29904047Y20379040D02*
X30898021Y19385066D01*
X19538001Y16403459D02*
X20828000Y17693458D01*
X20828000Y17693458D02*
X20828000Y18288000D01*
X30898021Y14896021D02*
X29899989Y13897989D01*
X527999Y59201999D02*
X527999Y56876001D01*
X29899989Y13897989D02*
X19630011Y13897989D01*
X30898021Y19385066D02*
X30898021Y14896021D01*
X29904047Y46688583D02*
X17176629Y59416001D01*
X742001Y59416001D02*
X527999Y59201999D01*
X17176629Y59416001D02*
X742001Y59416001D01*
X527999Y56876001D02*
X1778000Y55626000D01*
%TO.N,/SDA*%
X16941705Y17018000D02*
X14478000Y17018000D01*
X14478000Y17018000D02*
X14478000Y14497999D01*
X11938000Y15128000D02*
X11957999Y15147999D01*
X16256000Y22606000D02*
X13208000Y19558000D01*
X17018000Y22606000D02*
X16256000Y22606000D01*
X18211705Y18288000D02*
X16941705Y17018000D01*
X18288000Y18901530D02*
X18288000Y18288000D01*
X18288000Y18288000D02*
X18669000Y18288000D01*
X11938000Y14497999D02*
X11938000Y15128000D01*
X11957999Y15147999D02*
X11957999Y18954629D01*
X12561370Y19558000D02*
X11957999Y18954629D01*
X13208000Y19558000D02*
X12561370Y19558000D01*
X14478000Y14497999D02*
X11938000Y14497999D01*
X18288000Y18288000D02*
X18542000Y18288000D01*
X18288000Y18288000D02*
X18211705Y18288000D01*
X18288000Y18709458D02*
X18288000Y18288000D01*
X17598002Y18288000D02*
X18288000Y18288000D01*
%TO.N,/SCK*%
X23114000Y23876000D02*
X23384000Y23606000D01*
X19304000Y21082000D02*
X16510000Y18288000D01*
X18288000Y23876000D02*
X23114000Y23876000D01*
X16510000Y18288000D02*
X15748000Y18288000D01*
X23384000Y21879834D02*
X22586166Y21082000D01*
X23384000Y23606000D02*
X23384000Y21879834D01*
X22586166Y21082000D02*
X19304000Y21082000D01*
X17018000Y25146000D02*
X18288000Y23876000D01*
%TO.N,/RS*%
X25165999Y17037999D02*
X24638000Y16510000D01*
X3028000Y54336000D02*
X18862518Y54336000D01*
X22332001Y14497999D02*
X22117999Y14712001D01*
X1778000Y53086000D02*
X3028000Y54336000D01*
X18862518Y54336000D02*
X27504011Y45694507D01*
X23368000Y18201458D02*
X23368000Y18288000D01*
X22117999Y14712001D02*
X22117999Y16348001D01*
X27504011Y19884011D02*
X27158001Y19538001D01*
X23368000Y17598002D02*
X23368000Y18288000D01*
X27158001Y19538001D02*
X27158001Y17252001D01*
X26943999Y17037999D02*
X25165999Y17037999D01*
X22117999Y16348001D02*
X23368000Y17598002D01*
X24638000Y16510000D02*
X24638000Y14497999D01*
X27158001Y17252001D02*
X26943999Y17037999D01*
X24638000Y14497999D02*
X22332001Y14497999D01*
X27504011Y45694507D02*
X27504011Y19884011D01*
%TO.N,/CS*%
X25908000Y18288000D02*
X25908000Y19136542D01*
X26904001Y45445989D02*
X19263990Y53086000D01*
X19263990Y53086000D02*
X4318000Y53086000D01*
X25908000Y19136542D02*
X26904001Y20132543D01*
X26904001Y20132543D02*
X26904001Y33634541D01*
X25908000Y18288000D02*
X25654000Y18288000D01*
X26904001Y33528000D02*
X26904001Y45445989D01*
%TO.N,/M0*%
X19705462Y51796000D02*
X25654000Y45847462D01*
X25654000Y39116000D02*
X25654000Y32004000D01*
X24384000Y39116000D02*
X25654000Y39116000D01*
X1778000Y50546000D02*
X3028000Y51796000D01*
X3028000Y51796000D02*
X19705462Y51796000D01*
X1778000Y50546000D02*
X2118528Y50546000D01*
X25654000Y45847462D02*
X25654000Y39116000D01*
%TO.N,/M1*%
X21844000Y36068000D02*
X21844000Y39116000D01*
X21844000Y43434000D02*
X21844000Y39116000D01*
X23114000Y34798000D02*
X21844000Y36068000D01*
X23114000Y32004000D02*
X23114000Y34798000D01*
%TO.N,/TXD*%
X20574000Y35306000D02*
X20574000Y32004000D01*
X19034000Y39386000D02*
X19304000Y39116000D01*
X20558000Y32020000D02*
X20574000Y32004000D01*
X19304000Y39116000D02*
X19304000Y36576000D01*
X19304000Y36576000D02*
X20574000Y35306000D01*
X24384000Y26924000D02*
X24384000Y25654000D01*
X20574000Y30734000D02*
X24384000Y26924000D01*
X20574000Y32004000D02*
X20574000Y30734000D01*
%TO.N,/RXD*%
X16764000Y43942000D02*
X16002000Y44704000D01*
X16002000Y44704000D02*
X13938000Y44704000D01*
X16764000Y39116000D02*
X16764000Y43942000D01*
X18034000Y35544000D02*
X18034000Y32004000D01*
X16764000Y36814000D02*
X18034000Y35544000D01*
X16764000Y39116000D02*
X16764000Y36814000D01*
%TO.N,/AUX*%
X14224000Y36068000D02*
X15494000Y34798000D01*
X14224000Y39116000D02*
X14224000Y36068000D01*
X15494000Y29210000D02*
X19558000Y25146000D01*
X15494000Y34798000D02*
X15494000Y32004000D01*
X15494000Y32004000D02*
X15494000Y29210000D01*
%TO.N,/BL*%
X28448000Y18446544D02*
X28448000Y18288000D01*
X28448000Y18288000D02*
X28448000Y18542000D01*
X28448000Y19289461D02*
X28104020Y19633441D01*
X28448000Y18288000D02*
X28448000Y19289461D01*
X28104021Y45943025D02*
X18421046Y55626000D01*
X28448000Y18288000D02*
X28448000Y18647165D01*
X18421046Y55626000D02*
X4318000Y55626000D01*
X28104020Y19633441D02*
X28104021Y45943025D01*
D20*
%TO.N,/VCC*%
X30704047Y46928047D02*
X30704047Y39255727D01*
X30704047Y39255727D02*
X30704057Y39255717D01*
X7694000Y37666000D02*
X7768000Y37592000D01*
X12954000Y32004000D02*
X12954000Y29210000D01*
X12033315Y23070685D02*
X12033315Y26257315D01*
X3302000Y12700000D02*
X762000Y10160000D01*
X6096000Y6828000D02*
X6698000Y7430000D01*
X34290000Y8032000D02*
X27654000Y8032000D01*
X7694000Y40566000D02*
X7694000Y37666000D01*
X11684000Y39116000D02*
X11684000Y40318081D01*
X12954000Y27178000D02*
X12954000Y29210000D01*
X27654000Y8032000D02*
X27052000Y7430000D01*
X5080000Y2032000D02*
X6096000Y3048000D01*
X13208000Y18288000D02*
X13208000Y15748000D01*
X8942088Y34303874D02*
X8942088Y22807886D01*
X8144000Y35145786D02*
X8964000Y34325786D01*
X30704057Y39255717D02*
X30704055Y20710416D01*
X8144000Y37576000D02*
X8144000Y35145786D01*
X31698031Y14564647D02*
X30231363Y13097979D01*
X12954000Y34290000D02*
X11684000Y35560000D01*
X10336635Y13097979D02*
X8617989Y14816625D01*
X27178000Y7304000D02*
X27052000Y7430000D01*
X12033315Y26257315D02*
X12954000Y27178000D01*
X11684000Y40318081D02*
X11436081Y40566000D01*
X8617989Y19655359D02*
X12033315Y23070685D01*
X1778000Y68326000D02*
X4318000Y68326000D01*
X762000Y2794000D02*
X1524000Y2032000D01*
X27178000Y1778000D02*
X27178000Y7304000D01*
X30231363Y13097979D02*
X10336635Y13097979D01*
X31698031Y19716440D02*
X31698031Y14564647D01*
X6604000Y13462000D02*
X5842000Y12700000D01*
X30750000Y46974000D02*
X30704047Y46928047D01*
X8128000Y68326000D02*
X9398000Y68326000D01*
X1524000Y2032000D02*
X5080000Y2032000D01*
X6096000Y3048000D02*
X6096000Y6828000D01*
X19558000Y22606000D02*
X22384000Y22606000D01*
X8128000Y37592000D02*
X8144000Y37576000D01*
X8617989Y14816625D02*
X8617989Y19655359D01*
X9398000Y68326000D02*
X30750000Y46974000D01*
X6698000Y7430000D02*
X27052000Y7430000D01*
X15476000Y20556000D02*
X13208000Y18288000D01*
X7768000Y37592000D02*
X8128000Y37592000D01*
X4318000Y68326000D02*
X8128000Y68326000D01*
X19558000Y22606000D02*
X17508000Y20556000D01*
X11684000Y35560000D02*
X11684000Y39116000D01*
X8964000Y34325786D02*
X8942088Y34303874D01*
X762000Y10160000D02*
X762000Y2794000D01*
X11436081Y40566000D02*
X7694000Y40566000D01*
X12954000Y32004000D02*
X12954000Y34290000D01*
X8942088Y22807886D02*
X6604000Y20469798D01*
X30704055Y20710416D02*
X31698031Y19716440D01*
X5842000Y12700000D02*
X3302000Y12700000D01*
X6604000Y20469798D02*
X6604000Y13462000D01*
X17508000Y20556000D02*
X15476000Y20556000D01*
D21*
%TO.N,/LFT*%
X29304038Y20130507D02*
X29304038Y46440064D01*
X29650081Y15748000D02*
X30298011Y16395930D01*
X28448000Y15748000D02*
X29650081Y15748000D01*
X30298011Y16395930D02*
X30298011Y19136534D01*
X28606544Y15748000D02*
X28448000Y15748000D01*
X17578102Y58166000D02*
X4318000Y58166000D01*
X30298011Y19136534D02*
X29304038Y20130507D01*
X17578102Y58166000D02*
X29304038Y46440064D01*
%TO.N,/DW*%
X28704029Y19881974D02*
X29698001Y18888002D01*
X1778000Y58166000D02*
X3028001Y56915999D01*
X27752543Y16998001D02*
X26502542Y15748000D01*
X17979575Y56915999D02*
X28704030Y46191544D01*
X26502542Y15748000D02*
X25908000Y15748000D01*
X29698001Y18888002D02*
X29698001Y17252001D01*
X28704030Y46191544D02*
X28704029Y19881974D01*
X3028001Y56915999D02*
X17979575Y56915999D01*
X29444001Y16998001D02*
X27752543Y16998001D01*
X29698001Y17252001D02*
X29444001Y16998001D01*
%TO.N,/UP*%
X23094000Y41168000D02*
X22844000Y41418000D01*
X22844000Y46960406D02*
X20508406Y49296000D01*
X24384000Y29210000D02*
X24384000Y35052000D01*
X24384000Y35052000D02*
X23094000Y36342000D01*
X23368000Y16256000D02*
X24638000Y17526000D01*
X24638000Y17526000D02*
X24638000Y19304000D01*
X3068000Y49296000D02*
X1778000Y48006000D01*
X20508406Y49296000D02*
X3068000Y49296000D01*
X23094000Y36342000D02*
X23094000Y41168000D01*
X26304001Y27289999D02*
X24384000Y29210000D01*
X24638000Y19304000D02*
X26304001Y20970001D01*
X23368000Y15748000D02*
X23368000Y16256000D01*
X22844000Y41418000D02*
X22844000Y46960406D01*
X26304001Y20970001D02*
X26304001Y27289999D01*
%TO.N,/RT*%
X17696166Y48006000D02*
X20554000Y45148166D01*
X22118000Y17292000D02*
X20828000Y16002000D01*
X4069468Y47405990D02*
X3893729Y47581729D01*
X23046528Y19720000D02*
X23032233Y19720000D01*
X21844000Y35219472D02*
X21844000Y30734000D01*
X22118000Y18805767D02*
X22118000Y17292000D01*
X20828000Y16002000D02*
X20828000Y15748000D01*
X21844000Y30734000D02*
X25704001Y26873999D01*
X23032233Y19720000D02*
X22118000Y18805767D01*
X4318000Y48006000D02*
X4656000Y48344000D01*
X24015264Y20688736D02*
X23046528Y19720000D01*
X20828000Y15748000D02*
X20828000Y16256000D01*
X20554000Y36509472D02*
X21844000Y35219472D01*
X4318000Y48006000D02*
X3810000Y48006000D01*
X20554000Y45148166D02*
X20554000Y36509472D01*
X25704001Y26873999D02*
X25704001Y22148001D01*
X24244736Y20688736D02*
X24015264Y20688736D01*
X4318000Y48006000D02*
X17696166Y48006000D01*
X25704001Y22148001D02*
X24244736Y20688736D01*
%TO.N,/OK*%
X23384000Y26380166D02*
X23384000Y24876000D01*
X24384000Y22606000D02*
X24384000Y21906000D01*
X1778000Y45307456D02*
X1778000Y45466000D01*
X19538002Y19538002D02*
X19538002Y17251988D01*
X24384000Y21906000D02*
X22798000Y20320000D01*
X1778000Y45466000D02*
X3048000Y46736000D01*
X22798000Y20320000D02*
X20320000Y20320000D01*
X19284000Y35580000D02*
X19284000Y30480166D01*
X18014000Y36850000D02*
X19284000Y35580000D01*
X3048000Y46736000D02*
X17188166Y46736000D01*
X18014000Y45910166D02*
X18014000Y36850000D01*
X1778000Y45466000D02*
X1778000Y45542295D01*
X20320000Y20320000D02*
X19538002Y19538002D01*
X1778000Y45466000D02*
X1778000Y44958000D01*
X23384000Y24876000D02*
X24384000Y23876000D01*
X17188166Y46736000D02*
X18014000Y45910166D01*
X19538002Y17251988D02*
X18288000Y16001986D01*
X24384000Y23876000D02*
X24384000Y22606000D01*
X19284000Y30480166D02*
X23384000Y26380166D01*
X18288000Y15748000D02*
X18288000Y16002000D01*
X18288000Y16001986D02*
X18288000Y15748000D01*
%TO.N,/SET*%
X10667985Y13897999D02*
X9417989Y15147995D01*
X4318000Y45466000D02*
X4231472Y45466000D01*
X4318000Y45466000D02*
X4748000Y45896000D01*
X12833315Y22739315D02*
X12833315Y25902686D01*
X12833315Y25902686D02*
X14204000Y27273371D01*
X4656000Y45804000D02*
X12564166Y45804000D01*
X15748000Y14545919D02*
X15100080Y13897999D01*
X15100080Y13897999D02*
X10667985Y13897999D01*
X12938000Y36338000D02*
X14204000Y35072000D01*
X9417989Y15147995D02*
X9417989Y19323989D01*
X12564166Y45804000D02*
X12938000Y45430166D01*
X4318000Y45466000D02*
X4656000Y45804000D01*
X14204000Y27273371D02*
X14204000Y35072000D01*
X12938000Y45430166D02*
X12938000Y36338000D01*
X15748000Y15748000D02*
X15748000Y14545919D01*
X9417989Y19323989D02*
X12833315Y22739315D01*
%TO.N,/RXR*%
X1778000Y42926000D02*
X1778000Y42767456D01*
X1778000Y42926000D02*
X1778000Y42585458D01*
X3032000Y44180000D02*
X1778000Y42926000D01*
X8382000Y44180000D02*
X3032000Y44180000D01*
X8906000Y44704000D02*
X8382000Y44180000D01*
X11938000Y44704000D02*
X8906000Y44704000D01*
%TO.N,/TXR*%
X11938000Y42672000D02*
X4572000Y42672000D01*
X4572000Y42672000D02*
X4318000Y42926000D01*
%TO.N,/HVIN*%
X8842000Y4620000D02*
X8842000Y5206000D01*
D20*
X11684000Y4826000D02*
X11684000Y1778000D01*
X11430000Y5080000D02*
X11684000Y4826000D01*
X9048000Y5080000D02*
X11430000Y5080000D01*
%TO.N,/3V3*%
X4318000Y65786000D02*
X8128000Y65786000D01*
X1778000Y65786000D02*
X4318000Y65786000D01*
%TO.N,/VIN*%
X8128000Y73406000D02*
X4318000Y73406000D01*
X1778000Y73406000D02*
X4318000Y73406000D01*
D21*
%TO.N,Net-(R2-Pad1)*%
X16764000Y30226000D02*
X16764000Y35814000D01*
X22384000Y25654000D02*
X22384000Y26531638D01*
X14986000Y42672000D02*
X13938000Y42672000D01*
X19812000Y27178000D02*
X16764000Y30226000D01*
X21737638Y27178000D02*
X19812000Y27178000D01*
X16764000Y35814000D02*
X15494000Y37084000D01*
X22384000Y26531638D02*
X21737638Y27178000D01*
X15494000Y37084000D02*
X15494000Y42164000D01*
X15494000Y42164000D02*
X14986000Y42672000D01*
%TO.N,Net-(J7-Pin_7)*%
X4318000Y50546000D02*
X20106934Y50546000D01*
X23844000Y46808934D02*
X23844000Y43434000D01*
X20106934Y50546000D02*
X23844000Y46808934D01*
%TD*%
M02*
