%TF.GenerationSoftware,KiCad,Pcbnew,7.0.10*%
%TF.CreationDate,2024-01-29T09:08:01-07:00*%
%TF.ProjectId,AMPE32T30,414d5045-3332-4543-9330-2e6b69636164,rev?*%
%TF.SameCoordinates,PX76efc10PY5962530*%
%TF.FileFunction,Profile,NP*%
%FSLAX46Y46*%
G04 Gerber Fmt 4.6, Leading zero omitted, Abs format (unit mm)*
G04 Created by KiCad (PCBNEW 7.0.10) date 2024-01-29 09:08:01*
%MOMM*%
%LPD*%
G01*
G04 APERTURE LIST*
%TA.AperFunction,Profile*%
%ADD10C,0.050000*%
%TD*%
G04 APERTURE END LIST*
D10*
X32512000Y21336000D02*
X33528000Y20320000D01*
X38608000Y63246000D02*
X32512000Y63246000D01*
X39116000Y74676000D02*
G75*
G03*
X38608000Y75184000I-508000J0D01*
G01*
X32512000Y21336000D02*
X32512000Y63246000D01*
X38608000Y63246000D02*
G75*
G03*
X39116000Y63754000I0J508000D01*
G01*
X34036000Y11684000D02*
X38608000Y11684000D01*
X39116000Y11176000D02*
X39116000Y508000D01*
X508000Y75184000D02*
X38608000Y75184000D01*
X6858000Y21844000D02*
X4572000Y19558000D01*
X6858000Y41656000D02*
X6858000Y21844000D01*
X0Y508000D02*
G75*
G03*
X508000Y0I508000J0D01*
G01*
X508000Y19558000D02*
X4572000Y19558000D01*
X39116000Y74676000D02*
X39116000Y63754000D01*
X0Y42164000D02*
G75*
G03*
X508000Y41656000I508000J0D01*
G01*
X0Y19050000D02*
X0Y508000D01*
X508000Y75184000D02*
G75*
G03*
X0Y74676000I0J-508000D01*
G01*
X38608000Y0D02*
X508000Y0D01*
X33528000Y12192000D02*
G75*
G03*
X34036000Y11684000I508000J0D01*
G01*
X38608000Y0D02*
G75*
G03*
X39116000Y508000I0J508000D01*
G01*
X39116000Y11176000D02*
G75*
G03*
X38608000Y11684000I-508000J0D01*
G01*
X33528000Y20320000D02*
X33528000Y12192000D01*
X0Y42164000D02*
X0Y74676000D01*
X508000Y41656000D02*
X6858000Y41656000D01*
X508000Y19558000D02*
G75*
G03*
X0Y19050000I0J-508000D01*
G01*
M02*
