%TF.GenerationSoftware,KiCad,Pcbnew,7.0.10*%
%TF.CreationDate,2024-01-29T09:08:00-07:00*%
%TF.ProjectId,AMPE32T30,414d5045-3332-4543-9330-2e6b69636164,rev?*%
%TF.SameCoordinates,PX76efc10PY5962530*%
%TF.FileFunction,Legend,Top*%
%TF.FilePolarity,Positive*%
%FSLAX46Y46*%
G04 Gerber Fmt 4.6, Leading zero omitted, Abs format (unit mm)*
G04 Created by KiCad (PCBNEW 7.0.10) date 2024-01-29 09:08:00*
%MOMM*%
%LPD*%
G01*
G04 APERTURE LIST*
%ADD10C,0.120000*%
G04 APERTURE END LIST*
D10*
%TO.C,J4*%
X11684000Y30674000D02*
X26984000Y30674000D01*
X11684000Y30674000D02*
X11684000Y33334000D01*
X26984000Y30674000D02*
X26984000Y33334000D01*
X9084000Y32004000D02*
X9084000Y33334000D01*
X9084000Y33334000D02*
X10414000Y33334000D01*
X11684000Y33334000D02*
X26984000Y33334000D01*
%TO.C,J5*%
X9338000Y14418000D02*
X29778000Y14418000D01*
X9338000Y14418000D02*
X9338000Y17018000D01*
X29778000Y14418000D02*
X29778000Y19618000D01*
X9338000Y17018000D02*
X11938000Y17018000D01*
X11938000Y17018000D02*
X11938000Y19618000D01*
X9338000Y18288000D02*
X9338000Y19618000D01*
X9338000Y19618000D02*
X10668000Y19618000D01*
X11938000Y19618000D02*
X29778000Y19618000D01*
%TO.C,J6*%
X11684000Y27880000D02*
X14284000Y27880000D01*
X11684000Y27880000D02*
X11684000Y30540000D01*
X14284000Y27880000D02*
X14284000Y30540000D01*
X9084000Y29210000D02*
X9084000Y30540000D01*
X9084000Y30540000D02*
X10414000Y30540000D01*
X11684000Y30540000D02*
X14284000Y30540000D01*
%TO.C,J7*%
X448000Y59496000D02*
X448000Y41596000D01*
X448000Y59496000D02*
X3048000Y59496000D01*
X448000Y41596000D02*
X5648000Y41596000D01*
X3048000Y59496000D02*
X3048000Y56896000D01*
X3048000Y56896000D02*
X5648000Y56896000D01*
X4318000Y59496000D02*
X5648000Y59496000D01*
X5648000Y59496000D02*
X5648000Y58166000D01*
X5648000Y56896000D02*
X5648000Y41596000D01*
%TO.C,R1*%
X13165064Y43969000D02*
X12710936Y43969000D01*
X13165064Y45439000D02*
X12710936Y45439000D01*
%TO.C,MP*%
X24638000Y71942000D02*
X16958000Y71942000D01*
X24638000Y71942000D02*
X24638000Y69282000D01*
X16958000Y71942000D02*
X16958000Y69282000D01*
X27238000Y70612000D02*
X27238000Y69282000D01*
X27238000Y69282000D02*
X25908000Y69282000D01*
X24638000Y69282000D02*
X16958000Y69282000D01*
%TO.C,J1*%
X448000Y74736000D02*
X448000Y64456000D01*
X448000Y74736000D02*
X3048000Y74736000D01*
X448000Y64456000D02*
X5648000Y64456000D01*
X3048000Y74736000D02*
X3048000Y72136000D01*
X3048000Y72136000D02*
X5648000Y72136000D01*
X4318000Y74736000D02*
X5648000Y74736000D01*
X5648000Y74736000D02*
X5648000Y73406000D01*
X5648000Y72136000D02*
X5648000Y64456000D01*
%TO.C,J3*%
X6798000Y72136000D02*
X6798000Y64456000D01*
X6798000Y72136000D02*
X9458000Y72136000D01*
X6798000Y64456000D02*
X9458000Y64456000D01*
X8128000Y74736000D02*
X9458000Y74736000D01*
X9458000Y74736000D02*
X9458000Y73406000D01*
X9458000Y72136000D02*
X9458000Y64456000D01*
%TO.C,R5*%
X22616936Y44169000D02*
X23071064Y44169000D01*
X22616936Y42699000D02*
X23071064Y42699000D01*
%TO.C,J12*%
X25848000Y568000D02*
X25848000Y448000D01*
X25848000Y448000D02*
X28508000Y448000D01*
X27178000Y3108000D02*
X28508000Y3108000D01*
X28508000Y3108000D02*
X28508000Y1778000D01*
X28508000Y568000D02*
X28508000Y448000D01*
%TO.C,J14*%
X10414000Y37786000D02*
X25714000Y37786000D01*
X10414000Y37786000D02*
X10414000Y40446000D01*
X25714000Y37786000D02*
X25714000Y40446000D01*
X7814000Y39116000D02*
X7814000Y40446000D01*
X7814000Y40446000D02*
X9144000Y40446000D01*
X10414000Y40446000D02*
X25714000Y40446000D01*
%TO.C,R2*%
X13165064Y41937000D02*
X12710936Y41937000D01*
X13165064Y43407000D02*
X12710936Y43407000D01*
%TO.C,J11*%
X25848000Y9204000D02*
X25848000Y9084000D01*
X25848000Y9084000D02*
X28508000Y9084000D01*
X27178000Y11744000D02*
X28508000Y11744000D01*
X28508000Y11744000D02*
X28508000Y10414000D01*
X28508000Y9204000D02*
X28508000Y9084000D01*
%TO.C,J13*%
X10354000Y568000D02*
X10354000Y448000D01*
X10354000Y448000D02*
X13014000Y448000D01*
X11684000Y3108000D02*
X13014000Y3108000D01*
X13014000Y3108000D02*
X13014000Y1778000D01*
X13014000Y568000D02*
X13014000Y448000D01*
%TO.C,J10*%
X10354000Y9204000D02*
X10354000Y9084000D01*
X10354000Y9084000D02*
X13014000Y9084000D01*
X11684000Y11744000D02*
X13014000Y11744000D01*
X13014000Y11744000D02*
X13014000Y10414000D01*
X13014000Y9204000D02*
X13014000Y9084000D01*
%TO.C,J2*%
X20888000Y26476000D02*
X20888000Y25146000D01*
X19558000Y26476000D02*
X20888000Y26476000D01*
X18288000Y26476000D02*
X13148000Y26476000D01*
X18288000Y26476000D02*
X18288000Y23876000D01*
X13148000Y26476000D02*
X13148000Y21276000D01*
X20888000Y23876000D02*
X20888000Y21276000D01*
X18288000Y23876000D02*
X20888000Y23876000D01*
X20888000Y21276000D02*
X13148000Y21276000D01*
%TO.C,R3*%
X23156936Y23341000D02*
X23611064Y23341000D01*
X23156936Y21871000D02*
X23611064Y21871000D01*
%TO.C,R4*%
X23611064Y24919000D02*
X23156936Y24919000D01*
X23611064Y26389000D02*
X23156936Y26389000D01*
%TD*%
M02*
