M48
; DRILL file {KiCad 7.0.10} date Mon Jan 29 09:08:04 2024
; FORMAT={-:-/ absolute / metric / decimal}
; #@! TF.CreationDate,2024-01-29T09:08:04-07:00
; #@! TF.GenerationSoftware,Kicad,Pcbnew,7.0.10
; #@! TF.FileFunction,Plated,1,2,PTH
FMAT,2
METRIC
; #@! TA.AperFunction,Plated,PTH,ComponentDrill
T1C1.000
; #@! TA.AperFunction,Plated,PTH,ComponentDrill
T2C2.200
%
G90
G05
T1
X1.778Y73.406
X1.778Y70.866
X1.778Y68.326
X1.778Y65.786
X1.778Y58.166
X1.778Y55.626
X1.778Y53.086
X1.778Y50.546
X1.778Y48.006
X1.778Y45.466
X1.778Y42.926
X4.318Y73.406
X4.318Y70.866
X4.318Y68.326
X4.318Y65.786
X4.318Y58.166
X4.318Y55.626
X4.318Y53.086
X4.318Y50.546
X4.318Y48.006
X4.318Y45.466
X4.318Y42.926
X8.128Y73.406
X8.128Y70.866
X8.128Y68.326
X8.128Y65.786
X9.144Y39.116
X10.414Y32.004
X10.414Y29.21
X10.668Y18.288
X10.668Y15.748
X11.684Y39.116
X11.684Y10.414
X11.684Y1.778
X12.954Y32.004
X12.954Y29.21
X13.208Y18.288
X13.208Y15.748
X14.224Y39.116
X14.478Y25.146
X14.478Y22.606
X15.494Y32.004
X15.748Y18.288
X15.748Y15.748
X16.764Y39.116
X17.018Y25.146
X17.018Y22.606
X18.034Y32.004
X18.288Y70.612
X18.288Y18.288
X18.288Y15.748
X19.304Y39.116
X19.558Y25.146
X19.558Y22.606
X20.574Y32.004
X20.828Y70.612
X20.828Y18.288
X20.828Y15.748
X21.844Y39.116
X23.114Y32.004
X23.368Y70.612
X23.368Y18.288
X23.368Y15.748
X24.384Y39.116
X25.654Y32.004
X25.908Y70.612
X25.908Y18.288
X25.908Y15.748
X27.178Y10.414
X27.178Y1.778
X28.448Y18.288
X28.448Y15.748
T2
X3.048Y16.002
X34.544Y66.802
T1
G00X3.048Y6.08
M15
G01X3.048Y4.08
M16
G05
G00X5.048Y9.78
M15
G01X7.048Y9.78
M16
G05
G00X9.048Y6.08
M15
G01X9.048Y4.08
M16
G05
G00X29.59Y4.032
M15
G01X29.59Y6.032
M16
G05
G00X33.29Y8.032
M15
G01X35.29Y8.032
M16
G05
G00X33.29Y2.032
M15
G01X35.29Y2.032
M16
G05
M30
