M48
; DRILL file {KiCad (5.1.7)-1} date 11/11/20 21:30:19
; FORMAT={-:-/ absolute / metric / decimal}
; #@! TF.CreationDate,2020-11-11T21:30:19-07:00
; #@! TF.GenerationSoftware,Kicad,Pcbnew,(5.1.7)-1
; #@! TF.FileFunction,Plated,1,2,PTH
FMAT,2
METRIC
T1C0.900
T2C1.000
T3C1.100
T4C2.200
%
G90
G05
T1
X31.496Y4.572
X36.576Y4.572
T2
X1.778Y61.468
X1.778Y58.928
X1.778Y56.388
X4.318Y61.468
X4.318Y58.928
X4.318Y56.388
X10.668Y3.81
X13.208Y3.81
X15.748Y3.81
X32.258Y13.208
X32.258Y10.668
X34.798Y13.208
X34.798Y10.668
X37.338Y13.208
X37.338Y10.668
X17.78Y58.674
X20.32Y58.674
X22.86Y58.674
X25.4Y58.674
X9.144Y52.324
X9.144Y49.784
X9.144Y47.244
X9.144Y44.704
X9.144Y42.164
X9.144Y39.624
X9.144Y37.084
X9.144Y34.544
X9.144Y32.004
X9.144Y29.464
X34.798Y48.768
X34.798Y46.228
X34.798Y43.688
X34.798Y41.148
X34.798Y38.608
X34.798Y36.068
X34.798Y33.528
X34.798Y30.988
X34.798Y28.448
X9.906Y20.066
X12.446Y20.066
X14.986Y20.066
X17.526Y20.066
X20.066Y20.066
X22.606Y20.066
X25.146Y20.066
X1.778Y25.908
X1.778Y23.368
X1.778Y20.828
X4.318Y25.908
X4.318Y23.368
X4.318Y20.828
X14.478Y13.208
X14.478Y10.668
X17.018Y13.208
X17.018Y10.668
X19.558Y13.208
X19.558Y10.668
X10.668Y6.35
X13.208Y6.35
X15.748Y6.35
X18.288Y6.35
X20.828Y6.35
X23.368Y6.35
X25.908Y6.35
X28.448Y6.35
T3
X31.496Y60.96
X36.096Y60.96
T4
X23.368Y11.938
X30.48Y49.784
X3.048Y6.604
X34.544Y54.864
T0
M30
