%TF.GenerationSoftware,KiCad,Pcbnew,(5.1.7)-1*%
%TF.CreationDate,2023-12-15T12:51:46-07:00*%
%TF.ProjectId,AMPE32T30,414d5045-3332-4543-9330-2e6b69636164,rev?*%
%TF.SameCoordinates,PX76efc10PY5962530*%
%TF.FileFunction,Paste,Top*%
%TF.FilePolarity,Positive*%
%FSLAX46Y46*%
G04 Gerber Fmt 4.6, Leading zero omitted, Abs format (unit mm)*
G04 Created by KiCad (PCBNEW (5.1.7)-1) date 2023-12-15 12:51:46*
%MOMM*%
%LPD*%
G01*
G04 APERTURE LIST*
G04 APERTURE END LIST*
%TO.C,R4*%
G36*
G01*
X24834001Y2718000D02*
X23933999Y2718000D01*
G75*
G02*
X23684000Y2967999I0J249999D01*
G01*
X23684000Y3668001D01*
G75*
G02*
X23933999Y3918000I249999J0D01*
G01*
X24834001Y3918000D01*
G75*
G02*
X25084000Y3668001I0J-249999D01*
G01*
X25084000Y2967999D01*
G75*
G02*
X24834001Y2718000I-249999J0D01*
G01*
G37*
G36*
G01*
X24834001Y4718000D02*
X23933999Y4718000D01*
G75*
G02*
X23684000Y4967999I0J249999D01*
G01*
X23684000Y5668001D01*
G75*
G02*
X23933999Y5918000I249999J0D01*
G01*
X24834001Y5918000D01*
G75*
G02*
X25084000Y5668001I0J-249999D01*
G01*
X25084000Y4967999D01*
G75*
G02*
X24834001Y4718000I-249999J0D01*
G01*
G37*
%TD*%
%TO.C,R5*%
G36*
G01*
X21532001Y4718000D02*
X20631999Y4718000D01*
G75*
G02*
X20382000Y4967999I0J249999D01*
G01*
X20382000Y5668001D01*
G75*
G02*
X20631999Y5918000I249999J0D01*
G01*
X21532001Y5918000D01*
G75*
G02*
X21782000Y5668001I0J-249999D01*
G01*
X21782000Y4967999D01*
G75*
G02*
X21532001Y4718000I-249999J0D01*
G01*
G37*
G36*
G01*
X21532001Y2718000D02*
X20631999Y2718000D01*
G75*
G02*
X20382000Y2967999I0J249999D01*
G01*
X20382000Y3668001D01*
G75*
G02*
X20631999Y3918000I249999J0D01*
G01*
X21532001Y3918000D01*
G75*
G02*
X21782000Y3668001I0J-249999D01*
G01*
X21782000Y2967999D01*
G75*
G02*
X21532001Y2718000I-249999J0D01*
G01*
G37*
%TD*%
%TO.C,R3*%
G36*
G01*
X28810000Y26866001D02*
X28810000Y25965999D01*
G75*
G02*
X28560001Y25716000I-249999J0D01*
G01*
X27859999Y25716000D01*
G75*
G02*
X27610000Y25965999I0J249999D01*
G01*
X27610000Y26866001D01*
G75*
G02*
X27859999Y27116000I249999J0D01*
G01*
X28560001Y27116000D01*
G75*
G02*
X28810000Y26866001I0J-249999D01*
G01*
G37*
G36*
G01*
X30810000Y26866001D02*
X30810000Y25965999D01*
G75*
G02*
X30560001Y25716000I-249999J0D01*
G01*
X29859999Y25716000D01*
G75*
G02*
X29610000Y25965999I0J249999D01*
G01*
X29610000Y26866001D01*
G75*
G02*
X29859999Y27116000I249999J0D01*
G01*
X30560001Y27116000D01*
G75*
G02*
X30810000Y26866001I0J-249999D01*
G01*
G37*
%TD*%
%TO.C,R2*%
G36*
G01*
X14928001Y65678000D02*
X14027999Y65678000D01*
G75*
G02*
X13778000Y65927999I0J249999D01*
G01*
X13778000Y66628001D01*
G75*
G02*
X14027999Y66878000I249999J0D01*
G01*
X14928001Y66878000D01*
G75*
G02*
X15178000Y66628001I0J-249999D01*
G01*
X15178000Y65927999D01*
G75*
G02*
X14928001Y65678000I-249999J0D01*
G01*
G37*
G36*
G01*
X14928001Y63678000D02*
X14027999Y63678000D01*
G75*
G02*
X13778000Y63927999I0J249999D01*
G01*
X13778000Y64628001D01*
G75*
G02*
X14027999Y64878000I249999J0D01*
G01*
X14928001Y64878000D01*
G75*
G02*
X15178000Y64628001I0J-249999D01*
G01*
X15178000Y63927999D01*
G75*
G02*
X14928001Y63678000I-249999J0D01*
G01*
G37*
%TD*%
%TO.C,R1*%
G36*
G01*
X14928001Y70504000D02*
X14027999Y70504000D01*
G75*
G02*
X13778000Y70753999I0J249999D01*
G01*
X13778000Y71454001D01*
G75*
G02*
X14027999Y71704000I249999J0D01*
G01*
X14928001Y71704000D01*
G75*
G02*
X15178000Y71454001I0J-249999D01*
G01*
X15178000Y70753999D01*
G75*
G02*
X14928001Y70504000I-249999J0D01*
G01*
G37*
G36*
G01*
X14928001Y68504000D02*
X14027999Y68504000D01*
G75*
G02*
X13778000Y68753999I0J249999D01*
G01*
X13778000Y69454001D01*
G75*
G02*
X14027999Y69704000I249999J0D01*
G01*
X14928001Y69704000D01*
G75*
G02*
X15178000Y69454001I0J-249999D01*
G01*
X15178000Y68753999D01*
G75*
G02*
X14928001Y68504000I-249999J0D01*
G01*
G37*
%TD*%
M02*
