M48
; DRILL file {KiCad (5.1.7)-1} date 12/15/23 12:51:52
; FORMAT={-:-/ absolute / metric / decimal}
; #@! TF.CreationDate,2023-12-15T12:51:52-07:00
; #@! TF.GenerationSoftware,Kicad,Pcbnew,(5.1.7)-1
; #@! TF.FileFunction,Plated,1,2,PTH
FMAT,2
METRIC
T1C0.900
T2C1.000
T3C1.100
T4C2.200
%
G90
G05
T1
X31.496Y13.97
X36.576Y13.97
T2
X1.778Y73.406
X1.778Y70.866
X1.778Y68.326
X4.318Y73.406
X4.318Y70.866
X4.318Y68.326
X14.478Y25.146
X14.478Y22.606
X17.018Y25.146
X17.018Y22.606
X19.558Y25.146
X19.558Y22.606
X17.78Y70.612
X20.32Y70.612
X22.86Y70.612
X25.4Y70.612
X9.144Y64.262
X9.144Y61.722
X9.144Y59.182
X9.144Y56.642
X9.144Y54.102
X9.144Y51.562
X9.144Y49.022
X9.144Y46.482
X9.144Y43.942
X9.144Y41.402
X37.338Y25.146
X37.338Y22.606
X11.176Y10.414
X1.778Y37.846
X1.778Y35.306
X1.778Y32.766
X1.778Y30.226
X1.778Y27.686
X1.778Y25.146
X4.318Y37.846
X4.318Y35.306
X4.318Y32.766
X4.318Y30.226
X4.318Y27.686
X4.318Y25.146
X27.432Y10.414
X10.668Y18.288
X10.668Y15.748
X13.208Y18.288
X13.208Y15.748
X15.748Y18.288
X15.748Y15.748
X18.288Y18.288
X18.288Y15.748
X20.828Y18.288
X20.828Y15.748
X23.368Y18.288
X23.368Y15.748
X25.908Y18.288
X25.908Y15.748
X28.448Y18.288
X28.448Y15.748
X27.686Y1.778
X34.76Y60.706
X34.76Y58.166
X34.76Y55.626
X34.76Y53.086
X34.76Y50.546
X34.76Y48.006
X34.76Y45.466
X34.76Y42.926
X34.76Y40.386
X34.76Y37.846
X37.3Y60.706
X37.3Y58.166
X37.3Y55.626
X37.3Y53.086
X37.3Y50.546
X37.3Y48.006
X37.3Y45.466
X37.3Y42.926
X37.3Y40.386
X37.3Y37.846
X11.176Y1.778
X9.906Y32.004
X12.446Y32.004
X14.986Y32.004
X17.526Y32.004
X20.066Y32.004
X22.606Y32.004
X25.146Y32.004
T3
X9.144Y28.448
X12.474Y28.448
X2.54Y14.506
X2.54Y11.176
X31.496Y72.898
X36.096Y72.898
T4
X34.544Y66.802
X3.048Y18.542
T2
G00X2.89Y6.08
M15
G01X2.89Y4.08
M16
G05
G00X4.89Y9.78
M15
G01X6.89Y9.78
M16
G05
G00X8.89Y6.08
M15
G01X8.89Y4.08
M16
G05
G00X29.59Y3.874
M15
G01X29.59Y5.874
M16
G05
G00X33.29Y7.874
M15
G01X35.29Y7.874
M16
G05
G00X33.29Y1.874
M15
G01X35.29Y1.874
M16
G05
T0
M30
