%TF.GenerationSoftware,KiCad,Pcbnew,(5.1.7)-1*%
%TF.CreationDate,2023-12-15T12:51:46-07:00*%
%TF.ProjectId,AMPE32T30,414d5045-3332-4543-9330-2e6b69636164,rev?*%
%TF.SameCoordinates,PX76efc10PY5962530*%
%TF.FileFunction,Legend,Top*%
%TF.FilePolarity,Positive*%
%FSLAX46Y46*%
G04 Gerber Fmt 4.6, Leading zero omitted, Abs format (unit mm)*
G04 Created by KiCad (PCBNEW (5.1.7)-1) date 2023-12-15 12:51:46*
%MOMM*%
%LPD*%
G01*
G04 APERTURE LIST*
%ADD10C,0.120000*%
%ADD11C,0.150000*%
G04 APERTURE END LIST*
D10*
%TO.C,R4*%
X25119000Y4090936D02*
X25119000Y4545064D01*
X23649000Y4090936D02*
X23649000Y4545064D01*
%TO.C,R5*%
X20347000Y4090936D02*
X20347000Y4545064D01*
X21817000Y4090936D02*
X21817000Y4545064D01*
%TO.C,REF\u002A\u002A*%
X26730000Y71942000D02*
X26730000Y70612000D01*
X25400000Y71942000D02*
X26730000Y71942000D01*
X24130000Y71942000D02*
X24130000Y69282000D01*
X24130000Y69282000D02*
X16450000Y69282000D01*
X24130000Y71942000D02*
X16450000Y71942000D01*
X16450000Y71942000D02*
X16450000Y69282000D01*
%TO.C,J16*%
X27686000Y3108000D02*
X29016000Y3108000D01*
X29016000Y3108000D02*
X29016000Y1778000D01*
X29016000Y568000D02*
X29016000Y448000D01*
X26356000Y568000D02*
X26356000Y448000D01*
X26356000Y448000D02*
X29016000Y448000D01*
%TO.C,J15*%
X11176000Y3108000D02*
X12506000Y3108000D01*
X12506000Y3108000D02*
X12506000Y1778000D01*
X12506000Y568000D02*
X12506000Y448000D01*
X9846000Y568000D02*
X9846000Y448000D01*
X9846000Y448000D02*
X12506000Y448000D01*
%TO.C,J14*%
X27432000Y11744000D02*
X28762000Y11744000D01*
X28762000Y11744000D02*
X28762000Y10414000D01*
X28762000Y9204000D02*
X28762000Y9084000D01*
X26102000Y9204000D02*
X26102000Y9084000D01*
X26102000Y9084000D02*
X28762000Y9084000D01*
%TO.C,J13*%
X11176000Y11744000D02*
X12506000Y11744000D01*
X12506000Y11744000D02*
X12506000Y10414000D01*
X12506000Y9204000D02*
X12506000Y9084000D01*
X9846000Y9204000D02*
X9846000Y9084000D01*
X9846000Y9084000D02*
X12506000Y9084000D01*
%TO.C,J1*%
X4318000Y74736000D02*
X5648000Y74736000D01*
X5648000Y74736000D02*
X5648000Y73406000D01*
X3048000Y74736000D02*
X3048000Y72136000D01*
X3048000Y72136000D02*
X5648000Y72136000D01*
X5648000Y72136000D02*
X5648000Y66996000D01*
X448000Y66996000D02*
X5648000Y66996000D01*
X448000Y74736000D02*
X448000Y66996000D01*
X448000Y74736000D02*
X3048000Y74736000D01*
%TO.C,J6*%
X33430000Y62036000D02*
X36030000Y62036000D01*
X33430000Y62036000D02*
X33430000Y36516000D01*
X33430000Y36516000D02*
X38630000Y36516000D01*
X38630000Y59436000D02*
X38630000Y36516000D01*
X36030000Y59436000D02*
X38630000Y59436000D01*
X36030000Y62036000D02*
X36030000Y59436000D01*
X38630000Y62036000D02*
X38630000Y60706000D01*
X37300000Y62036000D02*
X38630000Y62036000D01*
%TO.C,J3*%
X38668000Y23876000D02*
X36008000Y23876000D01*
X38668000Y23876000D02*
X38668000Y26476000D01*
X38668000Y26476000D02*
X36008000Y26476000D01*
X36008000Y23876000D02*
X36008000Y26476000D01*
X36008000Y21276000D02*
X36008000Y22606000D01*
X37338000Y21276000D02*
X36008000Y21276000D01*
%TO.C,J7*%
X448000Y39176000D02*
X3048000Y39176000D01*
X448000Y39176000D02*
X448000Y23816000D01*
X448000Y23816000D02*
X5648000Y23816000D01*
X5648000Y36576000D02*
X5648000Y23816000D01*
X3048000Y36576000D02*
X5648000Y36576000D01*
X3048000Y39176000D02*
X3048000Y36576000D01*
X5648000Y39176000D02*
X5648000Y37846000D01*
X4318000Y39176000D02*
X5648000Y39176000D01*
%TO.C,J11*%
X9144000Y65592000D02*
X10474000Y65592000D01*
X10474000Y65592000D02*
X10474000Y64262000D01*
X10474000Y62992000D02*
X10474000Y40072000D01*
X7814000Y40072000D02*
X10474000Y40072000D01*
X7814000Y62992000D02*
X7814000Y40072000D01*
X7814000Y62992000D02*
X10474000Y62992000D01*
%TO.C,BZ1*%
X38688000Y13970000D02*
G75*
G03*
X38688000Y13970000I-4620000J0D01*
G01*
%TO.C,J2*%
X20888000Y26476000D02*
X20888000Y25146000D01*
X19558000Y26476000D02*
X20888000Y26476000D01*
X20888000Y23876000D02*
X20888000Y21276000D01*
X18288000Y23876000D02*
X20888000Y23876000D01*
X18288000Y26476000D02*
X18288000Y23876000D01*
X20888000Y21276000D02*
X13148000Y21276000D01*
X18288000Y26476000D02*
X13148000Y26476000D01*
X13148000Y26476000D02*
X13148000Y21276000D01*
%TO.C,R3*%
X29437064Y27151000D02*
X28982936Y27151000D01*
X29437064Y25681000D02*
X28982936Y25681000D01*
%TO.C,R2*%
X15213000Y65050936D02*
X15213000Y65505064D01*
X13743000Y65050936D02*
X13743000Y65505064D01*
%TO.C,R1*%
X15213000Y69876936D02*
X15213000Y70331064D01*
X13743000Y69876936D02*
X13743000Y70331064D01*
%TO.C,J4*%
X8576000Y32004000D02*
X8576000Y33334000D01*
X8576000Y33334000D02*
X9906000Y33334000D01*
X11176000Y33334000D02*
X26476000Y33334000D01*
X26476000Y30674000D02*
X26476000Y33334000D01*
X11176000Y30674000D02*
X26476000Y30674000D01*
X11176000Y30674000D02*
X11176000Y33334000D01*
%TO.C,J5*%
X9338000Y18288000D02*
X9338000Y19618000D01*
X9338000Y19618000D02*
X10668000Y19618000D01*
X9338000Y17018000D02*
X11938000Y17018000D01*
X11938000Y17018000D02*
X11938000Y19618000D01*
X11938000Y19618000D02*
X29778000Y19618000D01*
X29778000Y14418000D02*
X29778000Y19618000D01*
X9338000Y14418000D02*
X29778000Y14418000D01*
X9338000Y14418000D02*
X9338000Y17018000D01*
%TD*%
%TO.C,BZ1*%
D11*
X37187047Y13798572D02*
X37948952Y13798572D01*
X37568000Y13417620D02*
X37568000Y14179524D01*
%TD*%
M02*
