%TF.GenerationSoftware,KiCad,Pcbnew,(5.1.7)-1*%
%TF.CreationDate,2023-12-15T12:51:46-07:00*%
%TF.ProjectId,AMPE32T30,414d5045-3332-4543-9330-2e6b69636164,rev?*%
%TF.SameCoordinates,PX76efc10PY5962530*%
%TF.FileFunction,Legend,Bot*%
%TF.FilePolarity,Positive*%
%FSLAX46Y46*%
G04 Gerber Fmt 4.6, Leading zero omitted, Abs format (unit mm)*
G04 Created by KiCad (PCBNEW (5.1.7)-1) date 2023-12-15 12:51:46*
%MOMM*%
%LPD*%
G01*
G04 APERTURE LIST*
%ADD10C,0.150000*%
%ADD11C,0.120000*%
G04 APERTURE END LIST*
D10*
X9245238Y15758096D02*
X8788095Y15758096D01*
X9016666Y14958096D02*
X9016666Y15758096D01*
X8102380Y15720000D02*
X8178571Y15758096D01*
X8292857Y15758096D01*
X8407142Y15720000D01*
X8483333Y15643810D01*
X8521428Y15567620D01*
X8559523Y15415239D01*
X8559523Y15300953D01*
X8521428Y15148572D01*
X8483333Y15072381D01*
X8407142Y14996191D01*
X8292857Y14958096D01*
X8216666Y14958096D01*
X8102380Y14996191D01*
X8064285Y15034286D01*
X8064285Y15300953D01*
X8216666Y15300953D01*
X7721428Y14958096D02*
X7721428Y15491429D01*
X7721428Y15758096D02*
X7759523Y15720000D01*
X7721428Y15681905D01*
X7683333Y15720000D01*
X7721428Y15758096D01*
X7721428Y15681905D01*
X7454761Y15491429D02*
X7150000Y15491429D01*
X7340476Y15758096D02*
X7340476Y15072381D01*
X7302380Y14996191D01*
X7226190Y14958096D01*
X7150000Y14958096D01*
X6883333Y15262858D02*
X6273809Y15262858D01*
X6007142Y15758096D02*
X5550000Y15758096D01*
X5778571Y14958096D02*
X5778571Y15758096D01*
X4978571Y14996191D02*
X5054761Y14958096D01*
X5207142Y14958096D01*
X5283333Y14996191D01*
X5321428Y15072381D01*
X5321428Y15377143D01*
X5283333Y15453334D01*
X5207142Y15491429D01*
X5054761Y15491429D01*
X4978571Y15453334D01*
X4940476Y15377143D01*
X4940476Y15300953D01*
X5321428Y15224762D01*
X4254761Y14996191D02*
X4330952Y14958096D01*
X4483333Y14958096D01*
X4559523Y14996191D01*
X4597619Y15034286D01*
X4635714Y15110477D01*
X4635714Y15339048D01*
X4597619Y15415239D01*
X4559523Y15453334D01*
X4483333Y15491429D01*
X4330952Y15491429D01*
X4254761Y15453334D01*
X3911904Y14958096D02*
X3911904Y15758096D01*
X3569047Y14958096D02*
X3569047Y15377143D01*
X3607142Y15453334D01*
X3683333Y15491429D01*
X3797619Y15491429D01*
X3873809Y15453334D01*
X3911904Y15415239D01*
X8388095Y13646191D02*
X8273809Y13608096D01*
X8083333Y13608096D01*
X8007142Y13646191D01*
X7969047Y13684286D01*
X7930952Y13760477D01*
X7930952Y13836667D01*
X7969047Y13912858D01*
X8007142Y13950953D01*
X8083333Y13989048D01*
X8235714Y14027143D01*
X8311904Y14065239D01*
X8350000Y14103334D01*
X8388095Y14179524D01*
X8388095Y14255715D01*
X8350000Y14331905D01*
X8311904Y14370000D01*
X8235714Y14408096D01*
X8045238Y14408096D01*
X7930952Y14370000D01*
X7588095Y13608096D02*
X7588095Y14408096D01*
X7054761Y14408096D02*
X6902380Y14408096D01*
X6826190Y14370000D01*
X6750000Y14293810D01*
X6711904Y14141429D01*
X6711904Y13874762D01*
X6750000Y13722381D01*
X6826190Y13646191D01*
X6902380Y13608096D01*
X7054761Y13608096D01*
X7130952Y13646191D01*
X7207142Y13722381D01*
X7245238Y13874762D01*
X7245238Y14141429D01*
X7207142Y14293810D01*
X7130952Y14370000D01*
X7054761Y14408096D01*
X6369047Y13608096D02*
X6369047Y14408096D01*
X6178571Y14408096D01*
X6064285Y14370000D01*
X5988095Y14293810D01*
X5950000Y14217620D01*
X5911904Y14065239D01*
X5911904Y13950953D01*
X5950000Y13798572D01*
X5988095Y13722381D01*
X6064285Y13646191D01*
X6178571Y13608096D01*
X6369047Y13608096D01*
X5569047Y13608096D02*
X5569047Y14408096D01*
X5111904Y13608096D02*
X5454761Y14065239D01*
X5111904Y14408096D02*
X5569047Y13950953D01*
X4502380Y14027143D02*
X4388095Y13989048D01*
X4350000Y13950953D01*
X4311904Y13874762D01*
X4311904Y13760477D01*
X4350000Y13684286D01*
X4388095Y13646191D01*
X4464285Y13608096D01*
X4769047Y13608096D01*
X4769047Y14408096D01*
X4502380Y14408096D01*
X4426190Y14370000D01*
X4388095Y14331905D01*
X4350000Y14255715D01*
X4350000Y14179524D01*
X4388095Y14103334D01*
X4426190Y14065239D01*
X4502380Y14027143D01*
X4769047Y14027143D01*
X8045238Y12791429D02*
X7854761Y12258096D01*
X7664285Y12791429D01*
X7397619Y12981905D02*
X7359523Y13020000D01*
X7283333Y13058096D01*
X7092857Y13058096D01*
X7016666Y13020000D01*
X6978571Y12981905D01*
X6940476Y12905715D01*
X6940476Y12829524D01*
X6978571Y12715239D01*
X7435714Y12258096D01*
X6940476Y12258096D01*
X6673809Y13058096D02*
X6178571Y13058096D01*
X6445238Y12753334D01*
X6330952Y12753334D01*
X6254761Y12715239D01*
X6216666Y12677143D01*
X6178571Y12600953D01*
X6178571Y12410477D01*
X6216666Y12334286D01*
X6254761Y12296191D01*
X6330952Y12258096D01*
X6559523Y12258096D01*
X6635714Y12296191D01*
X6673809Y12334286D01*
X5378571Y12334286D02*
X5416666Y12296191D01*
X5530952Y12258096D01*
X5607142Y12258096D01*
X5721428Y12296191D01*
X5797619Y12372381D01*
X5835714Y12448572D01*
X5873809Y12600953D01*
X5873809Y12715239D01*
X5835714Y12867620D01*
X5797619Y12943810D01*
X5721428Y13020000D01*
X5607142Y13058096D01*
X5530952Y13058096D01*
X5416666Y13020000D01*
X5378571Y12981905D01*
X4769047Y12677143D02*
X5035714Y12677143D01*
X5035714Y12258096D02*
X5035714Y13058096D01*
X4654761Y13058096D01*
D11*
%TO.C,J10*%
X38890000Y8774000D02*
X36290000Y8774000D01*
X38890000Y-5926000D02*
X38890000Y8774000D01*
X29690000Y8774000D02*
X29690000Y6874000D01*
X32390000Y8774000D02*
X29690000Y8774000D01*
X29690000Y-5926000D02*
X38890000Y-5926000D01*
X29690000Y2874000D02*
X29690000Y-5926000D01*
X39090000Y7924000D02*
X39090000Y8974000D01*
X38040000Y8974000D02*
X39090000Y8974000D01*
%TO.C,J8*%
X9790000Y480000D02*
X9790000Y3080000D01*
X-4910000Y480000D02*
X9790000Y480000D01*
X9790000Y9680000D02*
X7890000Y9680000D01*
X9790000Y6980000D02*
X9790000Y9680000D01*
X-4910000Y9680000D02*
X-4910000Y480000D01*
X3890000Y9680000D02*
X-4910000Y9680000D01*
X8940000Y280000D02*
X9990000Y280000D01*
X9990000Y1330000D02*
X9990000Y280000D01*
%TD*%
M02*
