%TF.GenerationSoftware,KiCad,Pcbnew,(5.1.7)-1*%
%TF.CreationDate,2023-12-15T12:51:46-07:00*%
%TF.ProjectId,AMPE32T30,414d5045-3332-4543-9330-2e6b69636164,rev?*%
%TF.SameCoordinates,PX76efc10PY5962530*%
%TF.FileFunction,Other,Fab,Top*%
%FSLAX46Y46*%
G04 Gerber Fmt 4.6, Leading zero omitted, Abs format (unit mm)*
G04 Created by KiCad (PCBNEW (5.1.7)-1) date 2023-12-15 12:51:46*
%MOMM*%
%LPD*%
G01*
G04 APERTURE LIST*
%ADD10C,0.100000*%
%ADD11C,0.150000*%
G04 APERTURE END LIST*
D10*
%TO.C,R4*%
X25009000Y5318000D02*
X25009000Y3318000D01*
X23759000Y5318000D02*
X25009000Y5318000D01*
X23759000Y3318000D02*
X23759000Y5318000D01*
X25009000Y3318000D02*
X23759000Y3318000D01*
%TO.C,R5*%
X21707000Y3318000D02*
X20457000Y3318000D01*
X20457000Y3318000D02*
X20457000Y5318000D01*
X20457000Y5318000D02*
X21707000Y5318000D01*
X21707000Y5318000D02*
X21707000Y3318000D01*
%TO.C,REF\u002A\u002A*%
X26035000Y71882000D02*
X26670000Y71247000D01*
X16510000Y71882000D02*
X26035000Y71882000D01*
X16510000Y69342000D02*
X16510000Y71882000D01*
X26670000Y69342000D02*
X16510000Y69342000D01*
X26670000Y71247000D02*
X26670000Y69342000D01*
%TO.C,J17*%
X3590000Y14506000D02*
G75*
G03*
X3590000Y14506000I-1050000J0D01*
G01*
X3590000Y11176000D02*
G75*
G03*
X3590000Y11176000I-1050000J0D01*
G01*
%TO.C,J12*%
X13524000Y28448000D02*
G75*
G03*
X13524000Y28448000I-1050000J0D01*
G01*
X10194000Y28448000D02*
G75*
G03*
X10194000Y28448000I-1050000J0D01*
G01*
%TO.C,J16*%
X26416000Y508000D02*
X26416000Y3048000D01*
X28956000Y508000D02*
X26416000Y508000D01*
X28956000Y2413000D02*
X28956000Y508000D01*
X28321000Y3048000D02*
X28956000Y2413000D01*
X26416000Y3048000D02*
X28321000Y3048000D01*
%TO.C,J15*%
X9906000Y508000D02*
X9906000Y3048000D01*
X12446000Y508000D02*
X9906000Y508000D01*
X12446000Y2413000D02*
X12446000Y508000D01*
X11811000Y3048000D02*
X12446000Y2413000D01*
X9906000Y3048000D02*
X11811000Y3048000D01*
%TO.C,J14*%
X26162000Y9144000D02*
X26162000Y11684000D01*
X28702000Y9144000D02*
X26162000Y9144000D01*
X28702000Y11049000D02*
X28702000Y9144000D01*
X28067000Y11684000D02*
X28702000Y11049000D01*
X26162000Y11684000D02*
X28067000Y11684000D01*
%TO.C,J13*%
X9906000Y9144000D02*
X9906000Y11684000D01*
X12446000Y9144000D02*
X9906000Y9144000D01*
X12446000Y11049000D02*
X12446000Y9144000D01*
X11811000Y11684000D02*
X12446000Y11049000D01*
X9906000Y11684000D02*
X11811000Y11684000D01*
%TO.C,J1*%
X508000Y67056000D02*
X508000Y74676000D01*
X5588000Y67056000D02*
X508000Y67056000D01*
X5588000Y73676000D02*
X5588000Y67056000D01*
X4588000Y74676000D02*
X5588000Y73676000D01*
X508000Y74676000D02*
X4588000Y74676000D01*
%TO.C,J6*%
X33490000Y61976000D02*
X37570000Y61976000D01*
X37570000Y61976000D02*
X38570000Y60976000D01*
X38570000Y60976000D02*
X38570000Y36576000D01*
X38570000Y36576000D02*
X33490000Y36576000D01*
X33490000Y36576000D02*
X33490000Y61976000D01*
%TO.C,J3*%
X38608000Y21336000D02*
X36703000Y21336000D01*
X36703000Y21336000D02*
X36068000Y21971000D01*
X36068000Y21971000D02*
X36068000Y26416000D01*
X36068000Y26416000D02*
X38608000Y26416000D01*
X38608000Y26416000D02*
X38608000Y21336000D01*
%TO.C,J7*%
X508000Y39116000D02*
X4588000Y39116000D01*
X4588000Y39116000D02*
X5588000Y38116000D01*
X5588000Y38116000D02*
X5588000Y23876000D01*
X5588000Y23876000D02*
X508000Y23876000D01*
X508000Y23876000D02*
X508000Y39116000D01*
%TO.C,J11*%
X7874000Y40132000D02*
X7874000Y65532000D01*
X10414000Y40132000D02*
X7874000Y40132000D01*
X10414000Y64897000D02*
X10414000Y40132000D01*
X9779000Y65532000D02*
X10414000Y64897000D01*
X7874000Y65532000D02*
X9779000Y65532000D01*
%TO.C,J9*%
X37146000Y72898000D02*
G75*
G03*
X37146000Y72898000I-1050000J0D01*
G01*
X32546000Y72898000D02*
G75*
G03*
X32546000Y72898000I-1050000J0D01*
G01*
%TO.C,BZ1*%
X38568000Y13970000D02*
G75*
G03*
X38568000Y13970000I-4500000J0D01*
G01*
%TO.C,J2*%
X19558000Y26416000D02*
X20828000Y25146000D01*
X13208000Y26416000D02*
X19558000Y26416000D01*
X13208000Y21336000D02*
X13208000Y26416000D01*
X20828000Y21336000D02*
X13208000Y21336000D01*
X20828000Y25146000D02*
X20828000Y21336000D01*
%TO.C,R3*%
X28210000Y27041000D02*
X30210000Y27041000D01*
X28210000Y25791000D02*
X28210000Y27041000D01*
X30210000Y25791000D02*
X28210000Y25791000D01*
X30210000Y27041000D02*
X30210000Y25791000D01*
%TO.C,R2*%
X15103000Y66278000D02*
X15103000Y64278000D01*
X13853000Y66278000D02*
X15103000Y66278000D01*
X13853000Y64278000D02*
X13853000Y66278000D01*
X15103000Y64278000D02*
X13853000Y64278000D01*
%TO.C,R1*%
X15103000Y71104000D02*
X15103000Y69104000D01*
X13853000Y71104000D02*
X15103000Y71104000D01*
X13853000Y69104000D02*
X13853000Y71104000D01*
X15103000Y69104000D02*
X13853000Y69104000D01*
%TO.C,J4*%
X26416000Y30734000D02*
X8636000Y30734000D01*
X26416000Y33274000D02*
X26416000Y30734000D01*
X9271000Y33274000D02*
X26416000Y33274000D01*
X8636000Y32639000D02*
X9271000Y33274000D01*
X8636000Y30734000D02*
X8636000Y32639000D01*
%TO.C,J5*%
X29718000Y14478000D02*
X9398000Y14478000D01*
X29718000Y19558000D02*
X29718000Y14478000D01*
X10398000Y19558000D02*
X29718000Y19558000D01*
X9398000Y18558000D02*
X10398000Y19558000D01*
X9398000Y14478000D02*
X9398000Y18558000D01*
%TD*%
%TO.C,BZ1*%
D11*
X37187047Y13798572D02*
X37948952Y13798572D01*
X37568000Y13417620D02*
X37568000Y14179524D01*
%TD*%
M02*
